<svg id="American_Express-Logo.wine" xmlns="http://www.w3.org/2000/svg" width="37.454" height="37.361" viewBox="0 0 37.454 37.361">
  <path id="Path_53943" data-name="Path 53943" d="M0,0H37.361V20.169l-1.849,2.889,1.849,2.572V37.361H0V18.348l1.156-1.329L0,15.748Z" transform="translate(0 0)" fill="#6f768a"/>
  <path id="Path_53944" data-name="Path 53944" d="M7.253,346.829v-5.866h6.211l.666.869.688-.869H37.361v5.461a2.6,2.6,0,0,1-1.271.4H23.607l-.751-.925v.925H20.394V345.25a2.066,2.066,0,0,1-1.063.22h-.838v1.358H14.765l-.665-.887-.676.887ZM0,336.542l1.4-3.265H3.823l.795,1.829v-1.829H7.628L8.1,334.6l.459-1.322H22.076v.665a2.916,2.916,0,0,1,1.878-.665l4.385.015.781,1.8v-1.82h2.52l.693,1.037v-1.037h2.543v5.866H32.333l-.665-1.04v1.04h-3.7l-.372-.925h-1l-.366.925h-2.51a2.482,2.482,0,0,1-1.647-.651v.651H18.29l-.751-.925v.925H3.464l-.372-.925H2.1l-.369.925H0Z" transform="translate(0 -320.795)" fill="#d3d8e6"/>
  <path id="Path_53945" data-name="Path 53945" d="M2.082,352.565.193,356.957h1.23l.349-.879H3.8l.347.879H5.4l-1.887-4.392Zm.7,1.022.618,1.537H2.161Zm2.75,3.369v-4.392l1.748.006L8.3,355.4l.992-2.838h1.734v4.392h-1.1V353.72l-1.164,3.236H7.8L6.629,353.72v3.236Zm6.241,0v-4.392h3.583v.982H12.882v.751H15.3v.925H12.882V356h2.473v.954Zm4.219-4.391v4.392h1.1V355.4h.462l1.317,1.56H20.21l-1.445-1.618a1.337,1.337,0,0,0,1.2-1.349,1.421,1.421,0,0,0-1.535-1.425Zm1.1.982h1.255a.5.5,0,0,1,.52.462.5.5,0,0,1-.5.462H17.089Zm4.45,3.409H20.418v-4.392h1.121Zm2.658,0h-.242a1.935,1.935,0,0,1-1.882-2.178,2.012,2.012,0,0,1,2.182-2.214h1.214v1.04H24.211a1.056,1.056,0,0,0-1.025,1.185A1.075,1.075,0,0,0,24.371,356h.289Zm2.389-4.391L24.7,356.957h1.23l.349-.879H28.3l.347.879h1.257l-1.887-4.392Zm.7,1.022.618,1.537H26.666Zm2.749,3.369v-4.392h1.4l1.782,2.759v-2.759h1.1v4.392H32.96l-1.828-2.832v2.832ZM8.19,364.642V360.25h3.583v.982H9.3v.751h2.416v.925H9.3v.78h2.473v.953Zm17.557,0V360.25h3.583v.982H26.856v.751h2.4v.925h-2.4v.78h2.473v.953Zm-13.835,0,1.745-2.169L11.87,360.25h1.383l1.064,1.374,1.067-1.374h1.329l-1.763,2.2,1.748,2.2H15.316l-1.033-1.353-1.008,1.353Zm4.918-4.391v4.392h1.127v-1.387h1.156a1.519,1.519,0,0,0,1.719-1.528,1.445,1.445,0,0,0-1.577-1.477Zm1.127.993h1.217a.5.5,0,0,1,.542.506.507.507,0,0,1-.545.506H17.956Zm3.352-.994v4.392h1.1v-1.56h.462l1.317,1.56h1.342l-1.445-1.618a1.337,1.337,0,0,0,1.2-1.349,1.421,1.421,0,0,0-1.535-1.425Zm1.1.982h1.255a.5.5,0,0,1,.52.462.5.5,0,0,1-.5.462H22.406Zm7.432,3.41v-.953h2.2c.325,0,.466-.176.466-.368s-.14-.371-.466-.371h-.993a1.228,1.228,0,0,1-1.344-1.315c0-.7.44-1.383,1.723-1.383h2.138l-.462.988H31.248c-.353,0-.462.185-.462.363a.383.383,0,0,0,.4.383h1.04a1.2,1.2,0,0,1,1.38,1.26,1.317,1.317,0,0,1-1.432,1.4Zm4.03,0v-.953h2.2c.325,0,.466-.176.466-.368s-.14-.371-.466-.371h-.993a1.228,1.228,0,0,1-1.344-1.315c0-.7.44-1.383,1.723-1.383h2.138l-.462.988H35.278c-.353,0-.462.185-.462.363a.383.383,0,0,0,.4.383h1.04a1.2,1.2,0,0,1,1.38,1.26,1.317,1.317,0,0,1-1.432,1.4Z" transform="translate(-0.186 -339.359)" fill="#6f768a"/>
</svg>
