<svg xmlns="http://www.w3.org/2000/svg" width="53.745" height="41.801" viewBox="0 0 53.745 41.801">
  <g id="Group_19006" data-name="Group 19006" transform="translate(-86 -173.43)">
    <path id="Union_34" data-name="Union 34" d="M4.478,41.8A4.479,4.479,0,0,1,0,37.324V4.48A4.481,4.481,0,0,1,4.478,0H49.266a4.481,4.481,0,0,1,4.479,4.48V37.324A4.479,4.479,0,0,1,49.266,41.8ZM5.972,29.26v1.794a1.955,1.955,0,0,0,2.088,1.79H24.783a1.955,1.955,0,0,0,2.088-1.79V29.26c0-2.965-2.808-5.373-6.27-5.373h-.466a9.6,9.6,0,0,1-7.426,0h-.467C8.78,23.887,5.972,26.295,5.972,29.26Zm4.477-14.33a5.972,5.972,0,1,0,5.973-5.973A5.978,5.978,0,0,0,10.449,14.93Z" transform="translate(86 173.43)"/>
    <g id="rating_full_green" transform="translate(114.707 183.884)">
      <path id="Path_4394" data-name="Path 4394" d="M0,0H18.781V18.781H0Z" fill="none"/>
      <path id="Path_4395" data-name="Path 4395" d="M9.518,14.4,4,17.487l1.232-6.2L.587,6.989l6.281-.745L9.518.5l2.65,5.744,6.281.745L13.8,11.283l1.232,6.2Z" transform="translate(-0.128 -0.109)" fill="#ffc815"/>
    </g>
  </g>
</svg>
