<svg xmlns="http://www.w3.org/2000/svg" width="52.973" height="57.047" viewBox="0 0 52.973 57.047">
  <g id="Group_19005" data-name="Group 19005" transform="translate(-1065.617 -545.494)">
    <g id="Group_19005-2" data-name="Group 19005" transform="translate(1079.741 547.22)">
      <ellipse id="Ellipse_1390" data-name="Ellipse 1390" cx="6.052" cy="6.556" rx="6.052" ry="6.556" transform="translate(0 0)" fill="#ffc815"/>
      <ellipse id="Ellipse_1391" data-name="Ellipse 1391" cx="6.052" cy="6.556" rx="6.052" ry="6.556" transform="translate(12.104 0)" fill="#ffc815"/>
    </g>
    <g id="Icon_ionic-ios-gift" data-name="Icon ionic-ios-gift" transform="translate(1065.617 545.494)">
      <path id="Path_54000" data-name="Path 54000" d="M52.273,15.493H41.538a7.482,7.482,0,0,0,2.585-5.6,7.852,7.852,0,0,0-8.035-7.64,7.1,7.1,0,0,0-6.227,3.489A7.1,7.1,0,0,0,23.634,2.25,7.852,7.852,0,0,0,15.6,9.89a7.438,7.438,0,0,0,2.585,5.6H7.45a4.07,4.07,0,0,0-4.075,4.075v2.547a.511.511,0,0,0,.509.509H55.838a.511.511,0,0,0,.509-.509V19.568A4.07,4.07,0,0,0,52.273,15.493ZM36.088,5.815A4.186,4.186,0,0,1,40.379,9.89a4.186,4.186,0,0,1-4.291,4.075H31.8C31.8,7.853,33.72,5.815,36.088,5.815Zm-12.454,0c2.368,0,4.291,2.037,4.291,8.15H23.634A4.186,4.186,0,0,1,19.343,9.89,4.186,4.186,0,0,1,23.634,5.815Z" transform="translate(-3.375 -2.25)"/>
      <path id="Path_54001" data-name="Path 54001" d="M4.5,16.347V44.616a4.087,4.087,0,0,0,4.075,4.075H27.166V15.328H5.519A1.022,1.022,0,0,0,4.5,16.347Z" transform="translate(-2.463 8.357)"/>
      <path id="Path_54002" data-name="Path 54002" d="M40.632,15.328H18.984V48.691H37.576a4.087,4.087,0,0,0,4.075-4.075V16.347A1.022,1.022,0,0,0,40.632,15.328Z" transform="translate(9.285 8.357)"/>
    </g>
  </g>
</svg>
