<svg id="Klarna_Logo_black" xmlns="http://www.w3.org/2000/svg" width="68.79" height="15.356" viewBox="0 0 68.79 15.356">
  <path id="Path_53946" data-name="Path 53946" d="M33.817,0H30.43a8.669,8.669,0,0,1-3.493,6.987l-1.337,1,5.195,7.078h4.268L30.278,8.551A11.975,11.975,0,0,0,33.817,0Z" transform="translate(-21.712 0)" fill="#6f768a"/>
  <rect id="Rectangle_5107" data-name="Rectangle 5107" width="3.463" height="15.067" transform="translate(0 0)" fill="#6f768a"/>
  <rect id="Rectangle_5108" data-name="Rectangle 5108" width="3.266" height="15.067" transform="translate(14.353 0)" fill="#6f768a"/>
  <path id="Path_53947" data-name="Path 53947" d="M269.319,28.7a3.778,3.778,0,0,0-3.22,1.458v-1.17H263V39.408h3.144V33.94a2.194,2.194,0,0,1,2.339-2.354c1.367,0,2.157.82,2.157,2.339v5.5h3.114V32.786A4.13,4.13,0,0,0,269.319,28.7Z" transform="translate(-223.054 -24.341)" fill="#6f768a"/>
  <path id="Path_53948" data-name="Path 53948" d="M133,28.989v.668a5.424,5.424,0,0,0-3.1-.957,5.5,5.5,0,1,0,0,11,5.424,5.424,0,0,0,3.1-.957v.668h3.114V28.989Zm-2.84,7.883a2.677,2.677,0,1,1,2.825-2.673A2.752,2.752,0,0,1,130.157,36.872Z" transform="translate(-105.505 -24.341)" fill="#6f768a"/>
  <path id="Path_53949" data-name="Path 53949" d="M215.49,31.952V30.6H212.3V41.019h3.2v-4.86c0-1.64,1.777-2.521,3.007-2.521h.03V30.6A3.912,3.912,0,0,0,215.49,31.952Z" transform="translate(-180.054 -25.952)" fill="#6f768a"/>
  <path id="Path_53950" data-name="Path 53950" d="M349.6,28.989v.668a5.424,5.424,0,0,0-3.1-.957,5.5,5.5,0,1,0,0,11,5.424,5.424,0,0,0,3.1-.957v.668h3.114V28.989Zm-2.84,7.883a2.677,2.677,0,1,1,2.825-2.673A2.752,2.752,0,0,1,346.757,36.872Z" transform="translate(-289.206 -24.341)" fill="#6f768a"/>
  <g id="Group_18849" data-name="Group 18849" transform="translate(64.856 4.374)">
    <path id="Path_53951" data-name="Path 53951" d="M430.862,31.243a.241.241,0,0,0-.273-.243H430.3v.79h.137V31.5h.152l.122.289h.152l-.137-.319A.236.236,0,0,0,430.862,31.243Zm-.273.122h-.152v-.243h.152c.091,0,.137.046.137.122S430.695,31.365,430.589,31.365Z" transform="translate(-429.799 -30.666)" fill="#6f768a"/>
    <path id="Path_53952" data-name="Path 53952" d="M427.744,28.8a.745.745,0,0,0-.744.744.755.755,0,0,0,.744.744.744.744,0,0,0,0-1.488Zm0,1.352a.6.6,0,0,1-.592-.608.606.606,0,0,1,.592-.608.6.6,0,0,1,.592.608A.606.606,0,0,1,427.744,30.152Z" transform="translate(-427 -28.8)" fill="#6f768a"/>
  </g>
  <path id="Path_53953" data-name="Path 53953" d="M429.059,74.9a1.959,1.959,0,1,0,1.959,1.959A1.964,1.964,0,0,0,429.059,74.9Z" transform="translate(-362.229 -63.524)" fill="#6f768a"/>
</svg>
