<svg id="Group_18945" data-name="Group 18945" xmlns="http://www.w3.org/2000/svg" width="42.536" height="35.345" viewBox="0 0 42.536 35.345">
  <path id="XMLID_1775_" d="M55.389,664.2V662A1.286,1.286,0,0,0,54,660.615a1.438,1.438,0,0,0-1.243.622,1.283,1.283,0,0,0-1.171-.622,1.177,1.177,0,0,0-1.022.511v-.438H49.8V664.2h.766v-1.937c0-.622.328-.915.839-.915s.766.328.766.915V664.2h.766v-1.937a.81.81,0,0,1,.839-.915c.511,0,.766.328.766.915V664.2Zm11.366-3.508H65.512v-1.06h-.766v1.06h-.694v.694h.694v1.609c0,.8.328,1.277,1.2,1.277a2.06,2.06,0,0,0,.949-.255l-.221-.66a1.225,1.225,0,0,1-.66.183c-.366,0-.511-.221-.511-.583v-1.571h1.243v-.694Zm6.5-.077a1.039,1.039,0,0,0-.915.511v-.438h-.766v3.508h.766v-1.975c0-.583.255-.915.732-.915a2.353,2.353,0,0,1,.477.072l.221-.732a3.033,3.033,0,0,0-.515-.03Zm-9.829.366A2.514,2.514,0,0,0,62,660.611c-.877,0-1.46.438-1.46,1.132,0,.583.438.915,1.2,1.022l.366.038c.4.072.622.183.622.366,0,.255-.294.438-.8.438a2.02,2.02,0,0,1-1.171-.366l-.366.583a2.568,2.568,0,0,0,1.5.438c1.022,0,1.609-.477,1.609-1.132,0-.622-.477-.949-1.2-1.06l-.366-.038c-.328-.038-.583-.111-.583-.328,0-.255.255-.4.66-.4a2.637,2.637,0,0,1,1.1.294l.324-.621Zm20.387-.366a1.039,1.039,0,0,0-.915.511v-.438h-.766v3.508H82.9v-1.975c0-.583.255-.915.732-.915a2.353,2.353,0,0,1,.477.072l.221-.724a2.334,2.334,0,0,0-.515-.038Zm-9.791,1.83a1.755,1.755,0,0,0,1.865,1.826,1.835,1.835,0,0,0,1.243-.4l-.366-.622a1.464,1.464,0,0,1-.915.328,1.037,1.037,0,0,1-1.06-1.132,1.075,1.075,0,0,1,1.06-1.132,1.5,1.5,0,0,1,.915.328l.366-.622a1.814,1.814,0,0,0-1.243-.4,1.753,1.753,0,0,0-1.865,1.826Zm7.088,0v-1.754h-.766v.438a1.324,1.324,0,0,0-1.1-.511,1.828,1.828,0,0,0,0,3.652,1.239,1.239,0,0,0,1.1-.511v.438h.766v-1.754Zm-2.814,0a1.062,1.062,0,1,1,2.12,0,1.062,1.062,0,1,1-2.12,0Zm-9.169-1.83a1.827,1.827,0,0,0,.038,3.652,2.227,2.227,0,0,0,1.426-.477l-.366-.549a1.74,1.74,0,0,1-1.022.366.988.988,0,0,1-1.06-.839H70.74v-.294a1.618,1.618,0,0,0-1.609-1.86Zm0,.66a.854.854,0,0,1,.877.839H68.182a.924.924,0,0,1,.949-.839Zm19.037,1.171V659.3H87.4v1.826a1.324,1.324,0,0,0-1.1-.511,1.828,1.828,0,0,0,0,3.652,1.239,1.239,0,0,0,1.1-.511v.438h.766v-1.754Zm-2.814,0a1.062,1.062,0,1,1,2.12,0,1.062,1.062,0,1,1-2.12,0Zm-25.652,0v-1.754h-.766v.438a1.324,1.324,0,0,0-1.1-.511,1.828,1.828,0,0,0,0,3.652,1.239,1.239,0,0,0,1.1-.511v.438H59.7v-1.754Zm-2.848,0a1.062,1.062,0,1,1,2.12,0,1.062,1.062,0,1,1-2.12,0Z" transform="translate(-47.68 -628.922)" fill="#6f768a"/>
  <path id="Subtraction_17" data-name="Subtraction 17" d="M5.006,20.68h0a12.942,12.942,0,0,1-2.063-2.027A13.174,13.174,0,0,1,1.367,4.5,13.316,13.316,0,0,1,5.006,0,13.362,13.362,0,0,1,7.067,2.041,13.282,13.282,0,0,1,8.646,4.5,13.119,13.119,0,0,1,9.656,7.291a13.2,13.2,0,0,1,.356,3.049,13.356,13.356,0,0,1-.351,3.049,13.058,13.058,0,0,1-1,2.792,13.077,13.077,0,0,1-1.577,2.457A13.185,13.185,0,0,1,5.006,20.68Z" transform="translate(16.262 2.814)" fill="#6f768a"/>
  <path id="Exclusion_2" data-name="Exclusion 2" d="M29.382,26.308a13.083,13.083,0,0,1-8.114-2.814,13.182,13.182,0,0,0,0-20.68,13.153,13.153,0,1,1,8.114,23.494Zm-16.228,0A13.154,13.154,0,1,1,13.154,0a13.084,13.084,0,0,1,8.114,2.814,13.181,13.181,0,0,0,0,20.68,13.084,13.084,0,0,1-8.114,2.814Z" transform="translate(0 0)" fill="#6f768a" opacity="0.76"/>
</svg>
