<svg xmlns="http://www.w3.org/2000/svg" width="73.426" height="18.527" viewBox="0 0 73.426 18.527">
  <g id="Group_18944" data-name="Group 18944" transform="translate(0 0)">
    <path id="Icon_payment-paypal" data-name="Icon payment-paypal" d="M32.244,23.828H30.228a.582.582,0,0,0-.482.255l-2.782,4.1-1.179-3.937a.583.583,0,0,0-.558-.415H23.245a.349.349,0,0,0-.331.462l2.22,6.519-2.088,2.947a.349.349,0,0,0,.285.551h2.015a.585.585,0,0,0,.479-.25l6.707-9.68a.349.349,0,0,0-.287-.548ZM18.762,27.733A2.237,2.237,0,0,1,16.5,29.649,1.555,1.555,0,0,1,14.836,27.7a2.245,2.245,0,0,1,2.248-1.931,1.69,1.69,0,0,1,1.338.547,1.728,1.728,0,0,1,.34,1.419Zm2.8-3.905H19.552a.35.35,0,0,0-.345.3l-.088.56-.14-.2a2.858,2.858,0,0,0-2.371-.841,4.614,4.614,0,0,0-4.479,4.036,3.786,3.786,0,0,0,.747,3.082,3.139,3.139,0,0,0,2.526,1.02,3.842,3.842,0,0,0,2.778-1.147l-.089.558a.349.349,0,0,0,.345.4h1.807a.582.582,0,0,0,.575-.491L21.9,24.231a.349.349,0,0,0-.345-.4Zm-12.041.048c-.229,1.5-1.377,1.5-2.489,1.5H6.4l.443-2.808a.349.349,0,0,1,.345-.295h.29c.756,0,1.471,0,1.839.43a1.4,1.4,0,0,1,.2,1.168Zm-.483-3.924H4.844a.582.582,0,0,0-.575.492L2.575,31.187a.349.349,0,0,0,.345.4h2A.582.582,0,0,0,5.5,31.1l.457-2.9a.582.582,0,0,1,.575-.492H7.853c2.76,0,4.353-1.335,4.769-3.983a3.226,3.226,0,0,0-.534-2.7,3.884,3.884,0,0,0-3.053-1.071Zm44.774.3-1.72,10.941a.349.349,0,0,0,.345.4h1.73a.581.581,0,0,0,.575-.492l1.7-10.744a.349.349,0,0,0-.345-.4H54.154a.349.349,0,0,0-.345.3Zm-5.161,7.487a2.237,2.237,0,0,1-2.265,1.916A1.555,1.555,0,0,1,44.721,27.7a2.245,2.245,0,0,1,2.248-1.931,1.69,1.69,0,0,1,1.338.547,1.728,1.728,0,0,1,.34,1.419Zm2.8-3.905H49.437a.35.35,0,0,0-.345.3L49,24.684l-.141-.2a2.856,2.856,0,0,0-2.37-.841,4.614,4.614,0,0,0-4.479,4.036,3.786,3.786,0,0,0,.747,3.082,3.139,3.139,0,0,0,2.526,1.02,3.842,3.842,0,0,0,2.778-1.147l-.089.558a.349.349,0,0,0,.345.4h1.807A.582.582,0,0,0,50.7,31.1l1.085-6.869a.35.35,0,0,0-.345-.4ZM39.4,23.876c-.229,1.5-1.377,1.5-2.489,1.5h-.632l.443-2.808a.349.349,0,0,1,.345-.295h.29c.756,0,1.471,0,1.839.43a1.4,1.4,0,0,1,.2,1.168Zm-.483-3.924H34.73a.582.582,0,0,0-.575.492L32.46,31.187a.35.35,0,0,0,.345.4h2.15a.408.408,0,0,0,.4-.344l.481-3.046a.582.582,0,0,1,.575-.492h1.326c2.76,0,4.353-1.335,4.769-3.983a3.226,3.226,0,0,0-.534-2.7,3.884,3.884,0,0,0-3.053-1.071Z" transform="translate(16.987 -15.78)" fill="#6f768a"/>
    <path id="Icon_awesome-paypal" data-name="Icon awesome-paypal" d="M3.943,11.489c-.124.679-.615,3.844-.76,4.739-.011.064-.035.088-.106.088H.438a.43.43,0,0,1-.428-.492L2.083,2.672a.718.718,0,0,1,.707-.6c5.387,0,5.839-.131,7.215.4,2.126.824,2.32,2.812,1.556,4.962C10.8,9.654,9,10.605,6.606,10.633c-1.535.025-2.458-.248-2.663.856ZM12.633,6.4c-.064-.046-.088-.064-.106.046a8.278,8.278,0,0,1-.311,1.188c-1.411,4.025-5.323,3.675-7.233,3.675a.356.356,0,0,0-.386.332c-.8,4.966-.958,6-.958,6a.377.377,0,0,0,.375.456H6.259a.634.634,0,0,0,.615-.527c.025-.191-.039.216.509-3.229.163-.778.506-.7,1.036-.7,2.511,0,4.471-1.019,5.054-3.972A3.142,3.142,0,0,0,12.633,6.4Z" transform="translate(-0.006 -2.061)" fill="#6f768a"/>
  </g>
</svg>
