<svg xmlns="http://www.w3.org/2000/svg" width="44.799" height="13.731" viewBox="0 0 44.799 13.731">
  <path id="Icon_simple-visa" data-name="Icon simple-visa" d="M32.563,13.045a9.317,9.317,0,0,0-3.248-.562c-3.584,0-6.113,1.807-6.132,4.4-.022,1.9,1.8,2.975,3.175,3.614,1.413.653,1.885,1.064,1.882,1.652-.009.89-1.129,1.294-2.169,1.294a7.673,7.673,0,0,1-3.418-.7l-.446-.207L21.7,25.514a12.13,12.13,0,0,0,4.06.7c3.81,0,6.3-1.794,6.33-4.553.03-1.518-.952-2.669-3.026-3.617-1.258-.616-2.042-1.029-2.042-1.654,0-.553.67-1.142,2.07-1.142a6.645,6.645,0,0,1,2.716.51l.336.151.506-2.882-.088.019Zm9.3-.317h-2.8a1.812,1.812,0,0,0-1.906,1.1l-5.385,12.2h3.81l.762-2,4.648,0c.114.467.448,1.994.448,1.994H44.8l-2.934-13.3Zm-23.833-.112h3.627L19.391,25.923H15.762l2.27-13.311ZM8.812,19.949,9.189,21.8l3.548-9.07h3.843L10.867,26.008H7.033L3.9,14.76a.743.743,0,0,0-.336-.442A15.327,15.327,0,0,0,0,13l.047-.28H5.891a1.519,1.519,0,0,1,1.648,1.127l1.273,6.109Zm28.574,1.357,1.447-3.722c-.019.037.3-.769.482-1.269l.248,1.148L40.4,21.3H37.387v0Z" transform="translate(0 -12.483)" fill="#6f768a"/>
</svg>
