<svg xmlns="http://www.w3.org/2000/svg" width="88.318" height="88.313" viewBox="0 0 88.318 88.313">
  <g id="Group_18894" data-name="Group 18894" transform="translate(-604.983 -6411.357)">
    <circle id="Ellipse_1373" data-name="Ellipse 1373" cx="9.097" cy="9.097" r="9.097" transform="translate(655.038 6424.597)" fill="#ffc815"/>
    <path id="Icon_ionic-ios-color-palette" data-name="Icon ionic-ios-color-palette" d="M88.7,69.792c-1.518-1.4-3.749-1.748-5.658-2.07-2.645-.437-3.657-.92-5.2-2.3a6.376,6.376,0,0,1,0-10.073l6.968-6.186c10.671-9.429,10.671-24.884,0-34.313C76.948,7.927,66.392,4.5,55.422,4.5A55.6,55.6,0,0,0,18.9,18.322C-.3,35.294-.3,63.1,18.9,80.072c9.544,8.44,22.423,12.649,35.164,12.741h.391c12.741,0,25.3-4.117,34.221-12.051C91.989,77.841,91.437,72.344,88.7,69.792ZM17.383,39.457a7.359,7.359,0,1,1,7.359,7.359A7.351,7.351,0,0,1,17.383,39.457Zm9.2,28.978a7.359,7.359,0,1,1,7.359-7.359A7.351,7.351,0,0,1,26.582,68.435ZM41.3,31.408a7.359,7.359,0,1,1,7.359-7.359A7.351,7.351,0,0,1,41.3,31.408ZM57.86,81.773A11.039,11.039,0,1,1,68.9,70.734,11.042,11.042,0,0,1,57.86,81.773Zm5.52-47.836a7.359,7.359,0,1,1,7.359-7.359A7.351,7.351,0,0,1,63.379,33.938Z" transform="translate(600.485 6406.857)"/>
  </g>
</svg>
