<svg xmlns="http://www.w3.org/2000/svg" width="224.518" height="115.617" viewBox="0 0 224.518 115.617">
  <g id="Group_18869" data-name="Group 18869" transform="translate(0)">
    <path id="Icon_material-insert-photo" data-name="Icon material-insert-photo" d="M229.018,107.27V17.346A12.884,12.884,0,0,0,216.171,4.5H17.346A12.884,12.884,0,0,0,4.5,17.346V107.27a12.884,12.884,0,0,0,12.846,12.846H216.171A12.884,12.884,0,0,0,229.018,107.27ZM86.627,62.617l30.386,29.132,36.108-39.275,32.285,48.682H58.452Z" transform="translate(-4.5 -4.5)"/>
    <ellipse id="Ellipse_1372" data-name="Ellipse 1372" cx="12.674" cy="12.674" rx="12.674" ry="12.674" transform="translate(61.753 18.45)" fill="#ffc815"/>
    <path id="Polygon_20" data-name="Polygon 20" d="M40.134,0,80.268,68.65H0Z" transform="translate(77.589 27.46)" fill="#fff"/>
  </g>
</svg>
