<svg xmlns="http://www.w3.org/2000/svg" width="84.995" height="78.455" viewBox="0 0 84.995 78.455">
  <g id="Group_18895" data-name="Group 18895" transform="translate(-1245 -6413.545)">
    <path id="Path_53955" data-name="Path 53955" d="M7321.581,13614.929l13.407-3.83v-9.851s-20.248-21.614-21.068-22.436-25.719-8.482-25.719-8.482v10.124l9.8,22.983Z" transform="translate(-6023 -7131)" fill="#ffc815"/>
    <path id="Icon_ionic-ios-leaf" data-name="Icon ionic-ios-leaf" d="M86.305,68.8c-10.584-1.635-11.38-2.39-11.38-2.39,3.187-15.119-4.577-30.872-15.589-39.964-14.67-12.1-36.961-3.31-54.328-21.7C.962.457,3.312,52.864,25.051,72.723c15.9,14.506,34.611,10.052,39.739,7.682,4.658-2.166,7.907-6.926,7.907-6.926,8.479,2.656,12.668,2.9,12.668,2.9C88.348,76.748,89.86,69.352,86.305,68.8ZM67.549,70.312c-15.875-4.761-29.687-16.55-38.636-25.785A.833.833,0,0,1,30.037,43.3,124.249,124.249,0,0,0,69.531,65.347,7.619,7.619,0,0,1,67.549,70.312Z" transform="translate(1241.624 6409.046)"/>
  </g>
</svg>
