<svg xmlns="http://www.w3.org/2000/svg" width="94.907" height="87.64" viewBox="0 0 94.907 87.64">
  <g id="Group_18897" data-name="Group 18897" transform="translate(-586 -6833.821)">
    <g id="Group_18896" data-name="Group 18896" transform="translate(586 6833.821)">
      <g id="Icon_ionic-ios-hammer" data-name="Icon ionic-ios-hammer" transform="translate(0 0)">
        <path id="Path_53956" data-name="Path 53956" d="M55.755,22.117a5.622,5.622,0,0,0-.936-1.255l-4.2-4.154a4.97,4.97,0,0,0-1.506-1.05,4.8,4.8,0,0,0-5.341.981c-1.461,1.438-4.131,4.063-8.947,8.833C25.6,34.6,12.434,45.923,4.7,52.45a3.692,3.692,0,0,0-.251,5.409l8.947,9.061a3.7,3.7,0,0,0,5.432-.205c6.71-7.9,18.145-21.067,27.252-30.082,4.679-4.611,7.3-7.258,8.787-8.719A5,5,0,0,0,55.755,22.117Z" transform="translate(-3.386 19.629)"/>
        <path id="Path_53957" data-name="Path 53957" d="M77.37,39.672,69.5,31.866a1.257,1.257,0,0,0-.913-.365,1.3,1.3,0,0,0-.913.365h0a2.615,2.615,0,0,1-2.191.753,4.882,4.882,0,0,1-2.83-1.118c-1.6-1.575.251-4.679-1.164-6.665a55.669,55.669,0,0,0-5.3-6.14A58.2,58.2,0,0,0,37.474,6.623,28.4,28.4,0,0,0,26.678,4.5c-6.048,0-10.819,1.94-12.508,3.492-1.255,1.164-2.556,3.218-.708,3.218a5.3,5.3,0,0,0,.548-.046,38.385,38.385,0,0,1,5.341-.342c3.583,0,7.874.479,10.18,2.305,3.72,2.99,6.8,6.984,7.053,12.143.183,3.834-.776,6.436-4.268,10.385a1.807,1.807,0,0,0,.091,2.488l4.382,4.382a1.826,1.826,0,0,0,2.556.023c3.2-3.1,5.044-4.611,7.144-5.181A11.14,11.14,0,0,1,49.411,37a12.918,12.918,0,0,1,5.387,1.05,3.111,3.111,0,0,1,.708.548,3.88,3.88,0,0,1-.114,5.455l-.456.434a1.267,1.267,0,0,0,0,1.8L62.809,54.1a1.257,1.257,0,0,0,.913.365,1.294,1.294,0,0,0,.913-.365L77.37,41.5A1.339,1.339,0,0,0,77.37,39.672Z" transform="translate(17.178 -4.5)"/>
      </g>
    </g>
    <path id="Path_53958" data-name="Path 53958" d="M55.755,22.117a5.622,5.622,0,0,0-.936-1.255l-4.2-4.154a4.97,4.97,0,0,0-1.506-1.05,4.8,4.8,0,0,0-5.341.981c-1.461,1.438-4.131,4.063-8.947,8.833C25.6,34.6,12.434,45.923,4.7,52.45a3.692,3.692,0,0,0-.251,5.409l8.947,9.061a3.7,3.7,0,0,0,5.432-.205c6.71-7.9,18.145-21.067,27.252-30.082,4.679-4.611,7.3-7.258,8.787-8.719A5,5,0,0,0,55.755,22.117Z" transform="translate(582.614 6853.45)" fill="#ffc815"/>
    <path id="Path_53958_-_Outline" data-name="Path 53958 - Outline" d="M47.15,18.242h0a1.764,1.764,0,0,0-1.256.518l-.017.017-.458.451C43.872,20.75,41.284,23.3,36.936,27.6c-8.877,8.789-21.376,19.607-30.3,27.136a.686.686,0,0,0-.248.5.667.667,0,0,0,.194.509L15.519,64.8a.7.7,0,0,0,1.029-.042c6.235-7.338,18.08-21.016,27.419-30.261l0,0c2.953-2.91,5.079-5.029,6.631-6.576.886-.883,1.588-1.583,2.137-2.123a2,2,0,0,0,.36-2.28,2.623,2.623,0,0,0-.4-.529l-4.2-4.159a1.991,1.991,0,0,0-.591-.424,1.875,1.875,0,0,0-.757-.162m0-3a4.876,4.876,0,0,1,1.963.415,4.97,4.97,0,0,1,1.506,1.05l4.2,4.154a5.622,5.622,0,0,1,.936,1.255,5,5,0,0,1-.89,5.8c-1.484,1.461-4.108,4.108-8.787,8.719C36.97,45.649,25.535,58.818,18.825,66.716a3.7,3.7,0,0,1-5.432.205L4.446,57.86A3.692,3.692,0,0,1,4.7,52.45C12.434,45.923,25.6,34.6,34.825,25.472c4.816-4.77,7.486-7.4,8.947-8.833A4.774,4.774,0,0,1,47.15,15.242Z" transform="translate(582.614 6853.45)"/>
  </g>
</svg>
