<svg id="Klarna_Logo_black" xmlns="http://www.w3.org/2000/svg" width="92.151" height="20.571" viewBox="0 0 92.151 20.571">
  <path id="Path_53946" data-name="Path 53946" d="M36.608,0H32.07a11.613,11.613,0,0,1-4.68,9.36L25.6,10.7l6.959,9.482h5.717l-6.409-8.729A16.042,16.042,0,0,0,36.608,0Z" transform="translate(-20.391 0)" fill="#6f768a"/>
  <rect id="Rectangle_5107" data-name="Rectangle 5107" width="4.639" height="20.184" transform="translate(0 0)" fill="#6f768a"/>
  <rect id="Rectangle_5108" data-name="Rectangle 5108" width="4.375" height="20.184" transform="translate(19.228 0)" fill="#6f768a"/>
  <path id="Path_53947" data-name="Path 53947" d="M271.464,28.7a5.061,5.061,0,0,0-4.314,1.953V29.087H263V43.045h4.212V35.72a2.94,2.94,0,0,1,3.133-3.154c1.831,0,2.889,1.1,2.889,3.133v7.366h4.171V34.173C277.406,30.918,274.822,28.7,271.464,28.7Z" transform="translate(-209.488 -22.86)" fill="#6f768a"/>
  <path id="Path_53948" data-name="Path 53948" d="M135.916,29.087v.9a7.266,7.266,0,0,0-4.151-1.282,7.366,7.366,0,1,0,0,14.731,7.266,7.266,0,0,0,4.151-1.282v.9h4.171V29.087Zm-3.8,10.56a3.587,3.587,0,1,1,3.785-3.581A3.686,3.686,0,0,1,132.112,39.647Z" transform="translate(-99.088 -22.86)" fill="#6f768a"/>
  <path id="Path_53949" data-name="Path 53949" d="M216.573,32.411V30.6H212.3V44.558h4.293V38.047c0-2.2,2.381-3.378,4.029-3.378h.041V30.6A5.241,5.241,0,0,0,216.573,32.411Z" transform="translate(-169.103 -24.374)" fill="#6f768a"/>
  <path id="Path_53950" data-name="Path 53950" d="M352.516,29.087v.9a7.266,7.266,0,0,0-4.151-1.282,7.366,7.366,0,1,0,0,14.731,7.266,7.266,0,0,0,4.151-1.282v.9h4.171V29.087Zm-3.8,10.56a3.587,3.587,0,1,1,3.785-3.581A3.686,3.686,0,0,1,348.711,39.647Z" transform="translate(-271.617 -22.86)" fill="#6f768a"/>
  <g id="Group_18849" data-name="Group 18849" transform="translate(86.881 5.86)">
    <path id="Path_53951" data-name="Path 53951" d="M431.053,31.326a.322.322,0,0,0-.366-.326H430.3v1.058h.183v-.387h.2l.163.387h.2l-.183-.427A.316.316,0,0,0,431.053,31.326Zm-.366.163h-.2v-.326h.2c.122,0,.183.061.183.163S430.829,31.488,430.687,31.488Z" transform="translate(-429.629 -30.552)" fill="#6f768a"/>
    <path id="Path_53952" data-name="Path 53952" d="M428,28.8a1,1,0,0,0-1,1,1.012,1.012,0,0,0,1,1,1,1,0,0,0,0-1.994Zm0,1.811a.8.8,0,0,1-.793-.814.812.812,0,0,1,.793-.814.8.8,0,0,1,.794.814A.812.812,0,0,1,428,30.611Z" transform="translate(-427 -28.8)" fill="#6f768a"/>
  </g>
  <path id="Path_53953" data-name="Path 53953" d="M429.725,74.9a2.625,2.625,0,1,0,2.625,2.625A2.631,2.631,0,0,0,429.725,74.9Z" transform="translate(-340.198 -59.66)" fill="#6f768a"/>
</svg>
