<svg xmlns="http://www.w3.org/2000/svg" width="107.124" height="27.03" viewBox="0 0 107.124 27.03">
  <g id="Group_18847" data-name="Group 18847" transform="translate(0 0)">
    <path id="Icon_payment-paypal" data-name="Icon payment-paypal" d="M45.863,25.607H42.92a.85.85,0,0,0-.7.373l-4.059,5.978-1.72-5.744a.851.851,0,0,0-.814-.606H32.733a.51.51,0,0,0-.483.673l3.24,9.51-3.047,4.3a.51.51,0,0,0,.416.8H35.8a.854.854,0,0,0,.7-.365l9.784-14.123a.51.51,0,0,0-.419-.8ZM26.193,31.3a3.264,3.264,0,0,1-3.3,2.8,2.268,2.268,0,0,1-2.424-2.847,3.275,3.275,0,0,1,3.28-2.817,2.465,2.465,0,0,1,1.951.8,2.521,2.521,0,0,1,.5,2.07Zm4.08-5.7H27.346a.51.51,0,0,0-.5.431l-.128.817-.2-.3c-.634-.92-2.047-1.228-3.459-1.228a6.731,6.731,0,0,0-6.534,5.889,5.524,5.524,0,0,0,1.09,4.5A4.579,4.579,0,0,0,21.292,37.2a5.6,5.6,0,0,0,4.053-1.674l-.13.813a.51.51,0,0,0,.5.589h2.636a.848.848,0,0,0,.839-.717l1.583-10.021a.51.51,0,0,0-.5-.588Zm-17.566.07c-.334,2.194-2.009,2.194-3.631,2.194H8.153l.647-4.1a.509.509,0,0,1,.5-.43h.424c1.1,0,2.145,0,2.683.628a2.041,2.041,0,0,1,.3,1.7ZM12,19.952H5.888a.849.849,0,0,0-.839.718L2.577,36.344a.509.509,0,0,0,.5.589H6a.849.849,0,0,0,.839-.717l.667-4.229a.849.849,0,0,1,.839-.718h1.934c4.027,0,6.351-1.948,6.958-5.811a4.706,4.706,0,0,0-.78-3.944c-.868-1.022-2.41-1.562-4.454-1.562Zm65.322.431L74.815,36.344a.509.509,0,0,0,.5.589h2.523a.848.848,0,0,0,.839-.718L81.154,20.54a.51.51,0,0,0-.5-.589H77.828a.51.51,0,0,0-.5.431ZM69.794,31.3a3.264,3.264,0,0,1-3.3,2.8,2.268,2.268,0,0,1-2.424-2.847,3.275,3.275,0,0,1,3.28-2.817,2.465,2.465,0,0,1,1.951.8,2.521,2.521,0,0,1,.5,2.07Zm4.079-5.7H70.946a.51.51,0,0,0-.5.431l-.128.818-.205-.3c-.633-.92-2.046-1.228-3.458-1.228a6.731,6.731,0,0,0-6.534,5.889,5.524,5.524,0,0,0,1.09,4.5,4.579,4.579,0,0,0,3.686,1.488,5.6,5.6,0,0,0,4.053-1.674l-.13.813a.51.51,0,0,0,.5.589h2.636a.848.848,0,0,0,.839-.717L74.378,26.2a.51.51,0,0,0-.5-.589Zm-17.566.07c-.334,2.194-2.009,2.194-3.631,2.194h-.922l.647-4.1a.509.509,0,0,1,.5-.43h.424c1.1,0,2.145,0,2.683.628a2.044,2.044,0,0,1,.3,1.7Zm-.7-5.725H49.489a.849.849,0,0,0-.839.718L46.178,36.344a.51.51,0,0,0,.5.589h3.137a.6.6,0,0,0,.587-.5l.7-4.444a.849.849,0,0,1,.839-.718h1.934c4.027,0,6.351-1.948,6.957-5.811a4.706,4.706,0,0,0-.78-3.944c-.868-1.022-2.41-1.562-4.454-1.562Z" transform="translate(25.963 -13.865)" fill="#6f768a"/>
    <path id="Icon_awesome-paypal" data-name="Icon awesome-paypal" d="M5.75,15.817c-.181.991-.9,5.609-1.109,6.914-.015.093-.052.129-.155.129H.636a.627.627,0,0,1-.624-.717L3.036,2.953a1.048,1.048,0,0,1,1.032-.872c7.859,0,8.519-.191,10.526.588,3.1,1.2,3.385,4.1,2.27,7.239-1.109,3.23-3.741,4.618-7.229,4.659C7.4,14.6,6.049,14.207,5.75,15.817ZM18.428,8.391c-.093-.067-.129-.093-.155.067a12.076,12.076,0,0,1-.454,1.734c-2.059,5.872-7.766,5.361-10.552,5.361a.519.519,0,0,0-.562.485c-1.166,7.245-1.4,8.756-1.4,8.756a.549.549,0,0,0,.547.666H9.129a.926.926,0,0,0,.9-.769c.036-.279-.057.315.743-4.711.237-1.135.738-1.017,1.512-1.017,3.664,0,6.522-1.486,7.374-5.795.335-1.8.237-3.684-1.228-4.778Z" transform="translate(-0.006 -2.061)" fill="#6f768a"/>
  </g>
</svg>
