<svg xmlns="http://www.w3.org/2000/svg" width="44.499" height="40.002" viewBox="0 0 44.499 40.002">
  <path id="Exclusion_3" data-name="Exclusion 3" d="M1137.847-7091H1132.9a1.246,1.246,0,0,1-1.237-1.253V-7096h-9.887v3.748a1.247,1.247,0,0,1-1.237,1.253h-4.946a1.245,1.245,0,0,1-1.235-1.253v-6.3a12.443,12.443,0,0,1-4.945-9.944h-3.091a4.306,4.306,0,0,1-3.246-1.488,4.429,4.429,0,0,1-1.041-3.465,4.427,4.427,0,0,1,4.444-3.8.466.466,0,0,1,.462.468v1.563a.466.466,0,0,1-.462.469h-.079a1.9,1.9,0,0,0-1.892,1.5,1.892,1.892,0,0,0,.383,1.563,1.837,1.837,0,0,0,1.43.687h3.339a12.589,12.589,0,0,1,4.247-7.139,12.289,12.289,0,0,1,7.868-2.861h9.887a10.923,10.923,0,0,1,1.581.151l.2.028a7.364,7.364,0,0,1,5.64-2.681h2.472l-1.459,5.9a12.491,12.491,0,0,1,2.889,4.1h2.279a1.245,1.245,0,0,1,1.237,1.249v10a1.244,1.244,0,0,1-1.237,1.249H1141.5a12.359,12.359,0,0,1-2.419,2.446v6.3A1.246,1.246,0,0,1,1137.847-7091Zm-7.99-16.654a3.433,3.433,0,0,0-3.41,3.448,3.433,3.433,0,0,0,3.41,3.448,3.433,3.433,0,0,0,3.41-3.448A3.433,3.433,0,0,0,1129.857-7107.652Zm2.676-8.864h0l-.962,0a.732.732,0,0,0-.6.314l-11.2,14.277a.731.731,0,0,0-.051.764.72.72,0,0,0,.651.4l1.017,0a.732.732,0,0,0,.6-.314l11.15-14.275a.736.736,0,0,0,.049-.767.715.715,0,0,0-.644-.4Zm-9.5,0a3.433,3.433,0,0,0-3.41,3.449,3.433,3.433,0,0,0,3.41,3.448,3.434,3.434,0,0,0,3.412-3.448A3.434,3.434,0,0,0,1123.036-7116.52Zm6.821,13.792a1.471,1.471,0,0,1-1.461-1.478,1.471,1.471,0,0,1,1.461-1.477,1.471,1.471,0,0,1,1.461,1.477A1.471,1.471,0,0,1,1129.857-7102.727Zm-6.821-8.867a1.471,1.471,0,0,1-1.461-1.477,1.471,1.471,0,0,1,1.461-1.478,1.472,1.472,0,0,1,1.463,1.478A1.472,1.472,0,0,1,1123.036-7111.594Zm-4.922-11.422h0c0-.072-.013-.143-.022-.212a2.105,2.105,0,0,1-.023-.271,7.468,7.468,0,0,1,7.417-7.5,7.467,7.467,0,0,1,7.415,7.5.156.156,0,0,1,0,.03.155.155,0,0,0,0,.033c-.432-.034-.821-.063-1.229-.063h-9.887a14.636,14.636,0,0,0-3.662.484Z" transform="translate(-1102 7131.001)"/>
</svg>
