<svg xmlns="http://www.w3.org/2000/svg" width="64.042" height="19.629" viewBox="0 0 64.042 19.629">
  <path id="Icon_simple-visa" data-name="Icon simple-visa" d="M46.55,13.286a13.319,13.319,0,0,0-4.643-.8c-5.123,0-8.739,2.583-8.766,6.284-.032,2.722,2.572,4.253,4.539,5.166,2.02.934,2.7,1.521,2.69,2.362-.013,1.273-1.614,1.849-3.1,1.849a10.969,10.969,0,0,1-4.886-1l-.638-.3-.723,4.264a17.341,17.341,0,0,0,5.8,1c5.446,0,9.006-2.564,9.049-6.508.043-2.169-1.361-3.816-4.325-5.171-1.8-.881-2.919-1.47-2.919-2.364,0-.79.958-1.633,2.959-1.633a9.5,9.5,0,0,1,3.883.728l.48.216.723-4.12-.125.027Zm13.3-.454h-4A2.59,2.59,0,0,0,53.12,14.41l-7.7,17.435h5.446l1.089-2.855L58.6,29c.163.667.64,2.85.64,2.85h4.8L59.847,12.833Zm-34.07-.16h5.185L27.719,31.7H22.532l3.245-19.028ZM12.6,23.157l.539,2.642,5.073-12.966H23.7L15.535,31.818H10.055L5.572,15.738a1.062,1.062,0,0,0-.48-.632A21.911,21.911,0,0,0,0,13.219l.067-.4H8.421a2.171,2.171,0,0,1,2.356,1.612l1.82,8.734ZM53.445,25.1l2.068-5.321c-.027.053.427-1.1.688-1.815l.355,1.641,1.2,5.489H53.445V25.1Z" transform="translate(0 -12.483)" fill="#6f768a"/>
</svg>
