<?xml version="1.0" encoding="UTF-8" standalone="no" ?>
<!DOCTYPE svg PUBLIC "-//W3C//DTD SVG 1.1//EN" "http://www.w3.org/Graphics/SVG/1.1/DTD/svg11.dtd">
<svg xmlns="http://www.w3.org/2000/svg" xmlns:xlink="http://www.w3.org/1999/xlink" version="1.1" width="138" height="137" viewBox="0 0 138 137" xml:space="preserve">
<desc>Created with Fabric.js 4.6.0</desc>
<defs>
</defs>
<g transform="matrix(1 0 0 1 69.22 68.63)" id="k-eidL4rBLuj6NfXrgayN"  >
<path style="stroke: none; stroke-width: 1; stroke-dasharray: none; stroke-linecap: butt; stroke-dashoffset: 0; stroke-linejoin: miter; stroke-miterlimit: 4; fill: rgb(255,255,255); fill-rule: nonzero; opacity: 1;" vector-effect="non-scaling-stroke"  transform=" translate(0, 0)" d="M -67.619 67.6195 L -67.619 1.1044300000000078 L -67.619 -67.61949999999999 L 67.619 -67.61949999999999 L 67.619 67.61950000000002 z" stroke-linecap="round" />
</g>
<g transform="matrix(1 0 0 1 69.44 62.18)" id="Bdh4SZB6JQ3N70MCOSR8H"  >
<path style="stroke: none; stroke-width: 1; stroke-dasharray: none; stroke-linecap: butt; stroke-dashoffset: 0; stroke-linejoin: miter; stroke-miterlimit: 4; fill: rgb(255,200,21); fill-rule: nonzero; opacity: 1;" vector-effect="non-scaling-stroke"  transform=" translate(-58.36, -51.98)" d="M 0 103.968 L 0 0 L 116.729 0 L 116.729 103.968 z" stroke-linecap="round" />
</g>
<g transform="matrix(0.97 -0.24 0.24 0.97 95.28 53.36)" id="x_iBxsTQhOL5TwD6HPcLp"  >
<path style="stroke: none; stroke-width: 1; stroke-dasharray: none; stroke-linecap: butt; stroke-dashoffset: 0; stroke-linejoin: miter; stroke-miterlimit: 4; fill: rgb(255,255,255); fill-rule: nonzero; opacity: 1;" vector-effect="non-scaling-stroke"  transform=" translate(-967.42, -165.47)" d="M 978.9 204.993 C 978.9 204.993 928.235 182.581 948.8 126.53399999999999 C 972.5 119.543 1010.56 176.072 978.9 204.993 Z" stroke-linecap="round" />
</g>
<g transform="matrix(0.97 -0.24 0.24 0.97 59.7 71.49)" id="RShvfJews7jPQw_QDjHpb"  >
<path style="stroke: none; stroke-width: 1; stroke-dasharray: none; stroke-linecap: butt; stroke-dashoffset: 0; stroke-linejoin: miter; stroke-miterlimit: 4; fill: rgb(0,0,0); fill-rule: nonzero; opacity: 1;" vector-effect="non-scaling-stroke"  transform=" translate(-955.07, -163.47)" d="M 919.665 184.876 C 919.665 184.876 928.947 130.258 988.328 136.433 C 1000.925 157.692 955.471 208.464 919.665 184.876 Z" stroke-linecap="round" />
</g>
<g transform="matrix(0.97 -0.24 0.24 0.97 120.88 87.14)" id="urelNzxBfs9vMQZ4tWfVN" clip-path="url(#CLIPPATH_11)"  >
<clipPath id="CLIPPATH_11" >
	<rect transform="matrix(0.97 0.25 -0.25 0.97 -43.88 -36.67)" id="Rectangle_6384" x="-58.365" y="-51.985" rx="0" ry="0" width="116.73" height="103.97" />
</clipPath>
<path style="stroke: none; stroke-width: 1; stroke-dasharray: none; stroke-linecap: butt; stroke-dashoffset: 0; stroke-linejoin: miter; stroke-miterlimit: 4; fill: rgb(255,255,255); fill-rule: nonzero; opacity: 1;" vector-effect="non-scaling-stroke"  transform=" translate(-968.37, -171.9)" d="M 974.549 188.183 C 974.549 188.183 959.23 182.62699999999998 958.22 155.617 C 961.3925006234945 166.38617604460802 968.687875679614 175.46766016619125 978.52 180.887 Z" stroke-linecap="round" />
</g>
<g transform="matrix(0.97 -0.24 0.24 0.97 32.76 107.1)" id="YdRQIs9Qm7Ypj_SpzGgeq" clip-path="url(#CLIPPATH_12)"  >
<clipPath id="CLIPPATH_12" >
	<rect transform="matrix(0.97 0.25 -0.25 0.97 46.47 -34.71)" id="Rectangle_6384" x="-58.365" y="-51.985" rx="0" ry="0" width="116.73" height="103.97" />
</clipPath>
<path style="stroke: none; stroke-width: 1; stroke-dasharray: none; stroke-linecap: butt; stroke-dashoffset: 0; stroke-linejoin: miter; stroke-miterlimit: 4; fill: rgb(0,0,0); fill-rule: nonzero; opacity: 1;" vector-effect="non-scaling-stroke"  transform=" translate(-927.18, -169.22)" d="M 913.4 180.1 C 913.4 180.1 915.023 163.886 940.957 156.273 C 931.2967852939848 161.9942396984284 924.2848363023958 171.2967874432149 921.4449999999999 182.15900000000002 Z" stroke-linecap="round" />
</g>
<g transform="matrix(0.97 -0.24 0.24 0.97 14.79 14.72)" id="1yYFFlWMCbuabD87cEDzJ" clip-path="url(#CLIPPATH_13)"  >
<clipPath id="CLIPPATH_13" >
	<rect transform="matrix(0.97 0.25 -0.25 0.97 41.55 59.29)" id="Rectangle_6384" x="-58.365" y="-51.985" rx="0" ry="0" width="116.73" height="103.97" />
</clipPath>
<path style="stroke: none; stroke-width: 1; stroke-dasharray: none; stroke-linecap: butt; stroke-dashoffset: 0; stroke-linejoin: miter; stroke-miterlimit: 4; fill: rgb(111,118,138); fill-rule: nonzero; opacity: 1;" vector-effect="non-scaling-stroke"  transform=" translate(-938.29, -134.58)" d="M 911.406 102.146 C 911.406 102.146 966.7779999999999 103.84 968.819 163.507 C 949.491 178.9 892.958 140.854 911.406 102.146 Z" stroke-linecap="round" />
</g>
</svg>