<svg xmlns="http://www.w3.org/2000/svg" width="249.354" height="133.546" viewBox="0 0 249.354 133.546">
  <path id="Union_33" data-name="Union 33" d="M3950.3-9003.6a39.176,39.176,0,0,1-39.063-39.063,39.206,39.206,0,0,1,33.989-38.733,63.761,63.761,0,0,1,63.119-54.749,63.627,63.627,0,0,1,49.925,24.105,46.4,46.4,0,0,1,21.362-5.174,46.621,46.621,0,0,1,45.327,35.738,39.2,39.2,0,0,1,34.632,38.813,39.176,39.176,0,0,1-39.062,39.063Z" transform="translate(-3910.738 9136.646)" fill="#d3d8e6" stroke="rgba(0,0,0,0)" stroke-width="1"/>
</svg>
