<svg id="Group_4804" data-name="Group 4804" xmlns="http://www.w3.org/2000/svg" width="64.078" height="20" viewBox="0 0 64.078 20">
  <text id="Apple" transform="translate(21.078 16)" fill="#6f768a" font-size="14" style='font-family:Montserrat,sans-serif' font-weight="600"><tspan x="0" y="0">Apple</tspan></text>
  <path id="Icon_awesome-apple" data-name="Icon awesome-apple" d="M12.928,11.762a3.752,3.752,0,0,1,2.009-3.408,4.318,4.318,0,0,0-3.4-1.792c-1.427-.113-2.986.832-3.556.832-.6,0-1.985-.792-3.07-.792C2.664,6.638.281,8.39.281,11.955A10.016,10.016,0,0,0,.86,15.218c.514,1.475,2.371,5.092,4.308,5.031,1.013-.024,1.728-.719,3.046-.719,1.278,0,1.941.719,3.07.719,1.953-.028,3.633-3.315,4.123-4.794a3.984,3.984,0,0,1-2.479-3.693Zm-2.275-6.6a3.785,3.785,0,0,0,.964-2.913,4.261,4.261,0,0,0-2.729,1.4A3.844,3.844,0,0,0,7.86,6.542a3.375,3.375,0,0,0,2.793-1.378Z" transform="translate(-0.281 -2.25)"/>
</svg>
