<svg xmlns="http://www.w3.org/2000/svg" width="611.508" height="594.813" viewBox="0 0 611.508 594.813">
  <g id="Group_18824" data-name="Group 18824" transform="translate(-469.75 -183.974)">
    <g id="Group_18525" data-name="Group 18525" transform="translate(893.749 623.659)">
      <path id="Path_53704" data-name="Path 53704" d="M408.807,341.842a12.6,12.6,0,1,1,12.467-14.668h0a12.624,12.624,0,0,1-12.467,14.668Zm.031-24.624a11.583,11.583,0,0,0-1.965.169,12.015,12.015,0,1,0,13.818,9.886h.007A12.059,12.059,0,0,0,408.838,317.218Z" transform="translate(-396.233 -316.629)" fill="#fff"/>
      <path id="Path_53704_-_Outline" data-name="Path 53704 - Outline" d="M408.807,342.342a13.1,13.1,0,0,1-2.117-26.028,13.1,13.1,0,1,1,2.117,26.028Zm.031-24.624a11.116,11.116,0,0,0-1.88.162,11.509,11.509,0,0,0,1.883,22.865,12.377,12.377,0,0,0,1.885-.146,11.527,11.527,0,0,0,9.472-13.244l-.065-.393A11.493,11.493,0,0,0,408.838,317.718Z" transform="translate(-396.233 -316.629)" fill="#d3d8e6"/>
    </g>
    <g id="Group_18527" data-name="Group 18527" transform="translate(706.558 643.126)">
      <path id="Path_53706" data-name="Path 53706" d="M319.062,437.356a.292.292,0,0,1-.213-.5c.544-.568,54.748-57.807,70.989-111.973a.291.291,0,0,1,.367-.193.3.3,0,0,1,.2.367c-8.508,28.377-27.4,57.375-41.74,76.707a419.635,419.635,0,0,1-29.387,35.5A.3.3,0,0,1,319.062,437.356Z" transform="translate(-318.769 -324.685)" fill="#fff"/>
      <path id="Path_53706_-_Outline" data-name="Path 53706 - Outline" d="M319.062,437.856a.8.8,0,0,1-.537-.2l-.022-.021a.8.8,0,0,1-.018-1.114,420.2,420.2,0,0,0,29.571-35.842c14.219-19.218,32.927-47.992,41.3-75.932a.773.773,0,0,1,.763-.557,1.022,1.022,0,0,1,.163.014l.03,0,.029.008a.8.8,0,0,1,.534.995c-8.525,28.434-27.446,57.49-41.816,76.858a416.68,416.68,0,0,1-29.429,35.553A.8.8,0,0,1,319.062,437.856Z" transform="translate(-318.769 -324.685)" fill="#d3d8e6"/>
    </g>
    <g id="Group_18528" data-name="Group 18528" transform="translate(741.65 677.86)">
      <path id="Path_53707" data-name="Path 53707" d="M333.584,399.1a.294.294,0,0,1-.2-.512c26.043-23.95,35.786-58.948,35.885-59.3.039-.155.2-.292.355-.205a.286.286,0,0,1,.208.355c-.094.355-9.881,35.51-36.047,59.586A.309.309,0,0,1,333.584,399.1Z" transform="translate(-333.29 -339.059)" fill="#fff"/>
      <path id="Path_53707_-_Outline" data-name="Path 53707 - Outline" d="M333.584,399.6a.807.807,0,0,1-.574-.241l-.022-.024a.808.808,0,0,1,.053-1.112l0,0c25.517-23.466,35.334-57.616,35.74-59.058v0a.79.79,0,0,1,.739-.6.7.7,0,0,1,.278.058.786.786,0,0,1,.511.957,138.49,138.49,0,0,1-8.278,20.982,147.835,147.835,0,0,1-11.181,19.336,115.058,115.058,0,0,1-16.731,19.5l-.009.008A.8.8,0,0,1,333.584,399.6Z" transform="translate(-333.29 -339.059)" fill="#d3d8e6"/>
    </g>
    <g id="Group_18531" data-name="Group 18531" transform="translate(1065.772 549.917)">
      <path id="Path_53710" data-name="Path 53710" d="M467.713,338.044a.278.278,0,0,1-.155-.044.3.3,0,0,1-.094-.406c13.646-21.5,3.545-50.8,3.446-51.09a.292.292,0,1,1,.549-.2c.106.3,10.3,29.856-3.494,51.6A.3.3,0,0,1,467.713,338.044Z" transform="translate(-467.419 -286.113)" fill="#fff"/>
      <path id="Path_53710_-_Outline" data-name="Path 53710 - Outline" d="M467.713,338.544a.782.782,0,0,1-.418-.118.8.8,0,0,1-.254-1.1c13.29-20.941,3.808-49.451,3.4-50.654l0,0a.794.794,0,0,1,.034-.613.793.793,0,0,1,1.46.087c.191.547,10.336,30.146-3.545,52.031A.8.8,0,0,1,467.713,338.544Z" transform="translate(-467.419 -286.113)" fill="#d3d8e6"/>
    </g>
    <g id="Group_18532" data-name="Group 18532" transform="translate(1072.988 549.917)">
      <path id="Path_53711" data-name="Path 53711" d="M470.7,338.044a.279.279,0,0,1-.155-.044.294.294,0,0,1-.094-.406c13.658-21.509,3.552-50.8,3.453-51.09a.288.288,0,0,1,.174-.375.292.292,0,0,1,.374.174c.106.3,10.3,29.856-3.5,51.6A.3.3,0,0,1,470.7,338.044Z" transform="translate(-470.405 -286.113)" fill="#fff"/>
      <path id="Path_53711_-_Outline" data-name="Path 53711 - Outline" d="M470.7,338.544a.783.783,0,0,1-.418-.118.8.8,0,0,1-.355-.5.785.785,0,0,1,.1-.6c13.3-20.951,3.815-49.451,3.405-50.654v0a.792.792,0,1,1,1.493-.528,80.665,80.665,0,0,1,3.49,17.879,67.732,67.732,0,0,1-.587,16.773,46.688,46.688,0,0,1-6.455,17.38A.8.8,0,0,1,470.7,338.544Z" transform="translate(-470.405 -286.113)" fill="#d3d8e6"/>
    </g>
    <path id="Path_53717" data-name="Path 53717" d="M376.751,362.092a11.808,11.808,0,1,1-11.809-11.809A11.81,11.81,0,0,1,376.751,362.092Z" transform="translate(436.469 354.7)" fill="#fff"/>
    <path id="Path_53717_-_Outline" data-name="Path 53717 - Outline" d="M364.942,374.4a12.31,12.31,0,1,1,8.7-3.605A12.225,12.225,0,0,1,364.942,374.4Zm0-23.619a11.309,11.309,0,1,0,11.309,11.309A11.321,11.321,0,0,0,364.942,350.783Z" transform="translate(436.469 354.7)" fill="#d3d8e6"/>
    <g id="Group_18537" data-name="Group 18537" transform="translate(942.066 497.008)">
      <path id="Path_53719" data-name="Path 53719" d="M416.227,264.218s15.154,11.7,15.432,53.769c.15,22.329-8.525,30.09-8.525,30.09Z" transform="translate(-416.227 -264.218)" fill="#fff"/>
      <path id="Path_53719_-_Outline" data-name="Path 53719 - Outline" d="M415.636,263.13l.9.693c.159.122,3.929,3.094,7.759,11.293a76.067,76.067,0,0,1,5.328,16.621,134.2,134.2,0,0,1,2.539,26.248,68.98,68.98,0,0,1-1.279,14.225,44.267,44.267,0,0,1-2.972,9.4,21.581,21.581,0,0,1-4.441,6.838l-.749.67Zm7.9,83.773a25.122,25.122,0,0,0,3.492-5.777c1.926-4.264,4.205-11.74,4.129-23.135-.143-21.576-4.282-34.944-7.73-42.36a41.415,41.415,0,0,0-5.17-8.553c-.559-.692-1.045-1.225-1.428-1.616Z" transform="translate(-416.227 -264.218)" fill="#d3d8e6"/>
    </g>
    <g id="Group_18542" data-name="Group 18542" transform="translate(924.34 493.07)">
      <g id="Group_18538" data-name="Group 18538" transform="translate(70.08)">
        <path id="Path_53720" data-name="Path 53720" d="M485.722,358.445l-4.893-36.532-42.937-53.185,7.559-6.14L490,318.206l5.28,38.384Z" transform="translate(-437.892 -262.588)" fill="#fff"/>
        <path id="Path_53720_-_Outline" data-name="Path 53720 - Outline" d="M485.3,359.037l-4.945-36.919L437.19,268.655l8.336-6.772.315.393L490.477,318l5.364,38.99Zm-46.7-90.235,42.712,52.906,4.841,36.145,8.574-1.664-5.2-37.779-44.149-55.117Z" transform="translate(-437.892 -262.588)" fill="#d3d8e6"/>
      </g>
      <g id="Group_18539" data-name="Group 18539" transform="translate(40.136 6.139)">
        <path id="Path_53721" data-name="Path 53721" d="M479.623,331.107a301.876,301.876,0,0,0-39.171-12L425.5,291.082l8.32-8.2c4.589-12.8,21.623-17.749,21.623-17.749l42.939,53.187Z" transform="translate(-425.501 -265.129)" fill="#fff"/>
        <path id="Path_53721_-_Outline" data-name="Path 53721 - Outline" d="M479.689,331.667l-.244-.094a304.107,304.107,0,0,0-39.1-11.981l-.226-.049-.109-.2-15.127-28.351,8.505-8.387a22.972,22.972,0,0,1,5.391-8.248,35.76,35.76,0,0,1,7.32-5.581,44.747,44.747,0,0,1,9.2-4.124l.32-.093,43.488,53.868Zm-38.9-13c1.01.227,5.323,1.217,11.547,2.949,6.511,1.812,16.5,4.828,27.227,8.931l18.1-12.338-42.385-52.5a45.722,45.722,0,0,0-8.683,3.94c-4.329,2.546-9.977,6.937-12.294,13.4l-.038.107-8.135,8.022Z" transform="translate(-425.501 -265.129)" fill="#d3d8e6"/>
      </g>
      <g id="Group_18540" data-name="Group 18540" transform="translate(92.103 59.326)">
        <path id="Path_53722" data-name="Path 53722" d="M472.812,323.669l-6.788,1.319c-4.079-2.83-10.374-15.93-10.374-15.93-2.83-3.678-5.742-7.148-8.644-10.5l20.915-11.423Z" transform="translate(-447.006 -287.139)" fill="#fff"/>
        <path id="Path_53722_-_Outline" data-name="Path 53722 - Outline" d="M465.912,325.52l-.173-.12c-4.057-2.814-10.034-15.076-10.517-16.077-2.431-3.157-5.163-6.474-8.594-10.434l-.406-.469,22.1-12.069,5.05,37.719ZM447.79,298.7c3.27,3.786,5.9,6.991,8.256,10.051l.032.041.023.047c.062.128,6.11,12.652,10.041,15.614l6.112-1.188-4.732-35.342Z" transform="translate(-447.006 -287.139)" fill="#d3d8e6"/>
      </g>
      <g id="Group_18541" data-name="Group 18541" transform="translate(0 26.561)">
        <path id="Path_53723" data-name="Path 53723" d="M424.5,273.58l24.522,5.53,14.952,28.023-55.087,6.32Z" transform="translate(-408.892 -273.58)" fill="#fff"/>
        <path id="Path_53723_-_Outline" data-name="Path 53723 - Outline" d="M424.2,273l25.165,5.675,15.406,28.873-56.643,6.5Zm24.5,6.55-23.88-5.385-15.153,38.7,53.531-6.141Z" transform="translate(-408.892 -273.58)" fill="#d3d8e6"/>
      </g>
    </g>
    <g id="Group_18543" data-name="Group 18543" transform="translate(628.73 672.158)">
      <path id="Path_53724" data-name="Path 53724" d="M286.676,336.7s-3.485,22.817,27.954,39.7c12.824,6.884,31.68,13.994,42.011,8.878h0Z" transform="translate(-286.561 -336.699)" fill="#fff"/>
      <path id="Path_53724_-_Outline" data-name="Path 53724 - Outline" d="M286.3,335.831l71.319,49.516-.759.376a19.9,19.9,0,0,1-8.854,1.795c-4.8,0-10.541-1.134-17.063-3.371a114.652,114.652,0,0,1-16.552-7.31,65.849,65.849,0,0,1-17.765-13.429A42.486,42.486,0,0,1,288.4,350.4a33.564,33.564,0,0,1-2.274-9.838,19.649,19.649,0,0,1,.058-3.939Zm69.331,49.354L287.1,337.6a22.954,22.954,0,0,0,.03,2.951,32.611,32.611,0,0,0,2.228,9.546c2.768,7.034,9.441,17.23,25.513,25.86,5.915,3.176,20.986,10.562,33.142,10.562A19.823,19.823,0,0,0,355.634,385.185Z" transform="translate(-286.561 -336.699)" fill="#d3d8e6"/>
    </g>
    <g id="Group_18544" data-name="Group 18544" transform="translate(627.71 384.891)">
      <path id="Path_53725" data-name="Path 53725" d="M357.239,553.979a.391.391,0,0,1-.145-.031c-2.88-1.525-70.443-37.366-70.951-47.288a1.959,1.959,0,0,1,.955-1.829c4.857-3.253,75.373-134.7,78.186-139.956-9.661-17.43-1.53-27.6,14.625-47.808,6.827-8.537,15.318-19.16,24.6-32.963,10.8-16.046,47.38-60.287,47.748-60.734a60.536,60.536,0,0,1,3.881-5.425c.068-.08.174-.147.254-.114L544.5,221.6a.319.319,0,0,1,.273.181,3.876,3.876,0,0,1-.087,2,26.044,26.044,0,0,0-.019,9.574c3.079,17.918,2.185,46.791-19.549,82.627a192.166,192.166,0,0,1-27.63,35.489.317.317,0,0,1-.442-.454,191.01,191.01,0,0,0,27.538-35.375c11.94-19.687,25.006-49.918,19.467-82.18a26.293,26.293,0,0,1,.022-9.787,7.39,7.39,0,0,0,.167-1.457l-87.719-3.76c-.36.447-1.73,2.177-3.763,5.278-.387.474-36.943,44.688-47.726,60.707-9.3,13.822-17.8,24.457-24.634,33-16.526,20.678-24.071,30.112-14.482,47.269a.314.314,0,0,1,0,.3c-3,5.592-73.413,136.943-78.478,140.331a1.363,1.363,0,0,0-.674,1.273c.481,9.282,65.784,44.2,70.368,46.634l84.372-123.568.019-.026,5.546-8.124a.362.362,0,0,1,.292-.133l.174.019a.32.32,0,0,1,.254.186.309.309,0,0,1-.027.307l-5.732,8.124-.019.026L357.5,553.846A.316.316,0,0,1,357.239,553.979Z" transform="translate(-286.14 -217.821)" fill="#fff"/>
      <path id="Path_53725_-_Outline" data-name="Path 53725 - Outline" d="M357.239,554.479a.888.888,0,0,1-.339-.071l-.04-.019c-1.923-1.018-19.286-10.244-36.389-20.508-10.007-6.006-17.991-11.207-23.731-15.46a69.251,69.251,0,0,1-7.878-6.593c-2.1-2.132-3.151-3.815-3.219-5.143a2.461,2.461,0,0,1,1.178-2.272c.29-.194,1.262-1.309,4.489-6.576,2.274-3.712,5.377-9.013,9.223-15.756,6.514-11.419,15.257-27.137,25.985-46.718,18.348-33.488,36.5-67.318,38.2-70.487a30.827,30.827,0,0,1-3.991-11.939,23.854,23.854,0,0,1,1.726-11.11,55.075,55.075,0,0,1,6.592-11.508c2.893-4.081,6.407-8.476,10.476-13.566,6.813-8.52,15.292-19.124,24.581-32.93,10.248-15.219,43.879-56.05,47.68-60.655l.079-.1a61,61,0,0,1,3.9-5.451h0a.789.789,0,0,1,.589-.3.622.622,0,0,1,.12.012l88.064,3.773a.817.817,0,0,1,.692.461l.007.014a4.116,4.116,0,0,1-.05,2.295l0,.019a25.571,25.571,0,0,0-.016,9.384c3.092,18,2.2,47-19.615,82.971a193.223,193.223,0,0,1-27.683,35.563l-.038.037a.829.829,0,0,1-.558.217.809.809,0,0,1-.582-.244.828.828,0,0,1,0-1.147l.013-.013c.035-.033,3.661-3.511,8.933-9.7a200.953,200.953,0,0,0,18.522-25.574c11.893-19.611,24.914-49.728,19.4-81.836a26.684,26.684,0,0,1,.022-9.957c.054-.325.107-.64.138-.893l-86.965-3.728c-.58.733-1.838,2.388-3.577,5.041l-.014.022-.017.02-.2.245c-6.2,7.521-37.64,45.782-47.5,60.425-9.291,13.807-17.785,24.435-24.61,32.975l-.057.072c-8.259,10.334-14.227,17.8-16.95,24.816-2.789,7.182-2.035,13.726,2.522,21.881a.81.81,0,0,1,.016.776l0,.008-.08.148c-4.77,8.9-21.667,40.349-38.809,71.618-10.643,19.413-19.318,34.99-25.785,46.3-10.879,19.022-13.181,21.92-13.967,22.446a.864.864,0,0,0-.453.833c.07,1.351,1.923,4.268,10.351,10.482,5.559,4.1,13.315,9.145,23.053,15,16.27,9.779,33.029,18.779,36.3,20.527l89.683-131.346a.855.855,0,0,1,.69-.355.654.654,0,0,1,.073,0l.173.019a.822.822,0,0,1,.65.468h0a.809.809,0,0,1-.067.807l-5.753,8.154L357.913,554.128A.818.818,0,0,1,357.239,554.479Z" transform="translate(-286.14 -217.821)" fill="#d3d8e6"/>
    </g>
    <g id="Group_18545" data-name="Group 18545" transform="translate(628.029 385.216)">
      <path id="Path_53726" data-name="Path 53726" d="M357.052,553.474l84.536-123.8,165.627-16.07-6.906-83.86-87.1,2.7s39.014-45.421,30.967-99.226c-1.075-7.191.578-10.524.126-11.5L456.2,217.956a59.457,59.457,0,0,0-3.881,5.423s-36.81,44.488-47.728,60.712c-31.4,46.667-52.895,55.959-39.128,80.59,0,0-73.316,136.841-78.372,140.217C277.411,511.357,357.052,553.474,357.052,553.474Zm84.536-123.8,5.565-8.148.169.024Z" transform="translate(-286.272 -217.956)" fill="#fff"/>
      <path id="Path_53726_-_Outline" data-name="Path 53726 - Outline" d="M357.213,554.125l-.395-.209c-.176-.093-17.781-9.417-35.222-19.827-10.25-6.118-18.441-11.41-24.345-15.728a73.273,73.273,0,0,1-8.143-6.705c-2.175-2.164-3.265-3.859-3.333-5.181a2.171,2.171,0,0,1,1.034-1.993c.305-.2,1.318-1.363,4.67-6.839,2.356-3.849,5.57-9.341,9.551-16.325,6.709-11.768,15.691-27.928,26.7-48.034,17.916-32.724,35.484-65.473,37.159-68.6a31.139,31.139,0,0,1-4.058-11.821,23.189,23.189,0,0,1,1.626-10.973c2.815-7.24,8.815-14.745,17.12-25.132,6.822-8.533,15.313-19.152,24.595-32.947,10.712-15.918,46.748-59.531,47.74-60.73a59.339,59.339,0,0,1,3.9-5.449l.158-.186,88.653,3.8.128.276a4.2,4.2,0,0,1-.044,2.192,28.955,28.955,0,0,0-.041,9.44,107.341,107.341,0,0,1-1.449,38.382,140.489,140.489,0,0,1-11.061,31.7,163.768,163.768,0,0,1-12.57,21.565c-2.4,3.464-4.315,5.911-5.292,7.119l86.47-2.682,6.986,84.824-.49.048L441.869,430.152Zm99.211-335.659c-.434.537-1.766,2.239-3.69,5.186l-.015.024-.018.022c-.368.445-36.92,44.654-47.7,60.672-9.3,13.829-17.809,24.466-24.643,33.013-8.25,10.318-14.21,17.773-16.969,24.87-2.845,7.317-2.095,13.951,2.506,22.184l.134.239-.129.241c-.183.342-18.547,34.608-37.292,68.847-11.01,20.11-20,36.276-26.708,48.049-11.383,19.966-13.747,22.975-14.535,23.5a1.175,1.175,0,0,0-.591,1.11c.074,1.438,2.053,4.536,11.066,11.129,5.878,4.3,14.043,9.574,24.265,15.676,15.972,9.533,32.084,18.156,34.786,19.594l83.681-122.544-.022,0,.627-.889,5.738-8.4,1.286.184-5.576,7.9,164.05-15.917-6.827-82.9-87.759,2.722.739-.861c.024-.028,2.472-2.89,5.954-7.919a162.763,162.763,0,0,0,12.489-21.435c7.944-16.427,16.546-41.815,12.409-69.473a29.865,29.865,0,0,1,.041-9.74,11.553,11.553,0,0,0,.16-1.347Z" transform="translate(-286.272 -217.956)" fill="#d3d8e6"/>
    </g>
    <g id="Group_18546" data-name="Group 18546" transform="translate(703.045 410.179)">
      <path id="Path_53727" data-name="Path 53727" d="M360.614,269.458c-24.943,37.071-43.565,50.568-43.3,66.893l75.068-108.066C381.031,242.336,366.745,260.348,360.614,269.458Z" transform="translate(-317.315 -228.286)" fill="#fff"/>
      <path id="Path_53727_-_Outline" data-name="Path 53727 - Outline" d="M392,227.972l.8.6-75.953,109.34-.025-1.551c-.081-4.93,1.47-9.754,5.028-15.644,3.275-5.421,7.942-11.269,13.85-18.674,6.8-8.516,15.253-19.115,24.5-32.863C366.394,259.974,380.91,241.689,392,227.972ZM317.855,334.7l65.873-94.828c-8.95,11.241-18.116,23.054-22.7,29.863-9.273,13.782-17.744,24.4-24.551,32.929C325.379,316.576,318.439,325.272,317.855,334.7Z" transform="translate(-317.315 -228.286)" fill="#d3d8e6"/>
    </g>
    <g id="Group_18547" data-name="Group 18547" transform="translate(643.522 531.94)">
      <path id="Path_53728" data-name="Path 53728" d="M356.377,278.674s-33.79,91.95-63.694,116.359Z" transform="translate(-292.683 -278.674)" fill="#fff"/>
      <path id="Path_53728_-_Outline" data-name="Path 53728 - Outline" d="M355.938,278.434l.908.413c-.085.23-8.594,23.306-20.649,49.066a403.217,403.217,0,0,1-20.519,38.9c-8.183,13.378-15.814,23-22.678,28.605l-.755-.627Zm-61.481,114.4c11.761-10.782,25.822-33.267,40.834-65.345,8.1-17.305,14.593-33.394,18-42.14Z" transform="translate(-292.683 -278.674)" fill="#d3d8e6"/>
    </g>
    <g id="Group_18548" data-name="Group 18548" transform="translate(861.383 497.008)">
      <path id="Path_53729" data-name="Path 53729" d="M382.838,266.72l80.683,6.97v-9.472Z" transform="translate(-382.838 -264.218)" fill="#fff"/>
      <path id="Path_53729_-_Outline" data-name="Path 53729 - Outline" d="M464.021,263.7v10.533l-.543-.047-80.683-6.97.028-1Zm-1,9.443v-8.412l-71.647,2.222Z" transform="translate(-382.838 -264.218)" fill="#d3d8e6"/>
    </g>
    <g id="Group_18549" data-name="Group 18549" transform="translate(627.71 384.891)">
      <path id="Path_53730" data-name="Path 53730" d="M357.239,553.979a.391.391,0,0,1-.145-.031c-2.88-1.525-70.443-37.366-70.951-47.288a1.959,1.959,0,0,1,.955-1.829c4.857-3.253,75.373-134.7,78.186-139.956-9.661-17.43-1.53-27.6,14.625-47.808,6.827-8.537,15.318-19.16,24.6-32.963,10.8-16.046,47.38-60.287,47.748-60.734a60.536,60.536,0,0,1,3.881-5.425c.068-.08.174-.147.254-.114L544.5,221.6a.319.319,0,0,1,.273.181,4.434,4.434,0,0,1-.046,2.124,31.032,31.032,0,0,0-.053,9.465c4.12,30.085-4.538,55.531-12.527,71.579A130.224,130.224,0,0,1,514.132,332.3l86.356-2.673h0a.315.315,0,0,1,.314.288l6.909,83.857a.322.322,0,0,1-.28.341l-165.491,16.06L357.5,553.846A.316.316,0,0,1,357.239,553.979Zm99.284-335.513c-.36.447-1.73,2.177-3.763,5.278-.387.474-36.943,44.688-47.726,60.707-9.3,13.822-17.8,24.457-24.634,33-16.526,20.678-24.071,30.112-14.482,47.269a.314.314,0,0,1,0,.3c-3,5.592-73.413,136.943-78.478,140.331a1.363,1.363,0,0,0-.674,1.273c.481,9.282,65.784,44.2,70.368,46.634l84.372-123.568.019-.026,5.546-8.124a.362.362,0,0,1,.292-.133l.174.019a.32.32,0,0,1,.254.186.309.309,0,0,1-.027.307l-5.343,7.571,164.633-15.973-6.856-83.258-86.8,2.694H513.4a.314.314,0,0,1-.285-.189.306.306,0,0,1,.058-.341c.389-.413,38.729-41.7,30.88-98.968a31.974,31.974,0,0,1,.053-9.635,8.091,8.091,0,0,0,.147-1.6Z" transform="translate(-286.14 -217.821)" fill="#fff"/>
      <path id="Path_53730_-_Outline" data-name="Path 53730 - Outline" d="M357.239,554.479a.888.888,0,0,1-.339-.071l-.04-.019c-1.923-1.018-19.284-10.243-36.389-20.508-10.007-6.006-17.991-11.207-23.731-15.46a69.251,69.251,0,0,1-7.878-6.593c-2.1-2.132-3.151-3.815-3.219-5.143a2.461,2.461,0,0,1,1.178-2.272c.29-.194,1.262-1.309,4.489-6.576,2.274-3.712,5.377-9.013,9.223-15.756,6.514-11.419,15.257-27.137,25.985-46.718,18.348-33.488,36.5-67.318,38.2-70.487a30.826,30.826,0,0,1-3.991-11.939,23.854,23.854,0,0,1,1.726-11.11,55.073,55.073,0,0,1,6.592-11.508c2.893-4.081,6.407-8.476,10.476-13.566,6.813-8.52,15.292-19.124,24.581-32.93,10.251-15.223,43.881-56.052,47.682-60.657l.077-.094a61,61,0,0,1,3.9-5.451h0a.789.789,0,0,1,.589-.3.623.623,0,0,1,.12.012l88.064,3.773a.816.816,0,0,1,.692.461l.007.014a4.477,4.477,0,0,1,0,2.351l-.007.048a30.544,30.544,0,0,0-.053,9.328c4.138,30.213-4.554,55.759-12.575,71.87A140.142,140.142,0,0,1,521.513,323.7c-2.705,3.813-4.959,6.56-6.25,8.063l85.224-2.637a.817.817,0,0,1,.818.751l6.909,83.859a.823.823,0,0,1-.714.871l-.016,0L442.225,430.648,357.913,554.128A.818.818,0,0,1,357.239,554.479Zm9.114-190a.81.81,0,0,1,.016.775l0,.008-.077.143c-4.767,8.889-21.653,40.323-38.8,71.6-10.646,19.419-19.324,35-25.793,46.313-10.883,19.029-13.186,21.929-13.972,22.454a.864.864,0,0,0-.453.833c.07,1.351,1.923,4.268,10.351,10.482,5.559,4.1,13.315,9.145,23.053,15,16.271,9.78,33.03,18.779,36.305,20.527l89.683-131.346a.855.855,0,0,1,.69-.355.655.655,0,0,1,.073,0l.173.019a.822.822,0,0,1,.65.468h0a.809.809,0,0,1-.067.807l-4.716,6.683,163.057-15.82-6.776-82.293-86.351,2.68a.811.811,0,0,1-.736-.472.8.8,0,0,1,.146-.9c.174-.186,9.81-10.549,18.443-28.041,7.844-15.893,16.345-41.028,12.3-70.514a32.428,32.428,0,0,1,.052-9.76l.016-.113c.049-.347.1-.683.122-.947l-86.987-3.728c-.58.733-1.838,2.388-3.577,5.041l-.014.022-.017.02-.2.245c-6.2,7.521-37.64,45.782-47.5,60.425-9.291,13.807-17.785,24.436-24.611,32.976l-.057.071c-8.259,10.334-14.227,17.8-16.95,24.816C361.042,349.775,361.8,356.319,366.353,364.474Z" transform="translate(-286.14 -217.821)" fill="#d3d8e6"/>
    </g>
    <g id="Group_18550" data-name="Group 18550" transform="translate(706.899 384.903)">
      <path id="Path_53731" data-name="Path 53731" d="M319.225,365.181a.343.343,0,0,1-.179-.053.32.32,0,0,1-.08-.442c33.555-48.857,99.637-145.753,100.3-146.73a.331.331,0,0,1,.442-.08.322.322,0,0,1,.08.442c-.662.967-66.741,97.866-100.3,146.73A.315.315,0,0,1,319.225,365.181Z" transform="translate(-318.91 -217.826)" fill="#fff"/>
      <path id="Path_53731_-_Outline" data-name="Path 53731 - Outline" d="M319.225,365.681a.844.844,0,0,1-.447-.131l-.025-.017a.817.817,0,0,1-.2-1.131c34.421-50.116,100-146.295,100.294-146.726a.8.8,0,0,1,.669-.35.884.884,0,0,1,.432.114l.025.014.023.017a.821.821,0,0,1,.2,1.126l-2.035,2.982C374.29,285.894,339.391,336.946,319.9,365.331A.818.818,0,0,1,319.225,365.681Z" transform="translate(-318.91 -217.826)" fill="#d3d8e6"/>
    </g>
    <g id="Group_18551" data-name="Group 18551" transform="translate(741.35 313.739)">
      <path id="Path_53732" data-name="Path 53732" d="M334.517,188.377s38.654,32.756,22.336,32.707C344.731,221.048,328.328,197.8,334.517,188.377Z" transform="translate(-333.166 -188.377)" fill="#fff"/>
      <path id="Path_53732_-_Outline" data-name="Path 53732 - Outline" d="M334.409,187.63l.431.365c.072.061,7.261,6.167,14.056,13.015a94.856,94.856,0,0,1,9.172,10.4c2.731,3.758,3.752,6.422,3.12,8.143-.494,1.346-1.94,2.028-4.3,2.028h-.038a13.655,13.655,0,0,1-5.771-1.461,26.307,26.307,0,0,1-5.71-3.8A41.679,41.679,0,0,1,336,204.62a27.846,27.846,0,0,1-3.17-8.954A10.708,10.708,0,0,1,334.1,188.1Zm22.479,32.954c1.9,0,3.027-.462,3.361-1.373.344-.938.1-2.951-2.99-7.211a93.9,93.9,0,0,0-9.073-10.286c-5.792-5.838-11.872-11.134-13.545-12.573a10.184,10.184,0,0,0-.819,6.382,26.848,26.848,0,0,0,3.061,8.622c4.277,7.953,12.73,16.417,19.971,16.438Z" transform="translate(-333.166 -188.377)" fill="#d3d8e6"/>
    </g>
    <g id="Group_18565" data-name="Group 18565" transform="translate(644.516 309.604)">
      <g id="Group_18553" data-name="Group 18553">
        <g id="Group_18552" data-name="Group 18552">
          <path id="Path_53733" data-name="Path 53733" d="M340.684,202.429a20.135,20.135,0,0,1-7.53-4.294c-3.228-3.088-10.14-8.608-14.782-10.188-3.468-1.179-6.09-2.168-6.406,0s3.53,6.007,4.1,6.046-14.54-4.891-16.268-4.57c-.831.155-4.055-.075-2.153,3.2,0,0-5.041.193-4.514,2.356s3.294,2.653,3.294,2.653-3.584.5-2.3,2.946,5.179,3.726,5.179,3.726-3.006.536-1.885,2.873,18.257,10.7,24.455,12.269a44.246,44.246,0,0,0,10.69,1.474l6.991.6Z" transform="translate(-293.094 -186.666)" fill="#fff"/>
          <path id="Path_53733_-_Outline" data-name="Path 53733 - Outline" d="M313.542,186.166h0a16.775,16.775,0,0,1,4.586,1.169l.405.138c4.749,1.617,11.7,7.176,14.966,10.3a19.73,19.73,0,0,0,7.319,4.174l.388.109-1.18,20.017-7.477-.646h-.141a46.115,46.115,0,0,1-10.655-1.491,88.743,88.743,0,0,1-14.231-5.885c-2.726-1.352-5.126-2.652-6.94-3.76-2.821-1.723-3.413-2.476-3.613-2.892a2.266,2.266,0,0,1-.086-2.087,2.547,2.547,0,0,1,1.043-1.019,9.106,9.106,0,0,1-4.243-3.477,2.168,2.168,0,0,1-.13-2.077,2.7,2.7,0,0,1,1.27-1.132,3.888,3.888,0,0,1-2.178-2.5,1.629,1.629,0,0,1,.284-1.41c.779-1.032,2.8-1.386,3.929-1.506a2.349,2.349,0,0,1-.121-2.058c.5-.963,1.8-1.082,2.58-1.152.155-.014.3-.027.389-.044a1.611,1.611,0,0,1,.294-.023c1.861,0,9.688,2.395,13.763,3.734-.265-.3-.532-.626-.787-.967-.787-1.051-1.686-2.564-1.506-3.8A1.866,1.866,0,0,1,313.542,186.166Zm26.621,16.625a20.4,20.4,0,0,1-7.353-4.295c-3.441-3.292-10.245-8.594-14.6-10.076l-.406-.138a16.45,16.45,0,0,0-4.264-1.116h0c-.7,0-.989.232-1.08.856a4.985,4.985,0,0,0,1.317,3.057,12.1,12.1,0,0,0,2.243,2.34c.078.03.139.054.186.075a.516.516,0,0,1,.367.589.507.507,0,0,1-.5.414h-.04a1.019,1.019,0,0,1-.467-.179c-2.357-.873-13.537-4.4-15.564-4.4a.655.655,0,0,0-.111.007c-.132.025-.294.039-.481.056-.575.052-1.536.14-1.783.616-.178.344-.018.98.452,1.79l.417.719-.83.032c-1.217.048-3.363.407-3.937,1.168a.627.627,0,0,0-.11.57c.442,1.812,2.872,2.275,2.9,2.28l-.02.987c-.451.064-1.7.38-2.051,1.065a1.224,1.224,0,0,0,.127,1.153c1.178,2.242,4.855,3.471,4.892,3.484l-.068.967a2.517,2.517,0,0,0-1.62.968,1.315,1.315,0,0,0,.1,1.2c.371.772,3.636,2.985,10.095,6.189A89.258,89.258,0,0,0,322,218.968a45.043,45.043,0,0,0,10.409,1.46h.174l6.506.562Z" transform="translate(-293.094 -186.666)" fill="#d3d8e6"/>
        </g>
      </g>
      <g id="Group_18556" data-name="Group 18556" transform="translate(4.211 5.627)">
        <g id="Group_18555" data-name="Group 18555">
          <g id="Group_18554" data-name="Group 18554">
            <path id="Path_53734" data-name="Path 53734" d="M309.053,194.617a.336.336,0,0,1-.367.089l-13.624-5.053a.344.344,0,0,1-.205-.437.351.351,0,0,1,.437-.2l13.627,5.053a.345.345,0,0,1,.205.437A.4.4,0,0,1,309.053,194.617Z" transform="translate(-294.837 -188.994)" fill="#fff"/>
            <path id="Path_53734_-_Outline" data-name="Path 53734 - Outline" d="M308.8,195.228a.819.819,0,0,1-.293-.054l-13.62-5.051a.844.844,0,0,1-.5-1.075l.018-.043a.868.868,0,0,1,.778-.511.82.82,0,0,1,.289.053l13.625,5.052a.845.845,0,0,1,.5,1.076l-.013.034a.906.906,0,0,1-.161.246A.839.839,0,0,1,308.8,195.228Z" transform="translate(-294.837 -188.994)" fill="#d3d8e6"/>
          </g>
        </g>
      </g>
      <g id="Group_18559" data-name="Group 18559" transform="translate(2.993 10.63)">
        <g id="Group_18558" data-name="Group 18558">
          <g id="Group_18557" data-name="Group 18557">
            <path id="Path_53735" data-name="Path 53735" d="M307.982,195.337a.327.327,0,0,1-.343.1l-13.061-3.7a.337.337,0,0,1-.232-.42.327.327,0,0,1,.418-.232l13.061,3.7a.334.334,0,0,1,.232.418A.278.278,0,0,1,307.982,195.337Z" transform="translate(-294.333 -191.065)" fill="#fff"/>
            <path id="Path_53735_-_Outline" data-name="Path 53735 - Outline" d="M307.736,195.949a.824.824,0,0,1-.239-.036l-13.053-3.7a.822.822,0,0,1-.5-.387.842.842,0,0,1-.083-.637.819.819,0,0,1,.8-.624.842.842,0,0,1,.239.035l13.055,3.7a.822.822,0,0,1,.5.387.839.839,0,0,1,.085.627.768.768,0,0,1-.193.359A.831.831,0,0,1,307.736,195.949Z" transform="translate(-294.333 -191.065)" fill="#d3d8e6"/>
          </g>
        </g>
      </g>
      <g id="Group_18562" data-name="Group 18562" transform="translate(5.873 17.308)">
        <g id="Group_18561" data-name="Group 18561">
          <g id="Group_18560" data-name="Group 18560">
            <path id="Path_53736" data-name="Path 53736" d="M305.37,196.505a.321.321,0,0,1-.326.1l-9.258-2.107a.34.34,0,0,1-.254-.406.335.335,0,0,1,.408-.254l9.258,2.107a.341.341,0,0,1,.256.406A.348.348,0,0,1,305.37,196.505Z" transform="translate(-295.525 -193.828)" fill="#fff"/>
            <path id="Path_53736_-_Outline" data-name="Path 53736 - Outline" d="M305.127,197.118a.819.819,0,0,1-.2-.025l-9.248-2.1a.825.825,0,0,1-.52-.364.838.838,0,0,1-.113-.638l.006-.024a.827.827,0,0,1,1.009-.606l9.247,2.1a.841.841,0,0,1,.637,1l-.009.036a.844.844,0,0,1-.2.356A.828.828,0,0,1,305.127,197.118Z" transform="translate(-295.525 -193.828)" fill="#d3d8e6"/>
          </g>
        </g>
      </g>
      <g id="Group_18564" data-name="Group 18564" transform="translate(20.724 6.406)">
        <g id="Group_18563" data-name="Group 18563">
          <path id="Path_53737" data-name="Path 53737" d="M301.67,189.317l.471.152c.029.017.909.08,4.12,1.829a.443.443,0,0,1,.169.587.433.433,0,0,1-.587.174A21.411,21.411,0,0,1,301.67,189.317Z" transform="translate(-301.67 -189.317)" fill="#fff"/>
          <path id="Path_53737_-_Outline" data-name="Path 53737 - Outline" d="M301.824,188.841l.452.146a19.023,19.023,0,0,1,4.225,1.872l.03.018a.945.945,0,0,1,.338,1.25.934.934,0,0,1-1.263.372,21.742,21.742,0,0,1-4.283-2.822Z" transform="translate(-301.67 -189.317)" fill="#d3d8e6"/>
        </g>
      </g>
    </g>
    <g id="Group_18566" data-name="Group 18566" transform="translate(690.98 320.106)">
      <path id="Path_53738" data-name="Path 53738" d="M313.448,196.273s37.011,4.086,38.159,4.241,16.785-9.5,16.785-9.5l15.514,22.72s-20.243,9.983-25.547,11.447-46.037-9.8-46.037-9.8Z" transform="translate(-312.322 -191.012)" fill="#fff"/>
      <path id="Path_53738_-_Outline" data-name="Path 53738 - Outline" d="M368.536,190.336l16.108,23.59-.517.255c-.828.408-20.346,10.02-25.635,11.48a5.757,5.757,0,0,1-1.485.15c-3.681,0-12.346-1.676-25.754-4.982-9.965-2.457-18.974-4.946-19.064-4.971l-.39-.108,1.181-20.031.523.058c1.5.166,36.473,4.027,38.137,4.238.252-.04,1.6-.523,8.737-4.743,3.93-2.325,7.715-4.661,7.752-4.684Zm14.632,23.2-14.92-21.85c-1.1.673-4.243,2.6-7.468,4.506-8.154,4.821-8.848,4.821-9.144,4.821a.727.727,0,0,1-.1-.006c-1.056-.142-33.113-3.684-37.625-4.182L312.845,215c3.917,1.074,36.038,9.81,44.162,9.81a4.916,4.916,0,0,0,1.219-.114C362.954,223.392,379.973,215.1,383.168,213.537Z" transform="translate(-312.322 -191.012)" fill="#d3d8e6"/>
    </g>
    <g id="Group_18567" data-name="Group 18567" transform="translate(913.409 271.59)">
      <path id="Path_53739" data-name="Path 53739" d="M404.52,171.1s-2.027,43.335,8.719,37c6.923-4.079,6.251-14.743,4.538-17.952C405.9,167.876,404.52,171.1,404.52,171.1Z" transform="translate(-404.368 -170.935)" fill="#fff"/>
      <path id="Path_53739_-_Outline" data-name="Path 53739 - Outline" d="M404.831,170.435h0c.531,0,1.5.345,3.731,3.329a137.452,137.452,0,0,1,9.656,16.15,16.467,16.467,0,0,1,1.024,8.952,15.621,15.621,0,0,1-1.693,5.4,10.9,10.9,0,0,1-4.056,4.266,4.517,4.517,0,0,1-2.276.7,3.569,3.569,0,0,1-2.622-1.227c-2.516-2.636-4.048-9.67-4.553-20.907-.374-8.3-.025-15.949-.021-16.025l0-.09.035-.083A.816.816,0,0,1,404.831,170.435Zm6.386,37.8a3.545,3.545,0,0,0,1.768-.563c3.644-2.147,4.875-6.046,5.266-8.938.47-3.475-.1-6.83-.915-8.347a136.6,136.6,0,0,0-9.574-16.021c-1.614-2.155-2.432-2.724-2.758-2.875-.064,1.621-.288,8.349.037,15.572.488,10.829,1.967,17.833,4.278,20.254A2.577,2.577,0,0,0,411.217,208.233Z" transform="translate(-404.368 -170.935)" fill="#d3d8e6"/>
    </g>
    <g id="Group_18568" data-name="Group 18568" transform="translate(561.191 752.454)">
      <path id="Path_53740" data-name="Path 53740" d="M262.354,369.927l33.141,16.131,68.058-6.352.934,9.693-70.976,6.35-34.9-16.833Z" transform="translate(-258.612 -369.927)" fill="#fff"/>
      <path id="Path_53740_-_Outline" data-name="Path 53740 - Outline" d="M262.1,369.245l33.491,16.3L364,379.162l1.031,10.691-71.615,6.407-35.449-17.1ZM295.4,386.569l-32.79-15.96-3.356,8.064L293.6,395.239l70.337-6.293-.838-8.7Z" transform="translate(-258.612 -369.927)" fill="#d3d8e6"/>
    </g>
    <g id="Group_18569" data-name="Group 18569" transform="translate(597.793 719.889)">
      <path id="Path_53741" data-name="Path 53741" d="M273.759,382.445a302.189,302.189,0,0,0,31.666-25.994l31.617,3.042,2.23,11.469c8.122,10.9,2.825,27.833,2.825,27.833l-68.058,6.353Z" transform="translate(-273.759 -356.451)" fill="#fff"/>
      <path id="Path_53741_-_Outline" data-name="Path 53741 - Outline" d="M273.546,405.7l-.29-23.507.213-.152c9.407-6.692,17.5-13.39,22.631-17.83,5.562-4.812,8.943-8.083,8.976-8.116l.166-.161,32.219,3.1,2.28,11.724a22.978,22.978,0,0,1,3.888,9.054,35.769,35.769,0,0,1,.6,9.185,44.755,44.755,0,0,1-1.655,9.95l-.1.318-.331.031Zm.716-23,.27,21.9,67.18-6.271a45.729,45.729,0,0,0,1.52-9.413c.274-5.015-.26-12.149-4.361-17.655l-.068-.091-2.181-11.214-31.017-2.985c-.748.716-3.959,3.761-8.844,7.987C291.651,369.38,283.613,376.034,274.262,382.7Z" transform="translate(-273.759 -356.451)" fill="#d3d8e6"/>
    </g>
    <g id="Group_18570" data-name="Group 18570" transform="translate(564.933 744.841)">
      <path id="Path_53742" data-name="Path 53742" d="M260.161,374.389,262.817,368c4.613-1.834,19.01.169,19.01.169,4.63-.324,9.13-.829,13.525-1.4L293.3,390.521Z" transform="translate(-260.161 -366.777)" fill="#fff"/>
      <path id="Path_53742_-_Outline" data-name="Path 53742 - Outline" d="M295.9,366.2l-2.168,25.088-34.218-16.657,2.918-7.014.2-.078a19.8,19.8,0,0,1,6.676-.809,108.5,108.5,0,0,1,12.536.94c4.011-.282,8.285-.724,13.445-1.39Zm-3.039,23.552,1.936-22.4c-4.927.628-9.053,1.049-12.939,1.321l-.052,0-.052-.007a107.926,107.926,0,0,0-12.45-.938,20.2,20.2,0,0,0-6.113.666l-2.391,5.749Z" transform="translate(-260.161 -366.777)" fill="#d3d8e6"/>
    </g>
    <g id="Group_18571" data-name="Group 18571" transform="translate(564.619 719.572)">
      <path id="Path_53743" data-name="Path 53743" d="M293.483,405.646a.272.272,0,0,1-.14-.034l-33.137-16.128a.319.319,0,0,1-.152-.4L262.7,382.7a.336.336,0,0,1,.181-.174c4.623-1.844,18.58.068,19.168.147,4.21-.292,8.4-.78,12.3-1.269a306.727,306.727,0,0,0,30.3-24.994.4.4,0,0,1,.254-.087l31.62,3.047a.321.321,0,0,1,.276.254l2.218,11.4c8.057,10.9,2.878,27.884,2.825,28.053a.328.328,0,0,1-.273.22l-68.058,6.353Zm-32.729-16.6,32.789,15.961,67.756-6.326c.556-1.931,4.623-17.336-2.832-27.35a.33.33,0,0,1-.053-.128l-2.192-11.23-31.24-3.013a308.915,308.915,0,0,1-30.322,24.991.3.3,0,0,1-.147.06c-3.929.488-8.165.983-12.479,1.283-.2-.019-14.185-1.957-18.793-.234Zm100.787,9.929h0Z" transform="translate(-260.031 -356.32)" fill="#fff"/>
      <path id="Path_53743_-_Outline" data-name="Path 53743 - Outline" d="M293.533,406.146h-.05a.772.772,0,0,1-.371-.09l-33.13-16.124a.815.815,0,0,1-.394-1.03l0-.01,2.651-6.387a.834.834,0,0,1,.448-.443l.01,0a20.138,20.138,0,0,1,6.826-.835,105.863,105.863,0,0,1,12.543.945c4.221-.295,8.474-.794,12.095-1.246a305.154,305.154,0,0,0,30.13-24.866l.029-.027a.9.9,0,0,1,.579-.207l.048,0,31.625,3.048a.824.824,0,0,1,.713.653l2.2,11.291c8.118,11.12,2.887,28.236,2.833,28.408l0,.006a.827.827,0,0,1-.691.561h-.011ZM261.4,388.806l32.24,15.693,67.274-6.281c.761-2.806,4.171-17.162-2.844-26.585l-.019-.027a.823.823,0,0,1-.126-.311L355.8,360.438l-30.641-2.956a308.528,308.528,0,0,1-30.21,24.877l-.005,0a.793.793,0,0,1-.378.148c-3.952.491-8.2.986-12.5,1.285l-.041,0-.041,0-.152-.019a106.705,106.705,0,0,0-12.362-.926,20.4,20.4,0,0,0-5.855.611Z" transform="translate(-260.031 -356.32)" fill="#d3d8e6"/>
    </g>
    <g id="Group_18572" data-name="Group 18572" transform="translate(629.459 693.443)">
      <path id="Path_53744" data-name="Path 53744" d="M333.379,360.475,318.479,375l-31.616-3.044,13.5-26.444Z" transform="translate(-286.863 -345.507)" fill="#fff"/>
      <path id="Path_53744_-_Outline" data-name="Path 53744 - Outline" d="M318.662,375.516l-32.578-3.137,14.047-27.524,34.122,15.467Zm-31.019-3.992,30.654,2.952,14.21-13.848L300.588,346.16Z" transform="translate(-286.863 -345.507)" fill="#d3d8e6"/>
    </g>
    <g id="Group_18573" data-name="Group 18573" transform="translate(637.644 689.845)">
      <path id="Path_53745" data-name="Path 53745" d="M328.581,362.584l-38.331-4.439,7.21-14.127Z" transform="translate(-290.251 -344.018)" fill="#fff"/>
      <path id="Path_53745_-_Outline" data-name="Path 53745 - Outline" d="M328.524,363.081l-39.046-4.522,7.78-15.244,31.58,18.839Zm-37.5-5.35,35.3,4.088-28.661-17.1Z" transform="translate(-290.251 -344.018)" fill="#d3d8e6"/>
    </g>
    <g id="Group_18574" data-name="Group 18574" transform="translate(785.144 276.401)">
      <path id="Path_53746" data-name="Path 53746" d="M430.944,172.926s42.339,84.858,35.518,112.587H452.2l-35.96,5.812a83.112,83.112,0,0,1-45.686-5.524l-7.6-3.221L351.3,185.8c-.445-3.688,9.734-4.818,28.343-7.312l23.179-.418Z" transform="translate(-351.289 -172.926)" fill="#fff"/>
      <path id="Path_53746_-_Outline" data-name="Path 53746 - Outline" d="M431.223,172.367l.168.336c.106.212,10.706,21.516,20.335,45.935A319.951,319.951,0,0,1,464.274,256.1a116.749,116.749,0,0,1,3.117,16.564,39.277,39.277,0,0,1-.444,12.969l-.094.381H452.244l-35.92,5.805a83.614,83.614,0,0,1-45.961-5.557l-7.869-3.334-.035-.288-11.652-96.778a2.793,2.793,0,0,1,1.665-2.721,17.852,17.852,0,0,1,4.945-1.748c4.31-1.019,10.825-1.887,19.074-2.986l3.089-.412.029,0h.029l23.138-.417Zm34.842,112.646c1.409-6.257.482-15.9-2.76-28.664A318.927,318.927,0,0,0,450.8,219.011c-8.952-22.7-18.746-42.711-20.135-45.525l-27.788,5.084-23.191.418-3.061.409c-8.221,1.1-14.715,1.961-18.976,2.968-4.149.981-6.007,2.053-5.848,3.376l11.618,96.491,7.336,3.108a82.6,82.6,0,0,0,45.411,5.491l36-5.818Z" transform="translate(-351.289 -172.926)" fill="#d3d8e6"/>
    </g>
    <g id="Group_18575" data-name="Group 18575" transform="translate(824.689 280.451)">
      <path id="Path_53747" data-name="Path 53747" d="M374.029,175.8l-6.375,24.885s6.79,1.585,13.849-14.2l4.125-11.879h0l-5.981,1.095Z" transform="translate(-367.654 -174.602)" fill="#fff"/>
      <path id="Path_53747_-_Outline" data-name="Path 53747 - Outline" d="M386.382,173.956l-4.422,12.73c-2.552,5.707-5.361,9.825-8.349,12.238a8.809,8.809,0,0,1-5.417,2.3,3.043,3.043,0,0,1-.653-.057l-.5-.116,6.6-25.749,5.958-.108ZM381.038,186.3l3.837-11.049-5.177.948-5.278.1-6.131,23.935C369.957,200.185,375.364,198.975,381.038,186.3Z" transform="translate(-367.654 -174.602)" fill="#d3d8e6"/>
    </g>
    <g id="Group_18576" data-name="Group 18576" transform="translate(864.798 271.752)">
      <path id="Path_53748" data-name="Path 53748" d="M390.634,216.751c20.142,10.053,45.74-4.918,51.984-9.78l-9.6-35.97c-15.408,2.267-46.781,5.029-48.762,4.649C384.252,175.651,385.318,214.1,390.634,216.751Z" transform="translate(-384.252 -171.002)" fill="#fff"/>
      <path id="Path_53748_-_Outline" data-name="Path 53748 - Outline" d="M405.863,220.651h0a34.276,34.276,0,0,1-15.451-3.452,5.122,5.122,0,0,1-2.04-2.784,30.619,30.619,0,0,1-1.466-5.1,127.593,127.593,0,0,1-1.953-14.061c-.922-9.846-1.2-19.492-1.2-19.589l-.017-.622.611.117a3.986,3.986,0,0,0,.613.026c2.507,0,10.743-.62,20.494-1.543,11-1.042,21.023-2.185,27.489-3.136l.441-.065,9.8,36.72-.261.2A74.428,74.428,0,0,1,417.88,219.1,50.331,50.331,0,0,1,405.863,220.651Zm-21.094-44.466c.072,2.177.385,10.505,1.179,18.98a126.61,126.61,0,0,0,1.936,13.944c1.185,5.561,2.372,6.9,2.974,7.2a33.287,33.287,0,0,0,15,3.347c15.836,0,31.216-9.1,36.187-12.873l-9.4-35.217c-6.491.94-16.325,2.058-27.1,3.078-9.779.926-18.052,1.548-20.588,1.548Z" transform="translate(-384.252 -171.002)" fill="#d3d8e6"/>
    </g>
    <g id="Group_18577" data-name="Group 18577" transform="translate(742.7 287.396)">
      <path id="Path_53749" data-name="Path 53749" d="M412.486,208.47c-28.71,23.747-27.48,23.561-56.425,28.055l-22.336-32.707c3.5,2.24,43.772-26.342,43.772-26.342S417.063,204.683,412.486,208.47Z" transform="translate(-333.725 -177.476)" fill="#fff"/>
      <path id="Path_53749_-_Outline" data-name="Path 53749 - Outline" d="M355.826,237.068,333.312,204.1l.682-.7a.554.554,0,0,0,.279.046c.869,0,3.137-.706,9.007-4.069,3.822-2.19,8.719-5.246,14.554-9.082,9.942-6.536,19.28-13.157,19.373-13.224l.285-.2.288.2c.088.06,8.884,6.118,17.6,12.827,5.125,3.946,9.222,7.343,12.177,10.1a42.4,42.4,0,0,1,4.09,4.269,6.464,6.464,0,0,1,1.7,3.3,1.529,1.529,0,0,1-.548,1.3l-3.384,2.8c-12.655,10.483-19.007,15.744-25.694,18.928s-13.682,4.275-27.59,6.434Zm-21.093-32.661L356.3,235.983c27.31-4.241,27.406-4.32,52.487-25.1l3.384-2.8a.529.529,0,0,0,.186-.483c-.058-1.308-2.42-5.245-17.583-16.918-7.811-6.013-15.686-11.5-17.27-12.6-1.646,1.163-10.136,7.137-19.117,13.041-5.852,3.847-10.766,6.914-14.606,9.114C339.31,202.8,336.339,204.171,334.732,204.406Z" transform="translate(-333.725 -177.476)" fill="#d3d8e6"/>
    </g>
    <g id="Group_18578" data-name="Group 18578" transform="translate(742.381 271.431)">
      <path id="Path_53750" data-name="Path 53750" d="M428.034,295.621A83.206,83.206,0,0,1,395.506,289l-7.6-3.221a.312.312,0,0,1-.193-.246l-5.425-45.082c-6.293,2.685-13.361,3.782-25.987,5.746a.355.355,0,0,1-.307-.135l-22.34-32.712a.317.317,0,0,1,.031-.4.339.339,0,0,1,.4-.044c2.223,1.389,22.848-11.855,42.361-25.581,1.783-2.709,10.169-3.828,25.3-5.846l2.934-.391,23.215-.425,28.072-5.14a.3.3,0,0,1,.114,0c1.977.375,33.444-2.414,48.656-4.649.121-.046.307.077.353.23l9.6,35.974a.321.321,0,0,1-.114.326c-4.857,3.782-20.6,13.2-36.909,13.2-.483,0-.969-.012-1.45-.029,9.144,23.061,19.2,53.385,15.625,67.92a.316.316,0,0,1-.307.242H477.27l-35.909,5.812A83.589,83.589,0,0,1,428.034,295.621Zm-39.717-10.348,7.428,3.154a82.53,82.53,0,0,0,45.51,5.5l35.962-5.812h14.064c3.393-14.571-6.728-44.848-15.84-67.749a.308.308,0,0,1,.039-.3.316.316,0,0,1,.254-.131h.015c.621.031,1.235.044,1.856.044,15.915,0,31.714-9.342,36.412-12.933l-9.473-35.5c-15.669,2.288-46.066,4.966-48.523,4.62l-28.072,5.135-23.23.425-2.892.389c-14.557,1.94-23.336,3.11-24.885,5.609a.341.341,0,0,1-.087.089c-11.2,7.878-36.646,25.385-42.284,25.774l21.826,31.963c12.708-1.972,19.736-3.074,26.023-5.833a.277.277,0,0,1,.28.015.317.317,0,0,1,.16.232Z" transform="translate(-333.593 -170.869)" fill="#fff"/>
      <path id="Path_53750_-_Outline" data-name="Path 53750 - Outline" d="M428.034,296.121a83.706,83.706,0,0,1-32.724-6.659l-7.6-3.219a.809.809,0,0,1-.5-.641v-.008l-5.346-44.426c-6.182,2.52-13.135,3.6-25.432,5.515l-.1.015H356.3a.839.839,0,0,1-.723-.358l-22.335-32.7a.812.812,0,0,1,.073-1.018l.024-.025a.84.84,0,0,1,.577-.227.8.8,0,0,1,.43.121.471.471,0,0,0,.187.024c3.131,0,19.823-10.261,41.547-25.538.972-1.378,3.35-2.373,7.905-3.315,4.231-.875,10.171-1.667,17.691-2.67l2.962-.4h.029l23.174-.425,28.02-5.13a.8.8,0,0,1,.3,0h.007a3.9,3.9,0,0,0,.594.025c5.169,0,33.849-2.617,47.861-4.673a.662.662,0,0,1,.163-.02.847.847,0,0,1,.776.6l0,.015,9.605,35.994a.822.822,0,0,1-.294.83h0a70.538,70.538,0,0,1-14.271,8.083,69.692,69.692,0,0,1-10.863,3.677,51.011,51.011,0,0,1-12.082,1.545c-.223,0-.455,0-.706-.008a327.91,327.91,0,0,1,12.322,36.509c3.648,13.957,4.673,24.39,3.045,31.009a.813.813,0,0,1-.792.622H477.311l-35.869,5.805A84.357,84.357,0,0,1,428.034,296.121Zm-39.256-11.195,7.162,3.04a81.825,81.825,0,0,0,32.083,6.531h0a81.774,81.774,0,0,0,13.149-1.067l36-5.818h13.7c3.1-14.589-6.912-44.466-15.9-67.064a.8.8,0,0,1,.1-.787.817.817,0,0,1,.654-.33h.04c.57.029,1.169.043,1.831.043,15.563,0,30.871-8.927,35.842-12.629L504.175,172.1c-14.778,2.128-42.064,4.592-47.435,4.592-.306,0-.538-.008-.7-.025L428,181.793l-23.242.426-2.876.387c-7.313.975-13.09,1.745-17.279,2.589-2.7.544-6.391,1.425-7.235,2.786l0,.007a.838.838,0,0,1-.223.23c-6.035,4.246-14.97,10.42-23.242,15.706-4.668,2.983-8.6,5.342-11.677,7.014a31.6,31.6,0,0,1-6.794,3.01L356.63,245c12.446-1.931,19.354-3.018,25.566-5.739a.731.731,0,0,1,.341-.083.834.834,0,0,1,.816.713v.006Z" transform="translate(-333.593 -170.869)" fill="#d3d8e6"/>
    </g>
    <g id="Group_18579" data-name="Group 18579" transform="translate(665.254 393.297)">
      <path id="Path_53751" data-name="Path 53751" d="M301.987,530.52a.216.216,0,0,1-.085-.012.311.311,0,0,1-.215-.389c.094-.341,9.775-34.827,33.94-82.125C357.934,404.34,397.49,340.54,459.287,284.46c29.45-26.722,34.227-62.524,34.266-62.887a.32.32,0,0,1,.355-.273.317.317,0,0,1,.273.355c-.046.36-4.843,36.39-34.467,63.273-61.722,56-101.239,119.74-123.519,163.338-24.138,47.24-33.807,81.677-33.906,82.025A.307.307,0,0,1,301.987,530.52Z" transform="translate(-301.676 -221.3)" fill="#fff"/>
      <path id="Path_53751_-_Outline" data-name="Path 53751 - Outline" d="M301.987,531.02a.708.708,0,0,1-.241-.037.812.812,0,0,1-.542-.992v-.005c.095-.343,9.758-34.817,33.976-82.219C357.507,404.078,397.1,340.217,458.951,284.09c15.136-13.734,23.584-29.916,28.006-41.074a99.363,99.363,0,0,0,6.1-21.5v-.008a.82.82,0,0,1,.834-.711h.037l.036,0a.818.818,0,0,1,.715.907v.008A101.376,101.376,0,0,1,488.5,243.53a118,118,0,0,1-10.493,20.493A106.867,106.867,0,0,1,460.051,285.3c-61.663,55.951-101.146,119.629-123.41,163.2a569.032,569.032,0,0,0-25.826,58.228c-5.291,14.11-7.775,22.754-8.041,23.694l0,.008A.806.806,0,0,1,301.987,531.02Z" transform="translate(-301.676 -221.3)" fill="#d3d8e6"/>
    </g>
    <g id="Group_18580" data-name="Group 18580" transform="translate(885.438 388.795)">
      <path id="Path_53752" data-name="Path 53752" d="M408.29,219.437s-4.673,11.582-15,11.689l-.5-5.916,1.24-5.773Z" transform="translate(-392.793 -219.437)" fill="#fff"/>
      <path id="Path_53752_-_Outline" data-name="Path 53752 - Outline" d="M393.629,218.937h15.4l-.277.687a24.251,24.251,0,0,1-3.71,5.94,18.626,18.626,0,0,1-4.8,4.122,13.943,13.943,0,0,1-6.948,1.939l-.465,0-.54-6.453Zm13.885,1H394.437l-1.139,5.305.45,5.371c3.936-.176,7.472-2.083,10.515-5.672A24.448,24.448,0,0,0,407.513,219.937Z" transform="translate(-392.793 -219.437)" fill="#d3d8e6"/>
    </g>
    <g id="Group_18581" data-name="Group 18581" transform="translate(875.555 304.283)">
      <path id="Path_53753" data-name="Path 53753" d="M403.47,216.625a.32.32,0,0,1-.3-.22c-6.2-19.366-14.332-31.327-14.412-31.448a.315.315,0,1,1,.522-.353c.08.116,8.264,12.148,14.489,31.613a.312.312,0,0,1-.205.394A.365.365,0,0,1,403.47,216.625Z" transform="translate(-388.703 -184.464)" fill="#fff"/>
      <path id="Path_53753_-_Outline" data-name="Path 53753 - Outline" d="M403.47,217.125a.821.821,0,0,1-.772-.556l0-.011c-5.922-18.5-13.5-30.053-14.343-31.31l-.006-.009a.822.822,0,0,1,.2-1.124l0,0a.817.817,0,0,1,1.147.216c.224.328,8.357,12.376,14.548,31.734a.8.8,0,0,1-.045.614.824.824,0,0,1-.483.413l-.02.006A.848.848,0,0,1,403.47,217.125Z" transform="translate(-388.703 -184.464)" fill="#d3d8e6"/>
    </g>
    <g id="Group_18595" data-name="Group 18595" transform="translate(942.066 184.474)">
      <g id="Group_18583" data-name="Group 18583">
        <g id="Group_18582" data-name="Group 18582">
          <path id="Path_53754" data-name="Path 53754" d="M420.753,181.754a20.116,20.116,0,0,0-.967-8.615c-1.561-4.185-3.9-12.716-3.518-17.6.285-3.651.416-6.45,2.535-5.884s4.12,5.618,3.932,6.157,1.254-15.289,2.233-16.751c.469-.7,1.532-3.753,3.794-.71,0,0,2.168-4.553,3.946-3.216s1.138,4.074,1.138,4.074,1.87-3.093,3.613-.945,1.377,6.23,1.377,6.23,1.679-2.549,3.383-.6,2.612,21,1.6,27.311a44.251,44.251,0,0,1-2.868,10.405l-1.844,11.867C429.919,189.888,420.753,181.754,420.753,181.754Z" transform="translate(-416.227 -134.884)" fill="#fff"/>
          <path id="Path_53754_-_Outline" data-name="Path 53754 - Outline" d="M439.51,194.168l-.58-.227a61.5,61.5,0,0,1-12.737-7.267c-3.421-2.468-5.748-4.527-5.771-4.547l-.2-.177.035-.264a19.768,19.768,0,0,0-.94-8.374c-1.579-4.234-3.939-12.816-3.548-17.818l.032-.411a23.674,23.674,0,0,1,.517-4.042c.133-.486.538-1.965,1.976-1.965a2.487,2.487,0,0,1,.638.09c1.207.323,2.241,1.748,2.9,2.887.212.37.406.744.577,1.107.152-1.7.386-4.014.655-6.274.852-7.152,1.334-7.872,1.493-8.109.049-.073.118-.2.193-.338.389-.718,1.04-1.919,2.189-1.919a2.441,2.441,0,0,1,1.735.931,13.3,13.3,0,0,1,.709-1.125c.912-1.289,1.8-1.942,2.633-1.942a1.633,1.633,0,0,1,1,.346,3.9,3.9,0,0,1,1.441,2.992A2.614,2.614,0,0,1,436.12,137a2.216,2.216,0,0,1,1.727.944,9.114,9.114,0,0,1,1.518,5.272,2.479,2.479,0,0,1,1.48-.56,2.314,2.314,0,0,1,1.751.907c.3.348.761,1.189,1.229,4.462.3,2.1.547,4.822.712,7.86a88.525,88.525,0,0,1-.22,15.4,44.96,44.96,0,0,1-2.878,10.47Zm-18.23-12.619c.622.537,2.687,2.287,5.508,4.322a62,62,0,0,0,11.926,6.907l1.758-11.314.029-.063a44.255,44.255,0,0,0,2.83-10.277,89.034,89.034,0,0,0,.209-15.185c-.39-7.2-1.133-11.073-1.7-11.719a1.373,1.373,0,0,0-1-.565c-.7,0-1.386.8-1.592,1.109l-.915-.32c0-.039.322-3.908-1.268-5.871a1.264,1.264,0,0,0-.95-.574c-.785,0-1.617,1.083-1.846,1.463l-.915-.372c.005-.023.538-2.438-.952-3.561a.647.647,0,0,0-.4-.145c-.971,0-2.3,2.14-2.8,3.177l-.357.75-.5-.667c-.539-.725-1.045-1.124-1.426-1.124-.554,0-1.027.874-1.31,1.4-.089.165-.166.307-.241.418-.119.178-.566,1.256-1.331,7.671-.428,3.593-.765,7.307-.826,8.469a1.02,1.02,0,0,1-.02.5.508.508,0,0,1-.48.348h-.214l-.149-.156c-.153-.16-.154-.331-.141-.627a12.129,12.129,0,0,0-1.262-2.986,4.985,4.985,0,0,0-2.286-2.419,1.493,1.493,0,0,0-.379-.056c-.334,0-.715.146-1.012,1.229a23.175,23.175,0,0,0-.484,3.855l-.032.412c-.358,4.584,1.824,12.929,3.488,17.39A20.412,20.412,0,0,1,421.28,181.549Z" transform="translate(-416.227 -134.884)" fill="#d3d8e6"/>
        </g>
      </g>
      <g id="Group_18586" data-name="Group 18586" transform="translate(11.454 3.121)">
        <g id="Group_18585" data-name="Group 18585">
          <g id="Group_18584" data-name="Group 18584">
            <path id="Path_53755" data-name="Path 53755" d="M421.419,151.352a.337.337,0,0,0,.227-.3l.742-14.511a.343.343,0,0,0-.321-.362.349.349,0,0,0-.355.324l-.744,14.511a.341.341,0,0,0,.321.362A.388.388,0,0,0,421.419,151.352Z" transform="translate(-420.967 -136.176)" fill="#fff"/>
            <path id="Path_53755_-_Outline" data-name="Path 53755 - Outline" d="M421.289,151.873h-.026a.841.841,0,0,1-.795-.891l.744-14.5a.843.843,0,0,1,.842-.8h.045a.843.843,0,0,1,.789.89l-.742,14.505a.839.839,0,0,1-.563.752A.883.883,0,0,1,421.289,151.873Z" transform="translate(-420.967 -136.176)" fill="#d3d8e6"/>
          </g>
        </g>
      </g>
      <g id="Group_18589" data-name="Group 18589" transform="translate(15.516 3.978)">
        <g id="Group_18588" data-name="Group 18588">
          <g id="Group_18587" data-name="Group 18587">
            <path id="Path_53756" data-name="Path 53756" d="M423.1,150.654a.328.328,0,0,0,.222-.278l1.762-13.46a.334.334,0,0,0-.292-.379.324.324,0,0,0-.379.292l-1.762,13.462a.335.335,0,0,0,.295.377A.28.28,0,0,0,423.1,150.654Z" transform="translate(-422.648 -136.531)" fill="#fff"/>
            <path id="Path_53756_-_Outline" data-name="Path 53756 - Outline" d="M423,151.173a.729.729,0,0,1-.134-.012.838.838,0,0,1-.544-.323.821.821,0,0,1-.161-.614l1.761-13.454a.823.823,0,0,1,.816-.739.814.814,0,0,1,.139.012.834.834,0,0,1,.709.941l-1.76,13.449a.832.832,0,0,1-.552.692A.822.822,0,0,1,423,151.173Z" transform="translate(-422.648 -136.531)" fill="#d3d8e6"/>
          </g>
        </g>
      </g>
      <g id="Group_18592" data-name="Group 18592" transform="translate(20.549 9.267)">
        <g id="Group_18591" data-name="Group 18591">
          <g id="Group_18590" data-name="Group 18590">
            <path id="Path_53757" data-name="Path 53757" d="M425.181,148.713a.323.323,0,0,0,.222-.261l1.723-9.335a.339.339,0,1,0-.667-.118l-1.723,9.337a.34.34,0,0,0,.271.394A.38.38,0,0,0,425.181,148.713Z" transform="translate(-424.73 -138.719)" fill="#fff"/>
            <path id="Path_53757_-_Outline" data-name="Path 53757 - Outline" d="M425.06,149.233h0a.946.946,0,0,1-.112-.007l-.037-.006a.851.851,0,0,1-.54-.361.822.822,0,0,1-.125-.618l1.721-9.325a.828.828,0,0,1,.833-.7.906.906,0,0,1,.126.009l.021,0a.844.844,0,0,1,.543.355.825.825,0,0,1,.129.623l-1.721,9.327a.826.826,0,0,1-.55.649A.853.853,0,0,1,425.06,149.233Z" transform="translate(-424.73 -138.719)" fill="#d3d8e6"/>
          </g>
        </g>
      </g>
      <g id="Group_18594" data-name="Group 18594" transform="translate(6.391 18.493)">
        <g id="Group_18593" data-name="Group 18593">
          <path id="Path_53758" data-name="Path 53758" d="M419.029,142.537l-.046.493c0,.031-.285.865.051,4.507a.445.445,0,0,0,.474.387.433.433,0,0,0,.392-.469A21.329,21.329,0,0,0,419.029,142.537Z" transform="translate(-418.872 -142.537)" fill="#fff"/>
          <path id="Path_53758_-_Outline" data-name="Path 53758 - Outline" d="M419.5,142.36a21.646,21.646,0,0,1,.9,5.047.933.933,0,0,1-.839,1.013.913.913,0,0,1-.1.005.948.948,0,0,1-.92-.8l-.005-.04a19.111,19.111,0,0,1-.049-4.619l.044-.473Z" transform="translate(-418.872 -142.537)" fill="#d3d8e6"/>
        </g>
      </g>
    </g>
    <g id="Group_18596" data-name="Group 18596" transform="translate(791.017 334.005)">
      <path id="Path_53759" data-name="Path 53759" d="M354.035,203.632a.315.315,0,0,1-.147-.594c5.191-2.726,4.338-5.746,4.3-5.872a.314.314,0,0,1,.208-.394.336.336,0,0,1,.394.205c.046.147,1.083,3.63-4.6,6.621A.408.408,0,0,1,354.035,203.632Z" transform="translate(-353.719 -196.764)" fill="#fff"/>
      <path id="Path_53759_-_Outline" data-name="Path 53759 - Outline" d="M354.035,204.132a.825.825,0,0,1-.715-.42l-.009-.017a.82.82,0,0,1,.345-1.1,7.879,7.879,0,0,0,3.859-3.606,2.748,2.748,0,0,0,.193-1.671.8.8,0,0,1,.056-.626.816.816,0,0,1,.476-.4l.043-.012a.849.849,0,0,1,.184-.02.822.822,0,0,1,.795.562,4.21,4.21,0,0,1-.157,2.562c-.629,1.781-2.207,3.347-4.69,4.653l-.039.018A.9.9,0,0,1,354.035,204.132Z" transform="translate(-353.719 -196.764)" fill="#d3d8e6"/>
    </g>
    <g id="Group_18597" data-name="Group 18597" transform="translate(783.028 518.007)">
      <path id="Path_53760" data-name="Path 53760" d="M350.729,352.155a.314.314,0,0,1-.254-.493l55.49-78.621a.317.317,0,0,1,.519.362l-55.5,78.618A.321.321,0,0,1,350.729,352.155Z" transform="translate(-350.413 -272.908)" fill="#fff"/>
      <path id="Path_53760_-_Outline" data-name="Path 53760 - Outline" d="M350.729,352.655a.8.8,0,0,1-.478-.158.819.819,0,0,1-.329-.539.785.785,0,0,1,.15-.591l55.5-78.627a.819.819,0,0,1,.656-.331.809.809,0,0,1,.475.155.824.824,0,0,1,.333.534.794.794,0,0,1-.138.6l-55.5,78.628A.818.818,0,0,1,350.729,352.655Z" transform="translate(-350.413 -272.908)" fill="#d3d8e6"/>
    </g>
    <g id="Group_18598" data-name="Group 18598" transform="translate(914.259 232.317)">
      <path id="Path_53761" data-name="Path 53761" d="M456.107,166.405l-6.969,30.721a25.819,25.819,0,0,1-11.894,16.435l-23.938,14.378-8.586-32.847,17.657-2.462,15.374-37.946Z" transform="translate(-404.72 -154.683)" fill="#fff"/>
      <path id="Path_53761_-_Outline" data-name="Path 53761 - Outline" d="M437.513,153.938l19.159,12.235-7.047,31.064A26.319,26.319,0,0,1,437.5,213.99l-24.51,14.722-8.9-34.037,17.928-2.5Zm18.028,12.7-17.553-11.21-15.256,37.657-17.386,2.425,8.275,31.657,23.365-14.034a25.441,25.441,0,0,0,11.664-16.116Z" transform="translate(-404.72 -154.683)" fill="#d3d8e6"/>
    </g>
    <g id="Group_18599" data-name="Group 18599" transform="translate(659.903 319.38)">
      <path id="Path_53762" data-name="Path 53762" d="M300.328,205.944a.314.314,0,0,1-.307-.247c-2.458-11.183,3.975-14.907,4.043-14.944a.313.313,0,0,1,.428.118.309.309,0,0,1-.121.428c-.06.039-6.087,3.562-3.733,14.265a.315.315,0,0,1-.242.375A.307.307,0,0,1,300.328,205.944Z" transform="translate(-299.462 -190.711)" fill="#fff"/>
      <path id="Path_53762_-_Outline" data-name="Path 53762 - Outline" d="M300.328,206.444a.812.812,0,0,1-.794-.635,20.868,20.868,0,0,1-.423-7.226,13.356,13.356,0,0,1,1.549-4.782,9.555,9.555,0,0,1,3.137-3.47.769.769,0,0,1,.416-.12.831.831,0,0,1,.708.4l.005.009a.818.818,0,0,1,.075.63.8.8,0,0,1-.379.478,8.109,8.109,0,0,0-2.627,3.019c-1.5,2.784-1.8,6.485-.87,10.7a.817.817,0,0,1-.611.97A.764.764,0,0,1,300.328,206.444Z" transform="translate(-299.462 -190.711)" fill="#d3d8e6"/>
    </g>
    <g id="Group_18600" data-name="Group 18600" transform="translate(949.981 202.19)">
      <path id="Path_53763" data-name="Path 53763" d="M434.387,145.346a.309.309,0,0,1-.121-.024c-.114-.048-11.1-4.647-14.216-1.232a.316.316,0,0,1-.466-.428c3.427-3.717,14.456.882,14.924,1.08a.311.311,0,0,1,.167.413A.306.306,0,0,1,434.387,145.346Z" transform="translate(-419.502 -142.216)" fill="#fff"/>
      <path id="Path_53763_-_Outline" data-name="Path 53763 - Outline" d="M434.387,145.846a.8.8,0,0,1-.311-.062l-.006,0c-.058-.024-5.9-2.453-10.139-2.453a4.63,4.63,0,0,0-3.512,1.1l-.019.02a.838.838,0,0,1-.589.243.8.8,0,0,1-.549-.218.822.822,0,0,1-.055-1.138l.009-.011c.983-1.066,2.581-1.607,4.749-1.607,4.6,0,10.457,2.447,10.735,2.565a.814.814,0,0,1-.313,1.566Z" transform="translate(-419.502 -142.216)" fill="#d3d8e6"/>
    </g>
    <g id="Group_18601" data-name="Group 18601" transform="translate(846.38 531.94)">
      <path id="Path_53764" data-name="Path 53764" d="M376.63,278.674" transform="translate(-376.63 -278.674)" fill="#fff"/>
      <path id="Path_53764_-_Outline" data-name="Path 53764 - Outline" transform="translate(-376.63 -278.674)" fill="#d3d8e6"/>
    </g>
    <g id="Group_18602" data-name="Group 18602" transform="translate(783.345 543.415)">
      <path id="Path_53765" data-name="Path 53765" d="M374.713,334.6l-24.169,2.345,32.587-46.995,4.608-6.529Z" transform="translate(-350.545 -283.422)" fill="#fff"/>
      <path id="Path_53765_-_Outline" data-name="Path 53765 - Outline" d="M349.519,337.548l33.2-47.882,4.611-6.532.893.412-13.113,51.519Zm37.069-51.626-3.048,4.318-31.969,46.1,22.745-2.207Z" transform="translate(-350.545 -283.422)" fill="#d3d8e6"/>
    </g>
    <g id="Group_18603" data-name="Group 18603" transform="translate(566.464 747.704)">
      <path id="Path_53766" data-name="Path 53766" d="M293.049,381.719a.406.406,0,0,1-.118-.019l-31.941-13.136a.323.323,0,0,1-.174-.413.342.342,0,0,1,.413-.174L293.1,381.084l68.264-6.561h.034a.315.315,0,0,1,.314.28.326.326,0,0,1-.28.348l-68.346,6.568Z" transform="translate(-260.794 -367.962)" fill="#fff"/>
      <path id="Path_53766_-_Outline" data-name="Path 53766 - Outline" d="M293.107,382.219h-.058a.9.9,0,0,1-.267-.042l-.041-.015L260.8,369.026a.824.824,0,0,1-.451-1.053l.012-.029a.824.824,0,0,1,.763-.482.883.883,0,0,1,.244.034l.027.008.026.011,31.754,13.06,68.188-6.551h.034a.818.818,0,0,1,.812.735v.01a.822.822,0,0,1-.721.879h-.01Z" transform="translate(-260.794 -367.962)" fill="#d3d8e6"/>
    </g>
    <g id="Group_18604" data-name="Group 18604" transform="translate(944.004 520.545)">
      <path id="Path_53767" data-name="Path 53767" d="M417.029,273.958l12,35.327-9.005,1.033Z" transform="translate(-417.029 -273.958)" fill="#fff"/>
      <path id="Path_53767_-_Outline" data-name="Path 53767 - Outline" d="M417.5,273.8l12.2,35.914-10.134,1.163L416.531,274Zm10.853,35.061-10.5-30.9,2.619,31.8Z" transform="translate(-417.029 -273.958)" fill="#d3d8e6"/>
    </g>
    <g id="Group_18605" data-name="Group 18605" transform="translate(964.164 498.882)">
      <path id="Path_53768" data-name="Path 53768" d="M496.669,356.672a.33.33,0,0,1-.179-.053c-4.1-2.847-10.222-15.519-10.476-16.06-2.62-3.388-5.338-6.595-7.885-9.555a306.9,306.9,0,0,0-37.56-11.4.324.324,0,0,1-.213-.16l-14.951-28.019a.328.328,0,0,1,.058-.375l8.264-8.151c4.63-12.747,21.64-17.831,21.814-17.877a.279.279,0,0,1,.334.1l42.939,53.187a.331.331,0,0,1,.065.159L503.771,355a.319.319,0,0,1-.254.348l-6.788,1.314A.171.171,0,0,1,496.669,356.672Zm-55.823-37.651a307.53,307.53,0,0,1,37.586,11.423.319.319,0,0,1,.126.087c2.566,2.987,5.3,6.22,7.984,9.7.1.189,6.227,12.887,10.2,15.794l6.36-1.235-4.838-36.158-42.75-52.95c-1.911.607-17,5.744-21.219,17.5a.26.26,0,0,1-.073.121l-8.151,8.037Z" transform="translate(-425.372 -264.993)" fill="#fff"/>
      <path id="Path_53768_-_Outline" data-name="Path 53768 - Outline" d="M496.669,357.172a.832.832,0,0,1-.448-.132l-.016-.011c-1.771-1.229-4.069-4.275-6.829-9.055-2.038-3.529-3.578-6.712-3.789-7.152-2.573-3.326-5.244-6.479-7.753-9.4A308.522,308.522,0,0,0,440.5,320.1l-.042-.009a.827.827,0,0,1-.538-.4l-.008-.014-14.957-28.031a.823.823,0,0,1,.152-.952l8.187-8.075a23.207,23.207,0,0,1,5.413-8.239,36.356,36.356,0,0,1,7.341-5.616,46.153,46.153,0,0,1,9.306-4.212.689.689,0,0,1,.28-.06.836.836,0,0,1,.615.3l.011.013,42.962,53.218a.82.82,0,0,1,.15.386l4.891,36.534a.821.821,0,0,1-.659.9l-6.761,1.309A.68.68,0,0,1,496.669,357.172Zm-17.73-26.964c2.579,3,5.332,6.255,8,9.717l.026.034.02.038.059.119c2.986,6.063,7.1,13.213,9.825,15.374l5.677-1.1-4.757-35.552-42.446-52.573c-2.759.922-16.6,6.04-20.57,17.066a.761.761,0,0,1-.195.321l-7.888,7.778,14.488,27.154a307.751,307.751,0,0,1,37.429,11.393l.019.007A.8.8,0,0,1,478.939,330.208Z" transform="translate(-425.372 -264.993)" fill="#d3d8e6"/>
    </g>
    <g id="Group_18606" data-name="Group 18606" transform="translate(988.107 501.313)">
      <path id="Path_53769" data-name="Path 53769" d="M482.634,355.246a.314.314,0,0,1-.314-.273l-4.263-34.394-42.709-54.074a.31.31,0,0,1,.053-.44.32.32,0,0,1,.442.053l42.762,54.142a.345.345,0,0,1,.068.152l4.275,34.481a.314.314,0,0,1-.273.353Z" transform="translate(-435.28 -266)" fill="#fff"/>
      <path id="Path_53769_-_Outline" data-name="Path 53769 - Outline" d="M482.7,355.746h-.069a.81.81,0,0,1-.81-.706v-.006l-4.246-34.255-42.622-53.964a.814.814,0,0,1-.169-.6.8.8,0,0,1,.307-.539.819.819,0,0,1,1.145.139l42.771,54.153a.841.841,0,0,1,.16.381v.006l4.275,34.487a.823.823,0,0,1-.164.593.8.8,0,0,1-.551.312Z" transform="translate(-435.28 -266)" fill="#d3d8e6"/>
    </g>
    <g id="Group_18607" data-name="Group 18607" transform="translate(703.181 445.024)">
      <path id="Path_53770" data-name="Path 53770" d="M317.371,318.226l63.51-75.52-59.475,86.917S317.371,322.52,317.371,318.226Z" transform="translate(-317.371 -242.706)" fill="#fff"/>
      <path id="Path_53770_-_Outline" data-name="Path 53770 - Outline" d="M321.367,330.565l-.4-.7c-.167-.295-4.1-7.267-4.1-11.643v-.182l.117-.139,63.51-75.52.8.6Zm-3.494-12.16c.089,3.341,2.6,8.406,3.582,10.259l53.321-77.923Z" transform="translate(-317.371 -242.706)" fill="#d3d8e6"/>
    </g>
    <g id="Group_18624" data-name="Group 18624" transform="translate(811.27 197.851)">
      <g id="Group_18608" data-name="Group 18608">
        <path id="Path_53771" data-name="Path 53771" d="M376.91,168.741c1.01-29.8,23.578-29.716,32.483-27.425,10.031,2.581,31.758,6.261,33.282,19.291,2.129,18.22-5.572,14.279-4.309,25.028.585,4.971,2.784,16.809-24.3,25.881-4.562,1.53-23.609,5.321-27.923,7.455-4.267,2.11-2.035-2.615-6.735-3.373a17.782,17.782,0,0,1-11.128-7.266c-2.692-3.659-3.668-8.211-5.22-12.481C357.672,181.017,376.644,176.547,376.91,168.741Z" transform="translate(-362.101 -140.42)" fill="#fff"/>
        <path id="Path_53771_-_Outline" data-name="Path 53771 - Outline" d="M401.956,139.92a31.268,31.268,0,0,1,7.56.912c1.068.275,2.284.566,3.572.874,5.3,1.269,12.57,3.007,18.515,5.854a26.828,26.828,0,0,1,7.743,5.279,13.183,13.183,0,0,1,3.825,7.71,34.2,34.2,0,0,1-.136,11.14,16.92,16.92,0,0,1-2.353,5.49c-1.261,2.091-2.35,3.9-1.82,8.4q.023.194.048.4a16.668,16.668,0,0,1-2.118,11.694,24.919,24.919,0,0,1-7.426,7.279,63.705,63.705,0,0,1-15.138,7.038c-1.8.6-5.7,1.525-10.221,2.593-6.707,1.585-15.054,3.557-17.638,4.836a4.6,4.6,0,0,1-1.972.59c-1.122,0-1.565-.809-1.994-1.591a3.782,3.782,0,0,0-3.07-2.327,16.1,16.1,0,0,1-6.435-2.612,20.656,20.656,0,0,1-5.016-4.852c-2.068-2.811-3.154-6.157-4.2-9.393-.344-1.061-.7-2.157-1.084-3.214a13.144,13.144,0,0,1,.731-11.581c1.748-3.077,4.6-5.582,7.123-7.792,3.148-2.761,5.866-5.146,5.961-7.923.358-10.553,3.429-18.376,9.128-23.253C390.9,140.883,397.426,139.92,401.956,139.92ZM384.4,219.008a3.835,3.835,0,0,0,1.529-.486c2.687-1.329,10.743-3.233,17.852-4.913,4.5-1.063,8.381-1.98,10.134-2.568,11.227-3.761,18.639-8.436,22.032-13.9,2.776-4.467,2.294-8.426,1.975-11.045q-.026-.21-.049-.406c-.569-4.841.658-6.876,1.957-9.031,1.657-2.749,3.535-5.864,2.351-16-.578-4.942-4.179-8.934-11.007-12.2-5.849-2.8-12.762-4.455-18.316-5.783-1.291-.309-2.511-.6-3.588-.878a30.24,30.24,0,0,0-7.311-.881c-8.815,0-23.726,3.617-24.547,27.838a7.439,7.439,0,0,1-2.028,4.522,39.656,39.656,0,0,1-4.272,4.119c-5.054,4.433-10.782,9.457-7.573,18.28.39,1.074.749,2.179,1.1,3.247,1.025,3.16,2.085,6.428,4.057,9.108a17.286,17.286,0,0,0,10.805,7.069,4.731,4.731,0,0,1,3.788,2.834C383.715,218.731,383.911,219.008,384.4,219.008Z" transform="translate(-362.101 -140.42)" fill="#d3d8e6"/>
      </g>
      <g id="Group_18611" data-name="Group 18611" transform="translate(2.128 64.462)">
        <g id="Group_18610" data-name="Group 18610">
          <g id="Group_18609" data-name="Group 18609">
            <path id="Path_53772" data-name="Path 53772" d="M366.105,168.911c-.793,6.563-2.17,16.077-3.021,17.836,0,0-1.957,26.163,11.188,24.569,5.819-.706,12.735-22.075,11.826-26.552-.611-3.016-2.605-8.982-4.185-17.667Z" transform="translate(-362.981 -167.096)" fill="#fff"/>
            <path id="Path_53772_-_Outline" data-name="Path 53772 - Outline" d="M382.322,166.546l.084.461c1.04,5.715,2.257,10.239,3.145,13.542.462,1.718.827,3.075,1.038,4.115.434,2.137-.727,7.015-1.959,10.867a48.807,48.807,0,0,1-5.946,12.872c-1.512,2.1-2.976,3.243-4.352,3.41a9.9,9.9,0,0,1-1.187.074,7.722,7.722,0,0,1-5.859-2.585,15.677,15.677,0,0,1-3.259-6.291,38.69,38.69,0,0,1-1.319-7.442,61.517,61.517,0,0,1-.123-8.858l.007-.095.041-.086c.735-1.519,2.052-10.043,2.974-17.678l.047-.392Zm-9.176,44.34a8.9,8.9,0,0,0,1.067-.066c1.072-.13,2.338-1.168,3.661-3a47.81,47.81,0,0,0,5.8-12.591c1.476-4.618,2.252-8.782,1.931-10.363-.2-1.009-.566-2.353-1.024-4.054-.869-3.231-2.051-7.624-3.079-13.162l-14.953,1.717c-.7,5.741-2.057,15.4-2.977,17.509a61,61,0,0,0,.129,8.623c.543,6.131,2.035,10.67,4.314,13.126A6.758,6.758,0,0,0,373.146,210.886Z" transform="translate(-362.981 -167.096)" fill="#d3d8e6"/>
          </g>
        </g>
      </g>
      <g id="Group_18612" data-name="Group 18612" transform="translate(2.702 64.462)">
        <path id="Path_53773" data-name="Path 53773" d="M363.226,185.162l-.007.072c14.77-6.394,17.993-15.1,18.443-17.723-.029-.15-.058-.266-.085-.416l-15.809,1.815c.007.116-.06.614-.157,1.261C364.949,175.462,363.992,182.018,363.226,185.162Z" transform="translate(-363.219 -167.096)" fill="#fff"/>
        <path id="Path_53773_-_Outline" data-name="Path 53773 - Outline" d="M362.636,186.031l.1-.954.008-.034c.767-3.146,1.729-9.777,2.375-14.933l0-.012c.129-.866.151-1.1.152-1.164l-.029-.466,16.748-1.923.082.463c.014.077.029.146.044.22s.026.121.039.188l.017.09-.015.09a17.411,17.411,0,0,1-3.957,7.681c-3.389,4.133-8.361,7.637-14.779,10.416Zm3.471-15.792c-.593,4.734-1.453,10.71-2.189,14.138,5.837-2.647,10.378-5.919,13.506-9.735a16.926,16.926,0,0,0,3.7-6.992l-14.9,1.71C366.206,169.556,366.167,169.834,366.107,170.24Z" transform="translate(-363.219 -167.096)" fill="#d3d8e6"/>
      </g>
      <g id="Group_18615" data-name="Group 18615" transform="translate(3.252 46.686)">
        <g id="Group_18614" data-name="Group 18614">
          <g id="Group_18613" data-name="Group 18613">
            <path id="Path_53774" data-name="Path 53774" d="M374.126,160.084C363.919,157.732,363.8,168.2,363.8,168.2s-1.476,9.63,1.583,14.673c.247.406.5.785.756,1.138a7.5,7.5,0,0,0,10.927,1.375c.346-.283.691-.594,1.042-.935,4.229-4.139,5.215-13.83,5.215-13.83S384.6,160.3,374.126,160.084Z" transform="translate(-363.447 -159.74)" fill="#fff"/>
            <path id="Path_53774_-_Outline" data-name="Path 53774 - Outline" d="M371.332,159.24h0a12.991,12.991,0,0,1,2.855.345c3.225.076,5.707,1.092,7.378,3.021,2.794,3.226,2.289,7.807,2.257,8.072a39.124,39.124,0,0,1-1.035,5.434c-1.052,3.99-2.508,6.916-4.327,8.7-.373.363-.725.678-1.075.965a8.007,8.007,0,0,1-11.647-1.467c-.273-.376-.535-.77-.78-1.174-1.317-2.17-1.993-5.362-2.011-9.485a39.326,39.326,0,0,1,.357-5.49,12.315,12.315,0,0,1,1.02-4.394A7.251,7.251,0,0,1,371.332,159.24Zm.9,27.4A7.067,7.067,0,0,0,376.752,185c.328-.269.659-.565,1.01-.907,4.048-3.962,5.056-13.427,5.066-13.522v-.011c.005-.043.5-4.395-2.024-7.306-1.486-1.713-3.737-2.611-6.689-2.671h-.052l-.05-.012a12.044,12.044,0,0,0-2.681-.331,6.224,6.224,0,0,0-6.1,3.936,11.38,11.38,0,0,0-.932,4.031v.035l-.005.035c-.014.095-1.412,9.51,1.516,14.338.231.38.478.751.733,1.1A7,7,0,0,0,372.23,186.644Z" transform="translate(-363.447 -159.74)" fill="#d3d8e6"/>
          </g>
        </g>
      </g>
      <g id="Group_18616" data-name="Group 18616" transform="translate(2.792 42.972)">
        <path id="Path_53775" data-name="Path 53775" d="M364.215,169l4.137-4.758c.935,4.316,14.62,11.751,15.775,9.642,2.375-4.335-7.047-15.683-7.047-15.683l-8.731,1.73S360.605,165.01,364.215,169Z" transform="translate(-363.256 -158.203)" fill="#fff"/>
        <path id="Path_53775_-_Outline" data-name="Path 53775 - Outline" d="M383.213,174.755c-1.99,0-5.775-1.838-8.644-3.659-1.629-1.034-5.231-3.514-6.4-5.884l-3.951,4.544-.378-.418a3.863,3.863,0,0,1-1.055-3.19c.439-3.419,5.088-6.5,5.286-6.632l.081-.053,9.118-1.807.19.229a60.358,60.358,0,0,1,4.456,6.275c2.832,4.648,3.721,8,2.644,9.968A1.392,1.392,0,0,1,383.213,174.755ZM368.63,163.163l.211.975c.331,1.528,2.731,3.87,6.264,6.113,3.2,2.03,6.607,3.5,8.108,3.5.341,0,.459-.079.476-.109.472-.862.427-2.167-.134-3.879a25.389,25.389,0,0,0-2.482-5.079,59.57,59.57,0,0,0-4.19-5.936l-8.336,1.652c-.6.409-4.414,3.128-4.765,5.872a2.759,2.759,0,0,0,.454,1.942Z" transform="translate(-363.256 -158.203)" fill="#d3d8e6"/>
      </g>
      <g id="Group_18617" data-name="Group 18617" transform="translate(11.807 65.603)">
        <path id="Path_53776" data-name="Path 53776" d="M370.547,167.568c-1.885,2.395-3.559,1.44-3.559,1.44a3.359,3.359,0,0,0,3,1.634C371.871,170.4,370.547,167.568,370.547,167.568Z" transform="translate(-366.987 -167.568)" fill="#fff"/>
        <path id="Path_53776_-_Outline" data-name="Path 53776 - Outline" d="M370.656,166.621l.344.735c.091.194.869,1.927.277,3a1.54,1.54,0,0,1-1.227.777,3.134,3.134,0,0,1-.394.025,3.963,3.963,0,0,1-3.1-1.9l.677-.69-.006,0a1.439,1.439,0,0,0,.619.126,3.039,3.039,0,0,0,2.306-1.437Zm-1,3.542a2.133,2.133,0,0,0,.268-.017.556.556,0,0,0,.477-.267,2.07,2.07,0,0,0-.039-1.354,3.819,3.819,0,0,1-2.092,1.139A2.319,2.319,0,0,0,369.655,170.163Z" transform="translate(-366.987 -167.568)" fill="#d3d8e6"/>
      </g>
      <g id="Group_18618" data-name="Group 18618" transform="translate(4.918 60.463)">
        <path id="Path_53777" data-name="Path 53777" d="M365.289,166.693c.012.7-.341-.452-.66-.447s-.481,1.165-.493.466.237-1.266.556-1.271S365.277,166,365.289,166.693Z" transform="translate(-364.136 -165.441)" fill="#fff"/>
        <path id="Path_53777_-_Outline" data-name="Path 53777 - Outline" d="M364.169,167.436a.523.523,0,0,1-.517-.475,1.808,1.808,0,0,1-.016-.239,2.171,2.171,0,0,1,.459-1.51.826.826,0,0,1,.59-.27h.012c.625,0,1.075.717,1.093,1.743a.75.75,0,0,1-.172.577.52.52,0,0,1-.374.157h0a.665.665,0,0,1-.556-.38A.564.564,0,0,1,364.169,167.436Z" transform="translate(-364.136 -165.441)" fill="#d3d8e6"/>
      </g>
      <g id="Group_18619" data-name="Group 18619" transform="translate(10.78 60.074)">
        <path id="Path_53778" data-name="Path 53778" d="M367.715,166.534c.01.7-.341-.454-.66-.449s-.481,1.165-.493.469.237-1.269.553-1.273S367.7,165.836,367.715,166.534Z" transform="translate(-366.562 -165.28)" fill="#fff"/>
        <path id="Path_53778_-_Outline" data-name="Path 53778 - Outline" d="M366.595,167.276a.523.523,0,0,1-.517-.476,1.82,1.82,0,0,1-.016-.238,2.176,2.176,0,0,1,.459-1.513.823.823,0,0,1,.587-.269h.012c.627,0,1.077.718,1.1,1.745a.75.75,0,0,1-.173.576.521.521,0,0,1-.373.157.664.664,0,0,1-.556-.381A.562.562,0,0,1,366.595,167.276Z" transform="translate(-366.562 -165.28)" fill="#d3d8e6"/>
      </g>
      <g id="Group_18620" data-name="Group 18620" transform="translate(3.609 58.356)">
        <path id="Path_53779" data-name="Path 53779" d="M366.991,166.154a.2.2,0,0,1-.174-.1,1.8,1.8,0,0,0-1.3-1.075c-.034,0-.06,0-.094,0a2.276,2.276,0,0,0-1.469.839.206.206,0,0,1-.288.029.2.2,0,0,1-.034-.283,2.6,2.6,0,0,1,1.911-.986,2.146,2.146,0,0,1,1.617,1.278.21.21,0,0,1-.075.278A.207.207,0,0,1,366.991,166.154Z" transform="translate(-363.594 -164.569)" fill="#fff"/>
        <path id="Path_53779_-_Outline" data-name="Path 53779 - Outline" d="M366.991,166.654a.7.7,0,0,1-.611-.359c-.2-.355-.518-.784-.9-.819h-.055a1.724,1.724,0,0,0-1.058.625l0,0-.026.031a.7.7,0,0,1-.537.253.726.726,0,0,1-.425-.139l-.022-.017a.706.706,0,0,1-.115-.979l.03-.035a3.1,3.1,0,0,1,2.154-1.149c.054,0,.109,0,.163.007a2.58,2.58,0,0,1,2.012,1.532.709.709,0,0,1-.249.948l-.025.014A.71.71,0,0,1,366.991,166.654Z" transform="translate(-363.594 -164.569)" fill="#d3d8e6"/>
      </g>
      <g id="Group_18621" data-name="Group 18621" transform="translate(9.824 58.112)">
        <path id="Path_53780" data-name="Path 53780" d="M369.561,166.046a.2.2,0,0,1-.174-.1c-.387-.669-.822-1.032-1.3-1.068-.034,0-.06,0-.087,0a2.314,2.314,0,0,0-1.477.831.2.2,0,0,1-.28.029.2.2,0,0,1-.027-.283,2.66,2.66,0,0,1,1.776-.984c.041,0,.082,0,.121.007a2.167,2.167,0,0,1,1.624,1.271.2.2,0,0,1-.072.273A.2.2,0,0,1,369.561,166.046Z" transform="translate(-366.166 -164.468)" fill="#fff"/>
        <path id="Path_53780_-_Outline" data-name="Path 53780 - Outline" d="M369.561,166.546a.7.7,0,0,1-.61-.358c-.207-.357-.531-.785-.9-.813H368a1.8,1.8,0,0,0-1.087.645.684.684,0,0,1-.539.259.721.721,0,0,1-.422-.137l-.022-.017a.7.7,0,0,1-.1-.992,3.1,3.1,0,0,1,2.16-1.164c.048,0,.09,0,.124.006l.028,0h.01a2.625,2.625,0,0,1,2.017,1.521l0,.008a.7.7,0,0,1-.612,1.041Z" transform="translate(-366.166 -164.468)" fill="#d3d8e6"/>
      </g>
      <g id="Group_18622" data-name="Group 18622" transform="translate(20.099 54.144)">
        <path id="Path_53781" data-name="Path 53781" d="M371.66,166.093s.249-3.622,2.153-3.238,3.535,7.177-1.027,7.8S371.66,166.093,371.66,166.093Z" transform="translate(-370.418 -162.826)" fill="#fff"/>
        <path id="Path_53781_-_Outline" data-name="Path 53781 - Outline" d="M373.537,162.326a1.9,1.9,0,0,1,.374.038,2.751,2.751,0,0,1,1.722,1.745,6.985,6.985,0,0,1,.593,3,4.615,4.615,0,0,1-.8,2.578,3.642,3.642,0,0,1-2.577,1.46,5.729,5.729,0,0,1-.769.057,2.014,2.014,0,0,1-1.949-.93c-.742-1.383.662-3.759,1.037-4.35a8.285,8.285,0,0,1,.33-1.619C372.029,162.67,372.9,162.326,373.537,162.326Zm-1.453,7.879a4.735,4.735,0,0,0,.634-.047,2.885,2.885,0,0,0,2.51-3.078c.059-1.882-.874-3.606-1.513-3.734a.9.9,0,0,0-.177-.019c-.893,0-1.315,1.887-1.379,2.8l-.009.131-.073.11c-.523.79-1.47,2.67-1.06,3.433C371.16,170.069,371.52,170.2,372.084,170.2Z" transform="translate(-370.418 -162.826)" fill="#d3d8e6"/>
      </g>
      <g id="Group_18623" data-name="Group 18623" transform="translate(21.773 55.768)">
        <path id="Path_53782" data-name="Path 53782" d="M372.767,168.384a1.392,1.392,0,0,1-.169-.012,1.254,1.254,0,0,1-.981-.8.85.85,0,0,1,.355-.894c.259-.215.614-.462.875-.314s.152.621.133.71a.158.158,0,1,1-.307-.072.6.6,0,0,0,0-.372h0c.012.015-.113-.034-.5.288a.548.548,0,0,0-.246.573.937.937,0,0,0,.73.573.442.442,0,0,0,.44-.143,4.353,4.353,0,0,0-.333-3.922c-.193-.22-.3-.176-.341-.176-.4.092-.821,1.162-1,1.812a.152.152,0,0,1-.193.114.157.157,0,0,1-.114-.193c.053-.191.515-1.873,1.235-2.037a.631.631,0,0,1,.648.273,4.706,4.706,0,0,1,.362,4.3A.687.687,0,0,1,372.767,168.384Z" transform="translate(-371.111 -163.498)" fill="#fff"/>
        <path id="Path_53782_-_Outline" data-name="Path 53782 - Outline" d="M372.767,168.884a1.89,1.89,0,0,1-.229-.016l-.021,0a1.758,1.758,0,0,1-1.383-1.163l0-.012a1.361,1.361,0,0,1,.521-1.4,1.691,1.691,0,0,1,1.018-.474.872.872,0,0,1,.222.028,3,3,0,0,0-.432-1.42,5.054,5.054,0,0,0-.552,1.331.658.658,0,0,1-.632.5.643.643,0,0,1-.185-.027.657.657,0,0,1-.459-.8l0-.017c.273-.978.77-2.183,1.592-2.381a.952.952,0,0,1,.245-.032,1.177,1.177,0,0,1,.908.467,4.422,4.422,0,0,1,.835,2.615,4.333,4.333,0,0,1-.438,2.289A1.187,1.187,0,0,1,372.767,168.884Z" transform="translate(-371.111 -163.498)" fill="#d3d8e6"/>
      </g>
    </g>
    <g id="Group_18625" data-name="Group 18625" transform="translate(813.054 281.229)">
      <path id="Path_53783" data-name="Path 53783" d="M373.914,200.672a5.506,5.506,0,0,1-.988-.089c-11.747-2.192-10.036-24.02-9.956-24.95a.337.337,0,0,1,.341-.285.313.313,0,0,1,.288.341c-.019.22-1.75,22.186,9.446,24.274a4.865,4.865,0,0,0,3.849-.952c6.527-4.7,9.233-23.624,9.26-23.815a.321.321,0,0,1,.314-.271l.046,0a.318.318,0,0,1,.268.353c-.114.79-2.781,19.383-9.521,24.237A5.668,5.668,0,0,1,373.914,200.672Z" transform="translate(-362.839 -174.924)" fill="#fff"/>
      <path id="Path_53783_-_Outline" data-name="Path 53783 - Outline" d="M373.914,201.172a5.976,5.976,0,0,1-1.077-.1c-12.214-2.279-10.446-24.539-10.365-25.485a.833.833,0,0,1,.811-.742l.031,0,.031,0a.8.8,0,0,1,.557.28.813.813,0,0,1,.194.6,52.152,52.152,0,0,0,.514,11.325c1.24,7.415,4.108,11.592,8.525,12.415a4.113,4.113,0,0,0,.778.075,4.564,4.564,0,0,0,2.688-.941c2.579-1.857,4.957-6.466,6.879-13.327a87.361,87.361,0,0,0,2.179-10.151l0-.014a.819.819,0,0,1,.807-.688h.026l.084.009a.821.821,0,0,1,.7.9l0,.016c-.289,2.008-3.011,19.737-9.724,24.572A6.164,6.164,0,0,1,373.914,201.172Z" transform="translate(-362.839 -174.924)" fill="#d3d8e6"/>
    </g>
    <g id="Group_18626" data-name="Group 18626" transform="translate(791.334 339.071)">
      <path id="Path_53784" data-name="Path 53784" d="M356.116,198.86l2.265,37.763-4.531-36.272Z" transform="translate(-353.851 -198.86)" fill="#fff"/>
      <path id="Path_53784_-_Outline" data-name="Path 53784 - Outline" d="M356.563,197.967l2.317,38.626-1,.092L353.316,200.1Zm.389,23.178-1.283-21.392-1.283.845Z" transform="translate(-353.851 -198.86)" fill="#d3d8e6"/>
    </g>
    <g id="Group_18627" data-name="Group 18627" transform="translate(881.117 313.739)">
      <path id="Path_53785" data-name="Path 53785" d="M391.005,188.377l3.4,7.068c8.724,1.037,14.965-1.3,22.389-4.241l.056-.036C401.638,192.444,391.005,188.377,391.005,188.377Z" transform="translate(-391.005 -188.377)" fill="#fff"/>
      <path id="Path_53785_-_Outline" data-name="Path 53785 - Outline" d="M390.009,187.46l1.175.45a41.968,41.968,0,0,0,5.423,1.5,68.266,68.266,0,0,0,14.325,1.5c1.955,0,3.933-.083,5.88-.246l.315.917-.1.064-.047.019a89.326,89.326,0,0,1-9,3.182,34.631,34.631,0,0,1-9.449,1.344,35.584,35.584,0,0,1-4.181-.253l-.272-.032Zm20.924,4.455a69.262,69.262,0,0,1-14.564-1.531c-1.971-.43-3.46-.857-4.4-1.152l2.768,5.747a34.431,34.431,0,0,0,3.791.215c5.413,0,9.8-1.285,15.2-3.334C412.8,191.9,411.862,191.916,410.932,191.916Z" transform="translate(-391.005 -188.377)" fill="#d3d8e6"/>
    </g>
    <g id="Group_18628" data-name="Group 18628" transform="translate(795.489 373.415)">
      <path id="Path_53786" data-name="Path 53786" d="M461.1,220.185a65.406,65.406,0,0,0-.609-7c-6.483-.551-13.443,1.049-22.3,3.1a261.24,261.24,0,0,1-41.694,6.841c-17.684,1.433-34.691-5.5-40.923-8.4l.95,7.9c7.583,3.149,20.707,7.535,35.143,7.535,1.769,0,3.567-.068,5.372-.215a270.28,270.28,0,0,0,42.695-6.993C449.047,220.8,455.427,219.364,461.1,220.185Z" transform="translate(-355.57 -213.073)" fill="#fff"/>
      <path id="Path_53786_-_Outline" data-name="Path 53786 - Outline" d="M457.83,212.573c.923,0,1.833.038,2.7.112l.4.034.054.4a66.158,66.158,0,0,1,.613,7.057l.016.594-.588-.085a23.15,23.15,0,0,0-3.348-.23c-4.91,0-10.616,1.317-17.839,2.984l-.036.008a270.6,270.6,0,0,1-42.732,7c-1.76.144-3.581.217-5.411.217a84.849,84.849,0,0,1-20.261-2.6,105.258,105.258,0,0,1-15.074-4.972l-.27-.112-1.092-9.082.815.379c5.521,2.571,20.067,8.551,35.863,8.551,1.626,0,3.244-.064,4.809-.191a260.369,260.369,0,0,0,41.5-6.8l.117-.027C445.541,214.067,451.99,212.573,457.83,212.573Zm2.22,1.077c-.72-.051-1.465-.077-2.22-.077-5.726,0-12.123,1.483-19.53,3.2l-.117.027a261.238,261.238,0,0,1-41.65,6.825c-1.59.129-3.235.194-4.889.194-15.272,0-29.369-5.51-35.471-8.27l.808,6.722c8.243,3.4,20.867,7.385,34.682,7.385,1.8,0,3.6-.072,5.331-.213a269.719,269.719,0,0,0,42.586-6.974l.036-.008c7.286-1.682,13.04-3.01,18.064-3.01a24.7,24.7,0,0,1,2.9.163C460.509,217.78,460.33,215.778,460.05,213.649Z" transform="translate(-355.57 -213.073)" fill="#d3d8e6"/>
    </g>
    <g id="Group_18629" data-name="Group 18629" transform="translate(822.877 310.796)">
      <path id="Path_53787" data-name="Path 53787" d="M369.318,191.987a2.421,2.421,0,0,1-1.264-.36,2.413,2.413,0,0,1,.7-4.4,2.414,2.414,0,0,1,1.129,4.7A2.551,2.551,0,0,1,369.318,191.987Zm0-4.2a1.807,1.807,0,0,0-.416.051,1.785,1.785,0,0,0-1.107.8,1.752,1.752,0,0,0-.208,1.346h0a1.778,1.778,0,0,0,2.151,1.317,1.784,1.784,0,0,0-.42-3.518Z" transform="translate(-366.904 -187.159)" fill="#fff"/>
      <path id="Path_53787_-_Outline" data-name="Path 53787 - Outline" d="M369.318,192.487a2.933,2.933,0,0,1-1.524-.433,2.91,2.91,0,0,1,1.512-5.394,2.955,2.955,0,0,1,2.849,2.233A2.922,2.922,0,0,1,370,192.405,3.046,3.046,0,0,1,369.318,192.487Zm0-4.2a1.306,1.306,0,0,0-.3.037,1.278,1.278,0,0,0-.8.583,1.253,1.253,0,0,0-.146.962l0,.007a1.278,1.278,0,0,0,1.537.945l.011,0a1.266,1.266,0,0,0,.791-.576,1.283,1.283,0,0,0-1.1-1.956Z" transform="translate(-366.904 -187.159)" fill="#d3d8e6"/>
    </g>
    <g id="Group_18630" data-name="Group 18630" transform="translate(823.795 318.224)">
      <path id="Path_53788" data-name="Path 53788" d="M369.7,195.059a2.432,2.432,0,0,1-2.351-1.853h0a2.414,2.414,0,0,1,3.615-2.617,2.379,2.379,0,0,1,1.083,1.491,2.413,2.413,0,0,1-1.783,2.912A2.489,2.489,0,0,1,369.7,195.059Zm-1.735-2a1.786,1.786,0,0,0,3.26.515,1.8,1.8,0,0,0-.59-2.45,1.814,1.814,0,0,0-1.356-.213,1.783,1.783,0,0,0-1.315,2.148Z" transform="translate(-367.284 -190.233)" fill="#fff"/>
      <path id="Path_53788_-_Outline" data-name="Path 53788 - Outline" d="M369.7,195.559a2.915,2.915,0,0,1-.685-5.749l.007,0a3.073,3.073,0,0,1,.675-.076,2.913,2.913,0,0,1,.682,5.745A2.981,2.981,0,0,1,369.7,195.559Zm-.308-4.162a1.284,1.284,0,0,0,.61,2.494,1.3,1.3,0,0,0,.8-.58,1.27,1.27,0,0,0,.145-.965l0-.007a1.262,1.262,0,0,0-1.239-.977A1.448,1.448,0,0,0,369.393,191.4Z" transform="translate(-367.284 -190.233)" fill="#d3d8e6"/>
    </g>
    <g id="Group_18631" data-name="Group 18631" transform="translate(863.764 400.483)">
      <path id="Path_53789" data-name="Path 53789" d="M405.993,224.274s-4.147,55.275-22.169,87.057C394.809,294.3,411.527,261.273,405.993,224.274Z" transform="translate(-383.824 -224.274)" fill="#fff"/>
      <path id="Path_53789_-_Outline" data-name="Path 53789 - Outline" d="M406.487,224.2c2.45,16.38.8,33.622-4.909,51.246a149.313,149.313,0,0,1-8.431,20.525,163.481,163.481,0,0,1-8.9,15.631l-.855-.518c9.275-16.357,14.792-39.1,17.786-55.291,3.247-17.562,4.309-31.419,4.319-31.557Zm-16.86,76.355c9.332-17.2,19.357-43.109,16.439-71.687-.569,5.511-1.763,15.506-3.908,27.107a265.714,265.714,0,0,1-6.789,28.49A163.533,163.533,0,0,1,389.627,300.555Z" transform="translate(-383.824 -224.274)" fill="#d3d8e6"/>
    </g>
  </g>
</svg>
