<svg xmlns="http://www.w3.org/2000/svg" width="701.821" height="213.711" viewBox="0 0 701.821 213.711">
  <g id="Group_18827" data-name="Group 18827" transform="translate(5.789 -796.181) rotate(9)">
    <g id="Group_18482" data-name="Group 18482" transform="translate(182.172 854.529)">
      <rect id="Rectangle_5093" data-name="Rectangle 5093" width="9.75" height="84.683" transform="translate(0 0.687) rotate(-4.038)" fill="#fff"/>
      <path id="Rectangle_5093_-_Outline" data-name="Rectangle 5093 - Outline" d="M-.5-.5H10.25V85.183H-.5ZM9.25.5H.5V84.183H9.25Z" transform="translate(0 0.687) rotate(-4.038)" fill="#d3d8e6"/>
    </g>
    <g id="Group_18483" data-name="Group 18483" transform="translate(254.132 831.149)">
      <rect id="Rectangle_5094" data-name="Rectangle 5094" width="9.75" height="84.683" transform="translate(0 0.687) rotate(-4.038)" fill="#fff"/>
      <path id="Rectangle_5094_-_Outline" data-name="Rectangle 5094 - Outline" d="M-.5-.5H10.25V85.183H-.5ZM9.25.5H.5V84.183H9.25Z" transform="translate(0 0.687) rotate(-4.038)" fill="#d3d8e6"/>
    </g>
    <g id="Group_18484" data-name="Group 18484" transform="translate(769.798 813.051)">
      <rect id="Rectangle_5095" data-name="Rectangle 5095" width="9.75" height="84.683" transform="translate(15.689 84.472) rotate(175.962)" fill="#fff"/>
      <path id="Rectangle_5095_-_Outline" data-name="Rectangle 5095 - Outline" d="M-.5-.5H10.25V85.183H-.5ZM9.25.5H.5V84.183H9.25Z" transform="translate(15.689 84.472) rotate(175.962)" fill="#d3d8e6"/>
    </g>
    <g id="Group_18485" data-name="Group 18485" transform="translate(695.266 800.011)">
      <rect id="Rectangle_5096" data-name="Rectangle 5096" width="9.75" height="84.683" transform="translate(15.688 84.472) rotate(175.962)" fill="#fff"/>
      <path id="Rectangle_5096_-_Outline" data-name="Rectangle 5096 - Outline" d="M-.5-.5H10.25V85.183H-.5ZM9.25.5H.5V84.183H9.25Z" transform="translate(15.688 84.472) rotate(175.962)" fill="#d3d8e6"/>
    </g>
    <g id="Group_18486" data-name="Group 18486" transform="translate(130.06 769.88)">
      <ellipse id="Ellipse_1353" data-name="Ellipse 1353" cx="348.852" cy="31.938" rx="348.852" ry="31.938" transform="translate(0 49.126) rotate(-4.038)" fill="#fff"/>
      <path id="Ellipse_1353_-_Outline" data-name="Ellipse 1353 - Outline" d="M348.852-.5c47.1,0,92.794.845,135.808,2.51,41.55,1.609,78.866,3.912,110.913,6.846,15.793,1.446,30.133,3.037,42.619,4.729,12.612,1.709,23.447,3.537,32.2,5.432,8.938,1.935,15.811,3.963,20.425,6.027a21.092,21.092,0,0,1,5.417,3.256,5.016,5.016,0,0,1,1.966,3.637,5.016,5.016,0,0,1-1.966,3.637,21.092,21.092,0,0,1-5.417,3.256c-4.615,2.065-11.487,4.093-20.425,6.027-8.756,1.9-19.59,3.723-32.2,5.432-12.487,1.692-26.826,3.283-42.619,4.729-32.047,2.934-69.363,5.237-110.913,6.846-43.015,1.666-88.707,2.51-135.808,2.51s-92.794-.845-135.808-2.51c-41.55-1.609-78.866-3.912-110.913-6.846C86.337,53.574,72,51.982,59.511,50.29c-12.612-1.709-23.447-3.537-32.2-5.432C18.37,42.924,11.5,40.9,6.883,38.831a21.091,21.091,0,0,1-5.417-3.256A5.016,5.016,0,0,1-.5,31.938,5.016,5.016,0,0,1,1.466,28.3a21.091,21.091,0,0,1,5.417-3.256C11.5,22.98,18.37,20.952,27.309,19.018c8.756-1.9,19.59-3.723,32.2-5.432C72,11.894,86.337,10.3,102.131,8.857c32.047-2.934,69.363-5.237,110.913-6.846C256.059.345,301.751-.5,348.852-.5Zm0,63.876c93.167,0,180.755-3.321,246.63-9.352,15.779-1.445,30.1-3.034,42.576-4.724,12.586-1.706,23.4-3.529,32.125-5.418,8.871-1.92,15.677-3.926,20.229-5.963a20.137,20.137,0,0,0,5.156-3.086,4.089,4.089,0,0,0,1.636-2.894,4.089,4.089,0,0,0-1.636-2.894,20.137,20.137,0,0,0-5.156-3.086c-4.552-2.037-11.358-4.043-20.229-5.963-8.73-1.89-19.539-3.713-32.125-5.418-12.473-1.69-26.8-3.28-42.576-4.724C529.607,3.821,442.019.5,348.852.5S168.1,3.821,102.222,9.852c-15.779,1.445-30.1,3.034-42.576,4.724-12.586,1.706-23.395,3.529-32.125,5.418-8.871,1.92-15.677,3.926-20.229,5.963a20.138,20.138,0,0,0-5.156,3.086A4.089,4.089,0,0,0,.5,31.938a4.089,4.089,0,0,0,1.636,2.894,20.138,20.138,0,0,0,5.156,3.086c4.552,2.037,11.358,4.043,20.229,5.963,8.73,1.89,19.539,3.713,32.125,5.418,12.473,1.69,26.8,3.28,42.576,4.724C168.1,60.055,255.685,63.376,348.852,63.376Z" transform="translate(0 49.126) rotate(-4.038)" fill="#d3d8e6"/>
    </g>
    <g id="Group_18487" data-name="Group 18487" transform="translate(148.768 772.894)">
      <ellipse id="Ellipse_1354" data-name="Ellipse 1354" cx="330.218" cy="30.232" rx="330.218" ry="30.232" transform="translate(0 46.502) rotate(-4.038)" fill="#fff"/>
      <path id="Ellipse_1354_-_Outline" data-name="Ellipse 1354 - Outline" d="M330.218-.5c44.586,0,87.838.8,128.555,2.376C498.1,3.4,533.427,5.58,563.762,8.357s54.177,6.014,70.829,9.619c8.463,1.832,14.97,3.752,19.34,5.707a19.988,19.988,0,0,1,5.135,3.087,4.773,4.773,0,0,1,1.87,3.462,4.773,4.773,0,0,1-1.87,3.462,19.988,19.988,0,0,1-5.135,3.087c-4.37,1.955-10.877,3.875-19.34,5.707-16.652,3.6-40.482,6.84-70.829,9.619s-65.659,4.958-104.99,6.481c-40.717,1.577-83.969,2.376-128.555,2.376s-87.838-.8-128.555-2.376c-39.331-1.523-74.654-3.7-104.99-6.481S42.5,46.092,25.844,42.488c-8.463-1.832-14.97-3.752-19.34-5.707A19.988,19.988,0,0,1,1.37,33.694,4.773,4.773,0,0,1-.5,30.232a4.773,4.773,0,0,1,1.87-3.462A19.988,19.988,0,0,1,6.5,23.683c4.37-1.955,10.877-3.875,19.34-5.707,16.652-3.6,40.482-6.84,70.829-9.619S162.332,3.4,201.663,1.876C242.38.3,285.632-.5,330.218-.5Zm0,60.464c88.19,0,171.1-3.144,233.453-8.853,30.306-2.775,54.1-6,70.708-9.6,8.4-1.817,14.836-3.716,19.143-5.643a19.04,19.04,0,0,0,4.873-2.917,3.846,3.846,0,0,0,1.54-2.72,3.846,3.846,0,0,0-1.54-2.72,19.04,19.04,0,0,0-4.873-2.917c-4.307-1.927-10.748-3.825-19.143-5.643-16.612-3.6-40.4-6.826-70.708-9.6C501.316,3.644,418.407.5,330.218.5S159.119,3.644,96.764,9.353c-30.306,2.775-54.1,6-70.708,9.6C17.661,20.77,11.22,22.668,6.913,24.6A19.04,19.04,0,0,0,2.04,27.512,3.846,3.846,0,0,0,.5,30.232a3.846,3.846,0,0,0,1.54,2.72,19.04,19.04,0,0,0,4.873,2.917c4.307,1.927,10.748,3.825,19.143,5.643,16.612,3.6,40.4,6.826,70.708,9.6C159.119,56.82,242.028,59.964,330.218,59.964Z" transform="translate(0 46.502) rotate(-4.038)" fill="#d3d8e6"/>
    </g>
    <g id="Group_18488" data-name="Group 18488" transform="translate(136.609 786.074)">
      <path id="Path_53676" data-name="Path 53676" d="M82.911,443.112c28.142,13.216,172.323,14.639,345.2,2.436s315.43-33.865,341.436-50.9c-28.142-13.214-172.32-14.639-345.2-2.436S108.917,426.075,82.911,443.112Z" transform="translate(-82.911 -383.84)" fill="#fff"/>
      <path id="Path_53676_-_Outline" data-name="Path 53676 - Outline" d="M215.44,454.417h-.005c-34.609,0-63.672-.921-86.381-2.739C105.8,449.817,90.2,447.087,82.7,443.564l-.81-.38.749-.49c6.445-4.222,19.96-8.762,40.17-13.493,19.715-4.616,45.174-9.274,75.671-13.847,30.7-4.6,65.416-8.955,103.192-12.936,39.1-4.121,80.364-7.723,122.643-10.708,39.1-2.76,77.512-4.879,114.181-6.3,35.446-1.373,68.594-2.07,98.523-2.07,34.608,0,63.673.921,86.385,2.739,23.26,1.861,38.858,4.591,46.36,8.113l.81.38-.749.491c-6.445,4.223-19.96,8.763-40.169,13.494-19.714,4.616-45.174,9.274-75.671,13.847-30.7,4.6-65.415,8.954-103.191,12.935-39.1,4.12-80.364,7.723-122.644,10.707-39.1,2.76-77.514,4.88-114.185,6.3C278.514,453.72,245.367,454.417,215.44,454.417ZM83.968,443.037c7.692,3.29,22.876,5.86,45.166,7.644,22.683,1.815,51.719,2.735,86.3,2.735,29.915,0,63.051-.7,98.489-2.069,36.66-1.42,75.067-3.54,114.153-6.3,83.013-5.86,163.189-14.253,225.757-23.634,60.605-9.087,101.2-18.544,114.657-26.7-7.692-3.289-22.877-5.86-45.17-7.643-22.686-1.815-51.724-2.735-86.306-2.735-29.916,0-63.051.7-98.484,2.069-36.659,1.42-75.064,3.539-114.149,6.3-83.009,5.859-163.185,14.253-225.756,23.635C138.021,425.429,97.43,434.886,83.968,443.037Z" transform="translate(-82.911 -383.84)" fill="#d3d8e6"/>
    </g>
    <g id="Group_18489" data-name="Group 18489" transform="translate(132.01 785.776)">
      <path id="Path_53677" data-name="Path 53677" d="M219.128,464.769q-17.964,0-34.317-.338c-38.408-.8-102.972-3.888-103.8-15.6S143.678,424.981,181.6,418.8c65.3-10.662,152.464-20.144,245.431-26.71s180.6-9.4,246.741-8.04c38.413.8,102.979,3.9,103.8,15.611s-62.662,23.844-100.582,30.03c-65.308,10.662-152.471,20.141-245.431,26.7C353.9,461.878,279.944,464.769,219.128,464.769ZM639.453,384.3c-60.8,0-134.727,2.9-212.388,8.378-92.941,6.558-180.085,16.048-245.376,26.7C117.5,429.85,81.021,440.567,81.6,448.788s38.207,13.7,103.223,15.057c66.176,1.365,153.764-1.481,246.7-8.04s180.087-16.043,245.376-26.7c64.187-10.475,100.669-21.193,100.089-29.411S738.779,386,673.758,384.64C662.884,384.41,651.417,384.3,639.453,384.3Z" transform="translate(-81.008 -383.717)" fill="#fff"/>
      <path id="Path_53677_-_Outline" data-name="Path 53677 - Outline" d="M219.128,465.269c-11.9,0-23.45-.114-34.327-.338-18.3-.38-44.618-1.332-66.037-3.71-11.445-1.271-20.436-2.833-26.723-4.644-7.543-2.173-11.313-4.7-11.525-7.714s3.164-6.046,10.327-9.257c5.97-2.676,14.653-5.486,25.807-8.352,20.875-5.364,46.8-10,64.866-12.949,65.28-10.658,152.459-20.146,245.477-26.715,38.582-2.723,76.505-4.824,112.716-6.245,35.973-1.411,69.626-2.127,100.024-2.127,11.876,0,23.331.111,34.047.331,18.317.384,44.644,1.34,66.042,3.717,11.446,1.271,20.437,2.834,26.724,4.645,7.543,2.173,11.313,4.7,11.525,7.714s-3.165,6.045-10.328,9.256c-5.97,2.676-14.653,5.486-25.806,8.352-20.869,5.362-46.793,10-64.866,12.951-65.287,10.658-152.466,20.143-245.477,26.708-38.55,2.724-76.417,4.826-112.548,6.248C283.1,464.551,249.484,465.269,219.128,465.269ZM639.453,384.8c-61.269,0-134.7,2.9-212.353,8.377-92.857,6.552-179.984,16.034-245.33,26.7-15.877,2.591-30.269,5.233-42.776,7.854-12.367,2.591-22.963,5.176-31.494,7.683-8.512,2.5-15,4.934-19.294,7.231a19.644,19.644,0,0,0-4.744,3.3,3.132,3.132,0,0,0,.382,5.4,19.656,19.656,0,0,0,5.161,2.6c4.571,1.671,11.34,3.168,20.118,4.448,8.8,1.284,19.652,2.354,32.259,3.183,12.752.838,27.371,1.433,43.453,1.768,10.739.222,22.224.334,34.134.334,61.413,0,134.9-2.895,212.518-8.372,92.919-6.559,180.046-16.039,245.33-26.692,15.877-2.591,30.27-5.234,42.777-7.855,12.367-2.592,22.963-5.177,31.494-7.683,8.512-2.5,15-4.934,19.294-7.231a19.652,19.652,0,0,0,4.744-3.3,3.133,3.133,0,0,0-.381-5.4,19.649,19.649,0,0,0-5.161-2.6c-4.571-1.671-11.34-3.168-20.119-4.448-8.8-1.283-19.653-2.354-32.262-3.183-12.752-.838-27.373-1.433-43.456-1.768C662.963,384.912,651.425,384.8,639.453,384.8Z" transform="translate(-81.008 -383.717)" fill="#d3d8e6"/>
    </g>
    <g id="Group_18490" data-name="Group 18490" transform="translate(150.607 847.489)">
      <path id="Path_53678" data-name="Path 53678" d="M217.728,418.563c-17.877,0-35.609-.268-52.875-.88-52.283-1.861-75.682-6.036-75.907-6.08a.286.286,0,0,1-.237-.338.29.29,0,0,1,.285-.242.157.157,0,0,1,.051,0c.23.039,23.607,4.214,75.859,6.068,87.373,3.1,186.887-2.554,254.981-7.841h.024a.3.3,0,0,1,.292.271.293.293,0,0,1-.268.316C365.268,414.088,290.351,418.563,217.728,418.563Z" transform="translate(-88.704 -409.255)" fill="#fff"/>
      <path id="Path_53678_-_Outline" data-name="Path 53678 - Outline" d="M217.728,419.063c-18.607,0-36.4-.3-52.893-.88-51.776-1.843-75.374-5.977-75.974-6.087a.792.792,0,0,1,.133-1.573.667.667,0,0,1,.158.016h0c.662.116,6.815,1.164,18.86,2.4,16.086,1.645,35.764,2.911,56.909,3.661,16.506.586,34.274.883,52.812.883,74.188,0,150.858-4.744,202.113-8.724l.063,0a.795.795,0,0,1,.606,1.307.783.783,0,0,1-.545.279c-32.22,2.5-63.976,4.506-94.382,5.954C287.005,418.132,250.716,419.063,217.728,419.063Z" transform="translate(-88.704 -409.255)" fill="#d3d8e6"/>
    </g>
    <g id="Group_18491" data-name="Group 18491" transform="translate(475.015 790.837)">
      <path id="Path_53679" data-name="Path 53679" d="M223.244,395.119a.294.294,0,0,1-.024-.587c68.119-5.292,167.644-10.935,255.076-7.839,52.281,1.853,75.689,6.029,75.914,6.073a.288.288,0,0,1,.237.338.294.294,0,0,1-.288.244.113.113,0,0,1-.051-.007c-.23-.036-23.607-4.207-75.864-6.061-17.227-.611-34.943-.88-52.788-.88-72.623,0-147.52,4.475-202.186,8.719Z" transform="translate(-222.951 -385.811)" fill="#fff"/>
      <path id="Path_53679_-_Outline" data-name="Path 53679 - Outline" d="M223.29,395.619h-.046a.794.794,0,0,1-.608-1.3.781.781,0,0,1,.547-.282c32.212-2.5,63.968-4.506,94.384-5.954,38.582-1.837,74.876-2.768,107.874-2.768,18.555,0,36.344.3,52.872.882,51.846,1.838,75.45,5.982,75.984,6.08a.794.794,0,0,1-.138,1.575.626.626,0,0,1-.17-.02l-.01,0c-2.519-.433-26.047-4.283-75.752-6.046-16.441-.583-34.2-.879-52.771-.879-74.259,0-150.916,4.741-202.147,8.717Z" transform="translate(-222.951 -385.811)" fill="#d3d8e6"/>
    </g>
  </g>
</svg>
