<svg xmlns="http://www.w3.org/2000/svg" width="306.493" height="703.971" viewBox="0 0 306.493 703.971">
  <g id="Group_18825" data-name="Group 18825" transform="translate(-363.946 0.5)">
    <g id="Group_18524" data-name="Group 18524" transform="translate(601.522 391.722)">
      <path id="Path_53703" data-name="Path 53703" d="M287.9,245.869a12.606,12.606,0,1,1,12.44-14.668h0a12.607,12.607,0,0,1-10.367,14.494A12.373,12.373,0,0,1,287.9,245.869Zm.007-24.631a11.865,11.865,0,0,0-1.967.169,12.019,12.019,0,0,0,1.96,23.875A12.018,12.018,0,0,0,299.766,231.3h0A12.056,12.056,0,0,0,287.908,221.237Z" transform="translate(-275.302 -220.648)" fill="#fff"/>
      <path id="Path_53703_-_Outline" data-name="Path 53703 - Outline" d="M287.9,246.369a13.14,13.14,0,1,1,2.155-.181A12.792,12.792,0,0,1,287.9,246.369Zm.007-24.631a11.525,11.525,0,1,0,11.364,9.644A11.429,11.429,0,0,0,287.908,221.737Z" transform="translate(-275.302 -220.648)" fill="#d3d8e6"/>
    </g>
    <g id="Group_18526" data-name="Group 18526" transform="translate(613.833 426.772)">
      <path id="Path_53705" data-name="Path 53705" d="M280.692,410.651a.3.3,0,0,1-.295-.295V235.448a.294.294,0,1,1,.587,0V410.356A.292.292,0,0,1,280.692,410.651Z" transform="translate(-280.397 -235.153)" fill="#fff"/>
      <path id="Path_53705_-_Outline" data-name="Path 53705 - Outline" d="M280.692,411.151a.8.8,0,0,1-.795-.795V235.448a.794.794,0,1,1,1.587,0V410.356A.794.794,0,0,1,280.692,411.151Z" transform="translate(-280.397 -235.153)" fill="#d3d8e6"/>
    </g>
    <g id="Group_18530" data-name="Group 18530" transform="translate(618.347 426.772)">
      <path id="Path_53709" data-name="Path 53709" d="M282.557,292.487a.294.294,0,0,1-.292-.295V235.448a.294.294,0,1,1,.587,0v56.744A.3.3,0,0,1,282.557,292.487Z" transform="translate(-282.265 -235.153)" fill="#fff"/>
      <path id="Path_53709_-_Outline" data-name="Path 53709 - Outline" d="M282.557,292.987a.8.8,0,0,1-.792-.795V235.448a.794.794,0,1,1,1.587,0v56.744A.8.8,0,0,1,282.557,292.987Z" transform="translate(-282.265 -235.153)" fill="#d3d8e6"/>
    </g>
    <g id="Group_18535" data-name="Group 18535" transform="translate(364.446 275.742)">
      <path id="Path_53714" data-name="Path 53714" d="M177.488,255.418a.275.275,0,0,1-.143-.039.288.288,0,0,1-.111-.4c16.971-30.085,62.88-81.711,63.341-82.231a.293.293,0,0,1,.413-.022.288.288,0,0,1,.024.416c-.462.517-46.327,52.1-63.269,82.125A.3.3,0,0,1,177.488,255.418Z" transform="translate(-177.195 -172.653)" fill="#fff"/>
      <path id="Path_53714_-_Outline" data-name="Path 53714 - Outline" d="M177.488,255.918a.773.773,0,0,1-.393-.106.788.788,0,0,1-.3-1.08c16.745-29.682,61.5-80.172,63.395-82.307l0,0a.774.774,0,0,1,.589-.268.813.813,0,0,1,.524.193.8.8,0,0,1,.277.561.778.778,0,0,1-.206.573c-.249.279-11.8,13.266-25.437,29.975-12.4,15.2-29.023,36.562-37.766,52.058A.8.8,0,0,1,177.488,255.918Z" transform="translate(-177.195 -172.653)" fill="#d3d8e6"/>
    </g>
    <g id="Group_18536" data-name="Group 18536" transform="translate(368.896 280.971)">
      <path id="Path_53715" data-name="Path 53715" d="M179.33,225.535a.273.273,0,0,1-.155-.043.294.294,0,0,1-.094-.406c14.455-23.31,38.838-49.908,39.08-50.174a.3.3,0,0,1,.418-.014.3.3,0,0,1,.019.416c-.244.266-24.593,26.821-39.017,50.084A.3.3,0,0,1,179.33,225.535Z" transform="translate(-179.036 -174.817)" fill="#fff"/>
      <path id="Path_53715_-_Outline" data-name="Path 53715 - Outline" d="M179.33,226.035a.77.77,0,0,1-.422-.121.794.794,0,0,1-.252-1.092A317.346,317.346,0,0,1,203.263,191.4c7.663-9.288,13.83-16.066,14.508-16.808l.036-.039a.821.821,0,0,1,.575-.241.78.78,0,0,1,.539.216.8.8,0,0,1,.049,1.114l0,0c-.253.276-6.287,6.86-14.174,16.4-7.2,8.707-17.343,21.606-24.786,33.611l-.009.014A.8.8,0,0,1,179.33,226.035Z" transform="translate(-179.036 -174.817)" fill="#d3d8e6"/>
    </g>
    <g id="Group_18722" data-name="Group 18722" transform="translate(381.065)">
      <g id="Group_18715" data-name="Group 18715">
        <g id="Group_18632" data-name="Group 18632" transform="translate(198.812 242.111)">
          <path id="Path_53790" data-name="Path 53790" d="M281.605,160.3s-4.983,9.035-15.26,8.008l1.09-9.569Z" transform="translate(-266.345 -158.736)" fill="#fff"/>
          <path id="Path_53790_-_Outline" data-name="Path 53790 - Outline" d="M266.994,158.184l15.411,1.7-.362.656a17.669,17.669,0,0,1-3.484,4.176,16.877,16.877,0,0,1-4.391,2.865,15.22,15.22,0,0,1-6.21,1.307c-.546,0-1.105-.028-1.662-.084l-.5-.05Zm13.762,2.522-12.881-1.419-.975,8.563c.355.024.709.036,1.057.036a14.57,14.57,0,0,0,9.909-3.894A18.023,18.023,0,0,0,280.756,160.707Z" transform="translate(-266.345 -158.736)" fill="#d3d8e6"/>
        </g>
        <g id="Group_18633" data-name="Group 18633" transform="translate(133.455 571.661)">
          <path id="Path_53791" data-name="Path 53791" d="M315.392,305.661s-46.247,23.945-76.093-10.55Z" transform="translate(-239.299 -295.111)" fill="#fff"/>
          <path id="Path_53791_-_Outline" data-name="Path 53791 - Outline" d="M238.051,294.433l78.967,10.949-1.4.723a74.42,74.42,0,0,1-10.259,4.077,88.051,88.051,0,0,1-11.06,2.8,74.935,74.935,0,0,1-13.486,1.272,57.119,57.119,0,0,1-21.377-3.94,53.309,53.309,0,0,1-20.519-14.875Zm75.619,11.494-73.1-10.136c10.483,11.588,24.016,17.461,40.248,17.461a83.986,83.986,0,0,0,32.854-7.325Z" transform="translate(-239.299 -295.111)" fill="#d3d8e6"/>
        </g>
        <g id="Group_18634" data-name="Group 18634" transform="translate(55.154 528.761)">
          <path id="Path_53792" data-name="Path 53792" d="M283.716,277.358s-42.484,30.119-76.82.092Z" transform="translate(-206.896 -277.358)" fill="#fff"/>
          <path id="Path_53792_-_Outline" data-name="Path 53792 - Outline" d="M285.289,276.856l-1.283.91a78.894,78.894,0,0,1-12.4,6.756,83.948,83.948,0,0,1-13.35,4.638A66.577,66.577,0,0,1,242,291.272a52.469,52.469,0,0,1-35.437-13.445l-1-.875ZM242,290.272c11.676,0,22.311-3.618,29.177-6.654a84.317,84.317,0,0,0,10.867-5.758l-73.8.088A51.356,51.356,0,0,0,242,290.272Z" transform="translate(-206.896 -277.358)" fill="#d3d8e6"/>
        </g>
        <g id="Group_18641" data-name="Group 18641" transform="translate(42.274 509.922)">
          <g id="Group_18635" data-name="Group 18635" transform="translate(23.894 37.789)">
            <path id="Path_53793" data-name="Path 53793" d="M211.454,341.84a301.97,301.97,0,0,0,9.4-39.877L247.83,285.2l8.733,7.762c13.071,3.736,19.134,20.41,19.134,20.41l-50.244,46.344Z" transform="translate(-211.454 -285.2)" fill="#fff"/>
            <path id="Path_53793_-_Outline" data-name="Path 53793 - Outline" d="M225.393,360.45,210.9,341.942l.077-.25c3.417-11.028,5.786-21.262,7.171-27.905,1.5-7.2,2.2-11.852,2.21-11.9l.034-.229,27.491-17.082,8.928,7.935a22.968,22.968,0,0,1,8.584,4.836,35.763,35.763,0,0,1,6.05,6.937,44.761,44.761,0,0,1,4.722,8.914l.114.313Zm-13.384-18.712,13.5,17.242,49.6-45.746a45.736,45.736,0,0,0-4.5-8.406c-2.825-4.153-7.578-9.5-14.179-11.386l-.11-.031-8.539-7.589-26.465,16.445c-.16,1.023-.864,5.391-2.183,11.716C217.749,320.6,215.4,330.765,212.009,341.738Z" transform="translate(-211.454 -285.2)" fill="#d3d8e6"/>
          </g>
          <g id="Group_18636" data-name="Group 18636" transform="translate(0 92.186)">
            <path id="Path_53794" data-name="Path 53794" d="M203.328,335.114l-1.762-6.686c2.554-4.258,15.212-11.4,15.212-11.4,3.485-3.067,6.754-6.2,9.905-9.316l12.776,20.117Z" transform="translate(-201.566 -307.711)" fill="#fff"/>
            <path id="Path_53794_-_Outline" data-name="Path 53794 - Outline" d="M202.964,335.7l-1.935-7.346.108-.181c2.54-4.234,14.383-11.006,15.349-11.553,3-2.642,6.13-5.586,9.845-9.261l.441-.436,13.5,21.255Zm-.86-7.188,1.586,6.021,34.956-7.049L226.593,308.5c-3.553,3.5-6.578,6.341-9.485,8.9l-.039.034-.045.026C216.9,317.532,204.8,324.391,202.1,328.51Z" transform="translate(-201.566 -307.711)" fill="#d3d8e6"/>
          </g>
          <g id="Group_18637" data-name="Group 18637" transform="translate(0 37.789)">
            <path id="Path_53795" data-name="Path 53795" d="M270.569,292.962l-8.733-7.762-26.978,16.763a302.956,302.956,0,0,1-8.936,38.352c-2.929,2.878-5.928,5.768-9.144,8.6,0,0-12.658,7.143-15.212,11.4L203.328,367l36.131-7.286L289.7,313.372S283.64,296.7,270.569,292.962Z" transform="translate(-201.566 -285.2)" fill="#fff"/>
            <path id="Path_53795_-_Outline" data-name="Path 53795 - Outline" d="M261.889,284.578l8.928,7.934a22.968,22.968,0,0,1,8.584,4.836,35.764,35.764,0,0,1,6.05,6.937,44.759,44.759,0,0,1,4.722,8.914l.114.313-.245.226L239.7,360.178l-36.731,7.407-1.935-7.346.108-.181c2.54-4.234,14.383-11.005,15.349-11.553,3.252-2.863,6.243-5.753,8.994-8.455a305.329,305.329,0,0,0,8.883-38.159l.034-.228Zm27.225,28.656a45.736,45.736,0,0,0-4.5-8.406c-2.825-4.153-7.578-9.5-14.179-11.386l-.11-.031-8.539-7.589-26.466,16.445a308.52,308.52,0,0,1-8.917,38.194l-.037.122-.091.089c-2.8,2.749-5.843,5.695-9.164,8.617l-.039.034-.045.026c-.124.07-12.223,6.929-14.919,11.048l1.586,6.021,35.532-7.165Z" transform="translate(-201.566 -285.2)" fill="#d3d8e6"/>
          </g>
          <g id="Group_18638" data-name="Group 18638" transform="translate(1.762 65.96)">
            <path id="Path_53796" data-name="Path 53796" d="M202.3,350.488l36.13-7.286,50.244-46.344L295.294,304l-52.565,48.113-37.953,7.8Z" transform="translate(-202.295 -296.858)" fill="#fff"/>
            <path id="Path_53796_-_Outline" data-name="Path 53796 - Outline" d="M204.413,360.489,201.677,350.1l36.513-7.364L288.7,296.152,296,304.025l-53.038,48.546Zm-1.5-9.616,2.225,8.446,37.355-7.672,52.092-47.68-5.943-6.4-49.98,46.1Z" transform="translate(-202.295 -296.858)" fill="#d3d8e6"/>
          </g>
          <g id="Group_18639" data-name="Group 18639" transform="translate(23.361)">
            <path id="Path_53797" data-name="Path 53797" d="M251.414,281.013l-3.271,26.337-26.978,16.763-9.931-54.551Z" transform="translate(-211.233 -269.562)" fill="#fff"/>
            <path id="Path_53797_-_Outline" data-name="Path 53797 - Outline" d="M210.6,268.861l41.366,11.789-3.354,27L220.8,324.926Zm40.268,12.516-39-11.114,9.656,53.038,26.151-16.25Z" transform="translate(-211.233 -269.562)" fill="#d3d8e6"/>
          </g>
          <g id="Group_18640" data-name="Group 18640" transform="translate(0.289 45.224)">
            <path id="Path_53798" data-name="Path 53798" d="M202,358.578a.314.314,0,0,1-.121-.607l31.139-12.5c9.487-7.977,33.833-29.522,33.179-33.879-.829-5.483,3.707-22.353,3.9-23.068a.282.282,0,0,1,.382-.22.3.3,0,0,1,.22.379c-.046.174-4.69,17.457-3.874,22.817.834,5.6-32.036,33.309-33.439,34.486a.387.387,0,0,1-.08.053l-31.185,12.52A.418.418,0,0,1,202,358.578Z" transform="translate(-201.686 -288.277)" fill="#fff"/>
            <path id="Path_53798_-_Outline" data-name="Path 53798 - Outline" d="M202,359.078a.819.819,0,0,1-.749-.484l-.018-.045a.826.826,0,0,1,.457-1.04l31.068-12.472c5.08-4.273,13.419-11.587,20.306-18.223,11.759-11.33,12.756-14.368,12.639-15.148-.354-2.343.175-6.885,1.572-13.5,1.046-4.951,2.2-9.272,2.339-9.769a.809.809,0,0,1,.76-.62.716.716,0,0,1,.279.056.8.8,0,0,1,.444.353.815.815,0,0,1,.086.627l0,.017c-1.726,6.468-4.481,18.506-3.858,22.594.12.8-.277,1.909-1.212,3.383a39.491,39.491,0,0,1-3.582,4.606c-2.662,3.034-6.443,6.853-11.239,11.351-8.47,7.945-17.22,15.3-17.57,15.6a.871.871,0,0,1-.171.117l-.026.014-.028.011-31.229,12.535A.916.916,0,0,1,202,359.078Z" transform="translate(-201.686 -288.277)" fill="#d3d8e6"/>
          </g>
        </g>
        <g id="Group_18648" data-name="Group 18648" transform="translate(124.189 574.389)">
          <g id="Group_18642" data-name="Group 18642" transform="translate(25.06 40.068)">
            <path id="Path_53799" data-name="Path 53799" d="M245.835,367.663a301.909,301.909,0,0,0,11.285-39.384l27.746-15.458,8.351,8.168c12.88,4.355,18.141,21.3,18.141,21.3l-52.394,43.9Z" transform="translate(-245.835 -312.821)" fill="#fff"/>
            <path id="Path_53799_-_Outline" data-name="Path 53799 - Outline" d="M258.869,386.917l-13.594-19.178.089-.246c3.938-10.851,6.791-20.96,8.491-27.531,1.842-7.121,2.765-11.734,2.774-11.78l.045-.227L284.949,312.2l8.537,8.35a22.97,22.97,0,0,1,8.345,5.24,35.761,35.761,0,0,1,5.713,7.218,44.752,44.752,0,0,1,4.291,9.129l.1.318Zm-12.475-19.329,12.664,17.867,51.719-43.332a45.727,45.727,0,0,0-4.1-8.611c-2.624-4.283-7.117-9.85-13.621-12.049l-.108-.036-8.166-7.986L257.564,328.6c-.208,1.014-1.12,5.345-2.738,11.6C253.133,346.747,250.3,356.791,246.394,367.588Z" transform="translate(-245.835 -312.821)" fill="#d3d8e6"/>
          </g>
          <g id="Group_18643" data-name="Group 18643" transform="translate(0.313 92.73)">
            <path id="Path_53800" data-name="Path 53800" d="M237.034,360.874l-1.44-6.764c2.752-4.13,15.736-10.662,15.736-10.662,3.627-2.9,7.042-5.87,10.338-8.835l11.8,20.7Z" transform="translate(-235.594 -334.614)" fill="#fff"/>
            <path id="Path_53800_-_Outline" data-name="Path 53800 - Outline" d="M236.643,361.439l-1.582-7.431.117-.175c2.737-4.107,14.889-10.306,15.881-10.807,3.127-2.5,6.393-5.291,10.275-8.783l.461-.415,12.47,21.873Zm-.515-7.221,1.3,6.091,35.25-5.377L261.541,335.4c-3.712,3.328-6.869,6.019-9.9,8.439l-.041.033-.047.023C251.428,343.959,239.016,350.234,236.128,354.218Z" transform="translate(-235.594 -334.614)" fill="#d3d8e6"/>
          </g>
          <g id="Group_18644" data-name="Group 18644" transform="translate(0 39.751)">
            <path id="Path_53801" data-name="Path 53801" d="M237.215,392.241a.312.312,0,0,1-.307-.247l-1.435-6.761a.293.293,0,0,1,.046-.239c2.764-4.149,15.318-10.5,15.852-10.77,3.349-2.687,6.508-5.459,9.422-8.057a304.834,304.834,0,0,0,10.707-37.76.308.308,0,0,1,.155-.215L299.4,312.734a.3.3,0,0,1,.372.046l8.3,8.124c12.834,4.391,18.225,21.3,18.278,21.473a.3.3,0,0,1-.1.333l-52.4,43.9a.311.311,0,0,1-.152.073l-36.438,5.558Zm-1.1-7.008,1.348,6.341,36.057-5.5,52.165-43.707c-.643-1.9-6.046-16.889-17.88-20.883a.389.389,0,0,1-.118-.073L299.5,313.4l-27.41,15.277a307.578,307.578,0,0,1-10.737,37.782.3.3,0,0,1-.087.126c-2.934,2.619-6.121,5.425-9.56,8.17C251.526,374.852,238.945,381.212,236.113,385.233Zm37.54,1.136h0Z" transform="translate(-235.464 -312.69)" fill="#fff"/>
            <path id="Path_53801_-_Outline" data-name="Path 53801 - Outline" d="M237.3,392.741h-.084a.812.812,0,0,1-.794-.635l0-.008-1.434-6.754a.792.792,0,0,1,.12-.631c2.824-4.231,15.114-10.469,15.994-10.912,3.312-2.659,6.409-5.376,9.265-7.921a302.962,302.962,0,0,0,10.643-37.559.8.8,0,0,1,.388-.556l.016-.009L299.149,312.3a.788.788,0,0,1,.408-.112.8.8,0,0,1,.568.233l8.217,8.045a23.2,23.2,0,0,1,8.339,5.257,36.326,36.326,0,0,1,5.75,7.234,45.994,45.994,0,0,1,4.4,9.262.8.8,0,0,1-.255.875l-52.385,43.889a.807.807,0,0,1-.367.185l-.042.008Zm-.65-7.393,1.2,5.66L273.3,385.6,325.1,342.2c-.977-2.746-6.37-16.507-17.454-20.248l-.034-.013a.873.873,0,0,1-.265-.167l-.009-.009-7.918-7.749L272.533,329a312.154,312.154,0,0,1-10.706,37.618.8.8,0,0,1-.23.34c-2.96,2.643-6.172,5.466-9.578,8.185l-.032.026-.036.02-.141.074c-2.484,1.284-5.041,2.712-7.2,4.023C240.546,381.749,237.8,383.84,236.649,385.349Z" transform="translate(-235.464 -312.69)" fill="#d3d8e6"/>
          </g>
          <g id="Group_18645" data-name="Group 18645" transform="translate(1.754 69.534)">
            <path id="Path_53802" data-name="Path 53802" d="M236.19,374.471l36.437-5.558,52.394-43.9,6.277,7.445-54.8,45.556L238.22,384Z" transform="translate(-236.19 -325.015)" fill="#fff"/>
            <path id="Path_53802_-_Outline" data-name="Path 53802 - Outline" d="M237.829,384.562l-2.238-10.505,36.822-5.616,52.668-44.129L332,332.523l-.387.322-54.9,45.644Zm-1.039-9.676,1.82,8.542,37.678-5.885,54.3-45.146-5.631-6.679-52.119,43.669Z" transform="translate(-236.19 -325.015)" fill="#d3d8e6"/>
          </g>
          <g id="Group_18646" data-name="Group 18646" transform="translate(28.948)">
            <path id="Path_53803" data-name="Path 53803" d="M287.109,301.74l-4.522,34.567-27.746,15.46-7.4-55.527Z" transform="translate(-247.444 -296.24)" fill="#fff"/>
            <path id="Path_53803_-_Outline" data-name="Path 53803 - Outline" d="M246.861,295.655l40.808,5.659-4.619,35.308-28.607,15.94Zm39.688,6.513-38.523-5.342,7.214,54.147,26.884-14.98Z" transform="translate(-247.444 -296.24)" fill="#d3d8e6"/>
          </g>
          <g id="Group_18647" data-name="Group 18647" transform="translate(0.88 48.95)">
            <path id="Path_53804" data-name="Path 53804" d="M236.146,383.093a.316.316,0,0,1-.3-.213.323.323,0,0,1,.2-.4l31.748-10.843c9.893-7.469,35.327-27.705,34.9-32.089-.534-5.524,4.884-22.133,5.111-22.841a.33.33,0,0,1,.4-.2.321.321,0,0,1,.2.4c-.06.167-5.6,17.189-5.084,22.575.556,5.638-33.729,31.586-35.194,32.688a.343.343,0,0,1-.087.048l-31.794,10.862A.485.485,0,0,1,236.146,383.093Z" transform="translate(-235.829 -316.497)" fill="#fff"/>
            <path id="Path_53804_-_Outline" data-name="Path 53804 - Outline" d="M236.146,383.593a.814.814,0,0,1-.772-.542l0-.012a.826.826,0,0,1,.5-1.029l.008,0,31.672-10.817c5.295-4,14-10.865,21.23-17.132,12.332-10.7,13.486-13.676,13.409-14.461-.224-2.315.513-6.7,2.189-13.045,1.158-4.379,2.426-8.4,2.918-9.919l.031-.1a.819.819,0,0,1,.78-.541.918.918,0,0,1,.2.022l.047.013a.821.821,0,0,1,.521,1.028l-.006.019c-.01.029-1.424,4.354-2.764,9.353-1.706,6.368-2.5,10.864-2.293,13,.079.806-.373,1.891-1.382,3.315a39.345,39.345,0,0,1-3.816,4.413c-2.816,2.891-6.792,6.507-11.816,10.747-8.909,7.518-18.093,14.447-18.371,14.656a.83.83,0,0,1-.194.112l-.037.014-31.822,10.872-.029.006A.968.968,0,0,1,236.146,383.593Z" transform="translate(-235.829 -316.497)" fill="#d3d8e6"/>
          </g>
        </g>
        <g id="Group_18649" data-name="Group 18649" transform="translate(0.483 228.709)">
          <path id="Path_53805" data-name="Path 53805" d="M382.306,178c1.143-7.182,1.725-10.4,1.385-11.413l-87.163-13.4S184.272,273.925,184.272,322.279l83.579,17.8L304.7,292.767S372.923,236.924,382.306,178Z" transform="translate(-184.272 -153.19)" fill="#fff"/>
          <path id="Path_53805_-_Outline" data-name="Path 53805 - Outline" d="M296.342,152.656l87.726,13.488.1.289c.34,1.013-.049,3.439-.989,9.3q-.176,1.1-.376,2.351c-2.15,13.5-7.581,27.952-16.144,42.957a241.724,241.724,0,0,1-26.291,36.765,333.833,333.833,0,0,1-24.515,25.68c-6.131,5.769-10.319,9.245-10.788,9.633l-37.008,47.521-84.281-17.954v-.4c0-5.827,1.634-13,4.857-21.329a187.276,187.276,0,0,1,12.75-25.742C210.7,259.159,223.7,240.347,240,219.3c14.5-18.724,29-35.792,38.606-46.814,10.409-11.942,17.48-19.557,17.551-19.632Zm86.931,14.378-86.558-13.309c-1.164,1.259-7.873,8.541-17.354,19.42-9.6,11.012-24.08,28.065-38.569,46.769-16.28,21.016-29.249,39.79-38.548,55.8-11.451,19.714-17.326,35.242-17.468,46.162l82.875,17.655,36.691-47.115.043-.036c.043-.035,4.333-3.557,10.793-9.635a332.819,332.819,0,0,0,24.439-25.6c16.585-19.405,37.368-48.9,42.2-79.216q.2-1.255.376-2.352C382.941,170.886,383.387,168.1,383.273,167.033Z" transform="translate(-184.272 -153.19)" fill="#d3d8e6"/>
        </g>
        <g id="Group_18650" data-name="Group 18650" transform="translate(123.855 236.662)">
          <path id="Path_53806" data-name="Path 53806" d="M236.587,156.493c-5.382-2.31,8.2,334.629,8.2,334.629L321.02,502.03,317.914,288.3s17.551-104.2-6.542-126.373C311.373,161.93,265.307,168.81,236.587,156.493Z" transform="translate(-235.326 -156.481)" fill="#fff"/>
          <path id="Path_53806_-_Outline" data-name="Path 53806 - Outline" d="M236.533,155.981a.634.634,0,0,1,.252.052c11.314,4.852,26.6,7.312,45.427,7.312a221.192,221.192,0,0,0,29.088-1.91l.237-.035.176.162c2.932,2.7,5.4,6.733,7.329,11.993a83.9,83.9,0,0,1,4.014,17.41c1.546,11.432,1.924,25.728,1.123,42.492-.712,14.9-2.242,29.044-3.4,38.282-1.2,9.574-2.262,16-2.361,16.6l3.113,214.267L244.3,491.558l-.017-.416c-.033-.824-3.352-83.318-6.027-165.377-1.572-48.2-2.617-86.814-3.108-114.78-.292-16.608-.388-29.6-.287-38.605.055-4.848.167-8.64.336-11.271.243-3.791.554-4.6.853-4.914A.665.665,0,0,1,236.533,155.981Zm45.678,8.364a168.137,168.137,0,0,1-23.278-1.5,89.816,89.816,0,0,1-22.238-5.764,21.815,21.815,0,0,0-.515,4.387c-.162,2.685-.27,6.523-.321,11.408-.094,9.1.009,22.146.3,38.781.5,28.022,1.546,66.6,3.115,114.677,2.574,78.845,5.733,157.914,5.991,164.351l75.242,10.766-3.1-213.187.008-.045c.011-.065,1.111-6.624,2.364-16.616,1.157-9.22,2.684-23.333,3.394-38.2.8-16.7.422-30.935-1.116-42.306-1.891-13.98-5.543-23.612-10.856-28.636A224.674,224.674,0,0,1,282.211,164.346Z" transform="translate(-235.326 -156.481)" fill="#d3d8e6"/>
        </g>
        <g id="Group_18651" data-name="Group 18651" transform="translate(126.461 379.849)">
          <path id="Path_53807" data-name="Path 53807" d="M236.4,215.735,250.358,408.3l-7.1-1.114Z" transform="translate(-236.404 -215.735)" fill="#fff"/>
          <path id="Path_53807_-_Outline" data-name="Path 53807 - Outline" d="M236.9,215.7l14,193.2-8.129-1.276-.015-.412L235.9,215.753Zm12.91,192.012L237.883,243.055l5.86,163.7Z" transform="translate(-236.404 -215.735)" fill="#d3d8e6"/>
        </g>
        <g id="Group_18652" data-name="Group 18652" transform="translate(0.312 386.954)">
          <path id="Path_53808" data-name="Path 53808" d="M184.372,229.52c-3.738,35.329,55.176,130.962,55.176,130.962h76l-47.6-113.157S187.791,197.233,184.372,229.52Z" transform="translate(-184.201 -218.675)" fill="#fff"/>
          <path id="Path_53808_-_Outline" data-name="Path 53808 - Outline" d="M198.272,218.175h0c5.492,0,12.593,1.517,21.105,4.506a206.752,206.752,0,0,1,22.89,9.872c14.3,7.091,25.829,14.276,25.944,14.347l.134.084.061.146L316.3,360.982H239.269l-.146-.238c-.147-.239-14.9-24.251-29.011-52.27a399.085,399.085,0,0,1-19.166-43.418,151.149,151.149,0,0,1-5.765-19.663,53.074,53.074,0,0,1-1.305-15.926c.414-3.906,1.958-6.843,4.59-8.728C190.84,219.038,194.14,218.175,198.272,218.175Zm69.28,29.49c-1.329-.822-12.308-7.563-25.732-14.22-18.821-9.334-33.878-14.269-43.543-14.27h0c-8.279,0-12.662,3.4-13.4,10.4-.845,7.982,1.516,19.806,7.016,35.143A398.063,398.063,0,0,0,211,308.019c13.337,26.489,27.255,49.393,28.826,51.964h74.966Z" transform="translate(-184.201 -218.675)" fill="#d3d8e6"/>
        </g>
        <g id="Group_18653" data-name="Group 18653" transform="translate(0.313 275.553)">
          <path id="Path_53809" data-name="Path 53809" d="M256.091,172.575c-32.154,39.321-71.719,93.538-71.719,122.243-1.22,11.546,4.265,29.539,12.182,48.526-.019-.106-10.765-32.217-6.046-57.868C193.714,268.056,240.251,195.452,256.091,172.575Z" transform="translate(-184.202 -172.575)" fill="#fff"/>
          <path id="Path_53809_-_Outline" data-name="Path 53809 - Outline" d="M255.7,172.258l.8.6c-8.494,12.268-24.107,36.291-37.513,58.471-11.812,19.543-26.257,44.817-27.99,54.236-4.415,24,4.916,54.153,6,57.513a1.19,1.19,0,0,1,.051.175l-.953.282a217.443,217.443,0,0,1-9.539-27.117c-2.354-8.863-3.256-16.139-2.681-21.627C183.9,266.092,222.944,212.32,255.7,172.258Zm-62.2,162.108c-.806-3.225-1.678-7.107-2.449-11.4a140.943,140.943,0,0,1-2.13-18.267,85.7,85.7,0,0,1,1.089-19.312c1.761-9.568,16.263-34.958,28.118-54.573,10.433-17.261,22.2-35.642,30.921-48.737-16.5,20.666-30.088,39.425-40.458,55.868-15.743,24.962-23.725,44.1-23.725,56.874v.026l0,.026C183.946,303.6,186.85,316.864,193.506,334.366Z" transform="translate(-184.202 -172.575)" fill="#d3d8e6"/>
        </g>
        <g id="Group_18654" data-name="Group 18654" transform="translate(0 228.389)">
          <path id="Path_53810" data-name="Path 53810" d="M393.623,507.192h-.048l-76.233-10.908a.322.322,0,0,1-.268-.3c0-.167-.681-16.836-1.643-42.235h-75.7a.309.309,0,0,1-.268-.147c-.145-.239-14.9-24.245-29.008-52.257-13.027-25.881-28.152-60.582-26.214-78.906,0-13.8,9.746-42.886,56.191-102.839,27.753-35.824,55.865-66.132,56.145-66.432a.289.289,0,0,1,.283-.1l87.163,13.4a.339.339,0,0,1,.167.082c10.062,9.262,14.238,33.4,12.406,71.748a526.566,526.566,0,0,1-5.773,54.908l3.115,213.666a.322.322,0,0,1-.109.239A.306.306,0,0,1,393.623,507.192Zm-75.929-11.5L393.3,506.517,390.2,293.16c.181-1.095,17.218-104.137-6.365-126.083l-86.9-13.361c-4.135,4.466-112.063,121.745-112.063,168.751-1.926,18.206,13.16,52.786,26.154,78.587,13.508,26.838,27.613,49.985,28.882,52.063h75.351L267.849,340.393a.3.3,0,0,1,.041-.314l36.844-47.32c.068-.068,1.984-1.636,5.111-4.422a.314.314,0,0,1,.522.227c1.677,56.981,4.014,121.1,5.679,164.856C316.955,477.256,317.6,493.464,317.694,495.694ZM268.5,340.321l46.851,111.4c-1.65-43.533-3.934-106.393-5.592-162.463-2.839,2.518-4.555,3.927-4.577,3.941Z" transform="translate(-184.072 -153.057)" fill="#fff"/>
          <path id="Path_53810_-_Outline" data-name="Path 53810 - Outline" d="M393.623,507.692h-.084l-.035-.005-76.251-10.911a.82.82,0,0,1-.679-.77V496c0-.032-.019-.489-.05-1.247-.513-12.823-1.043-26.447-1.575-40.5H239.731a.805.805,0,0,1-.7-.392l-.025-.041c-1.553-2.538-15.563-25.571-29-52.247a403.6,403.6,0,0,1-18.742-42.34c-5.865-16.117-8.4-28.5-7.525-36.817.012-13.913,9.8-43.094,56.3-103.119,27.553-35.565,55.658-65.912,56.17-66.462a.812.812,0,0,1,.594-.272.691.691,0,0,1,.163.019l87.157,13.4a.836.836,0,0,1,.411.208,28.5,28.5,0,0,1,6.559,9.894,69.977,69.977,0,0,1,4.255,15.353c2.074,11.995,2.663,27.771,1.75,46.889-.706,14.766-2.229,28.862-3.383,38.087-1.213,9.7-2.28,16.182-2.389,16.834l3.114,213.629a.822.822,0,0,1-.274.61A.8.8,0,0,1,393.623,507.692Zm-75.446-12.434,74.616,10.682L389.7,293.123l.007-.044a528.979,528.979,0,0,0,5.723-55.164c.772-16.574.395-30.693-1.121-41.966-1.868-13.889-5.468-23.443-10.7-28.4l-86.489-13.3c-2.716,2.943-30.242,32.918-57.372,68.193-15.867,20.63-28.489,39.034-37.516,54.7-11.189,19.421-16.862,34.668-16.862,45.32v.026l0,.026c-1.913,18.085,13.139,52.567,26.1,78.309,12.736,25.3,25.842,47.071,28.716,51.788H314.5L267.391,340.593a.8.8,0,0,1,.109-.826l36.859-47.339.022-.022c.028-.028.061-.056.306-.262.643-.54,2.352-1.976,4.826-4.18h0a.822.822,0,0,1,.544-.208.778.778,0,0,1,.332.074.807.807,0,0,1,.478.725c1.678,57.012,4.014,121.113,5.678,164.845C317.388,475.48,318.028,491.606,318.177,495.258Zm-2.921-43.429.252.6-.025-.649ZM269.074,340.4l45.673,108.595c-1.616-42.727-3.832-103.9-5.456-158.658-2.025,1.78-3.4,2.925-3.746,3.209Z" transform="translate(-184.072 -153.057)" fill="#d3d8e6"/>
        </g>
        <g id="Group_18655" data-name="Group 18655" transform="translate(121.672 238.964)">
          <path id="Path_53811" data-name="Path 53811" d="M238.732,282.687a.318.318,0,0,1-.307-.242c-11.531-45.913,5.5-123.971,5.676-124.754a.294.294,0,0,1,.375-.239.311.311,0,0,1,.242.375c-.174.781-17.184,78.7-5.679,124.471a.321.321,0,0,1-.234.382A.222.222,0,0,1,238.732,282.687Z" transform="translate(-234.423 -157.433)" fill="#fff"/>
          <path id="Path_53811_-_Outline" data-name="Path 53811 - Outline" d="M238.732,283.187a.82.82,0,0,1-.79-.615v-.005c-2.641-10.517-3.993-23.6-4.017-38.873a363.757,363.757,0,0,1,2.455-40.6c2.828-25.254,7.057-44.689,7.235-45.5l0-.013a.809.809,0,0,1,.769-.638.738.738,0,0,1,.235.039.811.811,0,0,1,.585.966c-.042.19-4.366,19.946-7.209,45.308-2.576,22.983-4.4,55.333,1.528,78.93l0,.009a.822.822,0,0,1-.573.972A.7.7,0,0,1,238.732,283.187Z" transform="translate(-234.423 -157.433)" fill="#d3d8e6"/>
        </g>
        <g id="Group_18656" data-name="Group 18656" transform="translate(55.292 38.116)">
          <path id="Path_53812" data-name="Path 53812" d="M247.915,76.584s-33.471,34.672-40.375,17.5C201.641,79.419,242.016,69.68,247.915,76.584Z" transform="translate(-206.953 -74.318)" fill="#fff"/>
          <path id="Path_53812_-_Outline" data-name="Path 53812 - Outline" d="M239.6,73.818c3.014,0,6.969.424,8.692,2.441l.3.345-.315.327a153.277,153.277,0,0,1-12.309,11.179,81.976,81.976,0,0,1-11.051,7.7c-4.186,2.352-7.75,3.545-10.595,3.545-3.45,0-5.887-1.711-7.244-5.086a8.165,8.165,0,0,1,1-8,19.013,19.013,0,0,1,5.665-5.156,42.266,42.266,0,0,1,8.161-3.909A55.09,55.09,0,0,1,239.6,73.818Zm7.611,2.767c-1.307-1.143-3.977-1.767-7.611-1.767a54.041,54.041,0,0,0-17.361,3.33c-6.389,2.325-11.126,5.41-13.339,8.685A7.217,7.217,0,0,0,208,93.9c1.207,3,3.273,4.459,6.316,4.459,2.67,0,6.069-1.149,10.1-3.414a80.954,80.954,0,0,0,10.908-7.606A154.013,154.013,0,0,0,247.213,76.586Z" transform="translate(-206.953 -74.318)" fill="#d3d8e6"/>
        </g>
        <g id="Group_18670" data-name="Group 18670" transform="translate(60.674)">
          <g id="Group_18658" data-name="Group 18658">
            <g id="Group_18657" data-name="Group 18657">
              <path id="Path_53813" data-name="Path 53813" d="M234.772,104.217a20.121,20.121,0,0,1,.191-8.666c1.179-4.311,2.74-13.015,1.921-17.851-.614-3.61-.993-6.384-3.052-5.63s-3.6,5.964-3.364,6.483-2.624-15.115-3.729-16.48c-.529-.657-1.866-3.6-3.842-.37,0,0-2.571-4.338-4.219-2.847s-.768,4.159-.768,4.159-2.141-2.912-3.683-.616-.812,6.329-.812,6.329-1.9-2.388-3.424-.29-.713,21.147.855,27.345a44.3,44.3,0,0,0,3.794,10.106l2.8,6.433Z" transform="translate(-209.18 -58.545)" fill="#fff"/>
              <path id="Path_53813_-_Outline" data-name="Path 53813 - Outline" d="M217.185,112.992l-2.993-6.88a44.705,44.705,0,0,1-3.83-10.206,88.682,88.682,0,0,1-1.6-15.314c-.109-3.041-.108-5.77,0-7.893.172-3.3.552-4.18.822-4.554a2.249,2.249,0,0,1,1.84-1.069,2.571,2.571,0,0,1,1.348.432,9.1,9.1,0,0,1,1.038-5.387,2.15,2.15,0,0,1,1.8-1.1,2.73,2.73,0,0,1,1.559.577,3.892,3.892,0,0,1,1.167-3.109,1.615,1.615,0,0,1,1.109-.441c.807,0,1.714.591,2.7,1.757.3.358.562.714.762,1a2.327,2.327,0,0,1,1.783-1.088c1.071,0,1.788,1.08,2.216,1.725.085.129.166.25.221.318.178.22.722.893,2.214,7.942.471,2.224.911,4.505,1.216,6.188.138-.376.3-.767.476-1.154.55-1.193,1.452-2.706,2.626-3.135a2.342,2.342,0,0,1,.8-.155c1.329,0,1.834,1.408,2,1.871a24.731,24.731,0,0,1,.845,3.88l.071.42c.839,4.951-.74,13.709-1.932,18.066a19.774,19.774,0,0,0-.186,8.423l.089.393-.365.171Zm-5.759-44.917a1.3,1.3,0,0,0-1.03.656c-.5.694-.894,4.619-.635,11.824a89.2,89.2,0,0,0,1.571,15.1,44.306,44.306,0,0,0,3.744,9.981l.013.023.011.025,2.593,5.962,16.513-7.721a20.386,20.386,0,0,1,.275-8.511c1.256-4.591,2.679-13.1,1.91-17.635l-.071-.421c-.446-2.639-.831-4.918-1.859-4.918a1.357,1.357,0,0,0-.457.094,4.979,4.979,0,0,0-2.061,2.615,12.1,12.1,0,0,0-.989,3.086c.041.3.055.478-.1.653l-.149.172h-.229a.508.508,0,0,1-.464-.306,1.016,1.016,0,0,1-.065-.493c-.166-1.154-.835-4.823-1.584-8.359-1.338-6.322-1.879-7.355-2.014-7.521-.084-.1-.173-.238-.276-.393-.317-.478-.849-1.278-1.383-1.278-.39,0-.876.443-1.368,1.248l-.433.708-.423-.714c-.669-1.126-2.079-2.914-3.015-2.914a.628.628,0,0,0-.438.183c-1.385,1.253-.637,3.608-.629,3.632l-.878.452c-.266-.36-1.125-1.294-1.89-1.294a1.211,1.211,0,0,0-.974.661c-1.409,2.1-.742,5.923-.735,5.961l-.883.4A2.553,2.553,0,0,0,211.426,68.076Z" transform="translate(-209.18 -58.545)" fill="#d3d8e6"/>
            </g>
          </g>
          <g id="Group_18661" data-name="Group 18661" transform="translate(13.375 2.822)">
            <g id="Group_18660" data-name="Group 18660">
              <g id="Group_18659" data-name="Group 18659">
                <path id="Path_53814" data-name="Path 53814" d="M217.017,74.768a.333.333,0,0,1-.254-.278L214.719,60.1a.343.343,0,0,1,.288-.389.35.35,0,0,1,.384.29l2.044,14.388a.345.345,0,0,1-.288.389A.388.388,0,0,1,217.017,74.768Z" transform="translate(-214.715 -59.713)" fill="#fff"/>
                <path id="Path_53814_-_Outline" data-name="Path 53814 - Outline" d="M217.117,75.281a.847.847,0,0,1-.229-.03.834.834,0,0,1-.621-.694l-2.044-14.382a.843.843,0,0,1,.705-.956l.045,0a.846.846,0,0,1,.911.72l2.044,14.387a.848.848,0,0,1-.706.953l-.025,0h-.026Z" transform="translate(-214.715 -59.713)" fill="#d3d8e6"/>
              </g>
            </g>
          </g>
          <g id="Group_18664" data-name="Group 18664" transform="translate(8.392 4.128)">
            <g id="Group_18663" data-name="Group 18663">
              <g id="Group_18662" data-name="Group 18662">
                <path id="Path_53815" data-name="Path 53815" d="M215.874,74.174a.337.337,0,0,1-.249-.256l-2.963-13.25a.336.336,0,0,1,.259-.4.327.327,0,0,1,.4.259l2.963,13.247a.338.338,0,0,1-.259.406A.3.3,0,0,1,215.874,74.174Z" transform="translate(-212.653 -60.253)" fill="#fff"/>
                <path id="Path_53815_-_Outline" data-name="Path 53815 - Outline" d="M215.961,74.686a.86.86,0,0,1-.208-.026l-.007,0a.833.833,0,0,1-.609-.634L212.175,60.78a.822.822,0,0,1,.1-.622.843.843,0,0,1,.52-.377.811.811,0,0,1,.208-.027.834.834,0,0,1,.808.664l2.962,13.242a.826.826,0,0,1-.1.625.843.843,0,0,1-.519.376A.749.749,0,0,1,215.961,74.686Z" transform="translate(-212.653 -60.253)" fill="#d3d8e6"/>
              </g>
            </g>
          </g>
          <g id="Group_18667" data-name="Group 18667" transform="translate(3.893 9.846)">
            <g id="Group_18666" data-name="Group 18666">
              <g id="Group_18665" data-name="Group 18665">
                <path id="Path_53816" data-name="Path 53816" d="M213.6,72.432a.327.327,0,0,1-.244-.242l-2.554-9.144a.339.339,0,1,1,.655-.176l2.554,9.144a.339.339,0,0,1-.237.416A.385.385,0,0,1,213.6,72.432Z" transform="translate(-210.791 -62.62)" fill="#fff"/>
                <path id="Path_53816_-_Outline" data-name="Path 53816 - Outline" d="M213.685,72.94a.889.889,0,0,1-.188-.02l-.015,0a.831.831,0,0,1-.606-.6l-2.552-9.135a.821.821,0,0,1,.07-.63.846.846,0,0,1,.51-.4l.021-.005a.9.9,0,0,1,.205-.024.821.821,0,0,1,.813.622l2.552,9.137a.823.823,0,0,1-.075.631.837.837,0,0,1-.508.4l-.014,0A.88.88,0,0,1,213.685,72.94Z" transform="translate(-210.791 -62.62)" fill="#d3d8e6"/>
              </g>
            </g>
          </g>
          <g id="Group_18669" data-name="Group 18669" transform="translate(20.604 17.592)">
            <g id="Group_18668" data-name="Group 18668">
              <path id="Path_53817" data-name="Path 53817" d="M218.13,65.825l.092.488c0,.031.362.834.353,4.49a.445.445,0,0,1-.437.43.43.43,0,0,1-.43-.433A21.387,21.387,0,0,1,218.13,65.825Z" transform="translate(-217.707 -65.825)" fill="#fff"/>
              <path id="Path_53817_-_Outline" data-name="Path 53817 - Outline" d="M217.648,65.692l.973.041.088.47a19.029,19.029,0,0,1,.365,4.6l0,.039a.942.942,0,0,1-.927.89h-.009a.93.93,0,0,1-.93-.938A21.687,21.687,0,0,1,217.648,65.692Z" transform="translate(-217.707 -65.825)" fill="#d3d8e6"/>
            </g>
          </g>
        </g>
        <g id="Group_18671" data-name="Group 18671" transform="translate(110.532 125.656)">
          <path id="Path_53818" data-name="Path 53818" d="M306.88,112.445s36.291,89.3,26.473,116.115L319.182,227l-36.38,1.837A83.105,83.105,0,0,1,238,218.338l-7.2-4.033-.979-97.474c-.039-3.714,12.991-9.422,28.971-4.161l23.087,2.124Z" transform="translate(-229.813 -110.544)" fill="#fff"/>
          <path id="Path_53818_-_Outline" data-name="Path 53818 - Outline" d="M245.9,110.044a41.664,41.664,0,0,1,12.984,2.133l22.984,2.115,25.332-2.379.14.344c.091.223,9.171,22.64,16.933,48.045a311.93,311.93,0,0,1,9.575,38.722,112.035,112.035,0,0,1,1.682,16.844,37.2,37.2,0,0,1-1.712,12.865l-.135.368-14.52-1.6-36.34,1.835c-1.4.07-2.814.106-4.212.106a83.6,83.6,0,0,1-40.864-10.667l-7.456-4.175,0-.29-.979-97.474a3.34,3.34,0,0,1,1.136-2.289C232.668,112.306,238.306,110.044,245.9,110.044Zm35.969,5.252-23.19-2.134-.054-.018a40.683,40.683,0,0,0-12.725-2.1,31.56,31.56,0,0,0-9.336,1.33,13.574,13.574,0,0,0-5.407,2.876,2.407,2.407,0,0,0-.847,1.575l.976,97.185,6.951,3.892a82.783,82.783,0,0,0,40.376,10.539c1.381,0,2.782-.035,4.162-.1L319.2,226.5l.04,0,13.777,1.518c2.078-6.061,2.028-15.756-.148-28.829a310.914,310.914,0,0,0-9.544-38.59c-7.224-23.645-15.592-44.7-16.767-47.623Z" transform="translate(-229.813 -110.544)" fill="#d3d8e6"/>
        </g>
        <g id="Group_18687" data-name="Group 18687" transform="translate(138.653 82.624)">
          <g id="Group_18674" data-name="Group 18674" transform="translate(0 27.687)">
            <g id="Group_18673" data-name="Group 18673">
              <g id="Group_18672" data-name="Group 18672">
                <path id="Path_53819" data-name="Path 53819" d="M247.26,104.266c-1.508,6.438-3.92,15.743-4.959,17.4,0,0-4.809,25.791,8.431,25.646,5.86-.063,15.789-17.94,14.663-25.1-.479-3.04-1.6-9.212-2.223-18.02Z" transform="translate(-241.45 -104.194)" fill="#fff"/>
                <path id="Path_53819_-_Outline" data-name="Path 53819 - Outline" d="M263.638,103.692l.033.467c.538,7.665,1.457,13.3,2.006,16.663.081.5.151.926.212,1.314.384,2.44-.418,6.164-2.258,10.486A44.581,44.581,0,0,1,257.1,143.51c-1.648,1.949-4.091,4.278-6.365,4.3h-.116a7.812,7.812,0,0,1-6.3-2.865,14.62,14.62,0,0,1-2.788-6.586,37.324,37.324,0,0,1-.581-7.689,61.527,61.527,0,0,1,.853-9.1l.017-.094.051-.081c.9-1.427,3.141-9.757,4.9-17.247l.09-.384Zm-13.017,43.12h.105c1.48-.016,3.473-1.418,5.612-3.948,4.6-5.44,9.343-15.611,8.562-20.572-.061-.385-.13-.813-.211-1.308-.541-3.314-1.438-8.815-1.983-16.287l-15.051.069c-1.327,5.631-3.735,15.084-4.879,17.079a60.948,60.948,0,0,0-.821,8.86c-.1,6.307.984,11.012,3.139,13.605A6.853,6.853,0,0,0,250.621,146.812Z" transform="translate(-241.45 -104.194)" fill="#d3d8e6"/>
              </g>
            </g>
          </g>
          <g id="Group_18675" data-name="Group 18675" transform="translate(1.487 27.687)">
            <path id="Path_53820" data-name="Path 53820" d="M242.079,120.14l-.014.072c15.381-4.736,19.537-13.032,20.272-15.6-.01-.15-.027-.271-.036-.423l-15.913.072c0,.116-.128.6-.295,1.237C244.856,110.69,243.186,117.1,242.079,120.14Z" transform="translate(-242.065 -104.194)" fill="#fff"/>
            <path id="Path_53820_-_Outline" data-name="Path 53820 - Outline" d="M241.41,120.938l.187-.933.013-.036c1.109-3.045,2.792-9.529,4-14.582l0-.011c.173-.655.266-1.038.279-1.139l.019-.468,16.862-.077.03.471c0,.069.011.132.017.2s.014.141.019.223l.006.087-.024.083a17.409,17.409,0,0,1-4.775,7.2c-3.821,3.737-9.147,6.675-15.831,8.733Zm5.168-15.312c-1.107,4.64-2.617,10.486-3.726,13.813,6.093-1.991,10.964-4.746,14.491-8.2a16.922,16.922,0,0,0,4.446-6.546l-14.992.068C246.752,104.959,246.682,105.231,246.578,105.626Z" transform="translate(-242.065 -104.194)" fill="#d3d8e6"/>
          </g>
          <g id="Group_18678" data-name="Group 18678" transform="translate(3.406 8.787)">
            <g id="Group_18677" data-name="Group 18677">
              <g id="Group_18676" data-name="Group 18676">
                <path id="Path_53821" data-name="Path 53821" d="M261.461,98.985c-7.832-6.955-12.95,2.177-12.95,2.177s-5.911,7.745-5.642,13.636c.022.476.063.928.121,1.36a7.5,7.5,0,0,0,8.931,6.442q.656-.123,1.36-.321c5.7-1.607,11.205-9.639,11.205-9.639S270.556,104.193,261.461,98.985Z" transform="translate(-242.859 -96.373)" fill="#fff"/>
                <path id="Path_53821_-_Outline" data-name="Path 53821 - Outline" d="M255.65,95.873h0a9.34,9.34,0,0,1,6.1,2.7c2.8,1.612,4.487,3.694,5.029,6.187.906,4.171-1.734,7.949-1.888,8.164a39.126,39.126,0,0,1-3.513,4.273c-2.836,3-5.516,4.869-7.966,5.56-.471.133-.943.245-1.4.332a8.448,8.448,0,0,1-1.571.149,8,8,0,0,1-5.264-1.961,8.1,8.1,0,0,1-2.684-5.056c-.061-.454-.1-.926-.125-1.4-.115-2.535.82-5.66,2.78-9.288a39.336,39.336,0,0,1,2.944-4.648,12.421,12.421,0,0,1,1.968-2.477A8.055,8.055,0,0,1,255.65,95.873Zm-5.209,26.369a7.448,7.448,0,0,0,1.386-.132c.432-.081.875-.186,1.317-.311,5.459-1.54,10.875-9.362,10.929-9.441l.006-.009c.025-.035,2.546-3.615,1.724-7.38-.484-2.215-2.029-4.083-4.592-5.55l-.045-.026-.039-.034a8.421,8.421,0,0,0-5.478-2.486h0a6.978,6.978,0,0,0-4.872,2.234,11.482,11.482,0,0,0-1.831,2.3l-.017.03-.021.028c-.058.076-5.8,7.67-5.54,13.31.02.448.06.891.117,1.317A6.979,6.979,0,0,0,250.441,122.242Z" transform="translate(-242.859 -96.373)" fill="#d3d8e6"/>
              </g>
            </g>
          </g>
          <g id="Group_18679" data-name="Group 18679" transform="translate(10.554 27.946)">
            <path id="Path_53822" data-name="Path 53822" d="M249.63,104.743c-2.8,1.2-3.813-.442-3.813-.442a3.356,3.356,0,0,0,1.851,2.871C249.437,107.865,249.63,104.743,249.63,104.743Z" transform="translate(-245.817 -104.301)" fill="#fff"/>
            <path id="Path_53822_-_Outline" data-name="Path 53822 - Outline" d="M250.179,103.964l-.05.81a6.325,6.325,0,0,1-.267,1.387c-.43,1.331-1.167,1.611-1.71,1.611a1.831,1.831,0,0,1-.667-.135,3.829,3.829,0,0,1-2.168-3.318l.925-.281,0-.006a1.779,1.779,0,0,0,1.513.649,4.351,4.351,0,0,0,1.682-.4Zm-2.428,1.717a3.239,3.239,0,0,1-1.121-.189,2.262,2.262,0,0,0,1.22,1.214.845.845,0,0,0,.3.066c.434,0,.712-.656.858-1.278A4.65,4.65,0,0,1,247.752,105.681Z" transform="translate(-245.817 -104.301)" fill="#d3d8e6"/>
          </g>
          <g id="Group_18680" data-name="Group 18680" transform="translate(6.966 19.103)">
            <path id="Path_53823" data-name="Path 53823" d="M245.438,102.061c-.324.616-.082-.561-.365-.71s-.981.793-.657.174.817-1,1.1-.851S245.762,101.442,245.438,102.061Z" transform="translate(-244.332 -100.642)" fill="#fff"/>
            <path id="Path_53823_-_Outline" data-name="Path 53823 - Outline" d="M245.3,102.738a.549.549,0,0,1-.538-.5c-.008-.05-.014-.1-.018-.16a.623.623,0,0,1-.4.164.506.506,0,0,1-.437-.246.681.681,0,0,1,.066-.7c.292-.557.815-1.15,1.406-1.15a.78.78,0,0,1,.367.089c.56.3.615,1.144.135,2.062A.691.691,0,0,1,245.3,102.738Z" transform="translate(-244.332 -100.642)" fill="#d3d8e6"/>
          </g>
          <g id="Group_18681" data-name="Group 18681" transform="translate(12.299 21.572)">
            <path id="Path_53824" data-name="Path 53824" d="M247.643,103.081c-.324.619-.082-.561-.363-.708s-.981.79-.657.174.814-1,1.095-.851S247.967,102.462,247.643,103.081Z" transform="translate(-246.539 -101.664)" fill="#fff"/>
            <path id="Path_53824_-_Outline" data-name="Path 53824 - Outline" d="M247.506,103.759a.549.549,0,0,1-.538-.5c-.008-.05-.013-.1-.018-.159a.619.619,0,0,1-.4.163.506.506,0,0,1-.437-.246.68.68,0,0,1,.067-.7c.291-.556.812-1.151,1.4-1.151a.78.78,0,0,1,.369.09.826.826,0,0,1,.4.5,2.173,2.173,0,0,1-.269,1.555A.691.691,0,0,1,247.506,103.759Z" transform="translate(-246.539 -101.664)" fill="#d3d8e6"/>
          </g>
          <g id="Group_18682" data-name="Group 18682" transform="translate(6.962 17.064)">
            <path id="Path_53825" data-name="Path 53825" d="M247.212,102.171a.2.2,0,0,1-.2-.2,1.8,1.8,0,0,0-.628-1.566,2.158,2.158,0,0,0-1.771-.017.2.2,0,0,1-.159-.375,2.6,2.6,0,0,1,2.151.053,2.148,2.148,0,0,1,.81,1.9.2.2,0,0,1-.2.2Z" transform="translate(-244.331 -99.798)" fill="#fff"/>
            <path id="Path_53825_-_Outline" data-name="Path 53825 - Outline" d="M247.212,102.671a.7.7,0,0,1-.7-.69,1.448,1.448,0,0,0-.4-1.154.953.953,0,0,0-.524-.13,2.3,2.3,0,0,0-.736.138l-.006,0-.052.02a.72.72,0,0,1-.258.048.7.7,0,0,1-.642-.421l-.009-.022a.7.7,0,0,1,.374-.907h0a3.749,3.749,0,0,1,1.335-.261,2.286,2.286,0,0,1,1.288.356,2.608,2.608,0,0,1,1.033,2.306v.008A.7.7,0,0,1,247.212,102.671Z" transform="translate(-244.331 -99.798)" fill="#d3d8e6"/>
          </g>
          <g id="Group_18683" data-name="Group 18683" transform="translate(12.534 19.824)">
            <path id="Path_53826" data-name="Path 53826" d="M249.516,103.306a.2.2,0,0,1-.2-.2,1.779,1.779,0,0,0-.628-1.556,2.121,2.121,0,0,0-1.776-.024.211.211,0,0,1-.261-.109.207.207,0,0,1,.114-.266,2.593,2.593,0,0,1,2.146.06,2.155,2.155,0,0,1,.807,1.887.2.2,0,0,1-.193.2Z" transform="translate(-246.636 -100.94)" fill="#fff"/>
            <path id="Path_53826_-_Outline" data-name="Path 53826 - Outline" d="M249.529,103.806h-.013a.7.7,0,0,1-.7-.69,1.422,1.422,0,0,0-.4-1.144l-.008-.005a.915.915,0,0,0-.522-.134,2.279,2.279,0,0,0-.759.149.646.646,0,0,1-.278.062.716.716,0,0,1-.658-.432l-.007-.017a.7.7,0,0,1,.393-.9h0a3.706,3.706,0,0,1,1.31-.253,2.326,2.326,0,0,1,1.3.357,2.618,2.618,0,0,1,1.033,2.295v.011a.7.7,0,0,1-.682.7Z" transform="translate(-246.636 -100.94)" fill="#d3d8e6"/>
          </g>
          <g id="Group_18684" data-name="Group 18684" transform="translate(20.695 21.95)">
            <path id="Path_53827" data-name="Path 53827" d="M252.856,103.93s1.953-3.059,3.441-1.81-.336,7.994-4.64,6.353S252.856,103.93,252.856,103.93Z" transform="translate(-250.014 -101.82)" fill="#fff"/>
            <path id="Path_53827_-_Outline" data-name="Path 53827 - Outline" d="M255.512,101.32a1.687,1.687,0,0,1,1.107.417c.944.791.807,2.712.279,4.163-.758,2.085-2.231,3.329-3.941,3.329a4.153,4.153,0,0,1-1.478-.288c-1.252-.477-1.912-1.136-1.963-1.959-.1-1.614,2.361-3.082,2.991-3.431C252.845,103.051,254.115,101.32,255.512,101.32Zm-2.555,6.908c1.883,0,2.773-2.044,3-2.671.512-1.407.422-2.716.018-3.055a.7.7,0,0,0-.464-.183c-.845,0-1.923,1.391-2.234,1.879l-.071.111-.117.062c-1.1.582-2.624,1.757-2.575,2.548.03.493.735.862,1.321,1.085A3.16,3.16,0,0,0,252.957,108.228Z" transform="translate(-250.014 -101.82)" fill="#d3d8e6"/>
          </g>
          <g id="Group_18685" data-name="Group 18685" transform="translate(23.176 23.41)">
            <path id="Path_53828" data-name="Path 53828" d="M252.045,107.02a.838.838,0,0,1-.5-.191,1.25,1.25,0,0,1-.481-1.172.846.846,0,0,1,.735-.619c.333-.058.783-.116.916.145.155.263-.155.621-.22.691a.156.156,0,0,1-.22.01.159.159,0,0,1-.007-.222c.114-.126.193-.285.174-.324,0,0-.094-.082-.575.01-.28.056-.447.184-.5.384a.913.913,0,0,0,.367.848.432.432,0,0,0,.454.087,4.366,4.366,0,0,0,1.59-3.6c-.06-.273-.179-.307-.22-.321a.318.318,0,0,0-.087-.01c-.435,0-1.223.669-1.655,1.124a.155.155,0,0,1-.222,0,.152.152,0,0,1,0-.22c.126-.133,1.174-1.223,1.89-1.223a.536.536,0,0,1,.167.024.65.65,0,0,1,.442.553,4.692,4.692,0,0,1-1.752,3.946A.67.67,0,0,1,252.045,107.02Z" transform="translate(-251.04 -102.424)" fill="#fff"/>
            <path id="Path_53828_-_Outline" data-name="Path 53828 - Outline" d="M252.045,107.52a1.335,1.335,0,0,1-.805-.293,1.756,1.756,0,0,1-.666-1.679l0-.012a1.34,1.34,0,0,1,1.124-.988l.01,0a3.211,3.211,0,0,1,.542-.057,1.024,1.024,0,0,1,.755.262,2.976,2.976,0,0,0,.3-1.454,4.79,4.79,0,0,0-1.125.9.656.656,0,1,1-.956-.9c.389-.412,1.394-1.376,2.25-1.376a1.038,1.038,0,0,1,.31.045,1.133,1.133,0,0,1,.788.927,5.133,5.133,0,0,1-2.01,4.5l-.012.006A1.162,1.162,0,0,1,252.045,107.52Z" transform="translate(-251.04 -102.424)" fill="#d3d8e6"/>
          </g>
          <g id="Group_18686" data-name="Group 18686" transform="translate(6.967)">
            <path id="Path_53829" data-name="Path 53829" d="M257.421,95.635c9.473,5.292,13.837,18.672,3.557,19.714-.375.036-.686.387-1.061.355a1.124,1.124,0,0,1-.677-.418,6.181,6.181,0,0,1-1.633-4.562c.075-1.155.466-2.366.012-3.429-.693-1.621-2.864-1.9-4.62-1.74-1.426.13-3.033.389-4.374-.261-.812-.394-4.318,4.335-4.292,3.528C244.679,97.684,243.028,87.593,257.421,95.635Z" transform="translate(-244.333 -92.736)" fill="#fff"/>
            <path id="Path_53829_-_Outline" data-name="Path 53829 - Outline" d="M249.317,92.236c2.05,0,4.78.969,8.347,2.962a20.808,20.808,0,0,1,7.563,7.347c1.774,2.954,2.508,6.016,2.014,8.4a5.647,5.647,0,0,1-1.939,3.3,7.807,7.807,0,0,1-4.275,1.6,1.078,1.078,0,0,0-.3.126,1.622,1.622,0,0,1-.759.234c-.03,0-.06,0-.09,0a1.582,1.582,0,0,1-1-.576,6.717,6.717,0,0,1-1.766-4.934c.022-.333.067-.666.112-.988a4.236,4.236,0,0,0-.061-2.212c-.549-1.284-2.31-1.476-3.311-1.476-.262,0-.533.013-.8.037l-.476.046c-.58.058-1.179.118-1.785.118a5.369,5.369,0,0,1-2.293-.434,3.515,3.515,0,0,0-.879.677c-.456.427-.971.976-1.426,1.46-1.088,1.16-1.418,1.494-1.8,1.494a.546.546,0,0,1-.4-.166.588.588,0,0,1-.16-.443c.037-1.205.051-2.4.065-3.564.04-3.4.077-6.617.717-8.951C245.364,93.563,246.9,92.236,249.317,92.236Zm10.647,22.97a.967.967,0,0,0,.3-.122,1.815,1.815,0,0,1,.667-.233c2.994-.3,4.839-1.724,5.333-4.108.444-2.141-.246-4.942-1.892-7.683a19.792,19.792,0,0,0-7.194-6.989c-3.414-1.908-5.985-2.835-7.86-2.835-4.072,0-4.332,4.566-4.419,12.017-.01.854-.02,1.729-.04,2.614.194-.2.406-.426.6-.631,1.439-1.534,2.363-2.466,3.058-2.466a.746.746,0,0,1,.329.074,4.343,4.343,0,0,0,1.94.373c.556,0,1.13-.057,1.685-.113l.484-.047c.3-.027.6-.041.9-.041,2.154,0,3.656.74,4.23,2.083a5.027,5.027,0,0,1,.132,2.742c-.044.319-.085.62-.1.916a5.7,5.7,0,0,0,1.5,4.188c.155.167.274.254.356.262Z" transform="translate(-244.333 -92.736)" fill="#d3d8e6"/>
          </g>
        </g>
        <g id="Group_18688" data-name="Group 18688" transform="translate(55.879 40.382)">
          <path id="Path_53830" data-name="Path 53830" d="M262.232,204.9c-25.927-26.758-40.793-66.449-47.544-94.951L207.2,92.759l40.375-17.5,15.77,56.821c-1.96,3.668,27.043,35.51,27.043,35.51S266.366,209.169,262.232,204.9Z" transform="translate(-207.196 -75.256)" fill="#fff"/>
          <path id="Path_53830_-_Outline" data-name="Path 53830 - Outline" d="M262.974,205.71a1.5,1.5,0,0,1-1.1-.459c-11.819-12.2-22.268-28-31.057-46.959a258.461,258.461,0,0,1-16.6-48.181L206.538,92.5,247.9,74.569l15.977,57.568-.094.176c-.088.165-.341,1.26,3.368,6.574,2.154,3.086,5.3,7.124,9.362,12,6.919,8.314,14.169,16.283,14.242,16.363l.246.27-.183.317c-.054.094-5.51,9.525-11.589,18.835-3.575,5.475-6.666,9.839-9.185,12.973a38.648,38.648,0,0,1-3.925,4.32C264.818,205.139,263.79,205.71,262.974,205.71ZM207.854,93.018l7.309,16.775.01.044c4.316,18.219,17.575,63.92,47.417,94.719a.494.494,0,0,0,.383.155c.64,0,2.307-.739,6.289-5.691,2.5-3.107,5.569-7.444,9.126-12.891,5.441-8.331,10.381-16.76,11.38-18.476-1.33-1.469-7.811-8.658-14.025-16.125-4.077-4.9-7.244-8.959-9.414-12.068-3.441-4.93-3.775-6.616-3.516-7.414l-15.57-56.1Z" transform="translate(-207.196 -75.256)" fill="#d3d8e6"/>
        </g>
        <g id="Group_18689" data-name="Group 18689" transform="translate(81.537 126.361)">
          <path id="Path_53831" data-name="Path 53831" d="M217.814,110.836c7.51,15.56,17.034,30.767,29,43.226V139.923C238.736,137.057,221.023,114.91,217.814,110.836Z" transform="translate(-217.814 -110.836)" fill="#fff"/>
          <path id="Path_53831_-_Outline" data-name="Path 53831 - Outline" d="M218.207,110.527c1.485,1.885,6.786,8.537,12.65,14.969,7.261,7.964,12.835,12.79,16.12,13.956l.333.118v15.735l-.861-.9c-10.887-11.34-20.673-25.927-29.085-43.355Zm28.1,29.742c-3.5-1.414-8.948-6.154-16.191-14.1-3.8-4.167-7.362-8.425-9.812-11.429,7.665,15.071,16.4,27.857,26,38.07Z" transform="translate(-217.814 -110.836)" fill="#d3d8e6"/>
        </g>
        <g id="Group_18690" data-name="Group 18690" transform="translate(110.593 137.096)">
          <path id="Path_53832" data-name="Path 53832" d="M230.4,148.782a.314.314,0,0,1-.314-.29c-1.4-19.864,3.593-32.891,3.642-33.017a.334.334,0,0,1,.406-.181.319.319,0,0,1,.181.408c-.053.131-5,13.035-3.6,32.741a.318.318,0,0,1-.295.338Z" transform="translate(-229.838 -115.278)" fill="#fff"/>
          <path id="Path_53832_-_Outline" data-name="Path 53832 - Outline" d="M230.438,149.282H230.4a.812.812,0,0,1-.812-.746v-.009a98.816,98.816,0,0,1-.03-13.59,89.744,89.744,0,0,1,1.314-10.447,57.39,57.39,0,0,1,2.389-9.191.823.823,0,0,1,.777-.52.78.78,0,0,1,.267.046l.01,0a.821.821,0,0,1,.469,1.049l-.005.014a55.681,55.681,0,0,0-2.328,9,93.684,93.684,0,0,0-1.237,23.516.819.819,0,0,1-.759.872Z" transform="translate(-229.838 -115.278)" fill="#d3d8e6"/>
        </g>
        <g id="Group_18691" data-name="Group 18691" transform="translate(138.471 121.869)">
          <path id="Path_53833" data-name="Path 53833" d="M249.469,140.872a6.1,6.1,0,0,1-2.82-.657c-3.767-1.933-5.531-7.991-5.244-18.005.259-8.871,3.494-12.948,3.627-13.114a.315.315,0,0,1,.493.394c-.031.041-3.238,4.1-3.492,12.74-.283,9.748,1.368,15.613,4.9,17.425,3.6,1.856,8.136-1.317,8.564-1.638,9.219-12.4,9.673-20.927,9.68-21.014a.312.312,0,0,1,.314-.3h.014a.312.312,0,0,1,.3.326c-.014.355-.454,8.8-9.828,21.4a.4.4,0,0,1-.06.065A12.186,12.186,0,0,1,249.469,140.872Z" transform="translate(-241.374 -108.977)" fill="#fff"/>
          <path id="Path_53833_-_Outline" data-name="Path 53833 - Outline" d="M249.469,141.372a6.6,6.6,0,0,1-3.049-.713c-2-1.027-3.48-3.139-4.394-6.277A40.928,40.928,0,0,1,240.9,122.2c.257-8.8,3.381-12.966,3.736-13.412l.014-.017a.83.83,0,0,1,.624-.29.822.822,0,0,1,.508.178l.01.008a.814.814,0,0,1,.122,1.137c-.145.187-3.141,4.162-3.384,12.444a40.007,40.007,0,0,0,1,11.538c.778,2.765,2,4.591,3.63,5.427a4.908,4.908,0,0,0,2.273.524,11.157,11.157,0,0,0,5.707-2.077,56.165,56.165,0,0,0,8.128-14.785,24.416,24.416,0,0,0,1.408-5.894v0a.812.812,0,0,1,.813-.771h.029a.8.8,0,0,1,.567.257.81.81,0,0,1,.218.59,23.891,23.891,0,0,1-1.431,6.251,57.82,57.82,0,0,1-8.5,15.425l-.011.014a.846.846,0,0,1-.143.147l-.017.013A12.575,12.575,0,0,1,249.469,141.372Z" transform="translate(-241.374 -108.977)" fill="#d3d8e6"/>
        </g>
        <g id="Group_18692" data-name="Group 18692" transform="translate(65.211 17.077)">
          <path id="Path_53834" data-name="Path 53834" d="M211.372,69.566a.314.314,0,0,1-.3-.21.317.317,0,0,1,.167-.387c.027-.017.072-.051.147-.1,2.745-1.851,8.156-4.649,13.581-2.448a.314.314,0,0,1,.174.406.31.31,0,0,1-.413.174c-5.118-2.083-10.35.6-12.989,2.39a1.09,1.09,0,0,1-.266.159A.249.249,0,0,1,211.372,69.566Z" transform="translate(-211.058 -65.612)" fill="#fff"/>
          <path id="Path_53834_-_Outline" data-name="Path 53834 - Outline" d="M211.372,70.066a.818.818,0,0,1-.771-.544l-.008-.024a.823.823,0,0,1,.395-.962l.02-.014.1-.068a17.937,17.937,0,0,1,9.671-3.342,11.586,11.586,0,0,1,4.376.843A.816.816,0,0,1,225.609,67l0,.008a.806.806,0,0,1-.751.514.846.846,0,0,1-.308-.058l-.007,0a9.894,9.894,0,0,0-3.749-.721A16.591,16.591,0,0,0,212.02,69.8l-.005,0a1.487,1.487,0,0,1-.37.212A.748.748,0,0,1,211.372,70.066Z" transform="translate(-211.058 -65.612)" fill="#d3d8e6"/>
        </g>
        <g id="Group_18693" data-name="Group 18693" transform="translate(248.162 46.042)">
          <path id="Path_53835" data-name="Path 53835" d="M286.767,78.586s25.117,41.131,35.595,25.878C331.313,91.432,294.029,73.134,286.767,78.586Z" transform="translate(-286.767 -77.598)" fill="#fff"/>
          <path id="Path_53835_-_Outline" data-name="Path 53835 - Outline" d="M290.715,77.1h0c4.476,0,11.247,2.156,17.67,5.627a51.47,51.47,0,0,1,8.684,5.834,24.126,24.126,0,0,1,5.876,6.867,10.257,10.257,0,0,1,1.295,4.707,7.961,7.961,0,0,1-1.466,4.614,7.4,7.4,0,0,1-6.251,3.609c-2.829,0-6.186-1.577-9.979-4.687A71.891,71.891,0,0,1,296.8,93.537a152.475,152.475,0,0,1-10.461-14.69l-.237-.388.363-.273A7.038,7.038,0,0,1,290.715,77.1Zm25.807,30.258a6.372,6.372,0,0,0,5.427-3.175c1.681-2.447,1.718-5.236.111-8.29-2.169-4.121-7.327-8.6-14.151-12.287-6.285-3.4-12.874-5.506-17.194-5.506h0a6.893,6.893,0,0,0-3.264.642,152.52,152.52,0,0,0,10.132,14.174C305.273,102.362,311.822,107.356,316.523,107.356Z" transform="translate(-286.767 -77.598)" fill="#d3d8e6"/>
        </g>
        <g id="Group_18707" data-name="Group 18707" transform="translate(256.757 13.101)">
          <g id="Group_18695" data-name="Group 18695">
            <g id="Group_18694" data-name="Group 18694">
              <path id="Path_53836" data-name="Path 53836" d="M290.324,105.234a20.111,20.111,0,0,0,1.7-8.5c-.213-4.463.159-13.3,2.013-17.839,1.385-3.39,2.361-6.017,4.207-4.833s2.214,6.607,1.868,7.063,5.853-14.182,7.23-15.275c.66-.527,2.6-3.108,3.83.476,0,0,3.453-3.673,4.739-1.858s-.157,4.226-.157,4.226,2.723-2.378,3.729.2-.585,6.355-.585,6.355,2.375-1.916,3.4.464-3.907,20.792-6.79,26.5a44.307,44.307,0,0,1-5.9,9.035l-4.13,5.669Z" transform="translate(-290.324 -63.967)" fill="#fff"/>
              <path id="Path_53836_-_Outline" data-name="Path 53836 - Outline" d="M305.579,117.63,289.7,105.384l.173-.364a19.763,19.763,0,0,0,1.654-8.261c-.215-4.512.151-13.4,2.049-18.051l.159-.389a27.522,27.522,0,0,1,1.559-3.424c.412-.7,1.078-1.619,2.1-1.619a2.09,2.09,0,0,1,1.125.368c1.051.676,1.6,2.347,1.878,3.63.09.417.16.833.213,1.23.664-1.577,1.591-3.708,2.536-5.777,2.989-6.55,3.668-7.088,3.891-7.265.067-.053.172-.154.283-.261a3.516,3.516,0,0,1,2.194-1.238c.751,0,1.37.5,1.845,1.486.805-.749,2.32-1.981,3.582-1.981a1.633,1.633,0,0,1,1.383.715,3.89,3.89,0,0,1,.46,3.293,3.085,3.085,0,0,1,1.2-.278,2.053,2.053,0,0,1,1.969,1.517,9.122,9.122,0,0,1-.159,5.485,2.852,2.852,0,0,1,.946-.177,2.143,2.143,0,0,1,2.024,1.5c.183.423.362,1.363-.188,4.622-.354,2.1-.947,4.759-1.716,7.7a88.614,88.614,0,0,1-4.9,14.6A44.712,44.712,0,0,1,310,111.567Zm-14.64-12.553,14.437,11.133,3.843-5.275.018-.02a44.314,44.314,0,0,0,5.827-8.925,89.127,89.127,0,0,0,4.824-14.4c.761-2.916,1.348-5.55,1.7-7.617.524-3.1.329-3.892.256-4.059-.345-.8-.8-.891-1.106-.891a2.964,2.964,0,0,0-1.525.619l-.774-.584c.015-.036,1.5-3.624.58-5.98-.308-.789-.739-.88-1.037-.88a3.575,3.575,0,0,0-1.9.877l-.758-.633c.012-.021,1.257-2.159.178-3.681a.638.638,0,0,0-.567-.293c-1.083,0-2.861,1.633-3.4,2.2l-.568.6-.269-.785c-.239-.7-.64-1.53-1.19-1.53-.5,0-1.128.6-1.5.96-.134.129-.25.24-.354.323-.169.134-.923,1.023-3.6,6.9-1.5,3.289-2.954,6.726-3.367,7.817a1.023,1.023,0,0,1-.172.471.514.514,0,0,1-.409.209h-.262l-.151-.216c-.152-.218-.093-.409.018-.71a12.118,12.118,0,0,0-.293-3.229,4.981,4.981,0,0,0-1.441-3,1.122,1.122,0,0,0-.585-.209c-.929,0-1.8,2.147-2.73,4.421l-.159.39c-1.74,4.259-2.2,12.871-1.976,17.626A20.377,20.377,0,0,1,290.94,105.078Z" transform="translate(-290.324 -63.967)" fill="#d3d8e6"/>
            </g>
          </g>
          <g id="Group_18698" data-name="Group 18698" transform="translate(15.383 2.029)">
            <g id="Group_18697" data-name="Group 18697">
              <g id="Group_18696" data-name="Group 18696">
                <path id="Path_53837" data-name="Path 53837" d="M297.039,79.08a.343.343,0,0,0,.309-.217l5.128-13.6a.345.345,0,0,0-.2-.442.351.351,0,0,0-.44.2l-5.128,13.6a.345.345,0,0,0,.2.442A.408.408,0,0,0,297.039,79.08Z" transform="translate(-296.69 -64.806)" fill="#fff"/>
                <path id="Path_53837_-_Outline" data-name="Path 53837 - Outline" d="M297.048,79.58h-.009a.9.9,0,0,1-.288-.045l-.023-.008a.845.845,0,0,1-.481-1.087l5.127-13.593a.834.834,0,0,1,.794-.541.9.9,0,0,1,.255.037l.04.014a.843.843,0,0,1,.481,1.089l-5.126,13.593a.847.847,0,0,1-.759.541Z" transform="translate(-296.69 -64.806)" fill="#d3d8e6"/>
              </g>
            </g>
          </g>
          <g id="Group_18701" data-name="Group 18701" transform="translate(19.311 4.383)">
            <g id="Group_18700" data-name="Group 18700">
              <g id="Group_18699" data-name="Group 18699">
                <path id="Path_53838" data-name="Path 53838" d="M298.665,78.749a.325.325,0,0,0,.3-.2L304.74,66.27a.338.338,0,0,0-.164-.452.326.326,0,0,0-.45.164l-5.778,12.285a.336.336,0,0,0,.164.449A.26.26,0,0,0,298.665,78.749Z" transform="translate(-298.315 -65.781)" fill="#fff"/>
                <path id="Path_53838_-_Outline" data-name="Path 53838 - Outline" d="M298.643,79.249a.739.739,0,0,1-.369-.092.841.841,0,0,1-.413-.475.82.82,0,0,1,.037-.63l5.774-12.278a.833.833,0,0,1,.757-.494.81.81,0,0,1,.374.092.842.842,0,0,1,.424.479.825.825,0,0,1-.035.634l-5.773,12.274a.828.828,0,0,1-.736.489Z" transform="translate(-298.315 -65.781)" fill="#d3d8e6"/>
              </g>
            </g>
          </g>
          <g id="Group_18704" data-name="Group 18704" transform="translate(23.75 10.945)">
            <g id="Group_18703" data-name="Group 18703">
              <g id="Group_18702" data-name="Group 18702">
                <path id="Path_53839" data-name="Path 53839" d="M300.5,77.543a.336.336,0,0,0,.292-.181l4.483-8.368a.339.339,0,1,0-.6-.317l-4.485,8.368a.339.339,0,0,0,.14.459A.377.377,0,0,0,300.5,77.543Z" transform="translate(-300.152 -68.496)" fill="#fff"/>
                <path id="Path_53839_-_Outline" data-name="Path 53839 - Outline" d="M300.512,78.043h-.01a.883.883,0,0,1-.393-.091l-.013-.007a.837.837,0,0,1-.41-.5.825.825,0,0,1,.066-.633l4.48-8.359a.818.818,0,0,1,.739-.453.894.894,0,0,1,.384.088l.023.012a.836.836,0,0,1,.406.5.827.827,0,0,1-.068.633l-4.478,8.361a.839.839,0,0,1-.715.45Z" transform="translate(-300.152 -68.496)" fill="#d3d8e6"/>
              </g>
            </g>
          </g>
          <g id="Group_18706" data-name="Group 18706" transform="translate(9.047 14.855)">
            <g id="Group_18705" data-name="Group 18705">
              <path id="Path_53840" data-name="Path 53840" d="M295.591,70.114l-.193.457c0,.031-.536.737-1.324,4.309a.442.442,0,0,0,.333.512.431.431,0,0,0,.515-.326A21.3,21.3,0,0,0,295.591,70.114Z" transform="translate(-294.068 -70.114)" fill="#fff"/>
              <path id="Path_53840_-_Outline" data-name="Path 53840 - Outline" d="M295.13,69.919l.96.169a21.62,21.62,0,0,1-.68,5.084.934.934,0,0,1-1.831-.364l.007-.037a19.04,19.04,0,0,1,1.36-4.415Z" transform="translate(-294.068 -70.114)" fill="#d3d8e6"/>
            </g>
          </g>
        </g>
        <g id="Group_18708" data-name="Group 18708" transform="translate(186.266 47.03)">
          <path id="Path_53841" data-name="Path 53841" d="M278.815,206.55c36.624-21.565,55.973-61.169,68.771-87.518l11.058-15.147-35.6-25.878-27.768,52.025c1.114,4.007-34.128,28.768-34.128,28.768Z" transform="translate(-261.153 -78.007)" fill="#fff"/>
          <path id="Path_53841_-_Outline" data-name="Path 53841 - Outline" d="M278.554,207.284l-18-48.672.315-.221c.088-.062,8.9-6.262,17.466-12.87,5.023-3.876,8.976-7.131,11.75-9.673,4.777-4.378,4.768-5.5,4.718-5.682l-.054-.193,28.133-52.708,36.465,26.511L348.016,119.29c-3,6.178-6.732,13.858-10.984,21.737a249.764,249.764,0,0,1-14.485,23.842,166.865,166.865,0,0,1-18.981,22.967,131.528,131.528,0,0,1-11.5,10.235,117.12,117.12,0,0,1-13,8.909Zm-16.8-48.3,17.321,46.827c36.318-21.648,55.408-60.952,68.06-87l.02-.04.026-.036L357.945,104,323.22,78.749,295.8,130.115c.079.835-.615,2.408-5.047,6.47-2.795,2.562-6.77,5.835-11.816,9.729C271.273,152.231,263.407,157.819,261.755,158.987Z" transform="translate(-261.153 -78.007)" fill="#d3d8e6"/>
        </g>
        <g id="Group_18709" data-name="Group 18709" transform="translate(269.525 28.651)">
          <path id="Path_53842" data-name="Path 53842" d="M308.534,76.6a.355.355,0,0,1-.188-.051,1.272,1.272,0,0,1-.213-.205c-2.184-2.322-6.694-6.08-12.16-5.164a.315.315,0,0,1-.36-.259.31.31,0,0,1,.254-.362c5.785-.979,10.456,2.938,12.728,5.355.058.065.1.109.118.128a.3.3,0,0,1,.087.423A.323.323,0,0,1,308.534,76.6Z" transform="translate(-295.608 -70.401)" fill="#fff"/>
          <path id="Path_53842_-_Outline" data-name="Path 53842 - Outline" d="M308.534,77.1a.848.848,0,0,1-.457-.129,1.419,1.419,0,0,1-.284-.259l-.022-.023c-1.81-1.925-5.528-5.15-10.105-5.15a9.768,9.768,0,0,0-1.6.132.738.738,0,0,1-.145.014.814.814,0,0,1-.8-.688.8.8,0,0,1,.131-.591.82.82,0,0,1,.532-.341,11.485,11.485,0,0,1,1.911-.161,13.207,13.207,0,0,1,6.8,2.016,21.325,21.325,0,0,1,4.468,3.65l.009.01.072.079a.8.8,0,0,1,.194,1.052l-.02.032A.817.817,0,0,1,308.534,77.1Z" transform="translate(-295.608 -70.401)" fill="#d3d8e6"/>
        </g>
        <g id="Group_18710" data-name="Group 18710" transform="translate(191.27 148.294)">
          <path id="Path_53843" data-name="Path 53843" d="M277.8,151.706a.318.318,0,0,1-.3-.217,162.614,162.614,0,0,0-14.231-31.1.313.313,0,1,1,.534-.326,162.729,162.729,0,0,1,14.3,31.228.316.316,0,0,1-.208.4A.236.236,0,0,1,277.8,151.706Z" transform="translate(-263.224 -119.912)" fill="#fff"/>
          <path id="Path_53843_-_Outline" data-name="Path 53843 - Outline" d="M277.8,152.206a.82.82,0,0,1-.772-.554l0-.011a161.8,161.8,0,0,0-14.166-30.961l-.014-.023a.8.8,0,0,1-.1-.611.812.812,0,0,1,1.484-.246h0c.121.2,2.33,3.807,5.236,9.542a153.51,153.51,0,0,1,9.116,21.8.818.818,0,0,1-.51,1.018A.733.733,0,0,1,277.8,152.206Z" transform="translate(-263.224 -119.912)" fill="#d3d8e6"/>
        </g>
        <g id="Group_18711" data-name="Group 18711" transform="translate(192.888 150.83)">
          <path id="Path_53844" data-name="Path 53844" d="M263.893,120.962l17.128,20.868-5.592,3.56Z" transform="translate(-263.893 -120.962)" fill="#fff"/>
          <path id="Path_53844_-_Outline" data-name="Path 53844 - Outline" d="M264.28,120.645l17.486,21.3-6.546,4.168-11.778-24.941Zm16,21.066L266.072,124.4l9.567,20.259Z" transform="translate(-263.893 -120.962)" fill="#d3d8e6"/>
        </g>
        <g id="Group_18712" data-name="Group 18712" transform="translate(116.915 243.733)">
          <path id="Path_53845" data-name="Path 53845" d="M237.492,222.064a.315.315,0,0,1-.268-.147l-4.383-7.054a.311.311,0,0,1-.039-.089c-2.124-8.605,6.167-53.211,6.52-55.1a.307.307,0,0,1,.367-.256.316.316,0,0,1,.246.37c-.085.464-8.576,46.194-6.532,54.789l4.355,7.01a.314.314,0,0,1-.1.435A.3.3,0,0,1,237.492,222.064Z" transform="translate(-232.454 -159.407)" fill="#fff"/>
          <path id="Path_53845_-_Outline" data-name="Path 53845 - Outline" d="M237.492,222.564a.816.816,0,0,1-.689-.377l0-.006-4.383-7.054a.809.809,0,0,1-.1-.233c-.9-3.648-.119-13.83,2.322-30.263,1.823-12.276,3.948-23.744,4.191-25.046a.812.812,0,0,1,.795-.679.789.789,0,0,1,.171.019.817.817,0,0,1,.632.95l-.01.057c-.385,2.088-2.394,13.1-4.142,24.883-2.353,15.861-3.183,26.077-2.4,29.564l4.31,6.938a.814.814,0,0,1-.258,1.125A.793.793,0,0,1,237.492,222.564Z" transform="translate(-232.454 -159.407)" fill="#d3d8e6"/>
        </g>
        <g id="Group_18713" data-name="Group 18713" transform="translate(87.322 306.078)">
          <path id="Path_53846" data-name="Path 53846" d="M254.839,185.207a153.344,153.344,0,0,0-6.984,50.889c.28,6.984-27.647,54.451-27.647,54.451L253.8,247.415l5.067-4.386S253.8,221.8,254.839,185.207Z" transform="translate(-220.208 -185.207)" fill="#fff"/>
          <path id="Path_53846_-_Outline" data-name="Path 53846 - Outline" d="M254.367,185.042l.972.179a301.822,301.822,0,0,0,1.616,42.536,144.621,144.621,0,0,0,2.4,15.156l.07.3-5.26,4.552L220.6,290.854l-.825-.561c.07-.119,7.058-12.007,13.922-24.594,4.029-7.388,7.226-13.567,9.5-18.364,3.508-7.39,4.2-10.18,4.153-11.219a142.282,142.282,0,0,1,.623-19.7,162.124,162.124,0,0,1,2.46-16.246A129.72,129.72,0,0,1,254.367,185.042Zm3.944,57.8c-.279-1.256-1.368-6.445-2.346-14.951a298.789,298.789,0,0,1-1.709-39.126c-.759,2.616-1.824,6.626-2.84,11.623a152.516,152.516,0,0,0-3.061,35.683c.068,1.7-1.322,5.522-4.25,11.689-2.286,4.814-5.492,11.01-9.53,18.415-3.767,6.909-7.572,13.607-10.252,18.269l29.11-37.38Z" transform="translate(-220.208 -185.207)" fill="#d3d8e6"/>
        </g>
        <g id="Group_18714" data-name="Group 18714" transform="translate(111.405 126.24)">
          <path id="Path_53847" data-name="Path 53847" d="M309.769,214.811l-13.23-101.785-6.819.64,13.2,101.551-1.145.068c-5.551.333-11.423.693-17.51,1-16.314.829-32.057-3.741-42.6-7.825L255.426,111.6a14.2,14.2,0,0,0-3.874-.817L235.145,205.73c-2.221-1-3.874-1.824-4.971-2.39l.077,7.684c1.141.546,2.409,1.133,3.888,1.781l-.435,3.074L237.484,218c.865.486,1.759.906,2.639,1.358l.553-3.905c10.149,3.816,24.332,7.779,39.606,7.779,1.438,0,2.88-.041,4.33-.114,6.107-.307,12.005-.662,17.578-1,.544-.031,1.07-.063,1.612-.1l.7,5.357,6.844-.346c0-.022.007-.041,0-.065l-.7-5.35c9.139-.524,17.491-.877,23.643-.643a57.349,57.349,0,0,0,.176-6.836C328.308,213.886,320.191,214.217,309.769,214.811Z" transform="translate(-230.174 -110.786)" fill="#fff"/>
          <path id="Path_53847_-_Outline" data-name="Path 53847 - Outline" d="M304.064,227.895l-.7-5.352-1.147.068c-5.552.339-11.484.7-17.581,1-1.537.077-2.962.114-4.355.114a102.789,102.789,0,0,1-21.832-2.47,129.743,129.743,0,0,1-17.367-5.123l-.565,3.985-.625-.321c-.285-.146-.577-.292-.86-.434-.591-.3-1.2-.6-1.795-.933l-4.078-2.284.43-3.038c-1.209-.534-2.376-1.07-3.556-1.635l-.281-.135-.089-8.825.737.38c1.336.688,2.8,1.4,4.359,2.111l16.376-94.757.456.038a8.79,8.79,0,0,1,2.428.405c.326.1.772.233,1.527.425l.435.111-.063.444-13.7,96.464c9.292,3.569,23.333,7.746,38.129,7.746,1.306,0,2.615-.033,3.89-.1,5.483-.276,10.753-.594,15.85-.9l2.132-.128.134-.008-13.2-101.533,7.816-.734,13.233,101.8c6.5-.368,13.853-.736,19.754-.736,1.637,0,3.162.028,4.534.083l.466.019.014.466a58.057,58.057,0,0,1-.178,6.9l-.043.473-.474-.018c-1.281-.049-2.715-.074-4.264-.074-5.891,0-13.07.36-18.8.685l.628,4.832a.579.579,0,0,1,0,.111l.053.476Zm.173-6.408.7,5.363,5.855-.3-.7-5.411.536-.031c5.822-.334,13.287-.717,19.389-.717,1.372,0,2.656.019,3.825.057a57.28,57.28,0,0,0,.147-5.838c-1.235-.043-2.587-.064-4.026-.064-6.017,0-13.568.384-20.161.76l-.464.026-.06-.461L296.1,113.569l-5.823.547,13.2,101.568-.535.032-.671.04-2.131.128c-5.1.307-10.371.624-15.859.9-1.292.066-2.618.1-3.941.1a96.311,96.311,0,0,1-21.4-2.565,127.059,127.059,0,0,1-17.459-5.391l-.37-.143,13.75-96.809c-.523-.139-.868-.243-1.135-.324a6.687,6.687,0,0,0-1.766-.326l-16.44,95.128-.589-.266c-1.51-.682-2.938-1.362-4.257-2.026l.066,6.547c1.187.565,2.365,1.1,3.592,1.64l.348.152-.44,3.111,3.481,1.95c.572.321,1.172.621,1.753.911l.245.122.543-3.831.584.219c9.4,3.534,23.871,7.747,39.43,7.747,1.377,0,2.785-.037,4.305-.113,6.092-.306,12.021-.663,17.572-1,.6-.035,1.111-.065,1.611-.1Z" transform="translate(-230.174 -110.786)" fill="#d3d8e6"/>
        </g>
      </g>
      <g id="Group_18716" data-name="Group 18716" transform="translate(153.137 574.389)">
        <path id="Path_53848" data-name="Path 53848" d="M247.444,296.24,286,310.207l1.108-8.467Z" transform="translate(-247.444 -296.24)" fill="#fff"/>
        <path id="Path_53848_-_Outline" data-name="Path 53848 - Outline" d="M247.512,295.745l40.157,5.568-1.253,9.576L247.273,296.71Zm39.036,6.423-34.469-4.78,33.506,12.138Z" transform="translate(-247.444 -296.24)" fill="#d3d8e6"/>
      </g>
      <g id="Group_18717" data-name="Group 18717" transform="translate(68.815 528.956)">
        <path id="Path_53849" data-name="Path 53849" d="M212.549,277.439l35.108,7.662.952-7.662Z" transform="translate(-212.549 -277.439)" fill="#fff"/>
        <path id="Path_53849_-_Outline" data-name="Path 53849 - Outline" d="M212.549,276.939h36.625l-1.089,8.767-35.643-7.779Zm35.493,1H217.185l30.043,6.557Z" transform="translate(-212.549 -277.439)" fill="#d3d8e6"/>
      </g>
      <g id="Group_18718" data-name="Group 18718" transform="translate(144.574 159.274)">
        <circle id="Ellipse_1356" data-name="Ellipse 1356" cx="3.048" cy="3.048" r="3.048" fill="#fff"/>
        <path id="Ellipse_1356_-_Outline" data-name="Ellipse 1356 - Outline" d="M3.048-.5A3.548,3.548,0,1,1-.5,3.048,3.552,3.552,0,0,1,3.048-.5Zm0,6.1A2.548,2.548,0,1,0,.5,3.048,2.551,2.551,0,0,0,3.048,5.6Z" fill="#d3d8e6"/>
      </g>
      <g id="Group_18719" data-name="Group 18719" transform="translate(144.574 167.288)">
        <circle id="Ellipse_1357" data-name="Ellipse 1357" cx="3.048" cy="3.048" r="3.048" fill="#fff"/>
        <path id="Ellipse_1357_-_Outline" data-name="Ellipse 1357 - Outline" d="M3.048-.5A3.548,3.548,0,1,1-.5,3.048,3.552,3.552,0,0,1,3.048-.5Zm0,6.1A2.548,2.548,0,1,0,.5,3.048,2.551,2.551,0,0,0,3.048,5.6Z" fill="#d3d8e6"/>
      </g>
      <g id="Group_18720" data-name="Group 18720" transform="translate(55.565 40.062)">
        <path id="Path_53850" data-name="Path 53850" d="M310.818,279.43a83.258,83.258,0,0,1-40.752-10.645l-7.208-4.036a.3.3,0,0,1-.16-.271l-.6-59.255-4.582-4.57c-20.743-25.53-34.387-54.262-42.958-90.442l-7.469-17.138a.328.328,0,0,1,0-.244.314.314,0,0,1,.167-.172l40.37-17.5a.27.27,0,0,1,.261,0,.294.294,0,0,1,.167.2l15.775,56.824a.3.3,0,0,1-.022.23c-.935,1.754,6.976,12.447,21.173,28.619a42.583,42.583,0,0,1,6.126,1.513.326.326,0,0,1,.2.4.332.332,0,0,1-.4.2,41.388,41.388,0,0,0-6.14-1.513.313.313,0,0,1-.179-.1c-15-17.073-22.2-26.92-21.393-29.283l-15.647-56.37L207.8,93.111l7.361,16.9c8.571,36.141,22.174,64.791,42.83,90.222l4.652,4.632a.307.307,0,0,1,.092.22l.594,59.2,7.049,3.949A82.658,82.658,0,0,0,310.818,278.8c1.4,0,2.786-.034,4.19-.1l36.383-1.837,13.97,1.532c4.891-13.909-2.578-44.611-9.734-67.978a.315.315,0,0,1,.14-.365c36.409-21.7,55.509-61.038,68.15-87.066l10.9-14.941L399.767,82.563l-27.546,51.609c.435,4.275-28.232,24.714-34.044,28.809a.318.318,0,0,1-.155.058l-23.9,2.245h-.027a.315.315,0,0,1-.314-.285.32.32,0,0,1,.288-.343l23.817-2.238c16.749-11.807,34.418-25.658,33.71-28.217a.3.3,0,0,1,.022-.23L399.38,81.946a.323.323,0,0,1,.205-.16.328.328,0,0,1,.261.053l35.595,25.873a.328.328,0,0,1,.128.205.376.376,0,0,1-.06.237L424.451,123.3c-12.612,25.994-31.712,65.33-68.15,87.158,10.449,34.184,13.67,57.194,9.567,68.377a.341.341,0,0,1-.326.205l-14.17-1.559-36.337,1.837C313.631,279.393,312.222,279.43,310.818,279.43Z" transform="translate(-207.066 -75.124)" fill="#fff"/>
        <path id="Path_53850_-_Outline" data-name="Path 53850 - Outline" d="M310.818,279.93a83.759,83.759,0,0,1-41-10.708l-7.2-4.033a.8.8,0,0,1-.42-.707l-.595-59.048-4.455-4.444-.016-.02c-20.776-25.571-34.456-54.362-43.046-90.6l-7.452-17.1a.825.825,0,0,1-.016-.615l.007-.017a.817.817,0,0,1,.433-.443l40.348-17.493a.775.775,0,0,1,.693,0h0a.792.792,0,0,1,.438.528l15.77,56.8a.8.8,0,0,1-.051.591l-.009.018c-.009.017-.2.445.922,2.475a58.466,58.466,0,0,0,3.963,5.912c3.644,4.923,9.211,11.675,16.107,19.535a42.915,42.915,0,0,1,6.023,1.5l.014,0a.821.821,0,0,1,.506,1.023l-.007.021a.833.833,0,0,1-1.009.509l-.019-.006a40.917,40.917,0,0,0-6.067-1.495l-.014,0a.811.811,0,0,1-.459-.268c-19.8-22.532-21.929-27.807-21.533-29.608L247.216,76.563,208.454,93.37l7.179,16.483.01.043c8.548,36.042,22.12,64.64,42.715,90l4.633,4.614a.807.807,0,0,1,.239.572l.592,58.91,6.8,3.807a82.419,82.419,0,0,0,40.2,10.5c1.411,0,2.773-.034,4.165-.1l36.422-1.839.04,0,13.571,1.488c2.037-6.205,1.87-16.232-.5-29.816a317.873,317.873,0,0,0-9.37-37.476l0-.006a.816.816,0,0,1,.367-.937c36.274-21.624,55.336-60.874,67.949-86.846l.023-.047.026-.036,10.6-14.537L399.937,83.3l-27.211,50.982c-.011,1.375-1.83,4.5-14.876,14.75-7.742,6.08-16.135,12.063-19.385,14.353a.822.822,0,0,1-.383.146h-.013l-23.977,2.247a.82.82,0,0,1-.812-.741v-.009a.817.817,0,0,1,.738-.875l23.686-2.225c8.795-6.2,17.268-12.569,23.264-17.478,3.348-2.742,5.924-5.022,7.656-6.777,2.552-2.586,2.5-3.275,2.488-3.339a.8.8,0,0,1,.052-.585l.009-.018L398.947,81.7a.825.825,0,0,1,.53-.4l.02,0a.916.916,0,0,1,.161-.014.8.8,0,0,1,.487.159l35.59,25.87a.826.826,0,0,1,.326.52l.006.045a.877.877,0,0,1-.14.554l-.015.021-11.031,15.113c-6.34,13.067-14.229,29.321-25.159,45.167A167.716,167.716,0,0,1,380.9,191.643a132.9,132.9,0,0,1-11.418,10.265,118.861,118.861,0,0,1-12.592,8.782c5.144,16.876,8.557,31.179,10.144,42.517a93.253,93.253,0,0,1,1.037,15.051,34.365,34.365,0,0,1-1.736,10.754l0,.011a.831.831,0,0,1-.76.522l-.043,0-.043,0-14.131-1.554-36.3,1.835C313.637,279.894,312.21,279.93,310.818,279.93Z" transform="translate(-207.066 -75.124)" fill="#d3d8e6"/>
      </g>
      <g id="Group_18721" data-name="Group 18721" transform="translate(106.337 234.834)">
        <path id="Path_53851" data-name="Path 53851" d="M281.726,170.664a163.736,163.736,0,0,1-22.034-1.15c-15.86-2.395-31.327-13.1-31.48-13.213a.314.314,0,0,1-.08-.437.309.309,0,0,1,.44-.077c.155.106,15.5,10.734,31.214,13.107,15.5,2.339,54.4.783,65.3-1.953a.337.337,0,0,1,.382.227.312.312,0,0,1-.234.379C318.022,169.364,298.588,170.664,281.726,170.664Z" transform="translate(-228.077 -155.725)" fill="#fff"/>
        <path id="Path_53851_-_Outline" data-name="Path 53851 - Outline" d="M281.726,171.164c-6.6,0-15.8-.2-22.108-1.156-15.864-2.4-31.313-13.031-31.694-13.3h0a.827.827,0,0,1-.336-.533.8.8,0,0,1,.138-.6l.009-.012a.838.838,0,0,1,.66-.337.789.789,0,0,1,.468.154c.672.463,15.684,10.707,31,13.02a160.8,160.8,0,0,0,21.885,1.136c17.355,0,36.337-1.353,43.215-3.079a.742.742,0,0,1,.184-.023.84.84,0,0,1,.8.6l0,.013a.818.818,0,0,1-.1.624.8.8,0,0,1-.5.362c-3.459.871-9.927,1.671-18.213,2.253C299.063,170.852,290.04,171.164,281.726,171.164Z" transform="translate(-228.077 -155.725)" fill="#d3d8e6"/>
      </g>
    </g>
  </g>
</svg>
