<svg xmlns="http://www.w3.org/2000/svg" width="410.083" height="620.415" viewBox="0 0 410.083 620.415">
  <g id="Group_18826" data-name="Group 18826" transform="translate(0.501 -216.267)">
    <g id="Group_18481" data-name="Group 18481" transform="translate(29.626 614.529)">
      <g id="Group_18479" data-name="Group 18479" transform="translate(0 24.356)">
        <path id="Path_53674" data-name="Path 53674" d="M40.517,491.5a.3.3,0,0,1-.292-.263c-3.067-26.47-1.679-51.788,4.125-75.245a178.552,178.552,0,0,1,22.171-52.4c17.16-27.246,36.216-40.484,36.4-40.614a.317.317,0,0,1,.413.073.3.3,0,0,1-.075.413c-.193.13-19.163,13.315-36.255,40.467-15.772,25.054-33.118,67.469-26.2,127.248a.3.3,0,0,1-.261.324Z" transform="translate(-38.639 -322.93)" fill="#fff"/>
        <path id="Path_53674_-_Outline" data-name="Path 53674 - Outline" d="M40.578,492h-.061a.8.8,0,0,1-.789-.707c-3.074-26.532-1.682-51.908,4.136-75.421A179.055,179.055,0,0,1,66.1,363.324c16.93-26.882,35.742-40.2,36.534-40.755l.035-.023a.829.829,0,0,1,.424-.116.8.8,0,0,1,.653.33l.008.011a.8.8,0,0,1-.2,1.1l-.013.009A102.333,102.333,0,0,0,91.79,333.949a165.877,165.877,0,0,0-24.36,30.246C51.7,389.179,34.4,431.48,41.306,491.118a.777.777,0,0,1-.163.575.806.806,0,0,1-.535.3Z" transform="translate(-38.639 -322.93)" fill="#d3d8e6"/>
      </g>
      <g id="Group_18480" data-name="Group 18480" transform="translate(71.94)">
        <path id="Path_53675" data-name="Path 53675" d="M81,338.07a12.606,12.606,0,0,1-2.054-25.042,12.252,12.252,0,0,1,2.066-.176,12.623,12.623,0,0,1,12.428,10.543h0a12.62,12.62,0,0,1-10.369,14.5A12.335,12.335,0,0,1,81,338.07Zm.012-24.631a11.863,11.863,0,0,0-1.967.169,12.018,12.018,0,1,0,13.82,9.886h0A12.042,12.042,0,0,0,81.015,313.438Z" transform="translate(-68.409 -312.851)" fill="#fff"/>
        <path id="Path_53675_-_Outline" data-name="Path 53675 - Outline" d="M81,338.57a13.106,13.106,0,0,1-2.136-26.035,12.76,12.76,0,0,1,2.148-.183,13.108,13.108,0,0,1,2.141,26.038A12.749,12.749,0,0,1,81,338.57Zm.012-24.631a11.52,11.52,0,1,0,0,23.041,11.83,11.83,0,0,0,1.885-.152,11.522,11.522,0,0,0-1.88-22.889Z" transform="translate(-68.409 -312.851)" fill="#d3d8e6"/>
      </g>
    </g>
    <g id="Group_18529" data-name="Group 18529" transform="translate(17.705 671.342)">
      <path id="Path_53708" data-name="Path 53708" d="M35.475,442.875a.281.281,0,0,1-.285-.244C26.713,393.122,57.3,337.076,57.61,336.513a.294.294,0,0,1,.512.288c-.307.556-30.791,56.427-22.36,105.731a.285.285,0,0,1-.237.338A.181.181,0,0,1,35.475,442.875Z" transform="translate(-33.706 -336.361)" fill="#fff"/>
      <path id="Path_53708_-_Outline" data-name="Path 53708 - Outline" d="M35.475,443.375a.783.783,0,0,1-.78-.67c-8.508-49.718,22.166-105.873,22.477-106.435a.788.788,0,0,1,.692-.41.808.808,0,0,1,.762.565.8.8,0,0,1-.068.618,222.137,222.137,0,0,0-14.418,34.5c-5.994,18.33-12.227,45.509-7.886,70.9a.785.785,0,0,1-.629.918A.676.676,0,0,1,35.475,443.375Z" transform="translate(-33.706 -336.361)" fill="#d3d8e6"/>
    </g>
    <g id="Group_18533" data-name="Group 18533" transform="translate(10.433 351.186)">
      <path id="Path_53712" data-name="Path 53712" d="M64.449,224.478H64.43C42.969,223.1,30.86,204.51,30.741,204.324a.294.294,0,0,1,.094-.406.3.3,0,0,1,.406.094c.118.181,12.073,18.52,33.227,19.881a.293.293,0,0,1-.019.585Z" transform="translate(-30.696 -203.873)" fill="#fff"/>
      <path id="Path_53712_-_Outline" data-name="Path 53712 - Outline" d="M64.449,224.978H64.4a40.222,40.222,0,0,1-14.48-3.75,48.007,48.007,0,0,1-10.658-6.891,48.935,48.935,0,0,1-8.94-9.743.794.794,0,0,1,.235-1.088.742.742,0,0,1,.427-.131.812.812,0,0,1,.68.368,48.265,48.265,0,0,0,8.645,9.4c5.08,4.293,13.4,9.556,24.193,10.25a.8.8,0,0,1,.545.268.793.793,0,0,1-.6,1.316Z" transform="translate(-30.696 -203.873)" fill="#d3d8e6"/>
    </g>
    <g id="Group_18534" data-name="Group 18534" transform="translate(4.728 356.641)">
      <path id="Path_53713" data-name="Path 53713" d="M62.088,226.737h-.019C40.6,225.357,28.5,206.769,28.38,206.581a.292.292,0,0,1,.094-.4.3.3,0,0,1,.406.092c.118.181,12.066,18.52,33.227,19.881a.294.294,0,0,1-.019.587Z" transform="translate(-28.335 -206.131)" fill="#fff"/>
      <path id="Path_53713_-_Outline" data-name="Path 53713 - Outline" d="M62.088,227.237h-.051a40.236,40.236,0,0,1-14.482-3.751A48,48,0,0,1,36.9,216.594a49.5,49.5,0,0,1-8.938-9.743.78.78,0,0,1-.105-.594.792.792,0,0,1,.337-.492.741.741,0,0,1,.432-.135A.81.81,0,0,1,29.3,206a48.291,48.291,0,0,0,8.649,9.408c5.078,4.29,13.4,9.551,24.189,10.244h.005a.794.794,0,0,1-.057,1.586Z" transform="translate(-28.335 -206.131)" fill="#d3d8e6"/>
    </g>
    <path id="Path_53716" data-name="Path 53716" d="M177.02,163.1a11.808,11.808,0,1,1-11.807-11.809A11.809,11.809,0,0,1,177.02,163.1Z" transform="translate(153.551 72.831)" fill="#fff"/>
    <path id="Path_53716_-_Outline" data-name="Path 53716 - Outline" d="M165.213,175.411a12.309,12.309,0,1,1,8.7-3.605A12.229,12.229,0,0,1,165.213,175.411Zm0-23.619A11.309,11.309,0,1,0,176.52,163.1,11.322,11.322,0,0,0,165.213,151.792Z" transform="translate(153.551 72.831)" fill="#d3d8e6"/>
    <g id="Group_18823" data-name="Group 18823" transform="translate(0 216.767)">
      <g id="Group_18723" data-name="Group 18723" transform="translate(248.614 161.043)">
        <path id="Path_53852" data-name="Path 53852" d="M150.347,228.513s7.6.551,8.811-1.232c0,0-16.4-12-29.9-12.389Z" transform="translate(-129.261 -214.891)" fill="#fff"/>
        <path id="Path_53852_-_Outline" data-name="Path 53852 - Outline" d="M152.893,229.093c-1.439,0-2.536-.078-2.582-.082l-.128-.009-22.7-14.662,1.789.051a36.062,36.062,0,0,1,10.512,2.126,69.508,69.508,0,0,1,9.715,4.271,89.253,89.253,0,0,1,9.951,6.089l.39.285-.272.4c-.421.619-1.361,1.038-2.875,1.282A24.562,24.562,0,0,1,152.893,229.093Zm-2.383-1.071c.327.02,1.258.071,2.383.071,3.41,0,4.852-.434,5.458-.772a91.312,91.312,0,0,0-9.327-5.655c-4.749-2.5-11.516-5.472-17.865-6.145Z" transform="translate(-129.261 -214.891)" fill="#d3d8e6"/>
      </g>
      <g id="Group_18724" data-name="Group 18724" transform="translate(38.224 86.264)">
        <path id="Path_53853" data-name="Path 53853" d="M55.369,183.946a42.877,42.877,0,0,0-12.3,22.614,54.972,54.972,0,0,0,1.75,26.386Z" transform="translate(-42.197 -183.946)" fill="#fff"/>
        <path id="Path_53853_-_Outline" data-name="Path 53853 - Outline" d="M56.175,182.581,44.939,234.741l-.594-1.624a46.786,46.786,0,0,1-1.909-7.946A57.983,57.983,0,0,1,41.7,216.7a51.8,51.8,0,0,1,.872-10.228,41.78,41.78,0,0,1,3.1-9.655,45.005,45.005,0,0,1,4.15-7.186,36.725,36.725,0,0,1,5.223-6.057Zm-11.449,48.4,9.806-45.52a41.156,41.156,0,0,0-3.915,4.767,42.576,42.576,0,0,0-7.06,16.423,54.23,54.23,0,0,0-.133,18.36A53.323,53.323,0,0,0,44.725,230.982Z" transform="translate(-42.197 -183.946)" fill="#d3d8e6"/>
      </g>
      <g id="Group_18725" data-name="Group 18725" transform="translate(140.507 160.774)">
        <path id="Path_53854" data-name="Path 53854" d="M84.524,214.78s3.932,9.538,14.257,9.68v-9.632Z" transform="translate(-84.524 -214.78)" fill="#fff"/>
        <path id="Path_53854_-_Outline" data-name="Path 53854 - Outline" d="M83.776,214.277l15.505.053v10.637l-.507-.007a15.5,15.5,0,0,1-6.8-1.626,16.445,16.445,0,0,1-4.556-3.424,17.864,17.864,0,0,1-3.356-4.94Zm14.505,1.049-12.96-.044a18.044,18.044,0,0,0,2.847,3.967,14.457,14.457,0,0,0,10.113,4.7Z" transform="translate(-84.524 -214.78)" fill="#d3d8e6"/>
      </g>
      <g id="Group_18726" data-name="Group 18726" transform="translate(241.441 62.558)">
        <path id="Path_53855" data-name="Path 53855" d="M148.4,174.136s24.962,11.776,12.945,39.372c-5.974,13.716-9.591,63.319,2.02,71.5,0,0-21.422-14.265-35.53-9.074C127.833,275.936,117.918,191.61,148.4,174.136Z" transform="translate(-126.293 -174.136)" fill="#fff"/>
        <path id="Path_53855_-_Outline" data-name="Path 53855 - Outline" d="M148.375,173.573l.236.111A27.222,27.222,0,0,1,152.4,176a33.562,33.562,0,0,1,7.378,7.176,26.52,26.52,0,0,1,5.107,12.474c.731,5.6-.307,11.68-3.084,18.058-3.015,6.924-5.346,22.751-5.543,37.633a103.78,103.78,0,0,0,1.541,20.876,35.071,35.071,0,0,0,2.352,7.724,11.422,11.422,0,0,0,3.5,4.66l-.565.825a77.857,77.857,0,0,0-9.274-5.075c-4.961-2.3-12.293-5.052-19.048-5.052a19.554,19.554,0,0,0-6.757,1.106l-.6.219-.074-.63c-.006-.053-.627-5.379-1.076-13.48a283.352,283.352,0,0,1-.075-30.954c.775-13.551,2.681-25.091,5.664-34.3a57.179,57.179,0,0,1,6.5-14.01,29.706,29.706,0,0,1,9.8-9.548Zm12.166,109.14a29.239,29.239,0,0,1-3.723-10.3,104.769,104.769,0,0,1-1.56-21.085c.2-15,2.564-30.988,5.626-38.019,4.9-11.254,4.266-21.181-1.886-29.506a32.53,32.53,0,0,0-7.147-6.965,28.824,28.824,0,0,0-3.436-2.133c-6.729,3.962-11.981,11.651-15.612,22.858-2.957,9.126-4.847,20.579-5.618,34.042a282.3,282.3,0,0,0,.073,30.841c.359,6.49.829,11.191,1,12.813a20.987,20.987,0,0,1,6.5-.96,37.088,37.088,0,0,1,10.2,1.615,65.436,65.436,0,0,1,9.281,3.537C156.748,280.613,158.918,281.783,160.541,282.713Z" transform="translate(-126.293 -174.136)" fill="#d3d8e6"/>
      </g>
      <g id="Group_18727" data-name="Group 18727" transform="translate(122.814 53.929)">
        <path id="Path_53856" data-name="Path 53856" d="M88.845,313.148s-.019-9.458,20.463-9.236,49.108-42.318,49.108-42.318l-4.468-91.029L77.2,254.294Z" transform="translate(-77.202 -170.565)" fill="#fff"/>
        <path id="Path_53856_-_Outline" data-name="Path 53856 - Outline" d="M88.354,313.245l-11.692-59.1,77.726-84.8,4.535,92.391-.093.138a207.168,207.168,0,0,1-16.843,21.218,105.845,105.845,0,0,1-15.944,14.616c-6.223,4.449-11.8,6.706-16.575,6.706H109.3c-.237,0-.466,0-.7,0-9.972,0-14.684,2.4-16.882,4.419a6.472,6.472,0,0,0-2.376,4.322Zm-10.613-58.8,11.177,56.5a8.731,8.731,0,0,1,1.794-2.537,14.93,14.93,0,0,1,6.027-3.444,38.934,38.934,0,0,1,11.863-1.557c.237,0,.47,0,.711,0h.155c4.563,0,9.944-2.193,15.994-6.519a104.863,104.863,0,0,0,15.788-14.478,206.86,206.86,0,0,0,16.659-20.964l-4.4-89.666Z" transform="translate(-77.202 -170.565)" fill="#d3d8e6"/>
      </g>
      <g id="Group_18728" data-name="Group 18728" transform="translate(40.841 63.487)">
        <path id="Path_53857" data-name="Path 53857" d="M184.2,174.539c-.969-.957-89.449,34.771-130.365,22.759l-10.555,49s82.187-1.406,106.937-17.435S184.2,174.539,184.2,174.539Z" transform="translate(-43.28 -174.52)" fill="#fff"/>
        <path id="Path_53857_-_Outline" data-name="Path 53857 - Outline" d="M184.116,174.02a.6.6,0,0,1,.436.163l.2.2-.066.275a126.89,126.89,0,0,1-7.743,21.246,103.716,103.716,0,0,1-10.573,18.009,62.459,62.459,0,0,1-15.881,15.37c-5.7,3.689-14.888,6.9-27.318,9.556a332.467,332.467,0,0,1-35.654,5.25c-23.39,2.33-44.023,2.706-44.228,2.709l-.63.011,10.8-50.141.516.152A72.429,72.429,0,0,0,74.1,199.269c34.824,0,83.272-16.406,101.51-22.582C181.209,174.79,183.506,174.02,184.116,174.02ZM43.9,245.784c3.636-.082,22.46-.593,43.523-2.692a331.446,331.446,0,0,0,35.541-5.233c12.309-2.626,21.386-5.794,26.98-9.416,12.685-8.214,21.19-22.459,26.091-32.963a129.288,129.288,0,0,0,7.491-20.335c-1.238.335-4.124,1.312-7.6,2.49-9.824,3.327-26.266,8.895-44.949,13.742-22.742,5.9-41.88,8.893-56.882,8.893a74.44,74.44,0,0,1-19.885-2.343Z" transform="translate(-43.28 -174.52)" fill="#d3d8e6"/>
      </g>
      <g id="Group_18729" data-name="Group 18729" transform="translate(56.321 123.821)">
        <path id="Path_53858" data-name="Path 53858" d="M49.686,210.348l52.827-10.86,1.921,5.3S74.083,210.519,49.686,210.348Z" transform="translate(-49.686 -199.488)" fill="#fff"/>
        <path id="Path_53858_-_Outline" data-name="Path 53858 - Outline" d="M50.77,210.852c-.364,0-.729,0-1.087,0l-.1-.99,53.25-10.947,2.269,6.261-.578.109c-.074.014-7.5,1.409-17.783,2.785A288.331,288.331,0,0,1,50.77,210.852Zm51.421-10.787L54.826,209.8a306.121,306.121,0,0,0,31.785-2.726c8.619-1.153,15.218-2.319,17.152-2.67Z" transform="translate(-49.686 -199.488)" fill="#d3d8e6"/>
      </g>
      <g id="Group_18730" data-name="Group 18730" transform="translate(278.893 432.038)">
        <path id="Path_53859" data-name="Path 53859" d="M235.145,327.035s-17.416,43.78-93.354,34.684Z" transform="translate(-141.791 -327.035)" fill="#fff"/>
        <path id="Path_53859_-_Outline" data-name="Path 53859 - Outline" d="M236.026,326.174l-.416,1.045a33.712,33.712,0,0,1-3.207,5.708,58.624,58.624,0,0,1-11.48,12.458A73.9,73.9,0,0,1,198.3,357.821c-10.733,3.743-23.043,5.642-36.59,5.642a168.916,168.916,0,0,1-19.977-1.247l-.115-.965Zm-74.317,36.288c30.4,0,48.637-9.707,58.58-17.851a57.613,57.613,0,0,0,11.284-12.242,39.5,39.5,0,0,0,2.612-4.445l-90.259,33.534A165.669,165.669,0,0,0,161.709,362.463Z" transform="translate(-141.791 -327.035)" fill="#d3d8e6"/>
      </g>
      <g id="Group_18731" data-name="Group 18731" transform="translate(124.865 482.695)">
        <path id="Path_53860" data-name="Path 53860" d="M78.051,348s22.5,58.728,68.116,59.134Z" transform="translate(-78.051 -347.998)" fill="#fff"/>
        <path id="Path_53860_-_Outline" data-name="Path 53860 - Outline" d="M78.379,347.62l69.141,60.024-1.357-.012a53.021,53.021,0,0,1-16.175-2.683,60.233,60.233,0,0,1-13.98-6.81,88.489,88.489,0,0,1-21.4-20.422,134.812,134.812,0,0,1-12.773-20.309c-2.8-5.473-4.237-9.195-4.251-9.232ZM144.793,406.6,79.324,349.765c.694,1.611,1.834,4.129,3.412,7.209a133.774,133.774,0,0,0,12.68,20.153C105.479,390.209,122.144,405.794,144.793,406.6Z" transform="translate(-78.051 -347.998)" fill="#d3d8e6"/>
      </g>
      <g id="Group_18732" data-name="Group 18732" transform="translate(287.148 136.783)">
        <path id="Path_53861" data-name="Path 53861" d="M174.437,204.852s-41.095,25.17-25.83,35.629C161.648,249.417,179.9,212.109,174.437,204.852Z" transform="translate(-145.207 -204.852)" fill="#fff"/>
        <path id="Path_53861_-_Outline" data-name="Path 53861 - Outline" d="M174.563,204.188l.273.363c1.51,2.006,1.179,5.665.635,8.382A54.024,54.024,0,0,1,162.942,236.9a22.275,22.275,0,0,1-4.908,3.941,10.484,10.484,0,0,1-5.144,1.513,7.965,7.965,0,0,1-4.565-1.461,7.368,7.368,0,0,1-3.614-6.457c.072-2.825,1.69-6.17,4.809-9.943a72.983,72.983,0,0,1,10.1-9.686,152.579,152.579,0,0,1,14.554-10.381Zm-21.673,37.166c2.849,0,6.077-1.78,9.334-5.148a53.041,53.041,0,0,0,12.268-23.469c.649-3.243.572-5.768-.208-7.2a152.7,152.7,0,0,0-14.038,10.052c-9.389,7.64-14.415,14.166-14.535,18.873a6.348,6.348,0,0,0,3.18,5.606A6.983,6.983,0,0,0,152.889,241.355Z" transform="translate(-145.207 -204.852)" fill="#d3d8e6"/>
      </g>
      <g id="Group_18740" data-name="Group 18740" transform="translate(299.377 428.283)">
        <g id="Group_18733" data-name="Group 18733" transform="translate(5.083 51.082)">
          <path id="Path_53862" data-name="Path 53862" d="M222.729,377.923a301.848,301.848,0,0,1-27.857-30.042l-31.738-1.261-3.762,11.063c-9.523,9.7-6.566,27.193-6.566,27.193l66.574,15.5Z" transform="translate(-152.371 -346.62)" fill="#fff"/>
          <path id="Path_53862_-_Outline" data-name="Path 53862 - Outline" d="M219.795,400.987l-67.427-15.7-.055-.328a44.745,44.745,0,0,1-.294-10.082,35.759,35.759,0,0,1,1.837-9.019,22.973,22.973,0,0,1,5.078-8.444l3.846-11.309,32.342,1.285.143.182c.029.037,2.935,3.736,7.8,9.257,4.484,5.094,11.6,12.826,20.011,20.729l.191.179ZM153.25,384.466l65.716,15.3,3.231-21.659c-8.363-7.87-15.427-15.551-19.892-20.624-4.268-4.85-7.038-8.3-7.682-9.112l-31.136-1.238-3.679,10.817-.08.081c-4.815,4.9-6.308,11.911-6.713,16.925A45.642,45.642,0,0,0,153.25,384.466Z" transform="translate(-152.371 -346.62)" fill="#d3d8e6"/>
        </g>
        <g id="Group_18734" data-name="Group 18734" transform="translate(72.092 81.037)">
          <path id="Path_53863" data-name="Path 53863" d="M215.118,371.321l-1.769-6.686c-4.323-2.441-18.856-2.4-18.856-2.4-4.545-.947-8.934-2.056-13.213-3.214l-1.179,23.8Z" transform="translate(-180.101 -359.016)" fill="#fff"/>
          <path id="Path_53863_-_Outline" data-name="Path 53863 - Outline" d="M179.566,383.521l1.246-25.149.6.162c5.028,1.36,9.2,2.376,13.134,3.2.476,0,4.108.012,8.156.315,5.413.4,9.079,1.129,10.894,2.154l.184.1,1.943,7.346Zm2.183-23.86-1.113,22.456,33.878-11.124-1.593-6.021c-4.311-2.216-17.811-2.242-18.392-2.242h-.087l-.051-.011C190.584,361.926,186.552,360.951,181.749,359.66Z" transform="translate(-180.101 -359.016)" fill="#d3d8e6"/>
        </g>
        <g id="Group_18735" data-name="Group 18735" transform="translate(4.793 50.766)">
          <path id="Path_53864" data-name="Path 53864" d="M219.548,400.877a.387.387,0,0,1-.075,0l-66.567-15.5a.308.308,0,0,1-.232-.254c-.034-.181-2.866-17.706,6.592-27.42L163,346.7a.322.322,0,0,1,.3-.215h.015l31.741,1.264a.286.286,0,0,1,.232.121,308.077,308.077,0,0,0,26.637,28.86c3.547.942,7.75,2.025,12.085,2.934h.208c1.858,0,14.632.118,18.733,2.438a.344.344,0,0,1,.155.193l1.769,6.687a.324.324,0,0,1-.205.382l-35.022,11.5A.464.464,0,0,1,219.548,400.877ZM153.261,384.8l66.272,15.432,34.655-11.377-1.658-6.266c-4.282-2.279-18.039-2.305-18.573-2.305h-.012c-4.444-.923-8.685-2.018-12.261-2.967a.236.236,0,0,1-.133-.08,308.221,308.221,0,0,1-26.664-28.867l-31.366-1.249-3.68,10.843a.4.4,0,0,1-.073.121C151.023,367,152.974,382.819,153.261,384.8Z" transform="translate(-152.251 -346.489)" fill="#fff"/>
          <path id="Path_53864_-_Outline" data-name="Path 53864 - Outline" d="M219.548,401.377a.863.863,0,0,1-.165-.013l-.023,0-66.567-15.5a.81.81,0,0,1-.613-.665h0a46.1,46.1,0,0,1-.268-10.253,36.338,36.338,0,0,1,1.857-9.053,23.189,23.189,0,0,1,5.059-8.458l3.7-10.9a.822.822,0,0,1,.77-.546h.034l31.733,1.263a.786.786,0,0,1,.617.318l.018.023a309.073,309.073,0,0,0,26.473,28.69c3.488.926,7.614,1.987,11.885,2.884h.156c1.489,0,14.671.07,18.975,2.5a.844.844,0,0,1,.387.473l.009.03,1.77,6.691a.826.826,0,0,1-.525.977l-.009,0-35.048,11.506-.026.006A.965.965,0,0,1,219.548,401.377ZM153.71,384.4l65.8,15.322,34.074-11.186-1.48-5.594c-1.769-.854-5.32-1.494-10.3-1.853-4.068-.293-7.693-.3-7.845-.3h-.064l-.05-.01c-4.4-.915-8.679-2.015-12.281-2.972a.734.734,0,0,1-.372-.218,312.3,312.3,0,0,1-26.552-28.724l-30.764-1.225L160.3,358.162a.9.9,0,0,1-.167.267l-.01.01C151.91,366.811,153.337,381.51,153.71,384.4Z" transform="translate(-152.251 -346.489)" fill="#d3d8e6"/>
        </g>
        <g id="Group_18736" data-name="Group 18736" transform="translate(3.282 89.339)">
          <path id="Path_53865" data-name="Path 53865" d="M255.454,366.454l-35.019,11.5-66.573-15.5-2.237,9.478,69.464,15.894,36.855-11.956Z" transform="translate(-151.626 -362.451)" fill="#fff"/>
          <path id="Path_53865_-_Outline" data-name="Path 53865 - Outline" d="M153.491,361.851l.485.113,66.436,15.47L255.8,365.813l2.747,10.383-37.436,12.145-.135-.031L151.023,372.3Zm66.968,16.62-.136-.032-66.087-15.388-2.007,8.5,68.839,15.751,36.273-11.768-2.234-8.443Z" transform="translate(-151.626 -362.451)" fill="#d3d8e6"/>
        </g>
        <g id="Group_18737" data-name="Group 18737">
          <path id="Path_53866" data-name="Path 53866" d="M150.268,355.275l15.846,21.289,31.737,1.261-18.292-52.344Z" transform="translate(-150.268 -325.481)" fill="#fff"/>
          <path id="Path_53866_-_Outline" data-name="Path 53866 - Outline" d="M198.565,378.354l-32.71-1.3-.143-.192-16.1-21.633,30.155-30.672Zm-32.193-2.28,30.764,1.222L179.352,326.4,150.925,355.32Z" transform="translate(-150.268 -325.481)" fill="#d3d8e6"/>
        </g>
        <g id="Group_18738" data-name="Group 18738" transform="translate(0 15.029)">
          <path id="Path_53867" data-name="Path 53867" d="M150.268,346.465l28.2-14.764,8.116,5.073L158.2,357.127l-5.168-6.944Z" transform="translate(-150.268 -331.701)" fill="#fff"/>
          <path id="Path_53867_-_Outline" data-name="Path 53867 - Outline" d="M158.1,357.82l-8.579-11.526,28.973-15.169,8.991,5.62Zm-7.077-11.184,7.293,9.8L185.686,336.8l-7.24-4.526Z" transform="translate(-150.268 -331.701)" fill="#d3d8e6"/>
        </g>
        <g id="Group_18739" data-name="Group 18739" transform="translate(11.766 61.827)">
          <path id="Path_53868" data-name="Path 53868" d="M174.646,384.3a.142.142,0,0,1-.053-.007.3.3,0,0,1-.254-.36c1.257-7.435.923-17.957-7.81-25.888a30.057,30.057,0,0,0-11.157-6.353.319.319,0,0,1,.162-.616c.239.068,23.882,6.614,19.421,32.963A.306.306,0,0,1,174.646,384.3Z" transform="translate(-155.137 -351.067)" fill="#fff"/>
          <path id="Path_53868_-_Outline" data-name="Path 53868 - Outline" d="M174.646,384.8a.635.635,0,0,1-.165-.019.8.8,0,0,1-.634-.936c1.234-7.31.908-17.654-7.654-25.43a29.533,29.533,0,0,0-10.932-6.235l-.029-.008a.829.829,0,0,1-.575-.981l.007-.028a.832.832,0,0,1,.8-.6.824.824,0,0,1,.186.021l.023.006a26.017,26.017,0,0,1,3.914,1.538,31.557,31.557,0,0,1,7.821,5.256,26.112,26.112,0,0,1,6.918,10.269,31.963,31.963,0,0,1,1.126,16.461A.8.8,0,0,1,174.646,384.8Z" transform="translate(-155.137 -351.067)" fill="#d3d8e6"/>
        </g>
      </g>
      <g id="Group_18747" data-name="Group 18747" transform="translate(87.742 490.908)">
        <g id="Group_18741" data-name="Group 18741" transform="translate(9.657 20.975)">
          <path id="Path_53869" data-name="Path 53869" d="M97.925,428.269a302.175,302.175,0,0,1,18.242-36.685L106.12,361.455l-11.677.394c-12.445-5.476-27.758,3.482-27.758,3.482l9.055,67.751Z" transform="translate(-66.685 -360.076)" fill="#fff"/>
          <path id="Path_53869_-_Outline" data-name="Path 53869 - Outline" d="M75.316,433.686l-9.171-68.618.287-.168a41.734,41.734,0,0,1,5.792-2.663,38.7,38.7,0,0,1,13.241-2.66,22.7,22.7,0,0,1,9.074,1.769l11.936-.4,10.239,30.7-.12.2c-.024.04-2.455,4.068-5.9,10.567-3.178,6-7.893,15.384-12.308,26.05l-.1.242ZM67.226,365.6l8.938,66.877,21.4-4.643c4.4-10.605,9.087-19.93,12.253-25.9,3.025-5.708,5.274-9.52,5.8-10.409l-9.857-29.557-11.417.385-.1-.046a21.664,21.664,0,0,0-8.777-1.73A37.683,37.683,0,0,0,72.6,363.164,43.839,43.839,0,0,0,67.226,365.6Z" transform="translate(-66.685 -360.076)" fill="#d3d8e6"/>
        </g>
        <g id="Group_18742" data-name="Group 18742" transform="translate(18.712 86.661)">
          <path id="Path_53870" data-name="Path 53870" d="M93.575,423.262l5.628-4.019c.754-4.908-4.422-18.489-4.422-18.489-.723-4.584-1.237-9.084-1.67-13.5l-22.679,7.32Z" transform="translate(-70.432 -387.259)" fill="#fff"/>
          <path id="Path_53870_-_Outline" data-name="Path 53870 - Outline" d="M93.482,423.943l-23.9-29.617,23.962-7.734.061.618c.51,5.205,1.037,9.47,1.658,13.416.394,1.039,5.18,13.813,4.431,18.694l-.032.208Zm-22.2-29.112,22.39,27.751,5.068-3.619c.556-4.892-4.372-17.9-4.422-18.03l-.019-.049-.008-.052c-.6-3.823-1.117-7.938-1.612-12.908Z" transform="translate(-70.432 -387.259)" fill="#d3d8e6"/>
        </g>
        <g id="Group_18743" data-name="Group 18743" transform="translate(9.341 20.679)">
          <path id="Path_53871" data-name="Path 53871" d="M99.065,462.254a.329.329,0,0,1-.246-.114L75.676,433.454a.347.347,0,0,1-.068-.159l-9.052-67.751a.335.335,0,0,1,.155-.314c.155-.087,15.56-8.939,27.978-3.521l11.606-.394a.283.283,0,0,1,.314.215l10.048,30.129a.327.327,0,0,1-.034.261,306.438,306.438,0,0,0-17.57,35.1c.394,3.862.848,8.023,1.537,12.365.193.5,5.176,13.648,4.422,18.58a.3.3,0,0,1-.135.205l-5.63,4.023A.3.3,0,0,1,99.065,462.254ZM76.224,433.128l22.9,28.384,5.278-3.772c.628-4.872-4.369-18.059-4.422-18.194-.708-4.449-1.17-8.651-1.563-12.539a.3.3,0,0,1,.027-.152,308.294,308.294,0,0,1,17.563-35.136L106.08,361.95l-11.437.387a.8.8,0,0,1-.14-.027c-11.4-5.009-25.54,2.392-27.292,3.361ZM104.7,457.919h0Z" transform="translate(-66.554 -359.954)" fill="#fff"/>
          <path id="Path_53871_-_Outline" data-name="Path 53871 - Outline" d="M99.065,462.754a.825.825,0,0,1-.617-.278l-.018-.021-23.156-28.7a.844.844,0,0,1-.162-.395l-9.054-67.765a.832.832,0,0,1,.384-.784l.029-.017a43.713,43.713,0,0,1,6.044-2.735,38.236,38.236,0,0,1,13.2-2.6,22.869,22.869,0,0,1,9.072,1.751l11.469-.389a.769.769,0,0,1,.827.546l0,.01,10.052,30.141a.826.826,0,0,1-.084.666l-.043.072A306.662,306.662,0,0,0,99.563,427.1c.365,3.578.814,7.749,1.512,12.159.172.451,1.418,3.76,2.56,7.614,1.567,5.286,2.2,9.044,1.871,11.172v.009a.8.8,0,0,1-.348.535l-5.62,4.016A.8.8,0,0,1,99.065,462.754ZM76.7,432.923l22.517,27.908,4.712-3.368c.439-4.872-4.365-17.607-4.415-17.735l-.019-.05-.009-.054c-.711-4.465-1.173-8.676-1.567-12.561a.787.787,0,0,1,.063-.4,311.692,311.692,0,0,1,17.477-35l-9.737-29.2-11.129.376-.066-.014a.758.758,0,0,1-.22-.054l-.007,0a21.227,21.227,0,0,0-8.585-1.682c-8.3,0-16.164,3.905-17.964,4.861Z" transform="translate(-66.554 -359.954)" fill="#d3d8e6"/>
        </g>
        <g id="Group_18744" data-name="Group 18744" transform="translate(0 26.229)">
          <path id="Path_53872" data-name="Path 53872" d="M104.544,458.687,81.4,430l-9.054-67.751-9.656,1.26,9.71,70.6,24.222,30.241Z" transform="translate(-62.689 -362.251)" fill="#fff"/>
          <path id="Path_53872_-_Outline" data-name="Path 53872 - Outline" d="M96.526,465.03l-24.6-30.718-.019-.137L62.125,363.08l10.65-1.39,9.1,68.107,23.389,28.989ZM72.875,433.9l23.84,29.764,7.107-5.077-22.9-28.382-9.007-67.4-8.663,1.131Z" transform="translate(-62.689 -362.251)" fill="#d3d8e6"/>
        </g>
        <g id="Group_18745" data-name="Group 18745" transform="translate(49.091)">
          <path id="Path_53873" data-name="Path 53873" d="M97.31,351.4,83,373.75,93.053,403.88l42.487-35.628Z" transform="translate(-83.004 -351.397)" fill="#fff"/>
          <path id="Path_53873_-_Outline" data-name="Path 53873 - Outline" d="M97.12,350.766l39.357,17.353L92.811,404.736,82.454,373.681ZM134.6,368.386,97.5,352.027,83.554,373.818l9.741,29.207Z" transform="translate(-83.004 -351.397)" fill="#d3d8e6"/>
        </g>
        <g id="Group_18746" data-name="Group 18746" transform="translate(11.788 22.433)">
          <path id="Path_53874" data-name="Path 53874" d="M67.882,383.081a.314.314,0,0,1-.019-.628c10.575-.594,18.245-4.487,22.2-11.275a20.883,20.883,0,0,0,2.818-10.169.318.318,0,0,1,.3-.329h.012a.314.314,0,0,1,.314.3,21.05,21.05,0,0,1-2.9,10.509c-5.133,8.818-15.178,11.169-22.7,11.59Z" transform="translate(-67.567 -360.68)" fill="#fff"/>
          <path id="Path_53874_-_Outline" data-name="Path 53874 - Outline" d="M67.917,383.581h-.036a.81.81,0,0,1-.813-.766.818.818,0,0,1,.206-.592.8.8,0,0,1,.562-.269c10.394-.585,17.93-4.4,21.794-11.028a20.3,20.3,0,0,0,2.75-9.9v0a.821.821,0,0,1,.781-.842h.033a.819.819,0,0,1,.814.788,21.483,21.483,0,0,1-2.972,10.776c-5.244,9.009-15.459,11.41-23.1,11.837Z" transform="translate(-67.567 -360.68)" fill="#d3d8e6"/>
        </g>
      </g>
      <g id="Group_18761" data-name="Group 18761" transform="translate(297.384 145.388)">
        <g id="Group_18749" data-name="Group 18749">
          <g id="Group_18748" data-name="Group 18748">
            <path id="Path_53875" data-name="Path 53875" d="M161.11,208.413a20.128,20.128,0,0,0,8.5,1.692c4.463-.218,13.3.143,17.843,1.991,3.393,1.38,6.019,2.351,4.835,4.2s-6.6,2.223-7.059,1.878,14.19,5.836,15.284,7.208c.524.662,3.11,2.6-.474,3.833,0,0,3.678,3.448,1.866,4.736s-4.226-.152-4.226-.152,2.38,2.721-.2,3.729-6.353-.575-6.353-.575,1.919,2.373-.459,3.4-20.8-3.881-26.511-6.757a44.269,44.269,0,0,1-9.042-5.891l-5.676-4.125Z" transform="translate(-149.443 -208.413)" fill="#fff"/>
            <path id="Path_53875_-_Outline" data-name="Path 53875 - Outline" d="M160.959,207.789l.364.172a20.1,20.1,0,0,0,7.571,1.661c.233,0,.466-.006.693-.017.776-.038,1.643-.057,2.577-.057,5.007,0,11.7.548,15.479,2.084l.39.158c2.544,1.032,4.553,1.847,4.967,3.15a1.876,1.876,0,0,1-.29,1.624c-.824,1.287-3.12,1.867-4.863,2.1,1.578.663,3.713,1.588,5.784,2.53,6.558,2.982,7.1,3.658,7.274,3.88.056.07.158.177.267.291.541.564,1.446,1.507,1.191,2.56a2.35,2.35,0,0,1-1.44,1.475c.777.832,2.068,2.423,1.98,3.712a1.628,1.628,0,0,1-.708,1.25,3.473,3.473,0,0,1-2.054.628,5,5,0,0,1-1.234-.164,2.7,2.7,0,0,1,.217,1.688,2.168,2.168,0,0,1-1.459,1.483,6.008,6.008,0,0,1-2.188.37,12.143,12.143,0,0,1-3.3-.522,2.545,2.545,0,0,1,.12,1.453,2.265,2.265,0,0,1-1.433,1.519,3.256,3.256,0,0,1-1.248.181c-2.2,0-6.929-.93-12.654-2.487a82.693,82.693,0,0,1-13.033-4.463A44.673,44.673,0,0,1,154.8,228.1l-6.071-4.412Zm7.935,2.833a20.819,20.819,0,0,1-7.627-1.593l-11.115,14.45,5.282,3.839.02.018a44.275,44.275,0,0,0,8.932,5.815c5.209,2.622,20.776,6.843,25.237,6.843a2.335,2.335,0,0,0,.85-.1,1.314,1.314,0,0,0,.859-.838,2.513,2.513,0,0,0-.59-1.792l.583-.775a12.538,12.538,0,0,0,4.154.872,5.022,5.022,0,0,0,1.824-.3,1.222,1.222,0,0,0,.852-.789c.183-.748-.572-1.826-.85-2.145l.633-.758a4.948,4.948,0,0,0,2.206.617,2.493,2.493,0,0,0,1.475-.443.626.626,0,0,0,.289-.5c.065-.953-1.32-2.629-2.207-3.461l-.605-.568.785-.27c.884-.3,1.422-.679,1.513-1.056.126-.521-.542-1.216-.94-1.632-.131-.137-.244-.255-.328-.361-.132-.165-1.023-.917-6.905-3.592-3.289-1.5-6.728-2.944-7.82-3.357a1.017,1.017,0,0,1-.469-.172.5.5,0,0,1,.3-.912h0a1.174,1.174,0,0,1,.416.108,4.546,4.546,0,0,0,.481.021c1.887,0,5.018-.628,5.745-1.762a.877.877,0,0,0,.179-.782c-.272-.857-2.273-1.668-4.39-2.527l-.391-.159c-3.643-1.483-10.19-2.011-15.1-2.011-.918,0-1.768.019-2.528.056C169.392,210.616,169.143,210.622,168.894,210.622Z" transform="translate(-149.443 -208.413)" fill="#d3d8e6"/>
          </g>
        </g>
        <g id="Group_18752" data-name="Group 18752" transform="translate(36.653 15.351)">
          <g id="Group_18751" data-name="Group 18751">
            <g id="Group_18750" data-name="Group 18750">
              <path id="Path_53876" data-name="Path 53876" d="M164.611,215.115a.338.338,0,0,0,.218.309l13.6,5.111a.344.344,0,0,0,.442-.2.348.348,0,0,0-.2-.437l-13.6-5.113a.341.341,0,0,0-.44.2A.429.429,0,0,0,164.611,215.115Z" transform="translate(-164.611 -214.766)" fill="#fff"/>
              <path id="Path_53876_-_Outline" data-name="Path 53876 - Outline" d="M164.949,214.266h0a.83.83,0,0,1,.3.056l13.6,5.112a.852.852,0,0,1,.5,1.047l-.014.04a.849.849,0,0,1-.786.537.837.837,0,0,1-.3-.056l-13.6-5.108a.842.842,0,0,1-.545-.761v-.018a.933.933,0,0,1,.042-.281l.009-.025A.843.843,0,0,1,164.949,214.266Z" transform="translate(-164.611 -214.766)" fill="#d3d8e6"/>
            </g>
          </g>
        </g>
        <g id="Group_18755" data-name="Group 18755" transform="translate(35.607 19.282)">
          <g id="Group_18754" data-name="Group 18754">
            <g id="Group_18753" data-name="Group 18753">
              <path id="Path_53877" data-name="Path 53877" d="M164.178,216.742a.333.333,0,0,0,.2.3l12.293,5.761a.338.338,0,0,0,.452-.164.327.327,0,0,0-.164-.449l-12.293-5.761a.334.334,0,0,0-.449.164A.281.281,0,0,0,164.178,216.742Z" transform="translate(-164.178 -216.392)" fill="#fff"/>
              <path id="Path_53877_-_Outline" data-name="Path 53877 - Outline" d="M164.517,215.892h0a.823.823,0,0,1,.358.082l12.287,5.758a.842.842,0,0,1,.449.495.813.813,0,0,1-.048.636.847.847,0,0,1-.753.47.823.823,0,0,1-.359-.082l-12.285-5.757a.827.827,0,0,1-.489-.733v-.02a.786.786,0,0,1,.093-.388A.841.841,0,0,1,164.517,215.892Z" transform="translate(-164.178 -216.392)" fill="#d3d8e6"/>
            </g>
          </g>
        </g>
        <g id="Group_18758" data-name="Group 18758" transform="translate(32.973 23.725)">
          <g id="Group_18757" data-name="Group 18757">
            <g id="Group_18756" data-name="Group 18756">
              <path id="Path_53878" data-name="Path 53878" d="M163.088,218.581a.332.332,0,0,0,.181.29l8.376,4.473a.338.338,0,1,0,.314-.6l-8.373-4.473a.34.34,0,0,0-.459.138A.394.394,0,0,0,163.088,218.581Z" transform="translate(-163.088 -218.231)" fill="#fff"/>
              <path id="Path_53878_-_Outline" data-name="Path 53878 - Outline" d="M163.427,217.731h0a.831.831,0,0,1,.4.1l8.363,4.468a.833.833,0,0,1,.365,1.123l-.012.023a.841.841,0,0,1-.739.44.823.823,0,0,1-.4-.1l-8.368-4.469a.837.837,0,0,1-.449-.713v-.02a.89.89,0,0,1,.088-.387l.012-.023A.841.841,0,0,1,163.427,217.731Z" transform="translate(-163.088 -218.231)" fill="#d3d8e6"/>
            </g>
          </g>
        </g>
        <g id="Group_18760" data-name="Group 18760" transform="translate(32.804 9.021)">
          <g id="Group_18759" data-name="Group 18759">
            <path id="Path_53879" data-name="Path 53879" d="M168.305,213.663l-.454-.193c-.031-.007-.737-.536-4.309-1.319a.447.447,0,0,0-.515.333.432.432,0,0,0,.329.515A21.387,21.387,0,0,0,168.305,213.663Z" transform="translate(-163.018 -212.146)" fill="#fff"/>
            <path id="Path_53879_-_Outline" data-name="Path 53879 - Outline" d="M168.16,214.166a24.27,24.27,0,0,1-4.91-.678.932.932,0,0,1,.224-1.841,1.031,1.031,0,0,1,.134.009l.042.007a18.8,18.8,0,0,1,4.42,1.357l.432.184-.17.959C168.321,214.163,168.265,214.166,168.16,214.166Z" transform="translate(-163.018 -212.146)" fill="#d3d8e6"/>
          </g>
        </g>
      </g>
      <g id="Group_18762" data-name="Group 18762" transform="translate(151.575 145.802)">
        <path id="Path_53880" data-name="Path 53880" d="M92.449,250.058c-7.394-21-.232-25.383-.155-26.453l67.529-15.021s59.221,32.6,114.129,168.664l-67.56,37.2s6.133,17.846-29.083-61.911C177.309,352.539,112.264,306.334,92.449,250.058Z" transform="translate(-89.104 -208.584)" fill="#fff"/>
        <path id="Path_53880_-_Outline" data-name="Path 53880 - Outline" d="M159.9,208.055l.165.091a78.678,78.678,0,0,1,10.184,7.269c3.733,3.018,7.621,6.484,11.556,10.3,4.916,4.768,9.919,10.1,14.871,15.851a372.146,372.146,0,0,1,36.708,51.67c14.693,24.563,28.5,52.766,41.031,83.825l.166.411-.388.214-67.2,37c.443,1.387.3,1.59.19,1.741a.542.542,0,0,1-.44.227c-.318,0-.53-.236-.834-.7-.246-.376-.583-.967-1-1.757-.988-1.856-2.47-4.876-4.4-8.976-4.972-10.539-12.912-28.154-23.6-52.357-.7-.5-4.622-3.35-10.386-8.038-5.855-4.762-14.869-12.456-24.563-22.071a269.017,269.017,0,0,1-28.294-32.651c-9.854-13.582-17.15-27-21.686-39.881-2.71-7.7-3.8-14.1-3.226-19.022a13.872,13.872,0,0,1,2.7-7.145,4.364,4.364,0,0,0,.345-.515l.025-.346.363-.081ZM273.322,377.024C245.054,307.1,215.666,265.16,195.973,242.282a208.648,208.648,0,0,0-26.3-26.05,84.068,84.068,0,0,0-9.926-7.118L92.67,224.033a5.452,5.452,0,0,1-.409.612,12.777,12.777,0,0,0-2.516,6.672c-.552,4.774.516,11.023,3.175,18.575,10.2,28.981,32.682,55.234,49.741,72.155,9.665,9.587,18.652,17.258,24.49,22.005,6.322,5.141,10.406,8.05,10.447,8.079l.112.08.056.126c10.306,23.342,18.07,40.585,23.076,51.252,2.76,5.881,4.294,8.934,5.147,10.511l.161-.089Z" transform="translate(-89.104 -208.584)" fill="#d3d8e6"/>
      </g>
      <g id="Group_18763" data-name="Group 18763" transform="translate(152.099 161.106)">
        <path id="Path_53881" data-name="Path 53881" d="M95.942,215.765s-8.569,39.476,44.64,96.251c0,0-45.13-45.764-50.771-78.949C89.812,233.067,86.745,210.3,95.942,215.765Z" transform="translate(-89.321 -214.917)" fill="#fff"/>
        <path id="Path_53881_-_Outline" data-name="Path 53881 - Outline" d="M93.388,214.417a5.635,5.635,0,0,1,2.81.918l.309.184-.076.352a36.042,36.042,0,0,0-.5,7.013,79.4,79.4,0,0,0,2.879,19.67c4.109,15.407,14.754,39.906,42.133,69.12l-.721.693a327.783,327.783,0,0,1-23.311-27.076,217.029,217.029,0,0,1-17.228-25.643c-5.584-9.956-9.073-18.871-10.369-26.5l0-.017a66.369,66.369,0,0,1-.492-7.228c-.051-5.2.66-8.672,2.114-10.335A3.152,3.152,0,0,1,93.388,214.417Zm2,1.606a4.329,4.329,0,0,0-2-.606,2.164,2.164,0,0,0-1.7.812c-1.269,1.452-1.915,4.794-1.867,9.667a65.312,65.312,0,0,0,.483,7.1c2.9,17.04,16.5,37.513,27.4,51.689q.682.888,1.362,1.757-4.592-6.6-8.345-13.166a128.761,128.761,0,0,1-12.9-30.545,80.23,80.23,0,0,1-2.891-19.9A39.838,39.838,0,0,1,95.385,216.023Z" transform="translate(-89.321 -214.917)" fill="#d3d8e6"/>
      </g>
      <g id="Group_18764" data-name="Group 18764" transform="translate(124.981 144.301)">
        <path id="Path_53882" data-name="Path 53882" d="M146.16,605.841,78.1,546.376S179.93,365.753,195.84,346.037L174.6,207.963s51.07,31.847,67.014,43.173c45.858,32.572,52.346,42.924,59.47,68.894,14.97,54.574,20.782,134.388,24.283,175.67L232.01,530.384l1.177-88.78C264.1,422.224,159.346,600.112,146.16,605.841Z" transform="translate(-78.099 -207.963)" fill="#fff"/>
        <path id="Path_53882_-_Outline" data-name="Path 53882 - Outline" d="M146.069,606.426l-.238-.208L77.464,546.485l.2-.354c.255-.452,25.773-45.7,52.907-92.78,15.937-27.651,29.3-50.513,39.732-67.949,12.882-21.542,21.294-34.829,25.011-39.505L173.937,206.962l.924.577c.511.319,51.266,31.984,67.039,43.19,11.946,8.485,20.737,15.119,27.667,20.877a126.707,126.707,0,0,1,16.688,16.134,64.266,64.266,0,0,1,9.432,14.944,112.175,112.175,0,0,1,5.876,17.215c13.878,50.594,19.892,122.851,23.484,166.023q.43,5.162.815,9.737l.032.379-.356.132L231.5,531.107l.883-66.583c-4.47,10.1-11.079,23.254-19.224,38.242-8.06,14.831-17.29,30.878-26.695,46.4-9.291,15.339-17.918,28.8-24.95,38.928-7.664,11.039-12.763,17.163-15.156,18.2ZM78.734,546.268l67.5,58.976c.836-.48,2.392-1.816,5.248-5.288,2.481-3.016,5.58-7.2,9.211-12.428,7.02-10.111,15.635-23.554,24.916-38.875,15.866-26.193,36.483-62.709,46.808-86.705l.273-20.62.231-.145a8.174,8.174,0,0,1,4-1.551,2.143,2.143,0,0,1,1.883.965c.842,1.278.74,3.811-.312,7.744a108.154,108.154,0,0,1-5.077,13.82l-.895,67.5,92.314-34.3q-.373-4.4-.783-9.36c-3.59-43.138-9.6-115.337-23.452-165.841-7.205-26.266-13.969-36.438-59.277-68.619-14.57-10.35-59.076-38.212-66.065-42.579l21.111,137.214-.139.172c-3.614,4.479-12.049,17.79-25.069,39.563-10.424,17.432-23.789,40.289-39.724,67.936C105.577,498.717,81.185,541.924,78.734,546.268ZM233.684,441.885,233.45,459.5a96.43,96.43,0,0,0,4.076-11.424c1.2-4.472.9-6.24.443-6.935a1.144,1.144,0,0,0-1.048-.515A7.015,7.015,0,0,0,233.684,441.885Z" transform="translate(-78.099 -207.963)" fill="#d3d8e6"/>
        <path id="Path_53883" data-name="Path 53883" d="M156.419,233.819c7.82,9.937,20.427,26.579,23.457,34.307,4.417,11.266,15.664,38.451,15.946,39.14-1.733-8.318-3.618-16.336-5.681-23.861C184.646,263.378,179.511,252.629,156.419,233.819Z" transform="translate(32.841 -171.338)" fill="#fff"/>
        <path id="Path_53883_-_Outline" data-name="Path 53883 - Outline" d="M156.735,233.431a160.069,160.069,0,0,1,14.283,12.908,76.062,76.062,0,0,1,9.282,11.545c4.872,7.565,7.562,15.323,10.324,25.388,1.964,7.163,3.878,15.2,5.689,23.891l-.952.292-.257-.622c-3.493-8.459-12.015-29.146-15.693-38.525-3.037-7.744-15.954-24.739-23.384-34.18Zm37.44,68.53c-1.457-6.612-2.971-12.79-4.516-18.423-5.117-18.651-9.7-29.164-29.993-46.372,3.257,4.206,7.159,9.363,10.685,14.346,5.276,7.454,8.637,12.982,9.99,16.432C183.472,275.926,190.116,292.112,194.175,301.961Z" transform="translate(32.841 -171.338)" fill="#d3d8e6"/>
      </g>
      <g id="Group_18765" data-name="Group 18765" transform="translate(226.017 172.493)">
        <path id="Path_53884" data-name="Path 53884" d="M173.692,445.822a.274.274,0,0,1-.174-.053.307.307,0,0,1-.087-.435c17.43-26.321,31.132-56.785,40.725-90.529,8.518-30.006.783-60.71-19.728-78.232-30.6-26.156-73.95-56.072-74.382-56.374a.316.316,0,0,1-.08-.44.332.332,0,0,1,.44-.08c.435.3,43.806,30.238,74.438,56.411,20.69,17.684,28.507,48.651,19.914,78.886-9.606,33.812-23.336,64.329-40.8,90.705A.307.307,0,0,1,173.692,445.822Z" transform="translate(-119.91 -219.629)" fill="#fff"/>
        <path id="Path_53884_-_Outline" data-name="Path 53884 - Outline" d="M173.692,446.322a.767.767,0,0,1-.461-.144.8.8,0,0,1-.338-.5.809.809,0,0,1,.123-.62c17.4-26.269,31.076-56.68,40.659-90.387,8.466-29.821.783-60.326-19.572-77.715-29.082-24.856-69.717-53.14-74.254-56.283l-.089-.062a.822.822,0,0,1-.205-1.133l0-.005a.818.818,0,0,1,.67-.341.837.837,0,0,1,.442.125l.02.013c.435.3,43.815,30.241,74.479,56.442,20.839,17.811,28.717,48.979,20.07,79.4-9.618,33.855-23.368,64.42-40.867,90.842A.805.805,0,0,1,173.692,446.322Z" transform="translate(-119.91 -219.629)" fill="#d3d8e6"/>
      </g>
      <g id="Group_18766" data-name="Group 18766" transform="translate(139.676 53.557)">
        <path id="Path_53885" data-name="Path 53885" d="M114.539,183.479s-36.25,66.4-29.527,94.149l14.257.048,35.941,5.937a83.08,83.08,0,0,0,45.706-5.362l7.612-3.195s7.341-61.821,12.486-100.705c.338-2.547-28.809-3.441-28.809-3.441l-23.179-.5Z" transform="translate(-84.18 -170.411)" fill="#fff"/>
        <path id="Path_53885_-_Outline" data-name="Path 53885 - Outline" d="M148.938,169.909l23.276.5c.071,0,6.779.211,13.64.7,4.035.287,7.336.614,9.809.971,4.276.617,5.25,1.2,5.621,1.633a.883.883,0,0,1,.225.7c-5.085,38.436-12.412,100.08-12.485,100.7l-.034.289-7.881,3.307a83.578,83.578,0,0,1-45.981,5.394l-35.9-5.931-14.609-.049-.092-.381c-1.552-6.409-.954-15.376,1.777-26.655a222.2,222.2,0,0,1,10.488-31.135c8.139-19.864,17.218-36.551,17.308-36.717l.089-.162.173-.066Zm51.571,4.438c-.121-.132-.831-.657-4.723-1.236-2.432-.362-5.722-.694-9.779-.986-6.919-.5-13.751-.711-13.819-.714l-23.077-.5L114.89,183.881c-.956,1.77-9.487,17.7-17.176,36.463a221.172,221.172,0,0,0-10.439,30.987c-2.639,10.9-3.266,19.572-1.865,25.8l13.9.047.04.007,35.941,5.937a82.578,82.578,0,0,0,45.431-5.33l7.343-3.082C188.618,270.062,195.6,211.436,200.509,174.347Z" transform="translate(-84.18 -170.411)" fill="#d3d8e6"/>
      </g>
      <g id="Group_18767" data-name="Group 18767" transform="translate(192.852 55.123)">
        <path id="Path_53886" data-name="Path 53886" d="M106.317,210.332c20.506,31.108,56.036,54.216,82.4,66.98l15.164,11.036,25.83-35.629-52.059-27.7c-1.5.418-7.706-6.467-12.658-12.5-8.243-10.041,35.129-34.358-3.383-41.465C161.612,171.059,103.048,205.373,106.317,210.332Z" transform="translate(-106.185 -171.059)" fill="#fff"/>
        <path id="Path_53886_-_Outline" data-name="Path 53886 - Outline" d="M161.519,170.534l.183.034c9.172,1.693,14.423,4.479,16.051,8.518.986,2.445.643,5.355-1.047,8.9a65.432,65.432,0,0,1-5.912,9.27c-4.24,5.917-8.245,11.5-5.413,14.954,2.72,3.313,5.344,6.305,7.389,8.424,3.5,3.627,4.513,3.909,4.74,3.909h.012l.192-.054.173.095,52.566,27.968-26.461,36.5-15.532-11.3A258.446,258.446,0,0,1,145.017,251.1c-16.609-12.688-29.77-26.311-39.117-40.491a1.443,1.443,0,0,1-.164-1.162c.22-.946,1.2-2.226,2.993-3.915a78,78,0,0,1,6.538-5.341c4.671-3.491,11.061-7.84,18.993-12.926,13.5-8.655,26.965-16.556,27.1-16.635Zm15.99,55.006c-.648,0-1.855-.479-5.459-4.215-2.644-2.74-5.506-6.126-7.442-8.484-1.515-1.845-1.568-4.274-.162-7.425a55.093,55.093,0,0,1,5.535-8.746,64.743,64.743,0,0,0,5.822-9.119c1.563-3.275,1.9-5.922,1.022-8.092a9.32,9.32,0,0,0-4.484-4.493,36.589,36.589,0,0,0-10.638-3.381c-1.564.92-14.225,8.387-26.907,16.521-7.911,5.073-14.281,9.408-18.932,12.885-7.137,5.333-8.917,7.665-9.154,8.682-.06.257,0,.353.025.385,23.6,35.8,65.348,58.647,82.2,66.806l.04.019,14.795,10.768,25.2-34.758L177.56,225.539Z" transform="translate(-106.185 -171.059)" fill="#d3d8e6"/>
      </g>
      <g id="Group_18768" data-name="Group 18768" transform="translate(40.526 53.243)">
        <path id="Path_53887" data-name="Path 53887" d="M293.171,289.767a.306.306,0,0,1-.186-.06L277.819,278.67A264.366,264.366,0,0,1,248.4,261.888c-.9,8.211-1.438,13.387-1.438,13.387a.316.316,0,0,1-.314.283h-.034a.317.317,0,0,1-.28-.348s.561-5.391,1.5-13.9a.319.319,0,0,1,.179-.254.3.3,0,0,1,.307.027,265.368,265.368,0,0,0,29.832,17.056l14.958,10.877,25.426-35.083-51.65-27.48h-.046c-2,0-8.011-6.8-12.793-12.624a4.057,4.057,0,0,1-.423-.648.716.716,0,0,1-.072-.261c.321-2.516.64-5.024.976-7.539a.391.391,0,0,1,.034-.106,70.86,70.86,0,0,1,4.862-7.385c4.369-6.094,8.878-12.394,6.868-17.392-1.51-3.758-6.554-6.38-15.412-8.016-3-.145-5.331-.307-7.576-.469-3.661-.261-7.121-.505-12.981-.6l-23.121-.5-34.319,13.006-.355.648a.293.293,0,0,1-.174.147c-20.982,7.071-84.684,28.536-118.094,18.986l-10.4,48.282c6.172-.14,81.458-2.124,105.69-16.976a.3.3,0,0,1,.367.022.325.325,0,0,1,.1.346c-6.512,18.846-8.745,33.017-6.641,42.122l14.016.056a.313.313,0,1,1,0,.626h0l-14.262-.053a.312.312,0,0,1-.307-.239c-2.2-9.086-.068-23.184,6.319-41.9C123.052,251.072,44.272,252.6,43.472,252.616h-.007a.312.312,0,0,1-.242-.114.3.3,0,0,1-.065-.268l10.555-49a.321.321,0,0,1,.147-.205.284.284,0,0,1,.246-.029c33.062,9.695,96.8-11.725,117.923-18.846l.353-.64a.306.306,0,0,1,.162-.145L207.03,170.3a.36.36,0,0,1,.114-.019h.007l23.181.5c5.872.1,9.34.346,13.008.6,2.245.162,4.57.324,7.61.471,9.125,1.687,14.323,4.434,15.92,8.4,2.143,5.319-2.472,11.761-6.935,17.991a70.752,70.752,0,0,0-4.789,7.266c-.329,2.462-.643,4.918-.957,7.38a3.4,3.4,0,0,0,.341.534c7.09,8.624,11.205,12.4,12.24,12.4.068,0,.121-.022.174-.022a.285.285,0,0,1,.147.036l52.056,27.7a.339.339,0,0,1,.162.208.323.323,0,0,1-.056.261l-25.828,35.629a.311.311,0,0,1-.205.126Z" transform="translate(-43.15 -170.281)" fill="#fff"/>
        <path id="Path_53887_-_Outline" data-name="Path 53887 - Outline" d="M293.261,290.267h-.09a.808.808,0,0,1-.484-.159L277.561,279.1a264.473,264.473,0,0,1-28.754-16.348c-.834,7.651-1.344,12.524-1.349,12.574v.007a.819.819,0,0,1-.811.724h-.065l-.031,0a.821.821,0,0,1-.715-.9c.005-.05.571-5.487,1.5-13.9a.821.821,0,0,1,.457-.649.795.795,0,0,1,.81.064,264.879,264.879,0,0,0,29.766,17.017l.04.019.036.026,14.553,10.582,24.8-34.212-51.037-27.154c-.7-.038-2.061-.594-5.629-4.28-2.031-2.1-4.543-4.966-7.467-8.524a4.535,4.535,0,0,1-.472-.72l-.022-.044a.981.981,0,0,1-.112-.515v-.01l.088-.688c.287-2.245.583-4.567.889-6.854a.853.853,0,0,1,.07-.238l.018-.038a71.132,71.132,0,0,1,4.9-7.44c4.288-5.981,8.721-12.165,6.81-16.914-.716-1.781-2.259-3.268-4.717-4.546a37.872,37.872,0,0,0-10.289-3.158c-3-.145-5.377-.311-7.554-.468-3.63-.259-7.058-.5-12.954-.6l-23.026-.493-34.056,12.906-.262.477a.8.8,0,0,1-.46.391c-17.387,5.859-63.562,21.418-98.087,21.419a75.851,75.851,0,0,1-19.787-2.283l-10.15,47.142c5.01-.125,24.133-.726,45.4-2.953,28.937-3.032,49.48-7.849,59.407-13.933a.817.817,0,0,1,.434-.127.8.8,0,0,1,.515.189l.005,0a.827.827,0,0,1,.248.887c-6.389,18.49-8.646,32.435-6.713,41.462l13.616.054a.813.813,0,1,1,0,1.626l-14.264-.053a.806.806,0,0,1-.792-.627c-2.169-8.97-.178-22.743,5.919-40.949-6.008,3.208-14.885,6.028-26.416,8.389a347.492,347.492,0,0,1-34.964,5.015c-23.124,2.277-43.191,2.663-43.391,2.666h-.016a.815.815,0,0,1-.8-.989l10.556-49a.821.821,0,0,1,.367-.516.8.8,0,0,1,.666-.083,72.713,72.713,0,0,0,20.16,2.452c34.157,0,79.848-15.362,97.266-21.234l.256-.464a.8.8,0,0,1,.42-.375l.006,0,34.514-13.078a.863.863,0,0,1,.263-.042h.018l23.181.5c5.8.1,9.239.338,12.879.594l.154.011c2.277.164,4.571.324,7.6.471l.034,0,.033.006a38.7,38.7,0,0,1,10.925,3.4,10.9,10.9,0,0,1,5.368,5.314c2.246,5.573-2.451,12.129-6.993,18.469l-.062.086a70.6,70.6,0,0,0-4.651,7.045c-.312,2.341-.615,4.707-.924,7.123a2.318,2.318,0,0,0,.212.319c3.226,3.924,6.1,7.155,8.3,9.339,2.688,2.667,3.455,2.862,3.547,2.876l.01,0a.865.865,0,0,1,.171-.019.786.786,0,0,1,.389.1l52.064,27.7a.841.841,0,0,1,.4.52l0,.018a.825.825,0,0,1-.142.66L293.83,289.934a.807.807,0,0,1-.529.326Z" transform="translate(-43.15 -170.281)" fill="#d3d8e6"/>
      </g>
      <g id="Group_18769" data-name="Group 18769" transform="translate(162.328 174.357)">
        <path id="Path_53888" data-name="Path 53888" d="M93.87,559.585a.351.351,0,0,1-.181-.053.321.321,0,0,1-.08-.44c1.162-1.65,116.265-165.049,123.166-204.781,7.617-43.864-22.053-57.254-53.458-71.422-4.538-2.047-9.221-4.164-13.8-6.375-36.061-17.377-48.869-55.323-48.994-55.7a.32.32,0,0,1,.2-.4.345.345,0,0,1,.4.2c.121.382,12.856,38.082,48.663,55.345,4.577,2.2,9.26,4.316,13.789,6.36,31.634,14.277,61.524,27.758,53.815,72.106-6.916,39.862-122.1,203.389-123.261,205.032A.329.329,0,0,1,93.87,559.585Z" transform="translate(-93.554 -220.401)" fill="#fff"/>
        <path id="Path_53888_-_Outline" data-name="Path 53888 - Outline" d="M93.87,560.085a.847.847,0,0,1-.45-.132l-.034-.023A.819.819,0,0,1,93.2,558.8l0,0c1.215-1.724,30.082-42.753,59.5-88.212,17.243-26.648,31.266-49.544,41.678-68.051,12.971-23.054,20.341-39.308,21.9-48.311,3.443-19.826-.358-34.574-11.96-46.411-10.327-10.536-25.328-17.3-41.21-24.469-4.045-1.824-9.08-4.1-13.81-6.38a89.4,89.4,0,0,1-22.979-16.07,106.831,106.831,0,0,1-15.194-18.33,102.207,102.207,0,0,1-11.079-21.6.82.82,0,0,1,.515-1.032l.029-.01.03-.006a.888.888,0,0,1,.177-.018.833.833,0,0,1,.8.544l0,.013c.007.022.817,2.449,2.612,6.355a113.289,113.289,0,0,0,8.3,14.894c6.948,10.521,19.092,24.925,37.493,33.8,4.5,2.167,9.108,4.247,13.565,6.259l.228.1c8.086,3.649,15.724,7.1,22.871,11.071a104.2,104.2,0,0,1,10.169,6.373,65.467,65.467,0,0,1,8.763,7.437,45.3,45.3,0,0,1,11.565,19.572,52.53,52.53,0,0,1,1.924,12.844,76.613,76.613,0,0,1-1.206,15.344c-.832,4.8-3.279,11.63-7.273,20.311-3.622,7.872-8.6,17.452-14.8,28.471-10.444,18.571-24.5,41.534-41.79,68.253-29.784,46.037-59.2,87.8-59.484,88.2l-.014.018A.828.828,0,0,1,93.87,560.085Z" transform="translate(-93.554 -220.401)" fill="#d3d8e6"/>
      </g>
      <g id="Group_18770" data-name="Group 18770" transform="translate(124.663 157.893)">
        <path id="Path_53889" data-name="Path 53889" d="M146.346,598.191a.315.315,0,0,1-.208-.08L78.075,538.646a.31.31,0,0,1-.068-.389c.882-1.561,88.221-156.4,113.133-193.834-11.331-8.438-65.39-50.722-83.21-101.341-6.353-18.032-1.984-24.032-.553-26a2.917,2.917,0,0,0,.382-.59.316.316,0,0,1,.14-.22.41.41,0,0,1,.247-.06,281.264,281.264,0,0,0,54.729,6.868,65.975,65.975,0,0,0,34.278-9.439.318.318,0,0,1,.336-.007c7.523,4.558,30.049,19.02,44.485,29.283,45.532,32.34,52.332,42.583,59.593,69.066,13.883,50.58,19.895,122.838,23.483,166q.431,5.151.814,9.719a.309.309,0,0,1-.208.322L232.3,522.712a.331.331,0,0,1-.288-.034.318.318,0,0,1-.133-.266l.889-66.821c-18.994,43.405-76.3,138.223-86.3,142.573A.273.273,0,0,1,146.346,598.191ZM78.684,538.344,146.4,597.5c9.7-5.062,66.729-97.718,86.416-143.61a.3.3,0,0,1,.355-.179.317.317,0,0,1,.246.314l-.9,67.937,92.7-34.447c-.254-2.968-.515-6.14-.8-9.48-3.589-43.144-9.6-115.364-23.457-165.9-7.216-26.3-13.989-36.492-59.352-68.718-14.323-10.176-36.6-24.494-44.28-29.148a67.307,67.307,0,0,1-33.5,9.439c-.321,0-.648,0-.976-.007a282.816,282.816,0,0,1-54.593-6.819,5.6,5.6,0,0,1-.375.561c-1.389,1.9-5.606,7.709.628,25.419,17.9,50.821,72.478,93.243,83.234,101.227a.314.314,0,0,1,.075.428C167.585,380.859,82.493,531.59,78.684,538.344Z" transform="translate(-77.967 -213.587)" fill="#fff"/>
        <path id="Path_53889_-_Outline" data-name="Path 53889 - Outline" d="M146.346,598.691a.814.814,0,0,1-.539-.2L77.75,539.026a.807.807,0,0,1-.177-1.015l.094-.167c3.974-7.04,24.99-44.234,48.571-85.225,32.29-56.131,53.894-92.487,64.225-108.078-2.817-2.109-8.2-6.259-14.923-12.014-8.477-7.258-16.529-14.865-23.932-22.611a252.368,252.368,0,0,1-25.162-30.546,154.717,154.717,0,0,1-18.986-36.121c-6.437-18.269-1.96-24.433-.489-26.458l.005-.007a5.217,5.217,0,0,0,.3-.431.813.813,0,0,1,.346-.5.891.891,0,0,1,.494-.143l.078,0,.076.02c.057.015,6.593,1.61,16.81,3.276a270.9,270.9,0,0,0,37.8,3.576c.336.006.677.009,1.013.009a64.861,64.861,0,0,0,23.289-4.581,57.826,57.826,0,0,0,9.686-4.781l.039-.024a.892.892,0,0,1,.431-.115.75.75,0,0,1,.419.124c7.582,4.594,30.141,19.085,44.5,29.3,23.824,16.922,36.228,27.244,44.242,36.816,8.283,9.894,11.853,19.064,15.544,32.525,13.9,50.652,19.91,122.917,23.5,166.094q.144,1.716.281,3.369c.185,2.221.359,4.319.533,6.343a.813.813,0,0,1-.535.839L232.475,523.18a.786.786,0,0,1-.28.05.837.837,0,0,1-.451-.131l-.016-.011a.821.821,0,0,1-.347-.676v-.007l.857-64.381c-4.493,10-11.067,22.992-19.12,37.783s-17.2,30.7-26.443,45.975c-9.258,15.305-17.821,28.673-24.761,38.659-7.622,10.966-12.745,17.081-15.227,18.176A.763.763,0,0,1,146.346,598.691ZM79.32,538.235l67.138,58.654c4.81-3.089,20.33-25.428,38.977-56.141,15.776-25.985,36.387-62.5,46.92-87.049a.807.807,0,0,1,.739-.5.737.737,0,0,1,.215.032.818.818,0,0,1,.609.8v.007l-.892,67.208,91.661-34.06c-.153-1.79-.307-3.639-.469-5.589q-.144-1.723-.294-3.512c-3.586-43.12-9.589-115.29-23.441-165.807-7.178-26.168-13.928-36.309-59.159-68.442-14.128-10.038-36.219-24.241-43.988-28.969a63.388,63.388,0,0,1-10.458,5,69.968,69.968,0,0,1-10.353,3.019,62.391,62.391,0,0,1-12.69,1.337c-.321,0-.653,0-.987-.007a284.8,284.8,0,0,1-54.349-6.751l-.1.141-.1.139-.005.007a12.58,12.58,0,0,0-2.452,6.545c-.545,4.738.515,10.933,3.148,18.414,17.85,50.69,72.322,93.021,83.06,100.992a.815.815,0,0,1,.192,1.108C168.221,380.806,84.034,529.881,79.32,538.235ZM232.678,455.47l.22.048.008-.57Z" transform="translate(-77.967 -213.587)" fill="#d3d8e6"/>
      </g>
      <g id="Group_18784" data-name="Group 18784" transform="translate(0 77.67)">
        <g id="Group_18772" data-name="Group 18772">
          <g id="Group_18771" data-name="Group 18771">
            <path id="Path_53890" data-name="Path 53890" d="M75.586,200.665s-7.651-1.766-10.265-5.389-8.407-10.306-12.687-12.7c-3.195-1.791-5.592-3.238-6.3-1.162s2.38,6.549,2.934,6.691-13.412-7.45-15.168-7.45c-.843,0-3.973-.81-2.7,2.76,0,0-4.99-.725-4.864,1.5s2.755,3.209,2.755,3.209-3.613-.162-2.793,2.479,4.415,4.606,4.415,4.606-3.052-.019-2.375,2.484,16.009,13.832,21.819,16.5A44.2,44.2,0,0,0,60.6,217.583l10.347,4.55Z" transform="translate(-26.379 -180.389)" fill="#fff"/>
            <path id="Path_53890_-_Outline" data-name="Path 53890 - Outline" d="M47.66,179.889h0c1.218,0,2.82.9,4.849,2.04l.37.208c4.377,2.452,10.2,9.181,12.848,12.847,2.473,3.427,9.9,5.177,9.972,5.194l.48.111-.1.482-4.764,22.067-10.851-4.772a44.875,44.875,0,0,1-10.31-3.421,88.739,88.739,0,0,1-12.924-8.371c-2.435-1.825-4.559-3.539-6.141-4.958-2.461-2.207-2.907-3.054-3.027-3.5a2.271,2.271,0,0,1,.292-2.065,2.542,2.542,0,0,1,1.211-.819,9.1,9.1,0,0,1-3.538-4.189,2.182,2.182,0,0,1,.223-2.031,2.666,2.666,0,0,1,1.482-.916,3.893,3.893,0,0,1-1.688-2.861,1.629,1.629,0,0,1,.442-1.242,4.414,4.414,0,0,1,3.209-.895c.378,0,.731.018,1.021.039a2.408,2.408,0,0,1,.212-1.991,2.177,2.177,0,0,1,1.925-.773c.316,0,.622.028.867.051.154.014.3.028.387.028.284,0,1.15,0,7.567,3.262,2.03,1.032,4.083,2.122,5.584,2.942-.207-.344-.411-.714-.6-1.1-.582-1.176-1.192-2.827-.789-4.009A1.8,1.8,0,0,1,47.66,179.889ZM75,201.033c-1.753-.459-7.743-2.226-10.08-5.464-2.786-3.863-8.514-10.313-12.526-12.56l-.371-.208c-1.826-1.026-3.4-1.911-4.359-1.911h0c-.321,0-.646.083-.849.682a4.975,4.975,0,0,0,.738,3.244,12.133,12.133,0,0,0,1.781,2.71c.071.043.127.079.17.108a.537.537,0,0,1,.269.6l-.1.366-.385,0a.541.541,0,0,1-.134-.017,1.025,1.025,0,0,1-.43-.263c-1-.595-4.275-2.378-7.5-4.018-5.756-2.926-6.9-3.154-7.114-3.154-.133,0-.294-.015-.48-.032-.236-.022-.5-.047-.775-.047-.58,0-.942.114-1.108.349-.221.313-.173.96.134,1.821l.279.782-.822-.119a12.96,12.96,0,0,0-1.641-.108,3.726,3.726,0,0,0-2.482.582.628.628,0,0,0-.17.5c.105,1.863,2.409,2.761,2.432,2.77l-.2.967h-.1a2.875,2.875,0,0,0-2.124.692,1.235,1.235,0,0,0-.073,1.141c.75,2.42,4.143,4.3,4.177,4.315l-.243.939a2.521,2.521,0,0,0-1.769.658,1.318,1.318,0,0,0-.121,1.2c.224.826,3.033,3.6,8.8,7.918a89.253,89.253,0,0,0,12.742,8.263,44.2,44.2,0,0,0,10.117,3.354l.063.01.058.026,9.787,4.3Z" transform="translate(-26.379 -180.389)" fill="#d3d8e6"/>
          </g>
        </g>
        <g id="Group_18775" data-name="Group 18775" transform="translate(4.683 2.687)">
          <g id="Group_18774" data-name="Group 18774">
            <g id="Group_18773" data-name="Group 18773">
              <path id="Path_53891" data-name="Path 53891" d="M41.344,189.555a.34.34,0,0,1-.377.022l-12.481-7.443a.345.345,0,0,1-.123-.469.352.352,0,0,1,.469-.116l12.479,7.443a.345.345,0,0,1,.123.469A.474.474,0,0,1,41.344,189.555Z" transform="translate(-28.317 -181.501)" fill="#fff"/>
              <path id="Path_53891_-_Outline" data-name="Path 53891 - Outline" d="M41.136,190.123A.823.823,0,0,1,40.71,190l-12.479-7.441a.844.844,0,0,1-.3-1.15l.026-.04a.878.878,0,0,1,.707-.371.824.824,0,0,1,.427.12l12.474,7.44a.845.845,0,0,1,.3,1.151l-.013.023-.016.021a.966.966,0,0,1-.184.192l-.013.01A.858.858,0,0,1,41.136,190.123Z" transform="translate(-28.317 -181.501)" fill="#d3d8e6"/>
            </g>
          </g>
        </g>
        <g id="Group_18778" data-name="Group 18778" transform="translate(2.576 7.383)">
          <g id="Group_18777" data-name="Group 18777">
            <g id="Group_18776" data-name="Group 18776">
              <path id="Path_53892" data-name="Path 53892" d="M40.158,190.071a.331.331,0,0,1-.353.031l-12.172-6.012a.335.335,0,0,1-.152-.454.325.325,0,0,1,.454-.152L40.105,189.5a.335.335,0,0,1,.152.454A.285.285,0,0,1,40.158,190.071Z" transform="translate(-27.445 -183.445)" fill="#fff"/>
              <path id="Path_53892_-_Outline" data-name="Path 53892 - Outline" d="M39.954,190.64a.821.821,0,0,1-.376-.091l-12.167-6.01a.826.826,0,0,1-.422-.478.837.837,0,0,1,.036-.632.815.815,0,0,1,.75-.485.849.849,0,0,1,.384.093l12.166,6.011a.826.826,0,0,1,.422.478.836.836,0,0,1-.034.627.784.784,0,0,1-.253.316A.848.848,0,0,1,39.954,190.64Z" transform="translate(-27.445 -183.445)" fill="#d3d8e6"/>
            </g>
          </g>
        </g>
        <g id="Group_18781" data-name="Group 18781" transform="translate(4.195 14.472)">
          <g id="Group_18780" data-name="Group 18780">
            <g id="Group_18779" data-name="Group 18779">
              <path id="Path_53893" data-name="Path 53893" d="M37.38,190.747a.331.331,0,0,1-.341.039l-8.719-3.753a.34.34,0,1,1,.273-.623l8.719,3.755a.336.336,0,0,1,.176.445A.359.359,0,0,1,37.38,190.747Z" transform="translate(-28.115 -186.378)" fill="#fff"/>
              <path id="Path_53893_-_Outline" data-name="Path 53893 - Outline" d="M37.176,191.316a.814.814,0,0,1-.34-.074l-8.713-3.75a.839.839,0,0,1-.442-1.1l.012-.027a.853.853,0,0,1,.764-.489.817.817,0,0,1,.339.074l8.71,3.752a.822.822,0,0,1,.448.454.844.844,0,0,1-.008.651.862.862,0,0,1-.257.33l-.011.009A.849.849,0,0,1,37.176,191.316Z" transform="translate(-28.115 -186.378)" fill="#d3d8e6"/>
            </g>
          </g>
        </g>
        <g id="Group_18783" data-name="Group 18783" transform="translate(20.847 6.395)">
          <g id="Group_18782" data-name="Group 18782">
            <path id="Path_53894" data-name="Path 53894" d="M35.006,183.036l.437.234c.022.022.877.244,3.717,2.547a.444.444,0,0,1,.06.609.433.433,0,0,1-.609.065A21.416,21.416,0,0,1,35.006,183.036Z" transform="translate(-35.006 -183.036)" fill="#fff"/>
            <path id="Path_53894_-_Outline" data-name="Path 53894 - Outline" d="M35.242,182.6l.423.227a19.182,19.182,0,0,1,3.81,2.607l.028.025a.947.947,0,0,1,.1,1.29.933.933,0,0,1-1.309.137,21.746,21.746,0,0,1-3.7-3.554Z" transform="translate(-35.006 -183.036)" fill="#d3d8e6"/>
          </g>
        </g>
      </g>
      <g id="Group_18785" data-name="Group 18785" transform="translate(249.112 78.081)">
        <path id="Path_53895" data-name="Path 53895" d="M129.783,212.267h-.034a.314.314,0,0,1-.28-.346c2-19.279,4.323-30.989,4.35-31.108a.3.3,0,0,1,.367-.244.313.313,0,0,1,.246.372c-.019.114-2.344,11.8-4.335,31.045A.318.318,0,0,1,129.783,212.267Z" transform="translate(-129.467 -180.56)" fill="#fff"/>
        <path id="Path_53895_-_Outline" data-name="Path 53895 - Outline" d="M129.783,212.767h-.061l-.027,0a.813.813,0,0,1-.55-.3.8.8,0,0,1-.172-.6c1.98-19.126,4.254-30.647,4.355-31.145a.814.814,0,0,1,1.473-.3.815.815,0,0,1,.123.617l-.011.06c-.4,2.077-2.5,13.331-4.317,30.939l0,.015A.822.822,0,0,1,129.783,212.767Z" transform="translate(-129.467 -180.56)" fill="#d3d8e6"/>
      </g>
      <g id="Group_18786" data-name="Group 18786" transform="translate(143.235 81.958)">
        <path id="Path_53896" data-name="Path 53896" d="M85.97,231.013a.488.488,0,0,1-.1-.015.323.323,0,0,1-.2-.4c6.288-19.4,16.729-47.943,16.836-48.228a.313.313,0,1,1,.587.215c-.1.288-10.541,28.817-16.821,48.214A.322.322,0,0,1,85.97,231.013Z" transform="translate(-85.653 -182.164)" fill="#fff"/>
        <path id="Path_53896_-_Outline" data-name="Path 53896 - Outline" d="M85.97,231.513a.946.946,0,0,1-.207-.026l-.027-.006-.026-.009a.822.822,0,0,1-.519-1.027c6.327-19.525,16.751-48,16.844-48.251a.8.8,0,0,1,.76-.531.875.875,0,0,1,.256.039l.018.006a.8.8,0,0,1,.465.418.821.821,0,0,1,.028.627l-.2.561c-3.254,8.946-11.386,31.5-16.612,47.637l-.005.015A.822.822,0,0,1,85.97,231.513Z" transform="translate(-85.653 -182.164)" fill="#d3d8e6"/>
      </g>
      <g id="Group_18787" data-name="Group 18787" transform="translate(192.24 57.771)">
        <path id="Path_53897" data-name="Path 53897" d="M133.671,193.568c-9.893,0-26.937-20.033-27.664-20.891a.315.315,0,0,1,.039-.445.305.305,0,0,1,.442.039c.174.205,17.582,20.666,27.183,20.666h.181a.317.317,0,0,1,.314.307.312.312,0,0,1-.307.321C133.8,193.568,133.738,193.568,133.671,193.568Z" transform="translate(-105.932 -172.155)" fill="#fff"/>
        <path id="Path_53897_-_Outline" data-name="Path 53897 - Outline" d="M133.671,194.068c-2.357,0-5.271-1.084-8.661-3.221a65.209,65.209,0,0,1-8.946-7.034A131.176,131.176,0,0,1,105.625,173a.816.816,0,0,1,.079-1.134.767.767,0,0,1,.536-.212.814.814,0,0,1,.631.3,133.194,133.194,0,0,0,10.011,10.362c7.181,6.623,12.986,10.123,16.788,10.123h.181a.815.815,0,0,1,.814.786.8.8,0,0,1-.221.587.817.817,0,0,1-.57.255C133.806,194.068,133.74,194.068,133.671,194.068Z" transform="translate(-105.932 -172.155)" fill="#d3d8e6"/>
      </g>
      <g id="Group_18788" data-name="Group 18788" transform="translate(225.168 47.853)">
        <path id="Path_53898" data-name="Path 53898" d="M121.945,181.929h-.027a.314.314,0,0,1-.288-.338c.662-8.622-2-13.013-2.023-13.056a.315.315,0,1,1,.534-.336c.114.184,2.8,4.594,2.117,13.438A.314.314,0,0,1,121.945,181.929Z" transform="translate(-119.559 -168.051)" fill="#fff"/>
        <path id="Path_53898_-_Outline" data-name="Path 53898 - Outline" d="M121.945,182.429l-.068,0a.81.81,0,0,1-.745-.871,28.7,28.7,0,0,0-.729-9.551,13.63,13.63,0,0,0-1.22-3.208.814.814,0,0,1,.26-1.122.822.822,0,0,1,.435-.125.806.806,0,0,1,.69.385,14.344,14.344,0,0,1,1.414,3.6,30.2,30.2,0,0,1,.776,10.135A.817.817,0,0,1,121.945,182.429Z" transform="translate(-119.559 -168.051)" fill="#d3d8e6"/>
      </g>
      <g id="Group_18789" data-name="Group 18789" transform="translate(144.955 500.572)">
        <path id="Path_53899" data-name="Path 53899" d="M112.729,377.724l-9.777,8.2L86.364,355.4Z" transform="translate(-86.364 -355.396)" fill="#fff"/>
        <path id="Path_53899_-_Outline" data-name="Path 53899 - Outline" d="M102.8,386.7,85.925,355.635l.762-.62L113.5,377.726ZM88.078,357.5,103.1,385.147l8.854-7.425Z" transform="translate(-86.364 -355.396)" fill="#d3d8e6"/>
      </g>
      <g id="Group_18790" data-name="Group 18790" transform="translate(328.603 158.123)">
        <path id="Path_53900" data-name="Path 53900" d="M162.681,226.933a.309.309,0,0,1-.179-.053.329.329,0,0,1-.087-.449,1.454,1.454,0,0,1,.2-.205c2.325-2.192,6.085-6.682,5.157-12.172a.3.3,0,0,1,.254-.362.3.3,0,0,1,.36.254c.984,5.78-2.924,10.463-5.338,12.735-.065.06-.106.1-.126.118A.269.269,0,0,1,162.681,226.933Z" transform="translate(-162.362 -213.683)" fill="#fff"/>
        <path id="Path_53900_-_Outline" data-name="Path 53900 - Outline" d="M162.681,227.433a.811.811,0,0,1-.46-.14.825.825,0,0,1-.227-1.132l.019-.027a1.883,1.883,0,0,1,.263-.275c2.248-2.119,5.89-6.463,5-11.718a.812.812,0,1,1,1.6-.27c1.017,6.009-3,10.832-5.49,13.172l-.082.076A.767.767,0,0,1,162.681,227.433Z" transform="translate(-162.362 -213.683)" fill="#d3d8e6"/>
      </g>
      <g id="Group_18807" data-name="Group 18807" transform="translate(178.729)">
        <g id="Group_18791" data-name="Group 18791">
          <path id="Path_53901" data-name="Path 53901" d="M108.6,172.8c-4.741-4.48-9.246-10.712-8.064-17.575.491-2.842,2.774-5.894,5.311-5.188.684.188,1.281.636,1.955.86,2.569.865,5.1-1.561,7.74-2.344a11.11,11.11,0,0,1,5.075-.027,74.21,74.21,0,0,1,11.435,3.279c2.663.921,5.4,1.882,7.542,3.8,3.349,3,4.741,7.8,6.819,11.952,1.708,3.415,4.038,6.858,3.656,10.79-.242,2.47-1.537,4.681-2.793,6.786-1.812,3.03-3.811,6.232-6.858,7.634-2.706,1.244-5.739.826-8.6.387-4.135-.638-7.958-1.6-10.741-5.123a13.659,13.659,0,0,1-1.22-2.586,20.446,20.446,0,0,0-1.626-2.762,34.15,34.15,0,0,0-4.253-4.886C112.218,176.086,110.374,174.484,108.6,172.8Z" transform="translate(-100.341 -148.248)" fill="#fff"/>
          <path id="Path_53901_-_Outline" data-name="Path 53901 - Outline" d="M136.212,194.1a29.317,29.317,0,0,1-4.477-.444,25.954,25.954,0,0,1-5.994-1.512,12.327,12.327,0,0,1-5.064-3.795,6.7,6.7,0,0,1-.907-1.789c-.121-.314-.236-.611-.371-.889a20.03,20.03,0,0,0-1.587-2.695,33.024,33.024,0,0,0-4.192-4.814c-1.028-1.007-2.109-1.994-3.155-2.948-.729-.665-1.482-1.353-2.213-2.043a31.626,31.626,0,0,1-6.352-8.024,15.512,15.512,0,0,1-1.861-10,8.632,8.632,0,0,1,1.717-3.834,4.424,4.424,0,0,1,3.342-1.872,3.282,3.282,0,0,1,.879.121,6,6,0,0,1,1.145.489,6.093,6.093,0,0,0,.834.378,3.016,3.016,0,0,0,.979.158,8.764,8.764,0,0,0,3.721-1.3,16.274,16.274,0,0,1,2.74-1.206,8.506,8.506,0,0,1,2.444-.33,16.367,16.367,0,0,1,2.859.29,74.888,74.888,0,0,1,11.512,3.3c2.559.885,5.46,1.888,7.712,3.9,2.556,2.287,4.007,5.59,5.411,8.784.485,1.1.986,2.245,1.523,3.317.287.573.6,1.161.9,1.729,1.543,2.909,3.138,5.917,2.807,9.332-.257,2.631-1.641,4.949-2.862,6.994-2.066,3.454-4.024,6.427-7.078,7.832A10.368,10.368,0,0,1,136.212,194.1ZM105.1,150.438c-1.933,0-3.667,2.521-4.074,4.876-1.181,6.858,3.652,13.1,7.915,17.127.725.685,1.475,1.369,2.2,2.032,1.052.96,2.139,1.953,3.18,2.972a34.436,34.436,0,0,1,4.314,4.958,21.027,21.027,0,0,1,1.666,2.83c.152.315.28.645.4.964a5.881,5.881,0,0,0,.759,1.529c2.765,3.5,6.667,4.359,10.425,4.939a28.512,28.512,0,0,0,4.325.433,9.4,9.4,0,0,0,3.993-.779c2.794-1.285,4.659-4.128,6.638-7.436,1.167-1.954,2.489-4.17,2.725-6.578.3-3.116-1.221-5.988-2.695-8.767-.3-.574-.619-1.167-.911-1.75-.548-1.095-1.054-2.248-1.544-3.362-1.36-3.1-2.767-6.3-5.162-8.441-2.1-1.879-4.9-2.847-7.372-3.7a74.137,74.137,0,0,0-11.357-3.259,15.43,15.43,0,0,0-2.688-.275,7.523,7.523,0,0,0-2.16.289,15.548,15.548,0,0,0-2.566,1.136,9.583,9.583,0,0,1-4.179,1.413,4.054,4.054,0,0,1-1.3-.21,6.934,6.934,0,0,1-.973-.437,5.174,5.174,0,0,0-.955-.415A2.285,2.285,0,0,0,105.1,150.438Z" transform="translate(-100.341 -148.248)" fill="#d3d8e6"/>
        </g>
        <g id="Group_18794" data-name="Group 18794" transform="translate(25.75 34.338)">
          <g id="Group_18793" data-name="Group 18793">
            <g id="Group_18792" data-name="Group 18792">
              <path id="Path_53902" data-name="Path 53902" d="M131.257,164.328c.771,6.566,2.117,16.084,2.96,17.848,0,0,1.307,20.806-8.395,25.018-1.155.5-5.722-1.706-7.056-3.253-2.073-2.409-9.069-18.348-7.556-23.834.819-2.965,2.636-8.97,4.246-17.65Z" transform="translate(-110.997 -162.458)" fill="#fff"/>
              <path id="Path_53902_-_Outline" data-name="Path 53902 - Outline" d="M115.049,161.906l16.658,1.972.046.392c.9,7.637,2.186,16.166,2.915,17.691l.042.088.006.1a58.126,58.126,0,0,1-.564,11.037,30.134,30.134,0,0,1-2.476,8.545,11.667,11.667,0,0,1-5.655,5.925,1.573,1.573,0,0,1-.635.114,10.324,10.324,0,0,1-3.68-1.193,11.628,11.628,0,0,1-3.319-2.305c-1.17-1.359-3.508-6.257-5.214-10.918-1.306-3.57-3.361-10.056-2.446-13.375.1-.378.222-.794.358-1.277.926-3.282,2.477-8.775,3.878-16.331Zm15.757,2.872-14.946-1.769c-1.386,7.364-2.9,12.729-3.813,15.96-.136.481-.253.9-.357,1.271-.614,2.228.268,6.881,2.421,12.766,1.813,4.955,4.066,9.486,5.032,10.609,1.118,1.3,4.793,3.152,6.242,3.152a.628.628,0,0,0,.236-.031c4.8-2.084,6.749-8.595,7.539-13.69a57.289,57.289,0,0,0,.562-10.749C132.811,180.177,131.489,170.519,130.806,164.779Z" transform="translate(-110.997 -162.458)" fill="#d3d8e6"/>
            </g>
          </g>
        </g>
        <g id="Group_18795" data-name="Group 18795" transform="translate(30.124 34.338)">
          <path id="Path_53903" data-name="Path 53903" d="M131.18,180.589c0,.012.007.063.007.072-14.745-6.445-17.94-15.159-18.38-17.788.029-.15.058-.266.085-.416l15.8,1.87c-.007.116.06.614.155,1.261C129.49,170.882,130.423,177.44,131.18,180.589Z" transform="translate(-112.807 -162.458)" fill="#fff"/>
          <path id="Path_53903_-_Outline" data-name="Path 53903 - Outline" d="M131.687,181.426l-.7-.306c-6.408-2.8-11.368-6.322-14.742-10.467a17.407,17.407,0,0,1-3.931-7.7l-.015-.089.017-.089c.013-.068.026-.129.039-.189s.03-.142.044-.219l.082-.465,16.74,1.981-.029.465c0,.1.052.492.15,1.166l0,.012c.627,5.161,1.566,11.8,2.322,14.943l.014.058v.04a.737.737,0,0,1,.007.091Zm-18.345-18.411a16.921,16.921,0,0,0,3.678,7.006c3.115,3.826,7.644,7.114,13.471,9.781-.724-3.429-1.563-9.408-2.139-14.146-.059-.4-.1-.682-.121-.879Z" transform="translate(-112.807 -162.458)" fill="#d3d8e6"/>
        </g>
        <g id="Group_18798" data-name="Group 18798" transform="translate(25.88 16.142)">
          <g id="Group_18797" data-name="Group 18797">
            <g id="Group_18796" data-name="Group 18796">
              <path id="Path_53904" data-name="Path 53904" d="M116.938,156.907c8.566-6.024,12.619,3.627,12.619,3.627s5,8.363,4.067,14.187c-.075.471-.167.916-.273,1.339a7.5,7.5,0,0,1-9.6,5.394c-.425-.133-.865-.29-1.317-.476-5.478-2.24-10.043-10.843-10.043-10.843S107.313,161.051,116.938,156.907Z" transform="translate(-111.051 -154.928)" fill="#fff"/>
              <path id="Path_53904_-_Outline" data-name="Path 53904 - Outline" d="M122.291,154.428a7.7,7.7,0,0,1,5.855,2.977,12.45,12.45,0,0,1,1.858,2.9,39.353,39.353,0,0,1,2.4,4.951c1.538,3.826,2.115,7.037,1.714,9.543-.075.47-.17.935-.282,1.382a7.983,7.983,0,0,1-7.769,6.127,8.329,8.329,0,0,1-2.467-.378c-.458-.143-.915-.308-1.359-.491-2.355-.963-4.807-3.124-7.285-6.423a39.1,39.1,0,0,1-3.007-4.643c-.128-.232-2.324-4.286-.951-8.328.82-2.416,2.736-4.292,5.7-5.577A9.9,9.9,0,0,1,122.291,154.428Zm3.775,26.881a6.942,6.942,0,0,0,6.8-5.37c.105-.419.194-.855.264-1.3.891-5.58-3.953-13.77-4-13.852l-.018-.03-.014-.033a11.531,11.531,0,0,0-1.727-2.692,6.636,6.636,0,0,0-5.078-2.608,8.971,8.971,0,0,0-5.065,1.888l-.042.03-.048.02c-2.715,1.169-4.461,2.851-5.191,5-1.242,3.658.858,7.486.88,7.524l.005.009c.045.084,4.545,8.47,9.791,10.614.419.172.848.328,1.277.462A7.328,7.328,0,0,0,126.066,181.309Z" transform="translate(-111.051 -154.928)" fill="#d3d8e6"/>
            </g>
          </g>
        </g>
        <g id="Group_18799" data-name="Group 18799" transform="translate(37.435 35.858)">
          <path id="Path_53905" data-name="Path 53905" d="M115.836,163.094c2.646,1.508,3.84-.007,3.84-.007a3.359,3.359,0,0,1-2.165,2.644C115.674,166.216,115.836,163.094,115.836,163.094Z" transform="translate(-115.832 -163.087)" fill="#fff"/>
          <path id="Path_53905_-_Outline" data-name="Path 53905 - Outline" d="M115.379,162.258l.7.4a3.969,3.969,0,0,0,1.919.6,1.692,1.692,0,0,0,1.285-.491l0,.006.887.385a3.832,3.832,0,0,1-2.531,3.051,1.945,1.945,0,0,1-.5.068,1.463,1.463,0,0,1-1.085-.467,4.284,4.284,0,0,1-.722-2.747Zm2.623,2a4.329,4.329,0,0,1-1.636-.352,2.292,2.292,0,0,0,.418,1.217.461.461,0,0,0,.359.154.948.948,0,0,0,.239-.035,2.266,2.266,0,0,0,1.35-1.07A3.094,3.094,0,0,1,118,164.263Z" transform="translate(-115.832 -163.087)" fill="#d3d8e6"/>
        </g>
        <g id="Group_18800" data-name="Group 18800" transform="translate(44.415 27.358)">
          <path id="Path_53906" data-name="Path 53906" d="M118.89,160.973c.251.65.143-.549.44-.662s.884.9.633.246-.7-1.085-.993-.969S118.636,160.323,118.89,160.973Z" transform="translate(-118.721 -159.569)" fill="#fff"/>
          <path id="Path_53906_-_Outline" data-name="Path 53906 - Outline" d="M119.008,161.665h0c-.386,0-.53-.372-.584-.512a2.166,2.166,0,0,1-.093-1.576.823.823,0,0,1,.461-.456.772.772,0,0,1,.28-.052c.629,0,1.124.7,1.358,1.307a.69.69,0,0,1,0,.678.509.509,0,0,1-.42.221.6.6,0,0,1-.438-.211C119.526,161.308,119.411,161.665,119.008,161.665Z" transform="translate(-118.721 -159.569)" fill="#d3d8e6"/>
        </g>
        <g id="Group_18801" data-name="Group 18801" transform="translate(38.84 29.206)">
          <path id="Path_53907" data-name="Path 53907" d="M116.581,161.738c.251.65.145-.549.442-.662s.884.9.633.246-.7-1.085-.993-.969S116.33,161.088,116.581,161.738Z" transform="translate(-116.414 -160.334)" fill="#fff"/>
          <path id="Path_53907_-_Outline" data-name="Path 53907 - Outline" d="M116.7,162.43h0c-.387,0-.531-.372-.585-.512-.373-.966-.223-1.8.367-2.031a.771.771,0,0,1,.283-.053c.626,0,1.123.7,1.358,1.306a.691.691,0,0,1,0,.68.509.509,0,0,1-.42.221.6.6,0,0,1-.438-.211c-.01.053-.021.1-.034.151A.55.55,0,0,1,116.7,162.43Z" transform="translate(-116.414 -160.334)" fill="#d3d8e6"/>
        </g>
        <g id="Group_18802" data-name="Group 18802" transform="translate(42.765 25.294)">
          <path id="Path_53908" data-name="Path 53908" d="M118.241,160.906h-.027a.2.2,0,0,1-.174-.227,2.16,2.16,0,0,1,1.022-1.793,2.608,2.608,0,0,1,2.136.189.207.207,0,0,1,.075.275.2.2,0,0,1-.273.08,2.235,2.235,0,0,0-1.759-.184,1.784,1.784,0,0,0-.8,1.486A.2.2,0,0,1,118.241,160.906Z" transform="translate(-118.038 -158.715)" fill="#fff"/>
          <path id="Path_53908_-_Outline" data-name="Path 53908 - Outline" d="M118.241,161.406h-.065l-.038-.006a.7.7,0,0,1-.593-.786,2.622,2.622,0,0,1,1.293-2.175,2.189,2.189,0,0,1,.995-.225,3.674,3.674,0,0,1,1.587.411l.041.023a.706.706,0,0,1,.256.934.688.688,0,0,1-.615.374.714.714,0,0,1-.341-.088l-.006,0a2.347,2.347,0,0,0-.932-.248.766.766,0,0,0-.352.073l0,0c-.341.172-.476.695-.529,1.1v.007A.706.706,0,0,1,118.241,161.406Z" transform="translate(-118.038 -158.715)" fill="#d3d8e6"/>
        </g>
        <g id="Group_18803" data-name="Group 18803" transform="translate(36.92 27.398)">
          <path id="Path_53909" data-name="Path 53909" d="M115.822,161.78h-.027a.205.205,0,0,1-.174-.227,2.144,2.144,0,0,1,1.027-1.786,2.513,2.513,0,0,1,2.131.186.2.2,0,0,1,.075.273.2.2,0,0,1-.275.082,2.166,2.166,0,0,0-1.757-.181,1.788,1.788,0,0,0-.8,1.479A.2.2,0,0,1,115.822,161.78Z" transform="translate(-115.619 -159.586)" fill="#fff"/>
          <path id="Path_53909_-_Outline" data-name="Path 53909 - Outline" d="M115.822,162.28h-.065l-.038-.006a.7.7,0,0,1-.593-.786,2.605,2.605,0,0,1,1.293-2.165,2.126,2.126,0,0,1,1-.237,3.6,3.6,0,0,1,1.579.42l.039.022a.7.7,0,0,1,.258.927.684.684,0,0,1-.617.379.741.741,0,0,1-.323-.076l-.03-.016a2.187,2.187,0,0,0-.907-.247.824.824,0,0,0-.375.079c-.343.174-.477.693-.53,1.1v.007A.706.706,0,0,1,115.822,162.28Z" transform="translate(-115.619 -159.586)" fill="#d3d8e6"/>
        </g>
        <g id="Group_18804" data-name="Group 18804" transform="translate(24.882 28.124)">
          <path id="Path_53910" data-name="Path 53910" d="M114.57,162.29s-1.592-3.26-3.214-2.187-.568,7.979,3.893,6.836S114.57,162.29,114.57,162.29Z" transform="translate(-110.638 -159.886)" fill="#fff"/>
          <path id="Path_53910_-_Outline" data-name="Path 53910 - Outline" d="M112.037,159.386h0c1.481,0,2.63,2.005,2.922,2.566.587.418,2.865,2.154,2.585,3.746-.143.812-.873,1.393-2.171,1.725a4.374,4.374,0,0,1-1.082.143c-1.774,0-3.215-1.267-3.853-3.39-.495-1.644-.437-3.776.643-4.491A1.714,1.714,0,0,1,112.037,159.386Zm2.254,7.18a3.376,3.376,0,0,0,.834-.112c.607-.156,1.349-.443,1.434-.93.151-.858-1.465-2.272-2.271-2.822l-.109-.075-.058-.119c-.4-.821-1.325-2.123-2.084-2.123h0a.723.723,0,0,0-.405.134c-.492.326-.7,1.835-.237,3.368C111.637,164.694,112.4,166.566,114.291,166.566Z" transform="translate(-110.638 -159.886)" fill="#d3d8e6"/>
        </g>
        <g id="Group_18805" data-name="Group 18805" transform="translate(26.042 29.643)">
          <path id="Path_53911" data-name="Path 53911" d="M112.885,165.251a.634.634,0,0,1-.362-.109,4.688,4.688,0,0,1-1.288-4.12.639.639,0,0,1,.493-.5.412.412,0,0,1,.094-.007c.723,0,1.711,1.278,1.824,1.433a.157.157,0,1,1-.254.186c-.389-.517-1.143-1.3-1.563-1.3l-.046,0c-.041.007-.162.027-.256.292a4.4,4.4,0,0,0,1.17,3.758.414.414,0,0,0,.469-.039.917.917,0,0,0,.462-.8c-.027-.2-.174-.35-.449-.437-.481-.155-.573-.077-.573-.077a.553.553,0,0,0,.14.341.163.163,0,0,1-.034.222.156.156,0,0,1-.22-.034c-.056-.077-.321-.469-.14-.715s.626-.133.921-.036a.858.858,0,0,1,.669.7,1.251,1.251,0,0,1-.609,1.107A.886.886,0,0,1,112.885,165.251Z" transform="translate(-111.118 -160.515)" fill="#fff"/>
          <path id="Path_53911_-_Outline" data-name="Path 53911 - Outline" d="M112.885,165.751a1.134,1.134,0,0,1-.64-.193,4.359,4.359,0,0,1-1.274-1.956,4.412,4.412,0,0,1-.21-2.739,1.123,1.123,0,0,1,.874-.833.906.906,0,0,1,.187-.016c.972,0,2.019,1.354,2.225,1.634a.654.654,0,0,1-.127.913.642.642,0,0,1-.4.138.662.662,0,0,1-.523-.258l-.006-.007a5.052,5.052,0,0,0-1.025-1.031,3.02,3.02,0,0,0,.14,1.484.98.98,0,0,1,.612-.186,2.289,2.289,0,0,1,.7.131,1.349,1.349,0,0,1,1.01,1.1l0,.017a1.753,1.753,0,0,1-.845,1.593l0,0A1.371,1.371,0,0,1,112.885,165.751Z" transform="translate(-111.118 -160.515)" fill="#d3d8e6"/>
        </g>
        <g id="Group_18806" data-name="Group 18806" transform="translate(17.767 10.38)">
          <path id="Path_53912" data-name="Path 53912" d="M130.277,156.844c-1.286-1.539-7.5-5.87-12.247-3.707-1.271.58-9.13-1.914-10.079,3.663-1.525,8.936,4.2,9.255,4.309,10.65a5.993,5.993,0,0,0,1.242,3.518,3.032,3.032,0,0,0,3.407.942c.635-.292,1.257-.882,1.921-.667.36.118.638.462,1.017.474a1.118,1.118,0,0,0,.718-.338,6.192,6.192,0,0,0,2.139-4.35c.058-1.155-.2-2.4.375-3.407.875-1.534,3.062-1.563,4.79-1.206,1.4.29,2.97.73,4.376.234.848-.3.768-.657.466-1.406-.295-.732-.609-1.457-.974-2.158A12.271,12.271,0,0,0,130.277,156.844Z" transform="translate(-107.693 -152.543)" fill="#fff"/>
          <path id="Path_53912_-_Outline" data-name="Path 53912 - Outline" d="M120.9,152.043h0c4.286,0,8.658,3.162,9.759,4.48a12.673,12.673,0,0,1,1.52,2.334c.323.62.639,1.32.993,2.2a1.723,1.723,0,0,1,.159,1.36,1.47,1.47,0,0,1-.923.7,4.7,4.7,0,0,1-1.585.252,12.294,12.294,0,0,1-2.585-.368l-.473-.1a8.062,8.062,0,0,0-1.624-.178,2.9,2.9,0,0,0-2.63,1.141,4.232,4.232,0,0,0-.308,2.183c.008.328.016.666,0,1a6.73,6.73,0,0,1-2.314,4.705,1.582,1.582,0,0,1-1.056.458,1.65,1.65,0,0,1-.86-.332,1.506,1.506,0,0,0-.3-.167.445.445,0,0,0-.138-.021,2.034,2.034,0,0,0-.862.365,6.233,6.233,0,0,1-.556.3,2.861,2.861,0,0,1-1.2.257,3.817,3.817,0,0,1-2.792-1.327,6.422,6.422,0,0,1-1.362-3.808c-.01-.133-.521-.485-.825-.7-1.625-1.121-4.649-3.208-3.477-10.075a4.429,4.429,0,0,1,2.448-3.421,8.712,8.712,0,0,1,3.892-.729c.794,0,1.552.053,2.221.1.506.035.943.066,1.286.066a1.49,1.49,0,0,0,.518-.05A7.375,7.375,0,0,1,120.9,152.043ZM132.421,162a2.152,2.152,0,0,0-.174-.574c-.342-.85-.645-1.522-.954-2.114a11.7,11.7,0,0,0-1.4-2.153c-.979-1.173-5.092-4.12-8.991-4.121h0a6.382,6.382,0,0,0-2.664.548,2.271,2.271,0,0,1-.932.14c-.378,0-.831-.032-1.356-.069-.652-.046-1.392-.1-2.151-.1a7.772,7.772,0,0,0-3.446.624,3.435,3.435,0,0,0-1.908,2.694c-1.065,6.239,1.517,8.02,3.059,9.084.675.466,1.208.834,1.255,1.443a5.468,5.468,0,0,0,1.121,3.229,2.792,2.792,0,0,0,2.036.981,1.868,1.868,0,0,0,.785-.166c.148-.068.3-.159.466-.255a2.763,2.763,0,0,1,1.37-.5,1.453,1.453,0,0,1,.448.07,2.284,2.284,0,0,1,.534.278.922.922,0,0,0,.346.172.74.74,0,0,0,.376-.218,5.713,5.713,0,0,0,1.965-4c.015-.3.008-.6,0-.929a5.022,5.022,0,0,1,.439-2.7,3.733,3.733,0,0,1,3.5-1.647,9.059,9.059,0,0,1,1.827.2l.482.1a11.553,11.553,0,0,0,2.374.345,3.723,3.723,0,0,0,1.253-.2A.871.871,0,0,0,132.421,162Z" transform="translate(-107.693 -152.543)" fill="#d3d8e6"/>
        </g>
      </g>
      <g id="Group_18808" data-name="Group 18808" transform="translate(215.687 53.74)">
        <path id="Path_53913" data-name="Path 53913" d="M115.951,197.861a.313.313,0,0,1-.08-.616c12.126-3.192,11.471-26.2,11.464-26.434a.273.273,0,0,1,.094-.23.29.29,0,0,1,.22-.094h.007l5.5.157a.314.314,0,0,1-.007.628h-.007l-5.176-.147c3.129,6.317,0,23.587-11.94,26.726A.3.3,0,0,1,115.951,197.861Z" transform="translate(-115.635 -170.487)" fill="#fff"/>
        <path id="Path_53913_-_Outline" data-name="Path 53913 - Outline" d="M115.951,198.361a.815.815,0,0,1-.787-.591l-.006-.023a.822.822,0,0,1,.587-.986c6.025-1.586,8.72-8.461,9.92-13.949a55.769,55.769,0,0,0,1.171-11.977.771.771,0,0,1,.24-.607.793.793,0,0,1,.574-.241h.022l5.5.157a.823.823,0,0,1,.575.26.8.8,0,0,1,.217.585.814.814,0,0,1-.814.784h-.021l-4.39-.125a17.25,17.25,0,0,1,.818,7.007,27.7,27.7,0,0,1-2.365,9.529,20.615,20.615,0,0,1-4.319,6.3,15.046,15.046,0,0,1-6.717,3.853A.792.792,0,0,1,115.951,198.361Zm11.891-26.271a56.26,56.26,0,0,1-1.2,10.936,28.4,28.4,0,0,1-3.439,9.042,15.344,15.344,0,0,1-2.09,2.657,19.016,19.016,0,0,0,5.173-6.954,26.677,26.677,0,0,0,2.277-9.177A16.391,16.391,0,0,0,127.842,172.09Z" transform="translate(-115.635 -170.487)" fill="#d3d8e6"/>
      </g>
      <g id="Group_18809" data-name="Group 18809" transform="translate(204.206 53.243)">
        <path id="Path_53914" data-name="Path 53914" d="M118.926,193.172a.319.319,0,0,1-.273-.157c-7.89-13.569-7.769-22.34-7.769-22.427a.309.309,0,0,1,.314-.307h.007a.315.315,0,0,1,.307.321c0,.087-.1,8.7,7.689,22.1a.314.314,0,0,1-.114.428A.308.308,0,0,1,118.926,193.172Z" transform="translate(-110.884 -170.281)" fill="#fff"/>
        <path id="Path_53914_-_Outline" data-name="Path 53914 - Outline" d="M118.926,193.672a.822.822,0,0,1-.7-.4l0,0a63.852,63.852,0,0,1-6.873-16.3,28,28,0,0,1-.964-6.374.812.812,0,0,1,.814-.808h.021a.815.815,0,0,1,.793.828c0,.368.051,8.822,7.622,21.841a.819.819,0,0,1-.292,1.11A.807.807,0,0,1,118.926,193.672Z" transform="translate(-110.884 -170.281)" fill="#d3d8e6"/>
      </g>
      <g id="Group_18810" data-name="Group 18810" transform="translate(102.729 53.928)">
        <path id="Path_53915" data-name="Path 53915" d="M165.721,170.565s-4.913,54.777-41.5,76.953-23.6,65.63-23.6,65.63-47.2-12.846-26.461-69.636S137.581,170.44,165.721,170.565Z" transform="translate(-68.891 -170.565)" fill="#fff"/>
        <path id="Path_53915_-_Outline" data-name="Path 53915 - Outline" d="M165.4,170.065h.325l.544,0-.049.542c0,.035-.321,3.511-1.346,8.953a147.622,147.622,0,0,1-5.711,21.329,111.176,111.176,0,0,1-12.61,25.528,72.09,72.09,0,0,1-22.076,21.526c-18.724,11.348-24.084,28.425-25.283,40.752a72.77,72.77,0,0,0,.461,17.242,55.529,55.529,0,0,0,1.442,7.065l.258.862-.868-.236a44.845,44.845,0,0,1-10.25-4.652,48.378,48.378,0,0,1-8.925-6.851,42.325,42.325,0,0,1-8.043-10.813,45.21,45.21,0,0,1-4.86-19.846c-.209-8.5,1.568-17.962,5.28-28.128a131.648,131.648,0,0,1,19.087-35.4,101.557,101.557,0,0,1,23.918-22.534,92.288,92.288,0,0,1,25.341-11.881,87.542,87.542,0,0,1,12.141-2.644A79.407,79.407,0,0,1,165.4,170.065ZM99.9,312.4a62.66,62.66,0,0,1-1.232-6.315A73.786,73.786,0,0,1,98.2,288.6a56.386,56.386,0,0,1,6.456-21.712,52.563,52.563,0,0,1,19.3-19.8c18.768-11.375,28.986-31.569,34.252-46.508a146.6,146.6,0,0,0,5.675-21.182c.785-4.164,1.152-7.164,1.281-8.337-31.03.1-71.039,19.211-90.54,72.619-6.83,18.7-6.989,34.575-.471,47.172a44.2,44.2,0,0,0,16.595,17.266A47.5,47.5,0,0,0,99.9,312.4Z" transform="translate(-68.891 -170.565)" fill="#d3d8e6"/>
      </g>
      <g id="Group_18811" data-name="Group 18811" transform="translate(279.261 324.715)">
        <path id="Path_53916" data-name="Path 53916" d="M178.581,282.622,141.944,396.848l.538-40.57Z" transform="translate(-141.944 -282.622)" fill="#fff"/>
        <path id="Path_53916_-_Outline" data-name="Path 53916 - Outline" d="M178.132,282.4l.925.373L142.42,397l-.976-.159.539-40.683.049-.1ZM142.488,393.514l33.52-104.5L142.98,356.4Z" transform="translate(-141.944 -282.622)" fill="#d3d8e6"/>
      </g>
      <g id="Group_18812" data-name="Group 18812" transform="translate(213.751 26.157)">
        <path id="Path_53917" data-name="Path 53917" d="M118.317,166.012a3.22,3.22,0,0,1-.587-.053,3.466,3.466,0,0,1-1.431-6.249,3.519,3.519,0,0,1,2.586-.592,3.472,3.472,0,0,1,2.847,4h0a3.475,3.475,0,0,1-3.415,2.895Zm-.014-6.544a3.074,3.074,0,0,0-2.5,4.848,3.067,3.067,0,0,0,5.527-1.266h0a3.066,3.066,0,0,0-2.513-3.538A3.436,3.436,0,0,0,118.3,159.468Z" transform="translate(-114.834 -159.072)" fill="#fff"/>
        <path id="Path_53917_-_Outline" data-name="Path 53917 - Outline" d="M118.317,166.512a3.7,3.7,0,0,1-.674-.061,3.966,3.966,0,0,1-1.632-7.15,3.989,3.989,0,0,1,2.31-.729,4.05,4.05,0,0,1,.644.052,3.971,3.971,0,0,1-.648,7.888Zm-.014-6.544a2.585,2.585,0,0,0-2.525,2.14,2.562,2.562,0,0,0,2.1,2.964,2.745,2.745,0,0,0,.433.035h0a2.513,2.513,0,0,0,1.477-.47,2.57,2.57,0,0,0-1.052-4.632A2.942,2.942,0,0,0,118.3,159.968Z" transform="translate(-114.834 -159.072)" fill="#d3d8e6"/>
      </g>
      <g id="Group_18813" data-name="Group 18813" transform="translate(220.378 23.421)">
        <path id="Path_53918" data-name="Path 53918" d="M121.053,164.88a3.646,3.646,0,0,1-.582-.048,3.47,3.47,0,0,1,.582-6.892,3.361,3.361,0,0,1,.58.051,3.469,3.469,0,0,1-.58,6.889Zm0-6.539a3.069,3.069,0,0,0-.515,6.094,3.432,3.432,0,0,0,.515.041,3.068,3.068,0,0,0,.515-6.092A3.445,3.445,0,0,0,121.053,158.341Z" transform="translate(-117.576 -157.94)" fill="#fff"/>
        <path id="Path_53918_-_Outline" data-name="Path 53918 - Outline" d="M121.053,165.38a4.152,4.152,0,0,1-.662-.055,3.98,3.98,0,1,1,.662.055Zm-.435-1.438a2.921,2.921,0,0,0,.435.035,2.568,2.568,0,0,0,.435-5.1,2.911,2.911,0,0,0-.435-.037,2.569,2.569,0,0,0-.435,5.1Z" transform="translate(-117.576 -157.94)" fill="#d3d8e6"/>
      </g>
      <g id="Group_18814" data-name="Group 18814" transform="translate(219.518 26.896)">
        <path id="Path_53919" data-name="Path 53919" d="M117.42,160.2a.2.2,0,0,1-.179-.114.2.2,0,0,1,.092-.268l.877-.421a.2.2,0,0,1,.172.36l-.875.423A.226.226,0,0,1,117.42,160.2Z" transform="translate(-117.221 -159.378)" fill="#fff"/>
        <path id="Path_53919_-_Outline" data-name="Path 53919 - Outline" d="M117.42,160.7a.7.7,0,0,1-.306-1.331l.872-.418a.68.68,0,0,1,.311-.075.7.7,0,0,1,.659.94.689.689,0,0,1-.36.394l-.881.426A.725.725,0,0,1,117.42,160.7Z" transform="translate(-117.221 -159.378)" fill="#d3d8e6"/>
      </g>
      <g id="Group_18815" data-name="Group 18815" transform="translate(205.508 28.88)">
        <path id="Path_53920" data-name="Path 53920" d="M111.624,161.267a.2.2,0,0,1-.2-.184.2.2,0,0,1,.186-.217l8.291-.667h.015a.2.2,0,0,1,.2.184.2.2,0,0,1-.188.215l-8.291.669Z" transform="translate(-111.423 -160.199)" fill="#fff"/>
        <path id="Path_53920_-_Outline" data-name="Path 53920 - Outline" d="M111.656,161.767h-.032a.7.7,0,0,1-.057-1.4l8.348-.669a.7.7,0,0,1,.054,1.4Z" transform="translate(-111.423 -160.199)" fill="#d3d8e6"/>
      </g>
      <g id="Group_18816" data-name="Group 18816" transform="translate(245.204 125.384)">
        <path id="Path_53921" data-name="Path 53921" d="M128.164,219.366h-.031a.313.313,0,0,1-.28-.346l1.984-18.6a.316.316,0,0,1,.628.065l-1.986,18.6A.314.314,0,0,1,128.164,219.366Z" transform="translate(-127.85 -200.135)" fill="#fff"/>
        <path id="Path_53921_-_Outline" data-name="Path 53921 - Outline" d="M128.164,219.866h-.059l-.027,0a.826.826,0,0,1-.555-.308.8.8,0,0,1-.167-.592l1.984-18.6a.82.82,0,0,1,.8-.732.718.718,0,0,1,.127.011.817.817,0,0,1,.527.3.8.8,0,0,1,.172.594l-1.987,18.6A.817.817,0,0,1,128.164,219.866Z" transform="translate(-127.85 -200.135)" fill="#d3d8e6"/>
      </g>
      <g id="Group_18817" data-name="Group 18817" transform="translate(245.518 128.388)">
        <path id="Path_53922" data-name="Path 53922" d="M129.679,201.378s3.673,14.03,8.75,18.544,6.841,7.883,6.841,7.883l-17.29-10.514Z" transform="translate(-127.98 -201.378)" fill="#fff"/>
        <path id="Path_53922_-_Outline" data-name="Path 53922 - Outline" d="M130.162,201.251c.036.139,3.693,13.936,8.6,18.3,5.084,4.525,6.878,7.883,6.952,8.024l.838,1.6-19.1-11.616,1.732-16.228Zm13.456,24.964A39.7,39.7,0,0,0,138.1,220.3c-2.166-1.926-4.324-5.681-6.414-11.16-.747-1.958-1.351-3.8-1.776-5.18l-1.4,13.073Z" transform="translate(-127.98 -201.378)" fill="#d3d8e6"/>
      </g>
      <g id="Group_18818" data-name="Group 18818" transform="translate(263.228 62.246)">
        <path id="Path_53923" data-name="Path 53923" d="M145.872,226.2a.308.308,0,0,1-.285-.193c-.7-1.66.285-4.3,1.643-7.95,2.177-5.874,5.171-13.919,3.76-23.979-1.576-11.266-15.386-19.4-15.526-19.482a.318.318,0,0,1,.321-.549c.14.085,14.209,8.376,15.833,19.943,1.423,10.217-1.6,18.348-3.8,24.283-1.257,3.388-2.252,6.061-1.658,7.493a.3.3,0,0,1-.167.406A.239.239,0,0,1,145.872,226.2Z" transform="translate(-135.309 -174.007)" fill="#fff"/>
        <path id="Path_53923_-_Outline" data-name="Path 53923 - Outline" d="M145.872,226.7a.808.808,0,0,1-.749-.507c-.767-1.843.242-4.557,1.639-8.311l.016-.042c2.156-5.816,5.108-13.782,3.718-23.693-.793-5.67-4.854-10.533-8.121-13.614a44.348,44.348,0,0,0-7.158-5.5l-.016-.01a.816.816,0,0,1-.282-1.106.8.8,0,0,1,.7-.407.876.876,0,0,1,.385.091l.043.024a46.68,46.68,0,0,1,7.548,5.83,34.68,34.68,0,0,1,5.347,6.354,20.4,20.4,0,0,1,3.169,8.115c1.44,10.34-1.6,18.538-3.826,24.523l-.016.042c-1.161,3.129-2.163,5.832-1.653,7.082a.786.786,0,0,1,.015.614.815.815,0,0,1-.426.443A.735.735,0,0,1,145.872,226.7Z" transform="translate(-135.309 -174.007)" fill="#d3d8e6"/>
      </g>
      <g id="Group_18819" data-name="Group 18819" transform="translate(102.407 53.609)">
        <path id="Path_53924" data-name="Path 53924" d="M100.809,313.65a.183.183,0,0,1-.08-.012c-.188-.048-18.274-5.138-27.106-22.222-6.626-12.805-6.486-28.894.428-47.82,19.7-53.953,60.122-73.155,91.515-73.155.205,0,.44-.053.58.1a.3.3,0,0,1,.08.237c-.046.551-5.35,55.19-41.66,77.19-18.779,11.384-24.158,28.512-25.366,40.873a71.043,71.043,0,0,0,1.909,24.4.3.3,0,0,1-.072.307A.318.318,0,0,1,100.809,313.65Zm64.757-142.581c-31.187,0-71.337,19.1-90.925,72.739-6.848,18.754-7,34.667-.462,47.315,7.849,15.178,23.121,20.758,26.175,21.746A72.68,72.68,0,0,1,98.571,288.8c1.215-12.505,6.66-29.841,25.673-41.366C158.771,226.509,165.059,175.745,165.566,171.069Z" transform="translate(-68.757 -170.432)" fill="#fff"/>
        <path id="Path_53924_-_Outline" data-name="Path 53924 - Outline" d="M100.809,314.15a.689.689,0,0,1-.236-.037c-.878-.247-18.618-5.493-27.393-22.468-6.7-12.939-6.56-29.163.4-48.221A132.856,132.856,0,0,1,91.845,209.1a103.338,103.338,0,0,1,23.29-22.727,92.1,92.1,0,0,1,25.509-12.57,84.029,84.029,0,0,1,24.921-3.866c.033,0,.067,0,.1,0s.1,0,.154,0a.9.9,0,0,1,.692.273.8.8,0,0,1,.211.618c0,.033-.339,3.609-1.43,9.253a149.719,149.719,0,0,1-5.828,21.425A112.008,112.008,0,0,1,146.8,226.989,71.974,71.974,0,0,1,124.824,248.4c-18.6,11.275-23.93,28.244-25.127,40.494a70.166,70.166,0,0,0,1.889,24.206l0,.008a.8.8,0,0,1-.2.8A.816.816,0,0,1,100.809,314.15Zm64.2-142.578c-30.868.231-70.519,19.346-89.9,72.408-6.8,18.613-6.961,34.4-.487,46.914,7.177,13.879,20.7,19.66,25.024,21.206a73.638,73.638,0,0,1-1.574-23.345c1.227-12.623,6.718-30.111,25.911-41.745,14.354-8.7,25.527-23.514,33.209-44.027A142.192,142.192,0,0,0,165.006,171.571Z" transform="translate(-68.757 -170.432)" fill="#d3d8e6"/>
      </g>
      <g id="Group_18820" data-name="Group 18820" transform="translate(133.182 109.163)">
        <path id="Path_53925" data-name="Path 53925" d="M81.808,250.188h-.027a.316.316,0,0,1-.288-.341c1.242-14.591,21.1-55.836,21.3-56.249a.32.32,0,0,1,.423-.147.313.313,0,0,1,.14.42c-.2.413-20.011,41.552-21.239,56.029A.315.315,0,0,1,81.808,250.188Z" transform="translate(-81.493 -193.422)" fill="#fff"/>
        <path id="Path_53925_-_Outline" data-name="Path 53925 - Outline" d="M81.808,250.688l-.068,0A.816.816,0,0,1,81,249.8c.287-3.371,1.582-8.42,3.85-15.007,1.81-5.257,4.243-11.511,7.23-18.586,5.184-12.278,10.224-22.732,10.272-22.832a.811.811,0,0,1,.733-.458.859.859,0,0,1,.333.067l.034.016a.814.814,0,0,1,.363,1.086l-.031.064c-2.043,4.266-20,42.074-21.159,55.787A.811.811,0,0,1,81.808,250.688Z" transform="translate(-81.493 -193.422)" fill="#d3d8e6"/>
      </g>
      <g id="Group_18821" data-name="Group 18821" transform="translate(151.261 161.941)">
        <path id="Path_53926" data-name="Path 53926" d="M140.682,229.757c-24.4,0-51.208-9.507-51.5-9.613a.309.309,0,0,1-.188-.4.3.3,0,0,1,.4-.186c.321.106,32.415,11.464,58.211,9.291,25.779-2.189,40.3-13.407,40.452-13.52a.317.317,0,0,1,.44.053.31.31,0,0,1-.053.44c-.147.114-14.806,11.452-40.786,13.656C145.373,229.673,143.041,229.757,140.682,229.757Z" transform="translate(-88.974 -215.263)" fill="#fff"/>
        <path id="Path_53926_-_Outline" data-name="Path 53926 - Outline" d="M140.682,230.257c-24.342,0-51.12-9.445-51.665-9.641a.794.794,0,0,1-.461-.408.821.821,0,0,1-.035-.629.794.794,0,0,1,1.049-.49l.049.017c2.812.974,28.134,9.519,51.115,9.519,2.37,0,4.668-.092,6.829-.274a91.7,91.7,0,0,0,29.652-7.486,56.725,56.725,0,0,0,10.531-5.928.793.793,0,0,1,.5-.174.814.814,0,0,1,.812.914.8.8,0,0,1-.313.543,58.312,58.312,0,0,1-10.842,6.119,87.442,87.442,0,0,1-12.83,4.581,97.42,97.42,0,0,1-17.373,3.055C145.514,230.162,143.153,230.257,140.682,230.257Z" transform="translate(-88.974 -215.263)" fill="#d3d8e6"/>
      </g>
      <g id="Group_18822" data-name="Group 18822" transform="translate(272.269 159.682)">
        <path id="Path_53927" data-name="Path 53927" d="M145.29,228.39a.316.316,0,0,1-.193-.065c-5.464-4.217-6.027-13.283-6.046-13.663a.313.313,0,0,1,.295-.333h.019a.309.309,0,0,1,.314.292c.007.094.568,9.166,5.807,13.209a.316.316,0,0,1,.053.44A.3.3,0,0,1,145.29,228.39Z" transform="translate(-139.05 -214.328)" fill="#fff"/>
        <path id="Path_53927_-_Outline" data-name="Path 53927 - Outline" d="M145.29,228.89a.813.813,0,0,1-.5-.167,13.253,13.253,0,0,1-3.379-4.012,21.143,21.143,0,0,1-1.863-4.517,26.562,26.562,0,0,1-1-5.507.837.837,0,0,1,.221-.605.79.79,0,0,1,.559-.253h.033a.809.809,0,0,1,.813.763v0a26.44,26.44,0,0,0,.953,5.116c.7,2.427,2.086,5.737,4.66,7.724l.007.005a.813.813,0,0,1,.141,1.129A.8.8,0,0,1,145.29,228.89Z" transform="translate(-139.05 -214.328)" fill="#d3d8e6"/>
      </g>
      <path id="Path_53928" data-name="Path 53928" d="M178.545,209.628s-8.9,17.29-50.645,13.1c-31.724-3.178-35.839.524-35.839.524s31.11,5.589,43.777,5.94c23.778.66,23.459-.65,41.532-9.313Z" transform="translate(66.659 -61.303)" fill="#fff"/>
      <path id="Path_53928_-_Outline" data-name="Path 53928 - Outline" d="M178.1,209.4l.941.286-1.206,10.53-.249.119c-1.926.923-3.667,1.775-5.2,2.526-5.476,2.678-9.094,4.447-12.985,5.519-3.823,1.053-7.986,1.464-14.847,1.464-2.347,0-5.12-.047-8.727-.147-12.56-.347-43.54-5.891-43.852-5.947l-1.005-.181.759-.683c.221-.2,2.5-1.941,14.427-1.941,5.914,0,13.247.434,21.8,1.291,4.308.432,8.465.651,12.354.651,15.981,0,25.432-3.7,30.547-6.806C176.331,212.752,178.083,209.432,178.1,209.4Zm-1.2,10.153.918-8.02a25.016,25.016,0,0,1-6.454,5.4,43.557,43.557,0,0,1-11.82,4.786,78.288,78.288,0,0,1-19.245,2.165c-3.922,0-8.112-.221-12.453-.656-8.516-.853-15.816-1.286-21.7-1.286a56.347,56.347,0,0,0-11.21.838c-.442.093-.813.187-1.123.276,6.63,1.157,31.228,5.339,42.032,5.638,3.6.1,6.362.146,8.7.146,13.322,0,16.3-1.458,27.392-6.881C173.415,221.243,175.074,220.431,176.905,219.552Z" transform="translate(66.659 -61.303)" fill="#d3d8e6"/>
    </g>
  </g>
</svg>
