<svg id="Group_19033" data-name="Group 19033" xmlns="http://www.w3.org/2000/svg" xmlns:xlink="http://www.w3.org/1999/xlink" width="129.314" height="63.452" viewBox="0 0 129.314 63.452">
  <defs>
    <clipPath id="clip-path">
      <rect id="Rectangle_6397" data-name="Rectangle 6397" width="129.314" height="63.452" fill="none"/>
    </clipPath>
  </defs>
  <g id="Group_19030" data-name="Group 19030">
    <g id="Group_19029" data-name="Group 19029" clip-path="url(#clip-path)">
      <path id="Path_54021" data-name="Path 54021" d="M44.848,0H13.983A15.2,15.2,0,0,0,0,9.233,15.151,15.151,0,0,1,5.968,8.015H36.833a15.2,15.2,0,0,1,15.2,15.2V57.485a15.15,15.15,0,0,1-1.218,5.968,15.2,15.2,0,0,0,9.233-13.983V15.2A15.2,15.2,0,0,0,44.848,0"/>
      <path id="Path_54022" data-name="Path 54022" d="M61.828,151.535a5.572,5.572,0,0,1,.155-1.3,5.084,5.084,0,1,0,6.911,6.69,5.583,5.583,0,0,1-7.067-5.385" transform="translate(-44.456 -112.796)"/>
      <path id="Path_54023" data-name="Path 54023" d="M64.761,108.049a11.8,11.8,0,0,0-9.085,4.27A12.306,12.306,0,0,1,72.6,128.694a11.808,11.808,0,0,0-7.84-20.645" transform="translate(-41.802 -81.125)"/>
    </g>
  </g>
  <path id="Path_54024" data-name="Path 54024" d="M279.435,5.988h3.986l4.066,8.212,4.046-8.212h3.985v14.04h-3.244l-.02-8.892-3.585,7.491H286.3l-3.6-7.491v8.892h-3.265Z" transform="translate(-209.803 -4.496)"/>
  <path id="Path_54025" data-name="Path 54025" d="M370.974,5.988l-5.067,9.553v4.486h-3.665V15.641l-5.167-9.653h3.665l3.325,6.029,3.244-6.029Z" transform="translate(-268.097 -4.496)"/>
  <path id="Path_54026" data-name="Path 54026" d="M279.435,99.012h10.494l-.02,2.924H283.1v3.124h6.289v2.924H283.1v5.067h-3.665Z" transform="translate(-209.803 -74.34)"/>
  <g id="Group_19032" data-name="Group 19032">
    <g id="Group_19031" data-name="Group 19031" clip-path="url(#clip-path)">
      <path id="Path_54027" data-name="Path 54027" d="M344.108,99.069a6.983,6.983,0,0,1,3.716,6.269,7.106,7.106,0,0,1-3.716,6.349,8.33,8.33,0,0,1-7.751.01,7.047,7.047,0,0,1-2.724-2.624,7.185,7.185,0,0,1-.991-3.735,6.982,6.982,0,0,1,3.715-6.269,8.449,8.449,0,0,1,7.751,0m-5.768,2.7a3.9,3.9,0,0,0-1.412,1.492,4.468,4.468,0,0,0,.01,4.206,4.074,4.074,0,0,0,1.412,1.5,3.557,3.557,0,0,0,1.923.55,3.508,3.508,0,0,0,1.913-.55,3.872,3.872,0,0,0,1.372-1.5,4.665,4.665,0,0,0,0-4.206,3.8,3.8,0,0,0-1.372-1.492,3.557,3.557,0,0,0-1.913-.541,3.658,3.658,0,0,0-1.933.541" transform="translate(-249.752 -73.676)"/>
      <path id="Path_54028" data-name="Path 54028" d="M402.164,99.012H414.2v3.024H410v11.015H406.33V102.036h-4.166Z" transform="translate(-301.95 -74.34)"/>
      <path id="Path_54029" data-name="Path 54029" d="M469.491,99.069a6.982,6.982,0,0,1,3.716,6.269,7.106,7.106,0,0,1-3.716,6.349,8.33,8.33,0,0,1-7.751.01,7.047,7.047,0,0,1-2.724-2.624,7.185,7.185,0,0,1-.991-3.735,6.982,6.982,0,0,1,3.715-6.269,8.449,8.449,0,0,1,7.751,0m-5.768,2.7a3.9,3.9,0,0,0-1.412,1.492,4.468,4.468,0,0,0,.01,4.206,4.074,4.074,0,0,0,1.412,1.5,3.557,3.557,0,0,0,1.923.55,3.508,3.508,0,0,0,1.913-.55,3.871,3.871,0,0,0,1.372-1.5,4.664,4.664,0,0,0,0-4.206,3.8,3.8,0,0,0-1.372-1.492,3.557,3.557,0,0,0-1.913-.541,3.658,3.658,0,0,0-1.933.541" transform="translate(-343.892 -73.676)"/>
      <path id="Path_54030" data-name="Path 54030" d="M285.343,206.077l-.961-2.484h-6.069l-.981,2.484h-3.765l6.029-14.04h3.765l5.888,14.04Zm-5.928-5.287H283.3l-1.923-5.007Z" transform="translate(-205.397 -144.184)"/>
      <path id="Path_54031" data-name="Path 54031" d="M358.033,206.077l-2.043-3.886h-2.724v3.886H349.6v-14.04h6.309a6.506,6.506,0,0,1,4.316,1.292,4.493,4.493,0,0,1,1.532,3.635,5.54,5.54,0,0,1-.641,2.734,4.434,4.434,0,0,1-1.863,1.792l2.924,4.586Zm-4.767-6.81h2.664a2.471,2.471,0,0,0,1.733-.561,2.092,2.092,0,0,0,.611-1.622,2.008,2.008,0,0,0-.611-1.572,2.5,2.5,0,0,0-1.733-.551h-2.664Z" transform="translate(-262.485 -144.184)"/>
      <path id="Path_54032" data-name="Path 54032" d="M410.925,192.037h12.037v3.024h-4.206v11.016h-3.665V195.061h-4.166Z" transform="translate(-308.528 -144.184)"/>
    </g>
  </g>
</svg>
